<svg width="40" height="40" viewBox="0 0 40 40" fill="none" xmlns="http://www.w3.org/2000/svg">
<g clip-path="url(#clip0_605_1351)">
<path d="M16.7727 11.9135C16.4943 11.7185 16.26 11.47 16.1046 11.179C16.093 11.1106 16.0752 11.017 16.0566 10.9014C16.1162 11.0162 16.1951 11.1577 16.2995 11.3142C16.5028 11.6202 16.6807 11.8034 16.7727 11.9135Z" fill="#FFB62B"/>
<path d="M9.7082 24.7787C9.68887 24.7748 9.66567 24.8 9.64247 24.8393C9.64479 24.8338 9.64479 24.8314 9.64402 24.8314C9.64247 24.8314 9.63242 24.8495 9.62546 24.8723C9.62546 24.8723 9.6252 24.8728 9.62469 24.8739C9.57442 24.9745 9.53189 25.1232 9.54271 25.1531C9.54426 25.1562 9.55741 25.1916 9.57055 25.19C9.57597 25.1892 9.59375 25.1829 9.62546 24.947C9.64479 24.969 9.6881 24.9517 9.75074 24.9289C9.7461 24.8377 9.73295 24.7842 9.7082 24.7787Z" fill="#FFB62B"/>
<path d="M2.80329 22.9849C2.80329 22.9849 2.80948 23.0053 2.82108 23.0462C2.75457 23.1083 2.71513 23.1461 2.7074 23.139C2.70585 23.1382 2.70508 23.1351 2.70508 23.1319C2.70508 23.1005 2.75225 22.9927 2.80329 22.9849Z" fill="#FFB62B"/>
<path d="M4.69134 21.7819C4.94576 21.6828 5.08186 21.6403 5.14605 21.627C4.95195 21.7386 4.7532 21.8503 4.55291 21.962C3.51434 22.5392 1.53774 23.5836 1.49288 23.5034C1.45344 23.4334 3.09752 22.3992 4.69134 21.7819Z" fill="#FFB62B"/>
<path d="M8.83884 19.2566C8.84503 19.2668 8.71357 19.3691 8.47461 19.5374C8.48389 19.5012 8.49317 19.465 8.50168 19.4296C8.7793 19.2731 8.83498 19.2511 8.83884 19.2566Z" fill="#FFB62B"/>
<path d="M16.1172 11.3145C16.1048 11.3176 16.0739 11.25 16.0391 11.1548C16.0561 11.1532 16.0731 11.1525 16.0901 11.1509C16.0947 11.1603 16.1002 11.1698 16.1056 11.1792C16.1203 11.2649 16.1264 11.3121 16.1172 11.3145Z" fill="#FFB62B"/>
<path d="M30.8532 5.95668C30.994 5.82063 30.97 5.59335 30.8053 5.49347C29.8696 4.9241 28.7575 4.32799 27.429 3.80816C25.9055 3.2152 24.5174 2.88726 23.3984 2.70166C23.7789 2.82277 24.3164 3.0178 24.9281 3.31822C25.6295 3.66346 26.2118 4.04094 26.6704 4.38619C27.2132 4.79041 27.7592 5.1152 28.4188 5.64919C28.9586 6.08329 29.3994 6.48437 29.7319 6.80602C29.7768 6.8477 29.8425 6.84455 29.957 6.82647L30.8563 5.95904L30.8532 5.95589V5.95668Z" fill="#FFB62B"/>
<path d="M39.1405 15.595C38.8775 14.8628 38.7314 14.4531 38.5381 14.041C38.1963 13.312 37.8684 12.7992 37.5714 12.3384C37.2095 11.7792 36.7161 11.0707 36.0603 10.2795C36.0186 10.226 35.9312 10.2205 35.8809 10.2693L33.5014 12.6317C33.4875 12.6451 33.479 12.66 33.4736 12.6813C33.4117 12.9486 33.3444 13.3246 33.305 13.776C33.2772 14.1212 33.2857 14.3634 33.2772 14.6772C33.2385 15.9732 33.213 16.9523 33.3808 16.9751C33.4256 16.983 33.4427 16.9217 33.6561 16.6614C33.793 16.4907 33.9693 16.2744 34.216 16.0786C34.3034 16.0094 34.4658 15.8883 34.6923 15.7751C34.987 15.628 35.2112 15.5171 35.3682 15.5769C35.6567 15.6823 35.6288 16.324 35.618 16.5348C35.4494 19.6624 34.3644 22.7436 33.8602 23.7589C33.2803 24.8976 31.9934 27.0225 29.4515 28.8415C28.1547 29.7695 26.1881 30.4034 22.2349 31.642C21.2721 31.8205 20.6481 31.7938 20.2506 31.7309C20.2506 31.7309 20.1384 31.7136 20.0124 31.6939L19.5871 31.5736L18.3706 36.0208L13.4113 35.6858L13.4005 35.7015L13.3526 35.7723L13.3201 35.7495L13.2211 35.6803L13.2087 35.6716L13.3618 35.6819L13.4113 35.6858L14.2774 34.4016L14.1475 34.3111L14.1429 34.3072C14.0617 34.2396 14.0207 34.2065 14.0068 34.1971C13.6905 33.984 13.3959 33.737 13.0703 33.5389C12.7996 33.3745 12.4192 33.1142 11.9815 32.7115C11.9397 32.7493 11.8987 32.7862 11.857 32.824C11.8276 32.8688 11.7912 32.916 11.7471 32.964C11.6288 33.0922 11.5028 33.1692 11.4069 33.2164C11.2282 33.2424 11.113 33.2581 11.113 33.2581C11.113 33.2581 10.8632 33.1425 10.4758 32.9624C10.0458 33.3863 9.60582 33.8117 9.15575 34.2396C8.8209 34.5581 8.48682 34.8711 8.1543 35.1786C8.20456 35.243 8.28576 35.3437 8.39325 35.4585C8.84101 35.9406 9.28876 36.1978 9.56947 36.3558C9.56947 36.3558 11.9614 37.7038 13.3611 38.1678C13.443 38.1945 13.5266 38.2212 13.5266 38.2212C13.5521 38.2299 13.5799 38.2385 13.6085 38.2472C14.6107 38.5633 17.4311 39.3506 21.136 39.2287C22.4785 39.1846 24.7598 39.0816 27.5012 38.1182C29.2721 37.4954 31.06 36.5186 33.0784 34.9395C34.4518 33.8652 37.6859 31.042 39.2333 26.2935C39.2333 26.2935 41.0181 20.8168 39.1405 15.595ZM18.6707 37.2406L18.5377 37.2028L18.7008 37.2138C18.6908 37.2217 18.6807 37.2303 18.6707 37.2406ZM19.8469 36.5115L19.8515 36.4439C19.8956 36.4486 19.9397 36.4541 19.9838 36.4589C19.9389 36.4754 19.8933 36.4927 19.8469 36.5115ZM19.9227 31.745C19.9312 31.7379 19.9621 31.7663 19.9838 31.7867C19.9629 31.771 19.9428 31.7568 19.9227 31.745Z" fill="#FFB62B"/>
<path d="M19.9849 31.7864C19.964 31.7707 19.9439 31.7566 19.9238 31.7448C19.9323 31.7377 19.9633 31.766 19.9849 31.7864Z" fill="#FFB62B" stroke="#DBC34C" stroke-width="0.0362435" stroke-miterlimit="10"/>
<path d="M17.1523 22.8843L17.1601 22.8921V22.8843H17.1523Z" fill="#FFB62B"/>
<path d="M10.5464 27.4873C10.5317 27.4999 10.5178 27.5133 10.5039 27.5258L10.5596 27.5872L10.6106 27.5392C10.5882 27.5211 10.5673 27.5038 10.5464 27.4873Z" fill="#FFB62B"/>
<path d="M16.0084 30.2625C16.4963 29.5194 17.0825 28.7227 17.7831 27.9072C17.9293 27.7373 18.5657 27.0028 19.5038 26.1141C20.1588 25.4929 20.7635 24.984 21.2708 24.583C21.1811 24.4162 21.0899 24.2479 20.9947 24.0781C20.8076 23.7431 20.6189 23.4214 20.4294 23.1108C20.1371 22.7663 19.8541 22.5335 19.6445 22.3825C19.4234 22.2229 19.2432 22.1262 18.9137 21.9476C18.7103 21.8375 18.4389 21.6921 18.0639 21.5411C17.7599 21.4176 17.7336 21.431 17.5767 21.3594C17.3462 21.254 17.0353 21.0574 16.7221 20.6587C16.5304 20.8875 16.3378 21.1164 16.1452 21.3452C15.614 21.9555 14.9698 22.613 14.1957 23.2696C12.8277 24.4312 11.4767 25.2318 10.3585 25.7823C10.2889 26.0009 10.2108 26.2455 10.1404 26.4649C10.0677 26.6922 9.9958 26.9202 9.92311 27.1483C8.87603 26.3438 7.82896 25.54 6.78188 24.7355L8.40121 21.6032L4.15568 24.0395L5.16951 27.2631L5.64587 26.8329C6.03253 27.1467 6.42306 27.4605 6.81745 27.7743C7.41755 28.2532 8.0161 28.7243 8.61078 29.1883C8.45148 29.4855 8.2914 29.7828 8.1321 30.0801C8.2365 30.2043 8.34167 30.3278 8.44607 30.4521C6.39831 32.5707 4.34979 34.6885 2.30204 36.8072C2.25796 36.8111 1.3408 36.9015 0.975017 37.6534C0.644036 38.3336 1.01136 39.0453 1.37096 39.4134C1.79319 39.8475 2.59976 40.214 3.33287 39.853C3.89894 39.5746 4.23766 38.9518 4.18507 38.2864C6.3465 36.2362 8.50871 34.1852 10.6701 32.135C10.7011 32.1531 10.732 32.172 10.7637 32.1908C10.9795 32.3222 11.1813 32.459 11.3692 32.5982C11.5502 32.4795 11.7335 32.3568 11.9183 32.2302C12.0451 32.1437 12.1688 32.0579 12.291 31.9714C12.5996 32.2742 12.9367 32.5848 13.3041 32.8986C13.8222 33.3414 14.3295 33.7299 14.8113 34.068C14.7192 34.2301 14.6234 34.3952 14.5228 34.5627C14.4091 34.7514 14.2955 34.9339 14.1818 35.1101C15.4067 35.1974 16.6317 35.2846 17.8574 35.3712C18.3654 33.7472 18.8735 32.1224 19.3808 30.4985C19.2594 30.6086 18.1729 31.5932 18.0476 31.7064C17.9711 31.7756 17.074 32.5888 16.9959 32.6588C16.1445 32.0076 15.2923 31.3564 14.4408 30.7053C14.4478 30.7029 15.0348 30.537 15.0417 30.5354C15.0595 30.5299 15.9898 30.2672 16.0084 30.2625ZM17.1529 23.7714L17.1591 23.71H17.1707H17.1769C17.1753 23.7155 17.1738 23.7202 17.1722 23.725C17.1668 23.7415 17.1622 23.7588 17.1567 23.7761C17.1552 23.7808 17.1529 23.7863 17.1513 23.7918L17.1529 23.7722V23.7714ZM17.098 23.7108V23.7179L17.091 23.7108H17.098ZM17.033 25.0548C17.033 25.0548 17.0384 25.047 17.0408 25.0438L17.0384 25.0658C17.0384 25.0658 17.0423 25.0729 17.0446 25.0768C17.05 25.0871 17.0562 25.0973 17.0624 25.1067L17.0431 25.124L17.033 25.1335L17.0384 25.0658C17.0361 25.0619 17.0346 25.0587 17.033 25.0548ZM10.5596 27.5871L10.5039 27.5258C10.5178 27.5132 10.5317 27.4998 10.5464 27.4872C10.5673 27.5037 10.5882 27.521 10.6106 27.5391L10.5596 27.5871ZM12.6081 29.1631C12.5833 29.1843 12.5586 29.2056 12.5338 29.2268C12.4279 29.123 12.3034 29.0129 12.1603 28.902C12.0405 28.8092 11.9237 28.729 11.8139 28.6606C11.8549 28.6173 11.8951 28.5749 11.9361 28.5316C13.1687 27.2285 14.403 25.9246 15.6356 24.6215C16.0671 24.5334 16.4979 24.4461 16.9294 24.358C16.8907 24.7473 16.8521 25.1366 16.8134 25.5259C15.4114 26.7386 14.0101 27.9504 12.6081 29.1631Z" fill="#FFB62B"/>
<path d="M10.6106 27.5392L10.5596 27.5872L10.5039 27.5258C10.5178 27.5133 10.5317 27.4999 10.5464 27.4873C10.5673 27.5038 10.5882 27.5211 10.6106 27.5392Z" fill="#FFB62B"/>
<path d="M17.0995 24.3579L17.0972 24.3823C17.0949 24.3784 17.0933 24.3744 17.0918 24.3705C17.0941 24.3666 17.0972 24.3618 17.0995 24.3579Z" fill="#FFB62B"/>
<path d="M17.0918 24.457L17.098 24.3823C17.1057 24.3988 17.1142 24.4138 17.1235 24.4271L17.0918 24.457Z" fill="#FFB62B"/>
<path d="M19.4575 17.6051C19.2811 18.3184 20.3251 19.0828 20.5424 19.2416C20.8757 19.4854 21.1541 19.6891 21.5609 19.7182C22.0411 19.7528 22.2793 19.5122 22.5422 19.6757C22.676 19.7591 22.758 19.9997 22.915 20.4771C23.0952 21.0229 23.0905 21.1526 23.2197 21.2116C23.4478 21.3162 23.8546 21.0905 23.9992 20.7775C24.0471 20.6737 24.075 20.5408 24.0332 20.2435C23.959 19.7182 23.7602 19.3336 23.6945 19.2086C23.2112 18.2908 22.9691 17.8316 22.949 17.8056C22.4943 17.2244 21.4573 16.2729 20.6105 16.5363C20.264 16.6441 19.9377 16.9586 19.872 17.0239C19.6763 17.2174 19.5131 17.3786 19.4575 17.6043V17.6051Z" fill="#FFB62B"/>
<path d="M25.1961 13.6202C25.585 14.4279 26.0637 15.304 26.6545 16.2146C27.0219 16.7809 27.3923 17.2991 27.7565 17.771L38.1925 7.00479L38.5815 2.27051L33.9794 3.01604L25.002 12.9722L25.1961 13.621V13.6202Z" fill="#FFB62B"/>
<path d="M16.1171 11.3145C16.0785 11.3247 15.8534 10.6224 15.896 10.6043C15.9137 10.5972 15.9594 10.7136 16.0576 10.9016C16.1001 11.1619 16.1341 11.3097 16.1171 11.3145Z" fill="#FFB62B"/>
<path d="M10.6106 27.5392L10.5596 27.5872L10.5039 27.5258C10.5178 27.5133 10.5317 27.4999 10.5464 27.4873C10.5673 27.5038 10.5882 27.5211 10.6106 27.5392Z" fill="#FFB62B"/>
<path d="M17.0995 24.3579L17.0972 24.3823C17.0949 24.3784 17.0933 24.3744 17.0918 24.3705C17.0941 24.3666 17.0972 24.3618 17.0995 24.3579Z" fill="#FFB62B"/>
<path d="M17.1601 22.8843V22.8921L17.1523 22.8843H17.1601Z" fill="#FFB62B"/>
<path d="M17.2435 22.8828C17.242 22.8883 17.2404 22.8938 17.2389 22.8993C17.2334 22.9174 17.228 22.9363 17.2226 22.9552L17.2188 22.9512L17.2249 22.8836H17.2373L17.2435 22.8828Z" fill="#FFB62B"/>
<path d="M17.0995 24.3579L17.0972 24.3823C17.0949 24.3784 17.0933 24.3744 17.0918 24.3705C17.0941 24.3666 17.0972 24.3618 17.0995 24.3579Z" fill="#FFB62B"/>
<path d="M17.2384 22.8995C17.2315 22.9231 17.2245 22.9475 17.2168 22.9727L17.2245 22.8838H17.2369L17.2384 22.8995Z" fill="#FFB62B"/>
<path d="M17.0995 24.3579L17.0972 24.3823C17.0949 24.3784 17.0933 24.3744 17.0918 24.3705C17.0941 24.3666 17.0972 24.3618 17.0995 24.3579Z" fill="#FFB62B"/>
<path d="M17.0918 24.457L17.098 24.3823C17.1057 24.3988 17.1142 24.4138 17.1235 24.4271L17.0918 24.457Z" fill="#FFB62B"/>
<path d="M17.0995 24.3579L17.0972 24.3823C17.0949 24.3784 17.0933 24.3744 17.0918 24.3705C17.0941 24.3666 17.0972 24.3618 17.0995 24.3579Z" fill="#FFB62B"/>
<path d="M17.1042 24.3941L17.1026 24.4468L17.0918 24.457L17.098 24.3823C17.098 24.3823 17.1019 24.3902 17.1042 24.3941Z" fill="#FFB62B"/>
<path d="M17.1601 22.8843V22.8921L17.1523 22.8843H17.1601Z" fill="#FFB62B"/>
<path d="M12.6087 29.1632C12.5839 29.1845 12.5592 29.2057 12.5344 29.2269C12.4285 29.1231 12.304 29.013 12.1609 28.9021C12.041 28.8093 11.9243 28.7291 11.8145 28.6607C11.8554 28.6175 11.8957 28.575 11.9366 28.5317L12.6087 29.1632Z" fill="#FFB62B"/>
<path d="M17.7075 12.6036C17.7639 12.6036 17.8096 12.5571 17.8096 12.4998C17.8096 12.4425 17.7639 12.396 17.7075 12.396C17.6512 12.396 17.6055 12.4425 17.6055 12.4998C17.6055 12.5571 17.6512 12.6036 17.7075 12.6036Z" fill="#FFB62B"/>
<path d="M19.9849 31.7864C19.964 31.7707 19.9439 31.7566 19.9238 31.7448C19.9323 31.7377 19.9633 31.766 19.9849 31.7864Z" fill="#FFB62B" stroke="#DBC34C" stroke-width="0.0362435" stroke-miterlimit="10"/>
<path d="M18.0691 31.3051C17.7242 31.5749 17.3801 31.8438 17.0352 32.1136C16.3763 31.6732 15.7175 31.2328 15.0586 30.7924C15.1769 30.7798 15.2952 30.7664 15.4128 30.7531C15.4213 30.7578 15.4298 30.7633 15.4383 30.768C15.4329 30.7609 15.4313 30.7554 15.4337 30.7507C15.4437 30.7484 15.4545 30.746 15.4646 30.7429C15.7615 30.6697 16.0585 30.5966 16.3555 30.5234C16.804 30.7271 17.2525 30.9308 17.701 31.1345H17.7018C17.7575 31.1534 17.8062 31.1746 17.8487 31.2013H17.8495C17.923 31.2359 17.9957 31.2705 18.0691 31.3051Z" fill="#FFB62B"/>
<path d="M15.4645 30.7429C15.4545 30.746 15.4436 30.7484 15.4336 30.7507C15.4367 30.7436 15.4467 30.7421 15.4645 30.7429Z" fill="#FFB62B"/>
<path d="M28.5912 19.299C27.7591 18.6935 27.2487 18.0344 26.9634 17.5988C26.0075 16.5088 25.4469 15.5069 25.1159 14.7959C24.6395 13.7759 24.3928 12.8299 24.2111 12.1473C23.9374 11.11 23.9559 10.8457 23.7177 10.0035C23.6334 9.67159 23.5298 9.34836 23.427 9.02593C23.2352 8.42589 22.9166 7.42634 22.4441 6.92381C21.5316 5.28569 20.4512 4.15402 19.8411 3.56892C19.3454 3.09234 18.4599 2.25008 17.0641 1.45658C15.0295 0.294239 12.882 -0.202782 12.7227 0.0756127C12.6051 0.284016 13.7202 0.732279 14.3227 2.00786C14.5523 2.49466 14.6451 3.23626 14.673 3.49185C14.6761 3.53274 14.6343 3.56105 14.5949 3.54297C14.202 3.3731 12.568 2.67475 11.4049 2.37827C10.3091 2.09751 8.47636 1.78609 8.47636 1.88911C8.47636 1.99213 9.39816 3.05853 9.70981 4.06043C9.84978 4.51184 9.92788 5.20468 9.95031 5.41073C9.9534 5.43904 9.92556 5.45949 9.89463 5.45162C9.59767 5.37219 8.28303 5.01909 7.37747 4.91371C6.62658 4.82563 5.48052 4.83664 5.14103 4.839C5.10159 4.839 5.08226 4.87989 5.10778 4.90584C5.30652 5.11975 5.92595 5.80787 6.2345 6.41578H6.23992C6.47269 6.87348 6.60724 7.29894 6.68612 7.65047C5.36375 8.55093 4.4172 9.85325 3.86814 10.7977C2.72904 12.1968 0.551372 15.2945 0.0804202 19.7339C0.0688204 19.8393 0.0518073 19.9989 0.0347943 20.205C-0.0216581 20.8805 -0.378932 26.3776 3.36007 31.3384C3.65625 31.7308 4.11329 32.2994 4.7389 32.9364C4.74122 32.9341 4.74432 32.9317 4.74664 32.9286L4.8549 33.0473L7.45171 30.607L7.31483 30.456C7.28777 30.4089 7.24678 30.3223 7.24059 30.2075C7.23905 30.1784 7.23518 30.0636 7.2955 29.937C7.35504 29.812 7.43315 29.7663 7.57158 29.6421C7.64891 29.5729 7.75563 29.4699 7.87394 29.3291C7.36587 28.8753 6.83615 28.42 6.28477 27.9654C6.10072 27.8129 5.91667 27.6634 5.73339 27.5164C5.58105 27.7311 5.38849 27.9686 5.14567 28.2084C5.0869 28.2658 5.0289 28.3201 4.97167 28.372L3.42426 23.5937L9.28912 20.5416C9.14374 20.9875 8.90014 21.5899 8.5823 22.3779C8.20183 23.3192 7.82522 24.071 7.55302 24.583C8.24514 25.1555 8.93726 25.7288 9.62938 26.3021C9.70671 25.7163 9.76316 25.1799 9.75157 24.929C9.68893 24.9518 9.64562 24.9691 9.62629 24.9471C9.59458 25.1831 9.57679 25.1893 9.57138 25.1901C9.55823 25.1917 9.54509 25.1563 9.54354 25.1532C9.53272 25.1233 9.57525 24.9747 9.62551 24.874C9.62551 24.874 9.62577 24.8735 9.62629 24.8724C9.63325 24.8496 9.6433 24.8315 9.64485 24.8315C9.64562 24.8315 9.64562 24.8339 9.6433 24.8394C9.6665 24.8001 9.6897 24.7749 9.70903 24.7788C9.73378 24.7843 9.74693 24.8378 9.75157 24.929C9.79874 24.911 9.85674 24.8905 9.92324 24.8819C10.0416 24.8661 10.1444 24.8921 10.2171 24.9188C10.1498 24.745 10.0655 24.4894 10.0153 24.1717C9.96964 23.8799 9.88922 23.1399 10.2542 22.1349C10.9579 20.1955 12.4566 19.638 12.2571 18.4048C12.237 18.2806 12.2045 18.1823 12.1829 18.1225C12.0073 17.7309 11.5874 17.6169 11.1335 16.5347C10.9061 15.9992 10.5728 15.1774 10.7801 14.1904C10.9456 13.3922 11.4219 12.6938 11.6013 12.7119C11.8032 12.7324 11.0662 14.6387 11.6717 16.0401C12.1086 17.0475 12.8348 17.6326 13.7257 18.3356C14.376 18.8484 14.7232 19.0159 17.9325 20.6981C19.4127 21.4735 20.6206 22.1199 21.2849 23.1533C21.6661 23.7455 21.8254 24.3793 21.8254 24.3793C21.9855 25.0108 21.8254 25.8916 21.9097 25.8916C21.994 25.8916 26.3718 23.6377 26.296 23.5575C26.2202 23.4781 25.4948 23.5677 24.9117 23.3672C24.2977 23.1556 23.894 22.8309 23.6868 22.6382C23.4401 22.3598 23.1602 21.9941 22.9073 21.5403C22.5686 20.9269 22.4928 20.0304 22.3134 19.9329C22.134 19.8354 21.6885 20.0359 21.2122 19.9588C20.6708 19.8707 20.2873 19.6545 20.0854 19.5231C19.7436 19.0953 19.3763 18.5724 19.0345 17.9519C18.6169 17.1914 18.1344 15.9937 18.1653 15.893C18.1962 15.7931 18.6332 15.6948 18.9951 15.6437C19.8109 15.525 20.4605 15.7829 21.0714 16.0377C21.6158 16.2618 22.4619 16.6897 23.3249 17.4879C23.5468 17.9055 23.7734 18.3899 23.9752 18.9412C24.1802 19.4972 24.3008 20.422 24.4184 20.4763C24.539 20.5282 25.1159 20.1955 25.7941 20.3245C26.4499 20.4503 26.8427 20.8215 26.9657 20.9481C27.1482 21.2053 27.3639 21.5741 27.5178 22.0476C27.7228 22.6814 27.6075 23.519 27.6918 23.5858C28.0545 23.8752 29.1859 23.1769 29.8811 22.326C30.4642 21.6111 30.6908 20.8483 30.789 20.3686C30.6544 20.286 29.4349 19.9124 28.5912 19.299ZM1.4724 23.5316C1.47008 23.5276 1.47008 23.5221 1.47085 23.5158L1.47781 23.5371C1.47781 23.5371 1.47317 23.5339 1.4724 23.5316ZM20.012 10.5886C20.0189 11.1155 19.8542 11.6321 19.4784 11.9829C19.2959 10.6955 18.917 9.2768 18.4723 8.33466C18.9935 8.53992 19.4266 8.96144 19.6679 9.35466C19.7289 9.45768 19.7854 9.56856 19.8303 9.68181C19.8349 9.68181 19.8395 9.67945 19.8442 9.67866C19.9524 10.1018 20.0104 10.3424 20.0274 10.4832C20.0313 10.517 20.0352 10.55 20.0383 10.5823C20.0298 10.5846 20.0205 10.587 20.012 10.5886Z" fill="#FFB62B"/>
</g>
<defs>
<clipPath id="clip0_605_1351">
<rect width="40" height="40" fill="white"/>
</clipPath>
</defs>
</svg>
