<?xml version="1.0" encoding="UTF-8" standalone="no"?>
<svg
   id="Layer_1"
   data-name="Layer 1"
   viewBox="0 0 1500.0001 504.1"
   version="1.1"
   sodipodi:docname="SEOLogo.svg"
   inkscape:version="1.4 (e7c3feb1, 2024-10-09)"
   width="1500"
   height="504.10001"
   xmlns:inkscape="http://www.inkscape.org/namespaces/inkscape"
   xmlns:sodipodi="http://sodipodi.sourceforge.net/DTD/sodipodi-0.dtd"
   xmlns="http://www.w3.org/2000/svg"
   xmlns:svg="http://www.w3.org/2000/svg">
  <sodipodi:namedview
     id="namedview18"
     pagecolor="#505050"
     bordercolor="#eeeeee"
     borderopacity="1"
     inkscape:showpageshadow="0"
     inkscape:pageopacity="0"
     inkscape:pagecheckerboard="0"
     inkscape:deskcolor="#505050"
     inkscape:zoom="0.23190288"
     inkscape:cx="769.71878"
     inkscape:cy="252.26078"
     inkscape:window-width="1200"
     inkscape:window-height="916"
     inkscape:window-x="0"
     inkscape:window-y="38"
     inkscape:window-maximized="0"
     inkscape:current-layer="Layer_1">
    <inkscape:page
       x="0"
       y="0"
       width="1500.0001"
       height="504.10001"
       id="page2"
       margin="0"
       bleed="0" />
  </sodipodi:namedview>
  <defs
     id="defs1">
    <style
       id="style1">
      .cls-1 {
        stroke-width: 9px;
      }

      .cls-1, .cls-2, .cls-3 {
        fill: #ffc332;
      }

      .cls-1, .cls-3 {
        stroke: #ffc332;
      }

      .cls-3 {
        stroke-miterlimit: 10;
      }
    </style>
  </defs>
  <g
     id="g6"
     transform="translate(-404.86949,-0.59569763)">
    <path
       class="cls-1"
       d="m 1553.74,409.8 c -175.01,-27.66 -48.59,-207.31 87.89,-109.53 l -28.3985,40.51294 c -23.04,-15.74 -53.3415,-27.37294 -80.8815,-19.10294 -14.71,6.54 -9.48,24.1 4.78,28.02 21.3,6.47 41.09,8.94 64.6,16.95 44.34,13.47 57.53,63.34 33.42,99.03 -37.92,49.01 -132.85,33.82 -173.68,-1.46 l 29.5296,-42.19865 c 18.7,20.61 49.0104,31.77865 76.5804,27.99865 6.16,-0.84 12.47,-2.47 17.26,-6.45 4.79,-3.97 7.65,-10.79 5.47,-16.62 -1.07,-2.87 -3.23,-5.23 -5.61,-7.16 -8.74,-7.08 -20.57,-8.35 -30.95,-9.99 z"
       id="path1"
       sodipodi:nodetypes="ccccccccccccccc" />
    <polygon
       class="cls-1"
       points="1025.64,493.83 807.12,183.8 776.24,233.71 775.99,489.05 782.18,489.38 860.19,292.71 902.54,353.24 874.91,415.78 947.09,416.24 980.79,462.37 856.18,462.41 841.73,494.03 720.32,494.36 719.93,402.91 623.64,402.92 622.08,493.74 566.84,493.74 566.45,269.92 622.65,270.52 623.18,353 717.88,352.9 718.73,13.46 774.93,13.46 774.23,137.61 860.21,13.46 925.71,13.57 842.8,135.68 1093.85,493.74 "
       id="polygon1" />
    <polygon
       class="cls-1"
       points="948.22,13.81 1044.11,140.77 1044.07,13.46 1095.33,13.46 1095.34,235.52 1040.94,235.44 944.91,102.61 945.07,247.63 890.68,170.2 890.71,98.9 "
       id="polygon2" />
    <polygon
       class="cls-1"
       points="1117.8,237.39 1117.74,13.46 1179.45,13.46 1179.66,237.39 "
       id="polygon3" />
    <path
       class="cls-1"
       d="m 1355.66,177.64 -0.04,-20.42 -45.65,0.03 0.17,-47.97 104.41,1.88 c 0,0 0.04,83.35 -0.21,83.61 -43.48,48.73 -113.23,54.12 -161.42,25.76 -37.71,-22.19 -62.23,-65.72 -50.61,-120.83 19.06,-91.54 154.54,-120.16 206.5,-36.73 l -45.3305,26.03781 C 1355.5295,76.83781 1344.84,67.7 1332,63.53 c -31.14,-10.34 -63.24,12.98 -73.33,42.52 -11.53,37 18.94,81.89 58.19,81.71 13.37,-0.39 28.15,-4.14 38.8,-10.12 z"
       id="path3"
       sodipodi:nodetypes="cccccccccccccc" />
    <polygon
       class="cls-1"
       points="1435.37,13.47 1434.3,237.75 1491.02,237.75 1491.25,147.96 1587.04,148.2 1586.86,237.75 1644.35,237.75 1644.43,13.47 1585.22,13.9 1585.71,98.23 1489.46,98.2 1489.59,13.47 "
       id="polygon4" />
    <polygon
       class="cls-1"
       points="1785.24,63.67 1849.92,63.74 1849.92,13.47 1665.21,13.47 1665.34,61.52 1729.29,62.57 1728.73,237.75 1785.88,237.75 "
       id="polygon5" />
    <path
       class="cls-1"
       d="m 1026.96,367.73 c 5.94,-21.83 12.44,-42.93 28.28,-59.08 4.02,-4.1 10.87,-10.27 15.57,-13.57 22.19,-15.61 46.55,-23.08 73.67,-22.45 36.87,0 75.56,22.76 91.27,57.16 0,0 -46.9,22.95 -47.42,22.77 -17.96,-47.68 -88.18,-38.57 -104.68,5.76 -25.34,70.67 63.2,124.94 107.35,56.51 l 43.81,22.13 c -9.85,25.86 -35.25,47.03 -61.07,54.44 -2.46,0.71 -4.87,1.56 -7.36,2.14 -8.93,2.09 -18.03,3.1 -27.2,3.06 -9.44,-0.7 -17.9,-0.87 -26.75,-6.9 z"
       id="path5"
       sodipodi:nodetypes="ccccccccccccccc" />
    <polygon
       class="cls-1"
       points="1314.74,365.15 1384.22,272.6 1454.26,272.6 1366,375.42 1459.89,495.03 1388.44,495.16 1331.68,409.03 1312.55,432.31 1313.17,494.36 1258.72,494.36 1258.59,272.6 1314.57,272.6 "
       id="polygon6" />
  </g>
</svg>
