<?xml version="1.0" encoding="UTF-8" standalone="no"?>
<svg
   id="Layer_1"
   data-name="Layer 1"
   viewBox="0 0 500.00001 499.99999"
   version="1.1"
   sodipodi:docname="khSquareLogoBlack.svg"
   inkscape:version="1.4 (e7c3feb1, 2024-10-09)"
   width="500"
   height="500"
   xmlns:inkscape="http://www.inkscape.org/namespaces/inkscape"
   xmlns:sodipodi="http://sodipodi.sourceforge.net/DTD/sodipodi-0.dtd"
   xmlns="http://www.w3.org/2000/svg"
   xmlns:svg="http://www.w3.org/2000/svg">
  <sodipodi:namedview
     id="namedview18"
     pagecolor="#505050"
     bordercolor="#eeeeee"
     borderopacity="1"
     inkscape:showpageshadow="0"
     inkscape:pageopacity="0"
     inkscape:pagecheckerboard="0"
     inkscape:deskcolor="#505050"
     inkscape:zoom="0.53966529"
     inkscape:cx="497.5306"
     inkscape:cy="212.16854"
     inkscape:window-width="1200"
     inkscape:window-height="916"
     inkscape:window-x="0"
     inkscape:window-y="38"
     inkscape:window-maximized="0"
     inkscape:current-layer="Layer_1" />
  <defs
     id="defs1">
    <style
       id="style1">
      .cls-1 {
        stroke-miterlimit: 10;
      }

      .cls-1, .cls-2 {
        fill: #fff;
        stroke: #fff;
      }

      .cls-2 {
        stroke-width: 9px;
      }
    </style>
  </defs>
  <g
     id="g18"
     style="fill:#000000"
     transform="matrix(0.96417205,0,0,0.96417205,-3.6336802,2.3651685)">
    <path
       id="path6"
       class="cls-1"
       d="m 122.57,359.86 2.68,23.69 27,3.36 c 2.36,-2.25 25.77,-18.34 25.77,-18.34 L 170,344.35 c 0,0 -3.4,-3.02 -3.27,-3.01 l -24.91,-7.63 c 0,0 -12.67,17.56 -19.26,26.16 v 0 z"
       style="fill:#000000;stroke:#000000;stroke-opacity:1" />
    <path
       id="path2"
       class="cls-1"
       d="m 209.18,360.24 c 1.01,-2.26 2.07,-4.5 3.17,-6.72 0.09,-0.09 0.17,-0.19 0.22,-0.31 0.32,-0.74 0.7,-1.45 1.08,-2.15 5.23,-10.63 13.98,-16.97 22.79,-25.53 8.56,-8.32 17.12,-16.64 25.69,-24.95 v 0 c 2.82,-2.74 4.91,-4.78 7.73,-7.52 -3.85,-7.32 -8.59,-14.21 -14.18,-20.4 -1.69,-1.86 -2.93223,-3.00257 -4.90223,-4.59257 L 220.67,296.74 c 0.33,2.21 -0.67,10.08 -0.67,10.97 -0.91,2.08 -3.24,3.45 -4.9,4.97 -7.14,6.32 -14.04,12.89 -21.32,19.06 -1.59,1.34 -3.22,2.64 -4.71,4.08 -0.37,0.44 -0.86,0.77 -1.4,0.99 0.67,2.28 1.34,4.56 1.97,6.85 0.52,1.85 1.04,3.7 1.54,5.55 0.51,1.87 1.08,3.73 1.54,5.62 0.27,1.14 0.7,2.4 0.51,3.57 -0.31,1.97 -1.65,4.1 -3.74,4.68 -0.84,0.23 -1.72,0.36 -2.58,0.55 1.09,3.82 2.12,7.65 3.1,11.49 0.96,-0.34 1.94,-0.65 2.94,-0.9 13.46,-2.47 7.38,2.36 16.22,-13.99 v 0 z"
       style="fill:#000000;stroke:#000000;stroke-opacity:1"
       sodipodi:nodetypes="cccccsscccccccccccccccccscc" />
    <path
       id="path7"
       class="cls-1"
       d="m 295.91,224.18 c -0.08,0.1 -13.99,14.94 -13.99,14.94 0.04,0.01 5.77,3.82 5.77,3.82 0,0 4.81,17.24 9.32,23.45 4.5,-4.37 8.34,-7.78 12.84,-12.14 -0.44,0.03 -4.62,-3.58 -4.62,-3.58 0,0 -4.67,-18.38 -9.32,-26.48 v 0 z"
       style="fill:#000000;stroke:#000000;stroke-opacity:1" />
    <path
       id="path4"
       class="cls-1"
       d="m 181,333.52 c -0.41,-1.57 -2.67,-2.21 -4.18,-2.87 -8.39,-2.13 -16.25,-4.55 -24.65,-6.63 -0.41,0.69 -2.19,3.06 -2.47,3.67 2.29,0.63 4.58,1.29 6.87,1.96 3.15,0.93 6.28,1.93 9.42,2.89 8.42,2.55 9.14,2.99 9.51,3.25 0.45,0.28 0.74,0.73 0.88,1.23 1.76,5.84 3.9,11.53 5.82,17.32 0.7,2.19 1.38,4.38 2.03,6.58 1.49,-1.12 3.73,-2.64 3.81,-2.82 0.04,-0.1 -0.49,-1.47 -0.64,-2 -0.39,-1.44 -0.82,-2.88 -1.22,-4.32 -0.82,-2.97 -1.64,-5.94 -2.52,-8.89 -0.5,-1.65 -1,-3.29 -1.46,-4.95 -0.4,-1.47 -0.79,-2.95 -1.21,-4.42 v 0 z"
       style="fill:#000000;stroke:#000000;stroke-opacity:1" />
    <path
       id="path8"
       class="cls-1"
       d="m 272.72,237.01 18.9,-18.79 c -5.82,-8.47 -14.69,-13.76 -23.14,-19.85 -2.48,1.91 -19.45,19.07 -19.45,19.07 7.48,14.08 16.45,17.89 23.69,19.57 z"
       style="fill:#000000;stroke:#000000;stroke-opacity:1" />
    <path
       id="path9"
       class="cls-1"
       d="m 347.03,174.19 c 0,0 5.65,15.87 17.11,28.14 8.4,-8.15 14.21,-14.56 22.61,-22.71 8.34,-8.09 16.68,-16.19 25.02,-24.28 8.2,-7.95 16.4,-15.91 24.6,-23.86 8.3,-8.06 17.17,-16.34 25.48,-24.4 0,0 20.07,-21.12 22.74,-24.43 l -43.25,0.83 c 0,0 -93.71,90.84 -94.32,90.71 v 0 z"
       style="fill:#000000;stroke:#000000;stroke-opacity:1" />
    <path
       id="path10"
       class="cls-1"
       d="m 486.72,76.49 8.48,-48.27 -52.75,8.84 c 0,0 0.79,39.39 0.79,39.4 0,0 43.49,0.02 43.48,0.03 z"
       style="fill:#000000;stroke:#000000;stroke-opacity:1" />
    <path
       id="path11"
       class="cls-1"
       d="m 136.74,314.72 c -0.26,2.53 -0.92,4.98 -1.81,7.35 4,0.95 7.98,1.94 11.95,2.99 0.19,-0.83 0.33,-1.67 0.57,-2.49 1.18,-3.41 5.38,-4.26 8.58,-3.1 6.27,1.52 12.49,3.22 18.73,4.86 0.2,-0.44 0.46,-0.83 0.79,-1.14 1.6,-1.48 3,-3.14 4.47,-4.74 4.14,-4.56 8.5,-8.94 12.82,-13.34 3.82,-3.73 7.29,-7.87 11.23,-11.45 3.61,-1.14 7.43,-1.61 11.28,-1.52 0.48,-0.42 29.82,-28.74 29.82,-28.74 0,0 -28.51,-14.86 -28.51,-14.86 -1.77,1.68 -2.5,2.42 -4.26,4.11 -8.64,8.25 -17.28,16.49 -25.92,24.73 -13.04,15.84 -28.06,22.96 -46.25,31.29 -3.32,1.28 -3.1,3.25 -3.48,6.06 v 0 z"
       style="fill:#000000;stroke:#000000;stroke-opacity:1" />
    <path
       id="path12"
       class="cls-1"
       d="m 246.19,401.95 c -9.35,4.03 -18.56,8.43 -28.28,11.58 -1.79,0.55 -3.57,1.1 -5.39,1.5 -2.42,-2.12 -0.85,-0.38 -5.22,-4.56 -2.88,-2.76 -5.58,-5.67 -8.4,-8.48 -2.97,-2.97 -6.02,-5.86 -9.04,-8.78 -2.89,-2.8 -5.73,-5.65 -8.65,-8.42 -2.04,-1.93 -4.09,-3.85 -6.14,-5.78 -3.38,2.43 -6.83,4.75 -10.26,7.12 -3.39,2.33 -6.73,4.7 -10.02,7.15 l -35.5,-3.51 c 0.16,-0.1 -3.08,-21.69 -3.9,-28.76 -0.06,-1.1 -0.33,-2.34 0.09,-3.4 0.12,-0.6 0.33,-1.15 0.61,-1.6 2.55,-3.17 5.01,-6.39 7.43,-9.65 2.46,-3.32 5.11,-7.22 7.65,-10.48 0,0 -36.47,-33.14 -36.68,-33.44 l 16.47,-41.35 c -5.56,2.28 -58.77,29.82 -58.56,30.39 -0.45,0.24 12.68,42.65 12.68,42.65 1.77,0.31 8.9,-7.33 8.9,-7.33 l 32.09,27.55 c 1.59,1.27 1.62,3.49 1.32,5.34 -0.25,1.87 -1.84,3 -3.23,4.18 1.05,0.98 2.15,2.12 2.56,3.45 0.74,1.35 0.4,3.38 -0.38,4.71 -1.01,1.8 -1.66,3.03 -8.48,9.44 -0.02,0.4 -0.26,28.81 -0.26,28.81 l 28.82,1.49 c 0.06,0.03 12.39,-9.56 13.35,-9.68 1.42,-0.24 3.09,-0.16 4.33,0.65 0.84,0.67 1.79,1.25 2.55,2 0.67,-0.72 1.34,-1.45 2.07,-2.11 0.6,-0.54 1.48,-0.81 2.26,-0.96 1.16,-0.23 5.43,-0.1 6.36,0.69 1.83,1.54 3.6,3.14 5.17,4.93 1.55,1.75 3.05,3.54 4.63,5.27 2.77,3.04 5.58,6.04 8.4,9.04 1.44,1.53 2.87,3.06 4.25,4.65 0.04,0.04 4.46,5.6 4.46,5.61 l -7.53,10.12 45.07,12.7 c -0.17,0.01 31.05,-55.15 31.06,-55.15 v 0 c 0.05,-0.12 0.11,-0.23 0.16,-0.35 -2.3,0.85 -4.56,1.8 -6.8,2.78 v 0 z"
       style="fill:#000000;stroke:#000000;stroke-opacity:1" />
    <path
       id="path13"
       class="cls-1"
       d="m 35.88,469.89 0.1,-30.72 -26.77,11.87 c 0.13,10.52 -0.2,12.52 -0.09,28.38 0.24,2.16 0.46,4.31 0.64,6.47 1.26,1.02 9.9,9.29 10.8,10.38 2.23,0.17 4.46,0.38 6.69,0.61 12.78,0.66 16,0.17 28.29,-0.13 0.13,0 0.27,0 0.4,0 0.26,0 0.52,0 0.78,0 -0.78,0 9.54,-26.02 9.54,-26.02 z"
       style="fill:#000000;stroke:#000000;stroke-opacity:1" />
    <path
       id="path14"
       class="cls-1"
       d="m 99.62,369.33 c -1.08,-1.34 -1.97,-2.8 -1.81,-4.54 -0.16,-2.47 1.56,-4.15 3.36,-5.64 0,0 -27.27,-24.1 -27.55,-24.26 -1.12,1.14 -2.17,2.34 -3.24,3.53 -1.87,2.25 -4.32,4.07 -7.42,4.07 -1.03,0 -1.77,-0.89 -1.77,-0.89 L 44.22,289.66 c -0.14,-0.18 69.8,-36.81 69.8,-36.81 0.65,-0.26 1.29,-0.54 1.94,-0.81 1.53,0.66 2.79,1.57 3.3,3.14 v 0 c -0.16,0.44 -0.33,0.89 -0.5,1.33 -0.17,0.45 -0.34,0.89 -0.5,1.34 -4.7,11.71 -14.55,40.34 -14.85,42.12 0.12,0.45 0.26,0.89 0.42,1.32 0.04,0.04 12,11.46 22.04,19.44 0.29,-0.64 0.53,-1.25 0.67,-1.82 2.91,-8.26 -1.91,-7.55 1.38,-13.88 0.14,-0.28 0.31,-0.54 0.51,-0.79 0.21,-0.25 0.54,-0.61 0.89,-0.7 2,-0.51 3.98,-1.06 5.96,-1.6 8.35,-2.27 15.18,-4.42 24.21,-9.63 -11.93,-17.72 -14.64,-39.94 -3.33,-61.16 0.96,-1.8 18.04,-0.86 18.04,-0.86 -25.56,-15.6 -35.77,-37.82 -35.12,-58.31 0.87,-13.93 2.91,-29.08 -1.84,-42.61 -2.96,-6.89 -8.35,-11.94 -13.19,-17.65 -1.88,-1.87 -3.32,-3.93 -5.14,-5.65 -1.95,-1.94 3.22,-5.82 5.23,-4.76 4.64,2.66 9.78,4.08 14.96,5.34 8.58,1.7 15,1.83 25.75,-1.15 4.22,-1.2 5.77,-2.07 7.14,-2.87 1.01,0.97 0.92,1.47 -2.8,4.12 -0.14,0.09 -0.27,0.19 -0.4,0.28 -0.07,0.04 -0.14,0.09 -0.2,0.14 -4.1,2.66 -8.01,5 -10.82,6 -8.7,2.56 -16.96,0.11 -25.43,-1.7 0.38,0.44 0.72,0.79 0.98,1.04 4,4.62 8.09,9.34 10.58,14.91 3.72,9.35 3.13,19.76 2.72,29.6 -0.46,6.42 -1.54,12.84 -1.01,19.29 0.57,8.89 3.3,17.65 8,25.34 3.42,5.59 8.62,9.86 13.08,14.67 10.66,8.93 24.28,13.57 37.03,19.04 15.24,6.28 29.66,14.16 44.02,22.1 28.67,19.57 36.86,51.5 37.65,55.17 0.63,-0.16 11.38,-4.51 13.44,-5.35 9.02,-3.67 28.79,-13.14 37.86,-16.71 -37.64,0.52 -54.76,-33.68 -54.56,-45.19 -0.22,0 -9.34,-2.03 -13.71,-3.05 -12.01,-2.56 -19.92,-9.88 -25.6,-21.54 -4.12,-7.83 -6.59,-16.8 -8.39,-25.26 -0.34,-2.24 -1.33,-5.33 -0.73,-7.58 -0.35,-0.12 -33.12,-26.62 -27.41,-30.91 0.03,-0.02 0.05,-0.05 0.08,-0.07 0.71,0.12 1.42,0.24 2.13,0.36 3.54,0.61 7.09,1.23 10.64,1.79 21.34,3.89 33.86,23.18 35.09,26.29 2.84,0.57 5.53,1.86 8.2,2.93 3.15,1.36 6.33,2.67 9.32,4.33 16.14,7.54 28.29,22.93 34.64,38.82 1.4,3.75 2.5,7.6 3.36,11.5 0.41,1.77 0.82,3.54 1.2,5.31 0.05,0 0.1,-0.02 0.15,-0.03 28.78,-3.6 50.04,19.92 43.6,41.6 0.88,-0.48 8.02,-7.23 18.96,-10.74 2.68,-1.46 10.32,-2.05 12.66,-3.98 3.13,-2.93 4.28,-10.98 6.29,-14.61 2.08,-4.07 2.36,-6.59 5.57,-9.75 1.12,-0.98 6.46,-5.24 7.81,-5.57 0.3,-0.07 0.34,-0.28 0.17,-0.6 -2.01,-3.71 -32.98,-22.84 -40.08,-29.68 -21.01,-21 -25.6,-32.29 -35.4,-69.86 C 319.27,36.47 205.09,-10.24 107.92,15.42 93.61,19.62 78.11,30.93 78.96,30.11 c 0,0 19.94,-4.11 35.17,-0.84 15.8,3.39 23.78,8.49 23.62,8.5 -13.63,0.47 -41.91,3.91 -53.57,8.54 -27.91,11.07 -38.69,28.91 -38.69,28.91 0.09,-0.2 17.56,-3.49 31.54,-3.75 13.15,-0.24 18,3.99 18.12,3.65 0,0 -21.28,1.25 -41.88,17.48 -24.95,19.65 -29.97,48.08 -29.97,48.08 0,0 14.89,-11.97 24.3,-16.89 8.18,-4.29 14.87,-6.28 15.57,-4.86 0,0 -122.89,131.51 -5.35,295.08 0.16,-0.14 41.81,-44.67 41.81,-44.67 z m 274.61,-130.1 c 7.43,4.91 7.8,8.64 9.75,16.12 -0.14,0.37 -1.63,3.05 -2.76,3.05 -0.37,0 -1.62,0.32 -1.89,-0.13 -1.06,-1.25 -1.3,-8.22 -8.32,-18.76 0.56,-0.63 2.02,-1.06 3.22,-0.28 z M 235.06,101.54 c 1.27,0.4 2.53,0.85 3.79,1.28 0.87,0.3 1.71,0.67 2.56,1.01 5.75,2.32 11.39,5.26 21.72,14.45 2.16,1.91 8.01,7.18 9.62,9.57 0.35,0.52 0.7,1.03 1.04,1.55 3.43,7.78 6.52,16.28 7.56,19.18 0.66,1.86 1.31,3.72 1.97,5.58 v 0 c -0.47,0.22 -0.98,0.38 -1.47,0.5 -3.36,-2.34 -12.37,-9.56 -23.14,-16.21 -4,-7.04 -6.26,-10.85 -24.89,-35.59 -0.36,-0.48 -0.72,-0.96 -1.08,-1.44 0.77,0.04 1.54,0.07 2.31,0.12 v 0 z"
       style="fill:#000000;stroke:#000000;stroke-opacity:1" />
    <path
       id="path15"
       class="cls-1"
       d="m 497.55,154.04 c -7.26,-13.74 -19.07,-34.32 -26.17,-45.15 -1.37,1.29 -12.58,11.07 -13.94,12.38 -5.84,5.61 -11.54,11.34 -17.38,16.94 -0.04,0.04 -0.08,0.08 -0.12,0.12 2.65,5.09 5,10.26 7.05,15.49 4.04,10.5 11.36,21.48 7.24,29.82 -3.38,6.85 -7.29,7.29 -9.65,12.89 -4.87,11.53 -4.34,20.2 -2.77,18.68 10.48,-10.19 13.22,-2.35 9.73,11.12 -1.68,6.47 -10.81,47.71 -20.32,57.25 -10.29,10.33 -14.34,1.03 -23.2,7.08 -9.1,6.22 -9.12,14.38 -12.67,17.19 18.74,-7.35 18.32,2.94 13.56,9.88 -6.13,8.95 -23.91,30.13 -42.3,33.25 -14.27,2.42 -27.67,-4.75 -38.84,-1.73 -13.37,3.61 -17.48,9.68 -17.48,9.68 19.04,-2.21 30.12,12.71 8.47,16.65 -33.36,6.08 -68.42,-7.51 -98.62,-23.11 -0.21,0.38 -0.42,0.76 -0.63,1.13 -0.43,0.76 -0.85,1.53 -1.28,2.3 -0.3,0.65 -0.6,1.3 -0.89,1.94 -1.67,3.7 -3.3,7.42 -4.61,11.26 -0.64,1.88 -1.21,3.78 -1.76,5.68 -0.56,1.91 -1.13,3.82 -1.66,5.74 -0.09,0.34 -0.46,0.65 -0.73,0.85 -0.26,0.19 -0.53,0.36 -0.82,0.5 -7.9,3.84 -3.82,-2.65 -16.28,2 1.29,1.51 2.59,3.01 3.89,4.51 1.27,1.43 2.55,2.84 3.89,4.2 4.74,4.09 9.31,12.01 15.43,12.99 1.05,-0.09 2.08,-0.27 3.1,-0.52 13.9,-4.99 27.77,-10.03 41.74,-14.85 1.6,0.3 2.96,2.51 3.93,4.26 l -38.7,68.09 -57.65,-16.57 c -0.22,-0.49 -0.82,-1.96 -0.49,-3.49 1.37,-4.04 5.83,-6.33 8.9,-9.11 -0.18,-0.25 -0.36,-0.5 -0.55,-0.75 -1.57,-2.06 -3.24,-4.05 -4.86,-6.07 -5.01,-6.66 -11.27,-12.34 -17.4,-18.04 -0.12,-0.1 -0.24,-0.2 -0.37,-0.3 -0.02,-0.01 -0.04,-0.03 -0.06,-0.04 0,0 -0.02,0 -0.03,-0.01 -0.29,-0.12 -0.54,-0.32 -0.76,-0.56 -1.54,1.93 -3.19,3.09 -5.82,3.23 -0.09,0 -0.19,0 -0.28,0 -1.57,0.1 -2.73,-0.55 -4.44,-1.79 L 96.69,448.82 C 144.3,485.95 210.72,501.41 274.32,499 452.29,490.7 576.64,307.13 497.55,154 v 0 z"
       style="fill:#000000;stroke:#000000;stroke-opacity:1" />
    <path
       id="path16"
       class="cls-1"
       d="m 122.07,418.43 c 0,0 -31.39,-1.93 -31.42,-1.9 0,0 0.66,-26.68 1.13,-28.63 -8.44,8.09 -13.74,14.33 -21.31,22.43 0,0 -0.25,25.39 0.04,26.16 l 28.07,0.95 23.49,-19.02 z"
       style="fill:#000000;stroke:#000000;stroke-opacity:1" />
    <path
       id="path14-9"
       class="cls-1"
       d="m 94.78,443.69 c 0,0 -31.64,-0.52 -31.67,-0.49 0,0 0.93,-25 1.4,-26.96 -8.44,8.09 -14,12.65 -21.58,20.76 0,0 0.05,25.67 0.34,26.45 L 69.94,464 94.77,443.68 Z"
       style="fill:#000000;stroke:#000000;stroke-opacity:1" />
    <path
       id="path17"
       class="cls-1"
       d="m 435.98,78.17 c -0.03,-0.18 -0.38,-38.99 -0.38,-38.99 -7.04,7.34 -15.11,14.62 -22.53,21.7 -8.37,8 -16.73,15.99 -25.1,23.99 -8.26,7.9 -17.94,16.23 -26.2,24.13 -8.4,8.03 -16.8,16.06 -25.21,24.09 0,0 3.12,19.71 8.05,34.53 0.23,0.12 91.37,-89.46 91.37,-89.46 v 0 z"
       style="fill:#000000;stroke:#000000;stroke-opacity:1" />
    <path
       id="path18"
       class="cls-1"
       d="M 412.98,48.86 C 386.91,28.95 354.35,18.65 326.41,13.77 292.52,7.84 279.52,12.38 279.52,12.38 c 40.9,4.69 89.52,39 104.93,63.42 0.14,-0.3 28.53,-26.94 28.53,-26.94 z"
       style="fill:#000000;stroke:#000000;stroke-opacity:1" />
  </g>
</svg>
