<?xml version="1.0" encoding="UTF-8" standalone="no"?>
<svg
   id="Layer_1"
   data-name="Layer 1"
   viewBox="0 0 1880.07 375.42"
   version="1.1"
   sodipodi:docname="KnightHacksIX-05.svg"
   inkscape:version="1.4 (e7c3feb1, 2024-10-09)"
   xmlns:inkscape="http://www.inkscape.org/namespaces/inkscape"
   xmlns:sodipodi="http://sodipodi.sourceforge.net/DTD/sodipodi-0.dtd"
   xmlns="http://www.w3.org/2000/svg"
   xmlns:svg="http://www.w3.org/2000/svg">
  <defs
     id="defs1" />
  <sodipodi:namedview
     id="namedview1"
     pagecolor="#505050"
     bordercolor="#eeeeee"
     borderopacity="1"
     inkscape:showpageshadow="0"
     inkscape:pageopacity="0"
     inkscape:pagecheckerboard="0"
     inkscape:deskcolor="#505050"
     inkscape:zoom="0.17340206"
     inkscape:cx="-43.252081"
     inkscape:cy="1104.3698"
     inkscape:window-width="1200"
     inkscape:window-height="916"
     inkscape:window-x="0"
     inkscape:window-y="38"
     inkscape:window-maximized="0"
     inkscape:current-layer="Layer_1" />
  <g
     id="g1"
     style="fill:#ffffff">
    <path
       id="path1"
       d="M89.54,269.56l2.03,17.99,20.5,2.55c1.8-1.71,19.57-13.93,19.57-13.93l-6.09-18.39s-2.58-2.29-2.48-2.29l-18.91-5.79s-9.62,13.33-14.62,19.86h0Z"
       style="fill:#ffffff" />
    <path
       id="path2"
       d="M155.3,269.85c.77-1.72,1.57-3.42,2.41-5.1.07-.07.13-.14.17-.23.24-.56.53-1.1.82-1.64,3.97-8.07,10.62-12.88,17.31-19.38,6.5-6.32,13-12.63,19.5-18.95h0c2.14-2.08,3.73-3.63,5.87-5.71-2.92-5.56-6.52-10.79-10.77-15.49-1.28-1.41-2.36-2.34-3.85-3.54.09.04-22.73,21.83-22.73,21.83.25,1.68-.51,7.65-.51,8.33-.69,1.58-2.46,2.62-3.72,3.78-5.42,4.8-10.66,9.79-16.19,14.47-1.2,1.02-2.44,2.01-3.58,3.1-.28.34-.65.59-1.07.76.51,1.73,1.02,3.46,1.5,5.2.39,1.4.79,2.81,1.17,4.22.39,1.42.82,2.83,1.17,4.27.21.86.53,1.82.39,2.71-.23,1.5-1.25,3.11-2.84,3.55-.64.18-1.31.27-1.96.42.83,2.9,1.61,5.81,2.35,8.72.73-.26,1.47-.49,2.23-.68,10.22-1.88,5.6,1.79,12.31-10.62h0Z"
       style="fill:#ffffff" />
    <path
       id="path3"
       d="M221.14,166.55c-.06.07-10.62,11.34-10.62,11.34.03.01,4.38,2.9,4.38,2.9,0,0,3.66,13.09,7.08,17.8,3.41-3.32,6.33-5.9,9.75-9.22-.33.03-3.51-2.72-3.51-2.72,0,0-3.54-13.96-7.08-20.11h0Z"
       style="fill:#ffffff" />
    <path
       id="path4"
       d="M133.9,249.56c-.31-1.19-2.03-1.68-3.17-2.18-6.37-1.62-12.34-3.46-18.72-5.04-.31.52-1.66,2.32-1.88,2.79,1.74.48,3.48.98,5.21,1.49,2.39.71,4.77,1.47,7.15,2.19,6.4,1.93,6.94,2.27,7.22,2.47.34.21.56.56.67.93,1.34,4.43,2.96,8.76,4.42,13.15.53,1.66,1.05,3.33,1.54,5,1.13-.85,2.83-2.01,2.89-2.14.03-.07-.37-1.12-.48-1.52-.3-1.09-.63-2.18-.93-3.28-.62-2.25-1.25-4.51-1.91-6.75-.38-1.25-.76-2.5-1.11-3.76-.31-1.12-.6-2.24-.92-3.35h0Z"
       style="fill:#ffffff" />
    <path
       id="path5"
       d="M203.54,176.29l14.35-14.27c-4.42-6.43-11.15-10.45-17.57-15.07-1.88,1.45-14.77,14.48-14.77,14.48,5.68,10.69,12.49,13.58,17.99,14.86Z"
       style="fill:#ffffff" />
    <path
       id="path6"
       d="M259.96,128.6s4.29,12.05,12.99,21.37c6.38-6.19,10.79-11.05,17.17-17.24,6.33-6.14,12.66-12.29,19-18.43,6.23-6.04,12.45-12.08,18.68-18.12,6.3-6.12,13.04-12.41,19.35-18.53,0,0,15.23-16.04,17.26-18.54l-32.84.63s-71.15,68.97-71.61,68.87h0Z"
       style="fill:#ffffff" />
    <path
       id="path7"
       d="M366.02,54.42l6.44-36.65-40.05,6.71s.6,29.9.6,29.91c0,0,33.02.02,33.01.02h0Z"
       style="fill:#ffffff" />
    <path
       id="path8"
       d="M100.3,235.29c-.2,1.92-.7,3.78-1.38,5.58,3.04.72,6.06,1.47,9.07,2.27.15-.63.25-1.27.43-1.89.9-2.59,4.08-3.23,6.51-2.35,4.76,1.15,9.48,2.45,14.22,3.69.15-.33.35-.63.6-.86,1.21-1.12,2.28-2.39,3.39-3.6,3.14-3.47,6.45-6.79,9.73-10.13,2.9-2.83,5.53-5.98,8.53-8.7,2.74-.86,5.64-1.23,8.57-1.16.36-.32,22.64-21.82,22.64-21.82,0,0-21.65-11.28-21.65-11.28-1.35,1.27-1.9,1.84-3.24,3.12-6.56,6.26-13.12,12.52-19.68,18.78-9.9,12.03-21.3,17.43-35.11,23.76-2.52.97-2.36,2.46-2.64,4.6h0Z"
       style="fill:#ffffff" />
    <path
       id="path9"
       d="M183.39,301.52c-7.1,3.06-14.09,6.4-21.47,8.79-1.36.42-2.71.84-4.1,1.14-1.84-1.61-.65-.29-3.96-3.46-2.18-2.09-4.24-4.31-6.38-6.44-2.26-2.25-4.57-4.45-6.86-6.67-2.19-2.13-4.35-4.29-6.57-6.39-1.55-1.47-3.11-2.92-4.66-4.39-2.56,1.84-5.19,3.61-7.79,5.4-2.57,1.77-5.11,3.57-7.61,5.43l-26.95-2.66c.12-.08-2.34-16.47-2.96-21.83-.05-.83-.25-1.78.07-2.58.09-.45.25-.87.46-1.21,1.93-2.41,3.8-4.85,5.64-7.33,1.87-2.52,3.88-5.48,5.8-7.96,0,0-27.69-25.16-27.85-25.39l12.5-31.39c-4.22,1.73-44.62,22.64-44.46,23.07-.34.19,9.62,32.38,9.62,32.38,1.34.24,6.76-5.56,6.76-5.56l24.36,20.91c1.21.97,1.23,2.65,1,4.06-.19,1.42-1.4,2.28-2.45,3.18.8.74,1.63,1.61,1.95,2.62.56,1.02.31,2.57-.29,3.58-.77,1.36-1.26,2.3-6.44,7.17-.01.3-.2,21.87-.2,21.87l21.88,1.13s9.4-7.26,10.14-7.35c1.08-.18,2.35-.12,3.28.5.64.51,1.36.95,1.94,1.52.51-.55,1.02-1.1,1.57-1.6.45-.41,1.12-.61,1.71-.73.88-.18,4.12-.08,4.83.52,1.39,1.17,2.73,2.38,3.93,3.74,1.18,1.33,2.32,2.69,3.51,4,2.1,2.31,4.24,4.59,6.38,6.86,1.09,1.16,2.18,2.33,3.22,3.53.03.03,3.38,4.25,3.38,4.26l-5.71,7.68,34.22,9.64c-.13,0,23.58-41.87,23.58-41.87h0c.04-.09.08-.18.12-.27-1.75.65-3.46,1.37-5.16,2.11h0Z"
       style="fill:#ffffff" />
    <path
       id="path10"
       d="M23.72,353.1l.08-23.32-20.33,9.01c.1,7.99-.15,9.5-.07,21.54.19,1.64.35,3.27.48,4.91.96.78,7.51,7.06,8.2,7.88,1.7.13,3.39.29,5.08.47,9.7.5,12.15.13,21.48-.1.1,0,.2,0,.31,0,.2,0,.39,0,.59,0-.59,0,7.24-19.76,7.24-19.76l-23.07-.64Z"
       style="fill:#ffffff" />
    <path
       id="path11"
       d="M72.12,276.75c-.82-1.02-1.5-2.12-1.37-3.45-.12-1.88,1.18-3.15,2.55-4.28,0,0-20.71-18.29-20.92-18.42-.85.87-1.65,1.78-2.46,2.68-1.42,1.71-3.28,3.09-5.63,3.09-.78,0-1.34-.68-1.34-.68l-12.89-39.44c-.1-.13,52.99-27.95,52.99-27.95.49-.2.98-.41,1.47-.61,1.16.5,2.12,1.19,2.51,2.38h0c-.12.34-.25.67-.38,1.01-.13.34-.26.68-.38,1.02-3.57,8.89-11.05,30.63-11.27,31.98.09.34.2.67.32,1,.03.03,9.11,8.7,16.73,14.76.22-.48.41-.95.51-1.38,2.21-6.27-1.45-5.73,1.05-10.54.11-.21.24-.41.39-.6.16-.19.41-.46.67-.53,1.52-.38,3.02-.8,4.53-1.21,6.34-1.72,11.53-3.36,18.38-7.31-9.06-13.45-11.12-30.32-2.53-46.44.73-1.37,13.69-.65,13.69-.65-19.41-11.85-27.16-28.71-26.66-44.27.66-10.57,2.21-22.08-1.4-32.35-2.24-5.23-6.34-9.07-10.01-13.4-1.43-1.42-2.52-2.99-3.91-4.29-1.48-1.47,2.45-4.42,3.97-3.61,3.53,2.02,7.42,3.1,11.36,4.05,6.51,1.29,11.39,1.39,19.55-.87,3.2-.91,4.38-1.57,5.42-2.18.77.74.7,1.11-2.13,3.13-.1.07-.2.14-.31.21-.05.03-.1.07-.15.11-3.11,2.02-6.08,3.79-8.22,4.55-6.6,1.94-12.88.08-19.3-1.29.29.33.54.6.75.79,3.04,3.51,6.14,7.09,8.03,11.32,2.82,7.1,2.38,15,2.07,22.47-.35,4.88-1.17,9.75-.77,14.65.43,6.75,2.51,13.4,6.07,19.24,2.6,4.24,6.54,7.49,9.93,11.14,8.09,6.78,18.43,10.3,28.11,14.45,11.57,4.77,22.52,10.75,33.42,16.78,21.77,14.86,27.98,39.1,28.58,41.89.48-.12,8.64-3.42,10.2-4.06,6.85-2.79,21.86-9.97,28.75-12.69-28.58.39-41.58-25.57-41.42-34.31-.17,0-7.09-1.54-10.41-2.32-9.12-1.94-15.13-7.5-19.44-16.35-3.13-5.94-5-12.76-6.37-19.18-.26-1.7-1.01-4.05-.56-5.75-.26-.09-25.15-20.21-20.81-23.47.02-.02.04-.04.06-.05.54.09,1.08.18,1.62.27,2.69.46,5.38.93,8.08,1.36,16.2,2.95,25.71,17.6,26.64,19.96,2.16.44,4.2,1.41,6.23,2.22,2.39,1.03,4.81,2.03,7.08,3.29,12.25,5.72,21.48,17.41,26.3,29.47,1.07,2.85,1.9,5.77,2.55,8.73.31,1.34.62,2.69.91,4.03.04,0,.08-.01.11-.02,21.85-2.74,37.99,15.13,33.1,31.58.67-.36,6.09-5.49,14.39-8.15,2.03-1.11,7.84-1.56,9.61-3.02,2.38-2.23,3.25-8.34,4.77-11.09,1.58-3.09,1.79-5,4.23-7.4.85-.74,4.9-3.98,5.93-4.23.23-.05.26-.21.13-.45-1.53-2.82-25.04-17.34-30.43-22.54-15.95-15.94-19.44-24.51-26.88-53.04C238.88,24.03,152.19-11.43,78.41,8.05c-10.86,3.19-22.63,11.77-21.99,11.16,0,0,15.14-3.12,26.7-.64,11.99,2.57,18.05,6.45,17.93,6.45-10.35.36-31.82,2.97-40.67,6.49-21.19,8.41-29.38,21.95-29.38,21.95.07-.15,13.33-2.65,23.95-2.85,9.98-.18,13.66,3.03,13.75,2.77,0,0-16.16.95-31.8,13.27-18.94,14.92-22.75,36.5-22.75,36.5,0,0,11.3-9.09,18.45-12.83,6.21-3.25,11.29-4.76,11.82-3.69,0,0-93.3,99.84-4.06,224.03.12-.11,31.74-33.91,31.74-33.91ZM280.61,177.98c5.64,3.73,5.92,6.56,7.4,12.24-.11.28-1.23,2.32-2.09,2.32-.28,0-1.23.24-1.43-.1-.8-.95-.99-6.24-6.32-14.24.42-.48,1.54-.8,2.44-.22h0ZM174.94,73.44c.97.3,1.92.64,2.88.97.66.23,1.3.51,1.95.77,4.36,1.76,8.65,3.99,16.49,10.97,1.64,1.45,6.08,5.45,7.31,7.27.27.39.53.78.79,1.18,2.61,5.91,4.95,12.36,5.74,14.56.5,1.41,1,2.82,1.49,4.24h0c-.36.16-.75.29-1.12.38-2.55-1.77-9.39-7.26-17.57-12.3-3.04-5.35-4.75-8.24-18.9-27.02-.27-.36-.55-.73-.82-1.09.58.03,1.17.06,1.76.09h0Z"
       style="fill:#ffffff" />
    <path
       id="path13"
       d="M374.23,113.3c-5.51-10.43-14.48-26.06-19.87-34.28-1.04.98-9.55,8.4-10.58,9.4-4.43,4.26-8.76,8.61-13.2,12.86-.03.03-.06.06-.09.09,2.02,3.86,3.8,7.79,5.35,11.76,3.07,7.97,8.62,16.3,5.49,22.64-2.57,5.2-5.53,5.53-7.33,9.78-3.7,8.75-3.29,15.33-2.11,14.18,7.95-7.73,10.04-1.78,7.39,8.44-1.28,4.92-8.2,36.22-15.43,43.47-7.81,7.84-10.89.78-17.61,5.38-6.91,4.73-6.93,10.92-9.62,13.05,14.23-5.58,13.91,2.23,10.3,7.5-4.66,6.8-18.15,22.88-32.11,25.25-10.83,1.84-21.01-3.6-29.49-1.31-10.15,2.74-13.27,7.35-13.27,7.35,14.45-1.68,22.87,9.65,6.43,12.64-25.33,4.62-51.94-5.7-74.88-17.54-.16.29-.32.57-.48.86-.32.58-.65,1.16-.97,1.75-.23.49-.46.98-.68,1.48-1.27,2.81-2.51,5.64-3.5,8.55-.49,1.43-.92,2.87-1.34,4.31-.43,1.45-.86,2.9-1.26,4.36-.07.25-.35.5-.55.65-.19.15-.4.27-.62.38-6,2.91-2.9-2.01-12.36,1.52.98,1.14,1.97,2.29,2.95,3.42.96,1.08,1.94,2.15,2.95,3.19,3.6,3.1,7.07,9.12,11.72,9.87.8-.07,1.58-.21,2.36-.39,10.55-3.79,21.09-7.62,31.69-11.27,1.21.23,2.25,1.91,2.98,3.24l-29.38,51.69-43.77-12.58c-.17-.37-.62-1.49-.37-2.65,1.04-3.07,4.42-4.81,6.75-6.91-.14-.19-.28-.38-.42-.57-1.2-1.56-2.46-3.07-3.69-4.61-3.8-5.06-8.56-9.37-13.21-13.69-.09-.08-.18-.15-.28-.23-.01-.01-.03-.02-.04-.03,0,0-.01,0-.02,0-.22-.09-.41-.25-.58-.42-1.17,1.46-2.42,2.35-4.42,2.45-.07,0-.14,0-.21,0-1.19.07-2.07-.42-3.37-1.36l-33.61,30.2c36.15,28.19,86.58,39.92,134.86,38.1,135.12-6.31,229.53-145.67,169.48-261.93h0Z"
       style="fill:#ffffff" />
    <path
       id="path14"
       d="M89.16,314.03s-23.83-1.46-23.86-1.44c0,0,.5-20.26.86-21.74-6.41,6.14-10.43,10.88-16.18,17.03,0,0-.19,19.27.03,19.86l21.31.72,17.83-14.44Z"
       style="fill:#ffffff" />
    <path
       id="path14-9"
       d="M68.44,333.21s-24.02-.39-24.04-.37c0,0,.7-18.98,1.06-20.47-6.41,6.14-10.63,9.61-16.38,15.76,0,0,.04,19.49.26,20.08l20.25.42,18.86-15.42Z"
       style="fill:#ffffff" />
    <path
       id="path15"
       d="M327.49,55.7c-.02-.14-.29-29.6-.29-29.6-5.34,5.57-11.47,11.1-17.1,16.48-6.35,6.07-12.7,12.14-19.06,18.21-6.27,5.99-13.62,12.32-19.89,18.32-6.38,6.1-12.76,12.2-19.14,18.29,0,0,2.37,14.97,6.11,26.22.17.09,69.37-67.92,69.37-67.92h0Z"
       style="fill:#ffffff" />
    <path
       id="path16"
       d="M310.02,33.44c-19.79-15.12-44.51-22.93-65.73-26.64-25.73-4.5-35.6-1.05-35.6-1.05,31.05,3.56,67.96,29.61,79.67,48.15.11-.23,21.66-20.45,21.66-20.45h0Z"
       style="fill:#ffffff" />
    <path
       id="path4-0"
       d="M192.07,188.09s0,.04,0,.06c-.01,0-.02-.02-.04-.03.01,0,.02-.02.03-.03h0Z"
       style="fill:#ffffff" />
  </g>
  <g
     id="Layer_1-2"
     data-name="Layer 1-2"
     style="fill:#ffffff">
    <g
       id="g7"
       style="fill:#ffffff">
      <path
         id="path1-2"
         data-name="path1"
         d="M644.6,74.03l-183,.08.06,230.76,204.15-.16c16.78-2.09,31.03-4.73,45.51-11.31,36.69-16.7,49.79-58.48,25.8-89.9-6.81-8.96-15.98-13.72-26.46-19.32,17.55-12.34,27.15-31.26,25.63-50.71-1.52-19.45-12.95-36.15-32.52-46.41-17.81-9.28-37.93-12.9-59.16-13.03ZM638.97,129.47c10.11,0,17.15,6,18.13,15.01.72,6.71-3.76,17.52-14.8,17.57l-99.4.63v-33.17l96.07-.05ZM542.87,211.03l104.6.05c11.92,0,20.43,8.14,20.92,17.92.49,9.78-6.98,20.22-20.26,20.27v.03l-104.81.53-.45-38.79Z"
         style="fill:#ffffff" />
      <path
         id="path2-2"
         data-name="path2"
         d="M1340.4,74.93c-9.62-.03-18.42.29-28.47.74l.08,162.87,30.63,66.44,143.96-.82c22.04-.13,41.89-6.42,61.22-14.51,53.38-22.33,73.78-68.07,65.53-120.56h.03c-4.68-29.84-23.64-54.54-52-70.69-28.36-16.15-62.72-23.02-95.96-23.12l-125.03-.35ZM1393.63,131.19l80.16.21c17.27.05,33.47,6.66,45.1,17.63,11.38,11.44,14.25,25.87,14.68,41.83v.03c.66,24.39-12.93,45.45-37.72,53.54-8.56,2.8-17.87,5.2-27.32,5.2h-74.93l.03-118.44Z"
         style="fill:#ffffff" />
      <path
         id="path3-2"
         data-name="path3"
         d="M1865.97,178.76l-22.52,37.79-125.17.13c-.26,10.76-.72,20.48.23,30.97l159.82.18-34.82,57.06h-207.2V75.43h236.33l-33.38,55.63c-7.18.32-13.16-.42-19.79.53l-101.24.29v33.24l155.48.21c-1.38,6.74-5.06,8.91-7.76,13.42h.03Z"
         style="fill:#ffffff" />
      <path
         id="path4-2"
         data-name="path4"
         d="M1285.78,233.41l37.29,71.09-85.07.37-7.9-14.11c-5.31-9.51-9.97-18.68-15.77-28.14-4.45-.29-8.3-1-12.84-1h-105.06l-22.43,43.52-80.08-.78,48.55-87.58,80.3-141.17,83.72.11-46.57,65.83-42.45,67.18,67.56.07c-5.98-13.93-12.93-26.19-20.11-39.16-.37-1.53-1.49-3.75-.26-5.34l49.27-71.68,41.86,84.6,30.02,56.21h-.03Z"
         style="fill:#ffffff" />
      <polygon
         id="polygon4"
         points="1006.82 245.78 974.84 304.87 770.84 304.92 770.84 75.56 851.19 75.48 851.22 245.59 1006.82 245.78"
         style="fill:#ffffff" />
    </g>
  </g>
</svg>
