<?xml version="1.0" encoding="UTF-8" standalone="no"?>
<svg
   id="Layer_1"
   data-name="Layer 1"
   viewBox="0 0 1200 400"
   version="1.1"
   sodipodi:docname="rfsmart.svg"
   inkscape:version="1.4.3 (0d15f75, 2025-12-25)"
   width="1200"
   height="400"
   xmlns:inkscape="http://www.inkscape.org/namespaces/inkscape"
   xmlns:sodipodi="http://sodipodi.sourceforge.net/DTD/sodipodi-0.dtd"
   xmlns="http://www.w3.org/2000/svg"
   xmlns:svg="http://www.w3.org/2000/svg">
  <sodipodi:namedview
     id="namedview17"
     pagecolor="#ffffff"
     bordercolor="#000000"
     borderopacity="0.25"
     inkscape:showpageshadow="2"
     inkscape:pageopacity="0.0"
     inkscape:pagecheckerboard="0"
     inkscape:deskcolor="#d1d1d1"
     inkscape:zoom="0.25166667"
     inkscape:cx="508.60927"
     inkscape:cy="747.01987"
     inkscape:window-width="1278"
     inkscape:window-height="1360"
     inkscape:window-x="1273"
     inkscape:window-y="0"
     inkscape:window-maximized="0"
     inkscape:current-layer="Layer_1" />
  <defs
     id="defs1">
    <style
       id="style1">
      .cls-1 {
        fill: #fff;
      }
    </style>
  </defs>
  <g
     id="g17"
     transform="translate(19.86755,23.84106)">
    <path
       d="m 997.79604,8.09 18.58956,1.6355607 c 30.8961,3.8096593 60.9944,13.6828613 86.4254,31.7338663 31.694,22.498932 54.0533,55.788575 64.6844,93.087333 v 1.05713 c -1.2765,0.27925 -1.077,-0.63826 -1.476,-1.37626 -2.7724,-5.16598 -5.0662,-10.63114 -7.8786,-15.75723 C 1125.669,59.450594 1071.1769,23.587935 1005.2558,11.401013 998.9529,10.244153 992.35082,9.7853983 986.24738,8.09 h 11.5686 z"
       id="path3"
       style="fill:#c70c47;fill-opacity:1;stroke-width:1.99459" />
    <path
       d="m 428.2619,194.38435 c 1.01724,0.23935 1.01724,-0.35903 1.47599,-0.87762 3.49053,-3.80966 5.86409,-7.85867 10.07266,-11.44892 24.05471,-20.62402 67.87577,-17.41274 80.40177,14.4408 l 5.26571,-8.11797 c 14.12167,-17.97122 42.64425,-23.65579 63.68714,-15.8769 21.04288,7.77888 27.00669,30.0983 28.26328,51.00157 v 104.71577 h -39.95156 v -95.79997 c -0.57843,-14.85967 -2.57301,-30.57701 -20.72375,-31.75381 -25.07195,-1.61562 -30.75652,22.77817 -32.35219,42.76392 v 84.76992 c 0,0 -40.43026,0 -40.43026,0 V 223.50531 c 0,-11.26941 -7.59937,-21.74099 -19.18792,-22.81807 -24.73287,-2.29377 -31.53441,20.64397 -33.34948,40.66961 v 86.84429 H 390.96314 V 172.86276 h 37.29876 z"
       id="path4"
       style="fill:#231f20;fill-opacity:1;stroke-width:1.99459" />
    <path
       d="m 787.1079,328.22108 h -34.94515 l -0.69811,-0.87762 c -1.1768,-7.36002 -0.77788,-14.87961 -1.67545,-22.21969 -3.23123,4.50777 -6.06354,8.83602 -10.25217,12.58584 -32.37214,28.9215 -94.70295,12.10714 -91.67118,-36.46103 3.21128,-51.08135 62.29092,-49.86466 100.34763,-49.06682 0,-16.31572 -5.0463,-29.28053 -22.47899,-32.39208 -15.29847,-2.71264 -30.99587,0.23935 -44.95797,6.7417 l -15.03918,8.83602 -0.9574,-34.54624 c 24.15444,-10.5713 53.59453,-15.13891 79.58399,-9.07536 26.40832,6.16327 38.45562,25.5307 40.11113,51.75951 1.4361,22.77817 0.37897,47.77034 1.05713,70.8477 0.33908,11.28936 0.4787,22.57871 1.57572,33.84813 z m -38.87449,-71.90483 c -18.19062,0.11968 -54.97079,-2.8722 -61.09417,20.06554 -7.41986,27.82447 29.77917,32.13278 46.39407,18.5297 11.74812,-9.6139 14.74,-24.01481 14.7001,-38.57529 z"
       id="path5"
       style="fill:#231f20;fill-opacity:1;stroke-width:1.99459" />
    <path
       d="m 157.15775,172.88271 c 0.17951,-19.60678 -2.47329,-39.85183 9.77347,-56.6263 16.03647,-21.980341 44.63884,-19.566892 68.47414,-14.7001 l -3.11155,33.54894 c -9.05542,-6.10344 -24.8326,-8.95569 -31.41474,1.93475 -1.53583,2.53312 -3.76976,9.15515 -3.76976,11.96751 v 23.8752 h 35.20444 v 29.38025 H 197.10931 V 328.22108 H 157.17769 V 203.0608 l -0.79783,-0.77789 h -29.16085 v -29.38025 h 29.93874 z"
       id="path6"
       style="fill:#c70c47;fill-opacity:1;stroke-width:1.99459" />
    <path
       d="m 353.10589,175.01692 -2.59296,30.39749 c -4.92663,-1.45605 -9.77347,-3.25117 -14.79983,-4.36814 -11.86779,-2.61291 -36.48098,-5.60479 -43.20274,7.55948 -10.0926,19.80624 22.97764,24.13449 35.16456,28.80182 15.21869,5.84414 27.56518,14.20146 31.51446,30.97593 4.58755,19.40732 -1.27654,39.87177 -17.97122,51.34064 -25.59054,17.57231 -62.17125,13.12438 -90.55421,5.60479 l 2.1342,-33.32953 c 9.9131,4.98646 20.66392,8.77618 31.79371,9.97293 14.48069,1.55577 36.10201,-2.13421 33.88802,-21.24235 -1.67546,-14.42085 -28.4428,-18.051 -39.67232,-22.29947 -16.49523,-6.22311 -28.30318,-16.19604 -29.69939,-34.88531 -4.3482,-58.64083 63.04887,-60.39607 104.01767,-48.52828 z"
       id="path7"
       style="fill:#231f20;fill-opacity:1;stroke-width:1.99459" />
    <path
       d="m 994.126,128.80236 v 44.08035 h 35.2044 v 29.38025 H 994.126 v 79.50421 c 0,1.01724 1.15686,5.0463 1.57572,6.30289 5.14608,16.1362 22.49898,13.80254 35.20448,8.65651 l 1.5757,31.47457 c -24.673,6.50235 -58.38155,7.32013 -72.26387,-18.3502 -4.28836,-7.93845 -5.80424,-16.55506 -6.56219,-25.47086 V 202.26296 H 924.2357 v -29.38025 h 29.42014 v -30.69668 l 40.45021,-13.38367 z"
       id="path8"
       style="fill:#231f20;fill-opacity:1;stroke-width:1.99459" />
    <path
       d="m 908.99706,170.24986 v 40.9289 c -7.83872,-3.59025 -19.62673,-4.48781 -27.82448,-1.81507 -18.37014,5.98376 -21.40191,30.21798 -22.59866,46.69326 v 72.14419 H 818.10377 V 172.86276 h 35.72304 v 35.16456 c 1.03718,-0.17951 0.85767,-1.09702 1.07707,-1.81507 1.59567,-5.32555 2.67275,-8.99559 5.54495,-13.88232 10.09261,-17.21328 28.46275,-27.04659 48.54823,-22.08007 z"
       id="path9"
       style="fill:#231f20;fill-opacity:1;stroke-width:1.99459" />
    <path
       d="m 110.92324,170.24986 v 40.9289 c -8.2177,-3.65009 -20.564185,-4.62744 -29.041177,-1.45604 -20.025645,7.51959 -21.022938,36.30147 -21.960394,54.17296 v 64.30546 c 0,0 -39.911669,0 -39.911669,0 V 172.86276 h 35.723038 v 35.16456 l 3.590256,-10.33196 c 8.995583,-20.06553 29.16085,-33.09018 51.579996,-27.46545 z"
       id="path10"
       style="fill:#c70c47;fill-opacity:1;stroke-width:1.99459" />
    <path
       d="m 1124.931,140.33106 c -0.7979,-0.11967 -0.9774,-0.99729 -1.3165,-1.55577 -3.1913,-5.32555 -5.5848,-11.28936 -8.9557,-16.75453 -21.8407,-35.46374 -56.2473,-58.202022 -96.877,-66.958255 l -18.90869,-3.390797 c 24.45359,-0.159567 49.28619,4.846844 70.74799,16.694686 27.1064,14.979343 47.7703,41.986036 55.3298,71.984616 z"
       id="path11"
       style="fill:#c70c47;fill-opacity:1;stroke-width:1.99459" />
    <path
       d="m 1086.4953,293.71474 c 27.4654,-1.25659 29.4401,39.31329 3.5105,41.84642 -28.762,2.79242 -31.2552,-40.56988 -3.5105,-41.84642 z m -1.0771,4.20858 c -19.4672,2.55307 -17.5524,36.00228 4.5277,33.38937 19.8661,-2.35361 16.8144,-36.18179 -4.5277,-33.38937 z"
       id="path12"
       style="fill:#231f20;fill-opacity:1;stroke-width:1.99459" />
    <path
       d="m 1086.5751,153.45544 -6.6021,-12.02735 c -14.4009,-23.77547 -37.4982,-39.77205 -64.5049,-46.294349 l -16.09634,-3.071663 c 14.48074,0 29.10104,2.433395 42.38494,8.297482 21.8607,9.67374 39.3133,29.75922 44.8184,53.09588 z"
       id="path13"
       style="fill:#c70c47;fill-opacity:1;stroke-width:1.99459" />
    <path
       class="cls-1"
       d="m 1085.4182,297.92332 c 21.362,-2.79242 24.4137,31.03576 4.5277,33.38937 -22.0801,2.61291 -24.0148,-30.8363 -4.5277,-33.38937 z m 7.2204,5.10614 c -3.5105,-0.69811 -9.1152,0.51859 -12.8651,0 v 23.6159 h 4.2086 v -10.49152 c 1.0771,-0.0199 1.9547,-0.23935 2.8922,0.53853 1.5557,1.27654 4.6274,8.85597 6.0436,9.69369 1.077,0.63827 2.9519,0.11968 4.1886,0.2593 0.6781,-0.59838 -5.2857,-8.61661 -5.7245,-9.75353 -0.3391,-0.91751 0.1795,-0.63827 0.6183,-0.83772 1.3364,-0.63827 2.6927,-0.63827 3.8296,-1.9547 2.7725,-3.21128 1.2965,-10.15244 -3.1913,-11.05001 z"
       id="path15"
       style="stroke-width:1.99459" />
    <path
       d="m 1092.6386,303.02946 c 4.4878,0.89756 5.9638,7.83872 3.1913,11.05001 -1.1369,1.31642 -2.4932,1.31642 -3.8296,1.95469 -0.4188,0.19946 -0.9574,-0.0598 -0.6183,0.83773 0.4388,1.13691 6.4026,9.15515 5.7245,9.75352 -1.2367,-0.13962 -3.1315,0.37897 -4.1886,-0.25929 -1.4162,-0.85768 -4.5078,-8.4371 -6.0436,-9.69369 -0.9375,-0.75794 -1.8151,-0.55849 -2.8922,-0.53854 v 10.49152 h -4.2086 v -23.6159 c 3.7698,0.51859 9.3746,-0.6981 12.8651,0 z m -8.6764,9.97293 c 11.788,1.59567 11.8279,-8.51688 0,-6.82149 z"
       id="path16"
       style="stroke-width:1.99459" />
    <path
       class="cls-1"
       d="m 1083.9622,313.00239 v -6.82149 c 11.8279,-1.69539 11.788,8.41716 0,6.82149 z"
       id="path17"
       style="stroke-width:1.99459" />
  </g>
</svg>
