<svg width="40" height="40" viewBox="0 0 40 40" fill="none" xmlns="http://www.w3.org/2000/svg">
<g clip-path="url(#clip0_676_4124)">
<path d="M16.7732 11.9136C16.4948 11.7185 16.2605 11.47 16.1051 11.1791C16.0935 11.1106 16.0757 11.017 16.0571 10.9014C16.1167 11.0163 16.1956 11.1578 16.3 11.3143C16.5033 11.6202 16.6812 11.8035 16.7732 11.9136Z" fill="#FFB62B"/>
<path d="M9.70918 24.7787C9.68985 24.7748 9.66665 24.8 9.64345 24.8393C9.64577 24.8338 9.64577 24.8314 9.645 24.8314C9.64345 24.8314 9.6334 24.8495 9.62644 24.8723C9.62644 24.8723 9.62618 24.8728 9.62566 24.8739C9.5754 24.9745 9.53286 25.1232 9.54369 25.1531C9.54524 25.1562 9.55838 25.1916 9.57153 25.19C9.57694 25.1892 9.59473 25.1829 9.62644 24.947C9.64577 24.969 9.68907 24.9517 9.75171 24.9289C9.74707 24.8377 9.73393 24.7842 9.70918 24.7787Z" fill="#FFB62B"/>
<path d="M2.80231 22.9849C2.80231 22.9849 2.8085 23.0053 2.8201 23.0462C2.75359 23.1083 2.71415 23.1461 2.70642 23.139C2.70487 23.1382 2.7041 23.1351 2.7041 23.1319C2.7041 23.1005 2.75127 22.9927 2.80231 22.9849Z" fill="#FFB62B"/>
<path d="M4.69182 21.7817C4.94625 21.6826 5.08235 21.6401 5.14654 21.6267C4.95243 21.7384 4.75369 21.8501 4.5534 21.9617C3.51483 22.539 1.53822 23.5834 1.49337 23.5031C1.45393 23.4331 3.09801 22.399 4.69182 21.7817Z" fill="#FFB62B"/>
<path d="M8.83884 19.2564C8.84503 19.2667 8.71357 19.3689 8.47461 19.5372C8.48389 19.501 8.49317 19.4648 8.50168 19.4294C8.7793 19.2729 8.83498 19.2509 8.83884 19.2564Z" fill="#FFB62B"/>
<path d="M16.1167 11.3143C16.1043 11.3175 16.0734 11.2498 16.0386 11.1547C16.0556 11.1531 16.0726 11.1523 16.0896 11.1507C16.0943 11.1602 16.0997 11.1696 16.1051 11.179C16.1198 11.2648 16.126 11.312 16.1167 11.3143Z" fill="#FFB62B"/>
<path d="M30.8532 5.95639C30.994 5.82034 30.97 5.59306 30.8053 5.49318C29.8696 4.92381 28.7575 4.3277 27.429 3.80787C25.9055 3.21491 24.5174 2.88697 23.3984 2.70137C23.7789 2.82248 24.3164 3.01751 24.9281 3.31793C25.6295 3.66317 26.2118 4.04065 26.6704 4.3859C27.2132 4.79012 27.7592 5.11491 28.4188 5.6489C28.9586 6.083 29.3994 6.48408 29.7319 6.80573C29.7768 6.84741 29.8425 6.84426 29.957 6.82618L30.8563 5.95875L30.8532 5.9556V5.95639Z" fill="#FFB62B"/>
<path d="M39.141 15.5948C38.878 14.8627 38.7319 14.4529 38.5385 14.0409C38.1967 13.3118 37.8689 12.7991 37.5719 12.3382C37.21 11.7791 36.7166 11.0705 36.0608 10.2794C36.0191 10.2259 35.9317 10.2204 35.8814 10.2692L33.5019 12.6316C33.488 12.6449 33.4795 12.6599 33.4741 12.6811C33.4122 12.9485 33.3449 13.3244 33.3055 13.7758C33.2776 14.1211 33.2862 14.3633 33.2776 14.6771C33.239 15.9731 33.2135 16.9522 33.3813 16.975C33.4261 16.9829 33.4431 16.9215 33.6566 16.6612C33.7935 16.4906 33.9698 16.2743 34.2165 16.0785C34.3038 16.0093 34.4662 15.8882 34.6928 15.7749C34.9875 15.6279 35.2117 15.517 35.3687 15.5767C35.6572 15.6821 35.6293 16.3239 35.6185 16.5346C35.4499 19.6622 34.3649 22.7434 33.8607 23.7587C33.2807 24.8975 31.9939 27.0224 29.452 28.8414C28.1552 29.7694 26.1886 30.4032 22.2354 31.6419C21.2726 31.8204 20.6486 31.7936 20.2511 31.7307C20.2511 31.7307 20.1389 31.7134 20.0129 31.6938L19.5876 31.5734L18.3711 36.0207L13.4118 35.6857L13.401 35.7014L13.353 35.7722L13.3206 35.7494L13.2216 35.6802L13.2092 35.6715L13.3623 35.6817L13.4118 35.6857L14.2779 34.4014L14.148 34.311L14.1434 34.3071C14.0622 34.2394 14.0212 34.2064 14.0073 34.197C13.691 33.9838 13.3964 33.7369 13.0708 33.5387C12.8001 33.3744 12.4196 33.1141 11.9819 32.7114C11.9402 32.7492 11.8992 32.7861 11.8574 32.8239C11.8281 32.8687 11.7917 32.9159 11.7476 32.9638C11.6293 33.092 11.5033 33.1691 11.4074 33.2163C11.2287 33.2422 11.1135 33.258 11.1135 33.258C11.1135 33.258 10.8637 33.1424 10.4763 32.9623C10.0463 33.3862 9.60631 33.8116 9.15624 34.2394C8.82139 34.5579 8.48731 34.8709 8.15479 35.1784C8.20505 35.2429 8.28625 35.3436 8.39374 35.4584C8.84149 35.9405 9.28925 36.1976 9.56996 36.3557C9.56996 36.3557 11.9618 37.7036 13.3616 38.1676C13.4435 38.1944 13.527 38.2211 13.527 38.2211C13.5526 38.2298 13.5804 38.2384 13.609 38.2471C14.6112 38.5632 17.4315 39.3504 21.1365 39.2285C22.479 39.1845 24.7603 39.0815 27.5017 38.1181C29.2726 37.4952 31.0605 36.5185 33.0789 34.9393C34.4523 33.8651 37.6863 31.0418 39.2338 26.2934C39.2338 26.2934 41.0186 20.8167 39.141 15.5948ZM18.6712 37.2404L18.5382 37.2027L18.7013 37.2137C18.6913 37.2216 18.6812 37.2302 18.6712 37.2404ZM19.8474 36.5114L19.852 36.4438C19.8961 36.4485 19.9402 36.454 19.9843 36.4587C19.9394 36.4752 19.8938 36.4925 19.8474 36.5114ZM19.9232 31.7449C19.9317 31.7378 19.9626 31.7661 19.9843 31.7866C19.9634 31.7708 19.9433 31.7567 19.9232 31.7449Z" fill="#FFB62B"/>
<path d="M19.9839 31.7866C19.9631 31.7708 19.943 31.7567 19.9229 31.7449C19.9314 31.7378 19.9623 31.7661 19.9839 31.7866Z" fill="#FFB62B" stroke="#DBC34C" stroke-width="0.0362435" stroke-miterlimit="10"/>
<path d="M17.1523 22.8842L17.1601 22.8921V22.8842H17.1523Z" fill="#FFB62B"/>
<path d="M10.5464 27.4872C10.5317 27.4998 10.5178 27.5131 10.5039 27.5257L10.5596 27.587L10.6106 27.5391C10.5882 27.521 10.5673 27.5037 10.5464 27.4872Z" fill="#FFB62B"/>
<path d="M16.0084 30.2625C16.4963 29.5193 17.0825 28.7226 17.7831 27.9071C17.9293 27.7373 18.5657 27.0027 19.5038 26.1141C20.1588 25.4928 20.7635 24.984 21.2708 24.5829C21.1811 24.4162 21.0899 24.2479 20.9947 24.078C20.8076 23.743 20.6189 23.4213 20.4294 23.1107C20.1371 22.7663 19.8541 22.5335 19.6445 22.3825C19.4234 22.2228 19.2432 22.1261 18.9137 21.9476C18.7104 21.8375 18.4389 21.692 18.0639 21.541C17.7599 21.4175 17.7336 21.4309 17.5767 21.3593C17.3462 21.254 17.0353 21.0573 16.7221 20.6586C16.5304 20.8875 16.3378 21.1163 16.1452 21.3452C15.614 21.9554 14.9698 22.6129 14.1957 23.2696C12.8277 24.4311 11.4767 25.2317 10.3585 25.7822C10.2889 26.0008 10.2108 26.2454 10.1404 26.4648C10.0677 26.6921 9.9958 26.9202 9.92311 27.1482C8.87603 26.3437 7.82896 25.54 6.78188 24.7355L8.40121 21.6031L4.15568 24.0395L5.16951 27.263L5.64587 26.8329C6.03253 27.1466 6.42306 27.4604 6.81745 27.7742C7.41755 28.2531 8.0161 28.7242 8.61078 29.1882C8.45148 29.4855 8.2914 29.7827 8.1321 30.08C8.2365 30.2043 8.34167 30.3277 8.44607 30.452C6.39831 32.5706 4.34979 34.6885 2.30204 36.8071C2.25796 36.811 1.3408 36.9015 0.975017 37.6533C0.644036 38.3336 1.01136 39.0453 1.37096 39.4133C1.79319 39.8474 2.59976 40.2139 3.33287 39.8529C3.89894 39.5745 4.23766 38.9517 4.18507 38.2864C6.3465 36.2362 8.50871 34.1852 10.6701 32.1349C10.7011 32.153 10.732 32.1719 10.7637 32.1908C10.9795 32.3221 11.1813 32.459 11.3692 32.5982C11.5502 32.4794 11.7335 32.3567 11.9183 32.2301C12.0451 32.1436 12.1688 32.0579 12.291 31.9714C12.5996 32.2741 12.9367 32.5848 13.3041 32.8986C13.8222 33.3413 14.3295 33.7298 14.8113 34.068C14.7192 34.23 14.6234 34.3951 14.5228 34.5626C14.4091 34.7514 14.2955 34.9338 14.1818 35.11C15.4067 35.1973 16.6317 35.2846 17.8574 35.3711C18.3654 33.7471 18.8735 32.1224 19.3808 30.4984C19.2594 30.6085 18.1729 31.5931 18.0476 31.7063C17.9711 31.7756 17.074 32.5887 16.9959 32.6587C16.1445 32.0075 15.2923 31.3564 14.4408 30.7052C14.4478 30.7029 15.0348 30.5369 15.0417 30.5354C15.0595 30.5299 15.9898 30.2672 16.0084 30.2625ZM17.1529 23.7713L17.1591 23.71H17.1707H17.1769C17.1753 23.7155 17.1738 23.7202 17.1722 23.7249C17.1668 23.7414 17.1622 23.7587 17.1567 23.776C17.1552 23.7807 17.1529 23.7862 17.1513 23.7918L17.1529 23.7721V23.7713ZM17.098 23.7108V23.7178L17.091 23.7108H17.098ZM17.033 25.0548C17.033 25.0548 17.0384 25.0469 17.0408 25.0437L17.0384 25.0658C17.0384 25.0658 17.0423 25.0728 17.0446 25.0768C17.05 25.087 17.0562 25.0972 17.0624 25.1067L17.0431 25.124L17.033 25.1334L17.0384 25.0658C17.0361 25.0618 17.0346 25.0587 17.033 25.0548ZM10.5596 27.587L10.5039 27.5257C10.5178 27.5131 10.5317 27.4998 10.5464 27.4872C10.5673 27.5037 10.5882 27.521 10.6106 27.5391L10.5596 27.587ZM12.6081 29.163C12.5833 29.1843 12.5586 29.2055 12.5338 29.2267C12.4279 29.1229 12.3034 29.0128 12.1603 28.902C12.0405 28.8092 11.9237 28.7289 11.8139 28.6605C11.8549 28.6173 11.8951 28.5748 11.9361 28.5315C13.1687 27.2284 14.403 25.9245 15.6356 24.6214C16.0671 24.5334 16.4979 24.4461 16.9294 24.358C16.8907 24.7473 16.8521 25.1365 16.8134 25.5258C15.4114 26.7385 14.0101 27.9504 12.6081 29.163Z" fill="#FFB62B"/>
<path d="M10.6106 27.5391L10.5596 27.587L10.5039 27.5257C10.5178 27.5131 10.5317 27.4998 10.5464 27.4872C10.5673 27.5037 10.5882 27.521 10.6106 27.5391Z" fill="#FFB62B"/>
<path d="M17.0995 24.358L17.0972 24.3824C17.0949 24.3784 17.0933 24.3745 17.0918 24.3706C17.0941 24.3666 17.0972 24.3619 17.0995 24.358Z" fill="#FFB62B"/>
<path d="M17.0913 24.4571L17.0975 24.3824C17.1052 24.3989 17.1137 24.4138 17.123 24.4272L17.0913 24.4571Z" fill="#FFB62B"/>
<path d="M19.4584 17.6049C19.2821 18.3182 20.3261 19.0826 20.5434 19.2415C20.8767 19.4853 21.1551 19.689 21.5619 19.7181C22.0421 19.7527 22.2803 19.512 22.5432 19.6756C22.677 19.759 22.759 19.9996 22.9159 20.477C23.0961 21.0227 23.0915 21.1525 23.2206 21.2115C23.4488 21.3161 23.8555 21.0904 24.0001 20.7774C24.0481 20.6736 24.0759 20.5407 24.0342 20.2434C23.9599 19.7181 23.7612 19.3335 23.6955 19.2085C23.2121 18.2907 22.9701 17.8314 22.95 17.8055C22.4953 17.2243 21.4582 16.2727 20.6115 16.5362C20.265 16.6439 19.9387 16.9585 19.8729 17.0238C19.6773 17.2172 19.5141 17.3785 19.4584 17.6042V17.6049Z" fill="#FFB62B"/>
<path d="M25.1956 13.6201C25.5845 14.4278 26.0632 15.3039 26.6541 16.2145C27.0214 16.7808 27.3918 17.299 27.756 17.7709L38.192 7.00469L38.581 2.27041L33.9789 3.01594L25.0015 12.9721L25.1956 13.6209V13.6201Z" fill="#FFB62B"/>
<path d="M16.1166 11.3143C16.078 11.3245 15.8529 10.6223 15.8955 10.6042C15.9132 10.5971 15.9589 10.7135 16.0571 10.9014C16.0996 11.1617 16.1336 11.3096 16.1166 11.3143Z" fill="#FFB62B"/>
<path d="M10.6106 27.5391L10.5596 27.587L10.5039 27.5257C10.5178 27.5131 10.5317 27.4998 10.5464 27.4872C10.5673 27.5037 10.5882 27.521 10.6106 27.5391Z" fill="#FFB62B"/>
<path d="M17.0995 24.358L17.0972 24.3824C17.0949 24.3784 17.0933 24.3745 17.0918 24.3706C17.0941 24.3666 17.0972 24.3619 17.0995 24.358Z" fill="#FFB62B"/>
<path d="M17.1601 22.8842V22.8921L17.1523 22.8842H17.1601Z" fill="#FFB62B"/>
<path d="M17.2425 22.8826C17.241 22.8881 17.2394 22.8937 17.2379 22.8992C17.2325 22.9172 17.2271 22.9361 17.2216 22.955L17.2178 22.9511L17.224 22.8834H17.2363L17.2425 22.8826Z" fill="#FFB62B"/>
<path d="M17.0995 24.358L17.0972 24.3824C17.0949 24.3784 17.0933 24.3745 17.0918 24.3706C17.0941 24.3666 17.0972 24.3619 17.0995 24.358Z" fill="#FFB62B"/>
<path d="M17.238 22.8992C17.231 22.9228 17.224 22.9471 17.2163 22.9723L17.224 22.8834H17.2364L17.238 22.8992Z" fill="#FFB62B"/>
<path d="M17.0995 24.358L17.0972 24.3824C17.0949 24.3784 17.0933 24.3745 17.0918 24.3706C17.0941 24.3666 17.0972 24.3619 17.0995 24.358Z" fill="#FFB62B"/>
<path d="M17.0913 24.4571L17.0975 24.3824C17.1052 24.3989 17.1137 24.4138 17.123 24.4272L17.0913 24.4571Z" fill="#FFB62B"/>
<path d="M17.0995 24.358L17.0972 24.3824C17.0949 24.3784 17.0933 24.3745 17.0918 24.3706C17.0941 24.3666 17.0972 24.3619 17.0995 24.358Z" fill="#FFB62B"/>
<path d="M17.1037 24.3942L17.1021 24.4468L17.0913 24.4571L17.0975 24.3824C17.0975 24.3824 17.1014 24.3902 17.1037 24.3942Z" fill="#FFB62B"/>
<path d="M17.1601 22.8842V22.8921L17.1523 22.8842H17.1601Z" fill="#FFB62B"/>
<path d="M12.6082 29.163C12.5834 29.1843 12.5587 29.2055 12.5339 29.2267C12.428 29.1229 12.3035 29.0128 12.1604 28.9019C12.0405 28.8092 11.9238 28.7289 11.814 28.6605C11.855 28.6173 11.8952 28.5748 11.9361 28.5315L12.6082 29.163Z" fill="#FFB62B"/>
<path d="M17.7066 12.6033C17.7629 12.6033 17.8086 12.5568 17.8086 12.4995C17.8086 12.4421 17.7629 12.3957 17.7066 12.3957C17.6502 12.3957 17.6045 12.4421 17.6045 12.4995C17.6045 12.5568 17.6502 12.6033 17.7066 12.6033Z" fill="#FFB62B"/>
<path d="M19.9839 31.7866C19.9631 31.7708 19.943 31.7567 19.9229 31.7449C19.9314 31.7378 19.9623 31.7661 19.9839 31.7866Z" fill="#FFB62B" stroke="#DBC34C" stroke-width="0.0362435" stroke-miterlimit="10"/>
<path d="M18.0686 31.3053C17.7237 31.575 17.3796 31.844 17.0347 32.1137C16.3758 31.6733 15.717 31.2329 15.0581 30.7925C15.1764 30.7799 15.2947 30.7666 15.4123 30.7532C15.4208 30.7579 15.4293 30.7634 15.4378 30.7681C15.4324 30.7611 15.4308 30.7556 15.4332 30.7508C15.4432 30.7485 15.454 30.7461 15.4641 30.743C15.7611 30.6698 16.058 30.5967 16.355 30.5236C16.8035 30.7272 17.252 30.9309 17.7005 31.1346H17.7013C17.757 31.1535 17.8057 31.1747 17.8482 31.2015H17.849C17.9225 31.2361 17.9952 31.2707 18.0686 31.3053Z" fill="#FFB62B"/>
<path d="M15.464 30.743C15.454 30.7461 15.4432 30.7485 15.4331 30.7508C15.4362 30.7438 15.4463 30.7422 15.464 30.743Z" fill="#FFB62B"/>
<path d="M28.5912 19.2989C27.7591 18.6934 27.2487 18.0343 26.9634 17.5986C26.0075 16.5087 25.4469 15.5068 25.1159 14.7958C24.6395 13.7758 24.3928 12.8298 24.2111 12.1471C23.9374 11.1098 23.9559 10.8456 23.7177 10.0033C23.6334 9.67147 23.5298 9.34825 23.427 9.02582C23.2352 8.42577 22.9166 7.42622 22.4441 6.9237C21.5316 5.28557 20.4512 4.1539 19.8411 3.5688C19.3454 3.09223 18.4599 2.24997 17.0641 1.45646C15.0295 0.294125 12.882 -0.202897 12.7227 0.0754983C12.6051 0.283901 13.7202 0.732164 14.3227 2.00775C14.5523 2.49455 14.6451 3.23615 14.673 3.49173C14.6761 3.53263 14.6343 3.56094 14.5949 3.54285C14.202 3.37298 12.568 2.67464 11.4049 2.37815C10.3091 2.0974 8.47636 1.78598 8.47636 1.889C8.47636 1.99202 9.39816 3.05841 9.70981 4.06032C9.84978 4.51173 9.92788 5.20457 9.95031 5.41061C9.9534 5.43893 9.92556 5.45937 9.89463 5.45151C9.59767 5.37208 8.28303 5.01897 7.37747 4.91359C6.62658 4.82551 5.48052 4.83652 5.14103 4.83888C5.10159 4.83888 5.08226 4.87978 5.10778 4.90573C5.30652 5.11964 5.92595 5.80776 6.2345 6.41567H6.23992C6.47269 6.87337 6.60724 7.29882 6.68612 7.65036C5.36375 8.55081 4.4172 9.85314 3.86814 10.7976C2.72904 12.1967 0.551372 15.2944 0.0804202 19.7338C0.0688203 19.8392 0.0518073 19.9988 0.0347943 20.2049C-0.0216581 20.8804 -0.378932 26.3775 3.36007 31.3383C3.65625 31.7307 4.11329 32.2993 4.7389 32.9363C4.74122 32.934 4.74432 32.9316 4.74664 32.9285L4.8549 33.0472L7.45171 30.6069L7.31483 30.4559C7.28777 30.4087 7.24678 30.3222 7.24059 30.2074C7.23905 30.1783 7.23518 30.0635 7.2955 29.9369C7.35504 29.8118 7.43315 29.7662 7.57158 29.642C7.64891 29.5728 7.75563 29.4698 7.87394 29.329C7.36587 28.8752 6.83615 28.4199 6.28477 27.9653C6.10072 27.8127 5.91667 27.6633 5.73339 27.5163C5.58105 27.731 5.38849 27.9685 5.14567 28.2083C5.0869 28.2657 5.0289 28.32 4.97167 28.3719L3.42426 23.5936L9.28912 20.5415C9.14374 20.9874 8.90014 21.5898 8.5823 22.3778C8.20183 23.3191 7.82522 24.0709 7.55302 24.5829C8.24514 25.1554 8.93726 25.7287 9.62938 26.302C9.70671 25.7161 9.76316 25.1798 9.75156 24.9289C9.68893 24.9517 9.64562 24.969 9.62629 24.947C9.59458 25.1829 9.57679 25.1892 9.57138 25.19C9.55824 25.1916 9.54509 25.1562 9.54354 25.1531C9.53272 25.1232 9.57525 24.9745 9.62551 24.8739C9.62551 24.8739 9.62577 24.8734 9.62629 24.8723C9.63325 24.8495 9.6433 24.8314 9.64485 24.8314C9.64562 24.8314 9.64562 24.8338 9.6433 24.8393C9.6665 24.8 9.6897 24.7748 9.70903 24.7787C9.73378 24.7842 9.74693 24.8377 9.75156 24.9289C9.79874 24.9108 9.85674 24.8904 9.92324 24.8817C10.0416 24.866 10.1444 24.892 10.2171 24.9187C10.1498 24.7449 10.0655 24.4893 10.0153 24.1716C9.96964 23.8798 9.88922 23.1398 10.2542 22.1348C10.9579 20.1954 12.4566 19.6379 12.2571 18.4047C12.237 18.2805 12.2045 18.1822 12.1829 18.1224C12.0073 17.7308 11.5874 17.6167 11.1335 16.5346C10.9061 15.9991 10.5728 15.1772 10.7801 14.1903C10.9456 13.3921 11.4219 12.6937 11.6013 12.7118C11.8032 12.7322 11.0662 14.6385 11.6717 16.04C12.1086 17.0474 12.8348 17.6325 13.7257 18.3355C14.376 18.8483 14.7232 19.0158 17.9325 20.698C19.4127 21.4734 20.6206 22.1198 21.2849 23.1532C21.6661 23.7454 21.8254 24.3792 21.8254 24.3792C21.9855 25.0107 21.8254 25.8915 21.9097 25.8915C21.994 25.8915 26.3718 23.6376 26.296 23.5574C26.2202 23.478 25.4948 23.5676 24.9117 23.3671C24.2977 23.1555 23.894 22.8307 23.6868 22.6381C23.4401 22.3597 23.1602 21.994 22.9073 21.5402C22.5686 20.9268 22.4928 20.0303 22.3134 19.9328C22.134 19.8352 21.6885 20.0358 21.2122 19.9587C20.6708 19.8706 20.2873 19.6544 20.0854 19.523C19.7436 19.0952 19.3763 18.5722 19.0345 17.9518C18.6169 17.1913 18.1344 15.9936 18.1653 15.8929C18.1962 15.793 18.6332 15.6947 18.9951 15.6436C19.8109 15.5248 20.4605 15.7828 21.0714 16.0376C21.6158 16.2617 22.4619 16.6895 23.3249 17.4878C23.5468 17.9054 23.7734 18.3898 23.9752 18.9411C24.1802 19.4971 24.3008 20.4219 24.4184 20.4762C24.539 20.5281 25.1159 20.1954 25.7941 20.3244C26.4499 20.4502 26.8427 20.8214 26.9657 20.948C27.1482 21.2052 27.3639 21.574 27.5178 22.0475C27.7228 22.6813 27.6075 23.5189 27.6918 23.5857C28.0545 23.8751 29.1859 23.1768 29.8811 22.3259C30.4642 21.611 30.6908 20.8482 30.789 20.3684C30.6544 20.2859 29.4349 19.9123 28.5912 19.2989ZM1.4724 23.5314C1.47008 23.5275 1.47008 23.522 1.47085 23.5157L1.47781 23.537C1.47781 23.537 1.47317 23.5338 1.4724 23.5314ZM20.012 10.5884C20.0189 11.1153 19.8542 11.632 19.4784 11.9828C19.2959 10.6954 18.917 9.27668 18.4723 8.33455C18.9935 8.5398 19.4266 8.96133 19.6679 9.35454C19.7289 9.45756 19.7854 9.56845 19.8302 9.68169C19.8349 9.68169 19.8395 9.67934 19.8442 9.67855C19.9524 10.1016 20.0104 10.3423 20.0274 10.4831C20.0313 10.5169 20.0352 10.5499 20.0383 10.5822C20.0298 10.5845 20.0205 10.5869 20.012 10.5884Z" fill="#FFB62B"/>
</g>
<defs>
<clipPath id="clip0_676_4124">
<rect width="40" height="40" fill="white"/>
</clipPath>
</defs>
</svg>
