<?xml version="1.0" encoding="UTF-8"?>
<svg id="KHIX_Logos" data-name="KHIX Logos" xmlns="http://www.w3.org/2000/svg" viewBox="0 0 1858.27 666">
  <defs>
    <style>
      .cls-1 {
        fill: none;
      }

      .cls-2 {
        fill: #231f20;
      }

      .cls-3 {
        fill: #fff;
      }
    </style>
  </defs>
  <path class="cls-1" d="M280.4,168.1l31.12,16.43-12.36-28.89c-24.6-24.05-42.73-28.25-42.73-28.25,11.35,10.76,23.97,40.71,23.97,40.71Z"/>
  <g>
    <g>
      <path class="cls-3" d="M389.91,492.22c-.31-.72-.61-1.44-.91-2.15.25.71.46,1.46.64,2.26.09-.04.18-.07.27-.11Z"/>
      <rect class="cls-3" x="216.87" y="444.27" width="0" height=".08" transform="translate(-250.65 283.49) rotate(-45)"/>
      <g>
        <path class="cls-3" d="M258.11,661.34c-1.33,0-2.74-.1-4.18-.29-6.38-.83-14.45-3.56-18-8.75-1.71-2.49-2.19-5.32-1.44-8.4.37-1.53,1.52-2.82,3.42-3.84.6-.32,1.22-.59,1.82-.8,18.38-6.43,37.36-18.83,56.44-36.84,16.92-15.97,29.46-33.63,37.29-52.5l.12-.28-.73-.14c-1.52-.29-3.02-.79-4.47-1.48-3.88-1.86-7.22-5.09-9.66-9.33-2.55-4.43-4.86-10.78-5.42-12.34,2.84.21,7.21.89,11.44,2.18,2.1.64,4.01,1.39,5.67,2.24,1.73.88,3.17,1.86,4.26,2.9,1.03.97,2,2.18,2.87,3.59l.29.47.16-.53c3.14-10.51,4.95-21.62,5.37-33.03.06-1.73.12-4,.1-6.3-.08-9.21,6.55-13.74,20.24-13.85.07,0,.11,0,.15,0h.02c11.92,0,17.74,3.38,18.87,10.96.14.97.21,1.76.22,2.58.3,35.54-9.8,68.8-30.03,98.85l-.32.48.57-.1c1.43-.24,2.72-.36,3.96-.36s2.39.11,3.46.34c1.51.32,3.13.94,4.81,1.85,1.63.87,3.33,2,5.07,3.37,3.49,2.75,6.54,5.95,8.32,8.15-1.6.44-8.13,2.16-13.23,2.59-.77.07-1.53.1-2.34.1-4.03,0-7.67-.91-10.83-2.71-1.4-.79-2.66-1.74-3.77-2.82-.66-.65-1.27-1.27-1.83-1.84l-.2-.21-.18.23c-7.12,9.35-15.27,18.33-24.23,26.68-4.83,4.51-10.29,8.73-16.23,12.56-15.31,9.85-31.85,15.74-46.56,16.59-.41.02-.85.03-1.31.03ZM503.01,561.59c-4.05,0-7.77-2.09-9.97-5.6-.38-.62-.72-1.26-.99-1.92-.03-.1-4.21-13.46-15.71-31.32l-.47-.73v.87c.04,2.91-.38,5.49-1.24,7.66-.57,1.44-1.46,2.93-2.63,4.43-1.13,1.45-2.54,2.94-4.19,4.43-3.32,2.99-7.08,5.48-9.45,6.8-.16-1.65-.74-8.37-.3-13.47.43-4.89,2.1-9.23,4.82-12.53,1.01-1.24,2.16-2.33,3.42-3.24,1.41-1.01,2.74-1.9,3.95-2.65l.23-.14-.16-.22c-12.46-17.09-27.69-31.94-45.28-44.13-.9-.63-1.81-1.26-2.74-1.88-3.22-2.15-4.94-4.91-5.13-8.21-.17-3,.99-6.45,3.34-9.96,3.24-4.85,8.48-7.99,13.35-7.99,1.59,0,3.21.55,4.83,1.63,3.1,2.08,6.31,4.35,9.54,6.75,6.3,4.7,12.37,9.74,18.03,14.98l.31.29.1-.41c.78-3.04,2.33-7.31,5.29-10.37,1.05-1.09,2.44-2.14,4.12-3.1,1.62-.92,3.48-1.77,5.55-2.5,4.18-1.49,8.62-2.38,11.33-2.7-.48,1.58-2.5,8.03-4.84,12.57-2.25,4.36-5.44,7.73-9.22,9.76-1.43.76-2.91,1.32-4.4,1.68-.55.14-1.07.25-1.58.37l-.69.15.32.32c7.87,7.88,15.13,16.35,21.56,25.16,5.56,7.6,10.61,15.57,15,23.69,1.82,3.09,3.52,6.13,4.95,8.69l.71,1.29c.63,1.15,1.27,2.31,1.89,3.47.22.43.44.86.67,1.31,2.24,4.32,4.78,9.21,3.15,14.09-1.58,4.8-6.55,8.15-10.7,10.53-2.05,1.4-4.38,2.14-6.78,2.14ZM464.43,401.09c-4.43,0-8.08-4.55-9.44-6.5-2.45-3.53-2-7.38,1.34-11.45,1.73-2.15,7.08-8.09,19.65-17.38,14.06-10.37,28.57-18.29,43.12-23.53l.19-.07-.03-.2c-.43-2.72-1.14-9.64,1.58-15.06.68-1.35,1.69-2.76,3.02-4.18,1.25-1.35,2.78-2.71,4.55-4.05,3.56-2.68,7.52-4.85,10-5.97.02,1.66.02,8.41-.86,13.45-.82,4.67-2.68,8.6-5.54,11.68l-.57.61.81-.2c9.09-2.24,18.17-3.37,26.99-3.37h.28c.09,0,.18,0,.26,0,.09,0,.17,0,.26,0,5.26.21,7.4,3.33,7.38,10.76-.02,6.76-1.63,10.73-4.91,12.14-.88.38-1.89.58-3.02.58h-.24c-23.27,0-44.64,9.83-60.65,18.4-6.08,3.25-12.09,7.41-18.39,12.72-3.1,2.61-4.19,3.76-6,5.67-.72.76-1.55,1.63-2.66,2.76-1.69,1.71-4.03,2.85-6.43,3.12-.25.02-.47.04-.69.04ZM480.64,294.05c-.65,0-1.24-.68-1.8-2.07-2.61-6.48-3.36-11.9-2.3-16.58.36-1.58.91-3.18,1.67-4.9,1.51-3.43,3.54-6.59,5.84-10.07,9.64-14.63,27.07-26.97,35.81-30.7,1.86-.79,2.81-.96,3.27-.96,3.06.04,7.04,4.16,8.92,9.18,1.91,5.11,2.11,6.04-1.91,8.98-.81.6-1.8,1.27-3.03,2.09-16.68,11.21-27.31,22.93-39.48,37.09-1.06,1.24-2.04,2.61-2.91,3.81-.35.49-.69.97-1.02,1.41-1.06,1.41-2.16,2.72-3.06,2.72Z"/>
        <path class="cls-2" d="M523.18,229.01c2.88.04,6.84,4.17,8.64,9.02,1.92,5.13,2.01,5.89-1.83,8.69-.82.6-1.8,1.27-3.02,2.09-16.7,11.23-27.35,22.97-39.53,37.14-1.07,1.24-2.06,2.62-2.92,3.83-.35.49-.69.96-1.02,1.4-.97,1.3-2.07,2.62-2.86,2.62-.66,0-1.21-1.04-1.57-1.92-2.59-6.43-3.33-11.8-2.29-16.43.36-1.56.9-3.15,1.66-4.86,1.5-3.42,3.52-6.57,5.82-10.04,9.61-14.59,26.98-26.89,35.7-30.61,1.92-.82,2.81-.94,3.17-.94h.04M538.16,313.09c0,2.14-.04,8.33-.86,13.02-.81,4.62-2.65,8.51-5.47,11.56l-1.14,1.23,1.62-.4c9.07-2.23,18.13-3.37,26.93-3.37h.28c.09,0,.17,0,.25,0,.09,0,.18.01.25.01h0c5.1.21,7.17,3.25,7.15,10.51-.02,6.65-1.58,10.55-4.76,11.91-.85.37-1.83.56-2.92.56h-.24c-23.33,0-44.73,9.85-60.77,18.43-6.09,3.26-12.12,7.43-18.44,12.75-3.11,2.62-4.21,3.78-6.02,5.7-.72.76-1.54,1.63-2.65,2.76-1.65,1.67-3.93,2.78-6.27,3.04-.23.02-.45.04-.68.04-4.31,0-7.9-4.47-9.24-6.4-2.41-3.47-1.98-7.12,1.34-11.17,1.71-2.12,7.04-8.05,19.59-17.31,14.05-10.36,28.53-18.26,43.05-23.49l.39-.14-.06-.41c-.43-2.7-1.13-9.55,1.55-14.91.66-1.33,1.67-2.72,2.98-4.12,1.24-1.34,2.76-2.69,4.51-4.02,3.38-2.55,7.13-4.62,9.61-5.78M433.85,442.04c1.54,0,3.11.53,4.69,1.59,3.1,2.07,6.3,4.34,9.53,6.75,6.3,4.7,12.35,9.73,18.01,14.97l.62.57.21-.81c.77-3.01,2.3-7.24,5.23-10.26,1.03-1.08,2.4-2.1,4.07-3.05,1.6-.92,3.46-1.75,5.51-2.48,3.97-1.42,8.17-2.28,10.89-2.64-.63,2.04-2.53,7.93-4.71,12.16-2.23,4.31-5.38,7.65-9.11,9.66-1.41.75-2.87,1.31-4.35,1.66-.58.14-1.12.26-1.65.38l-.17.04-.89.2.64.65c7.86,7.87,15.11,16.33,21.54,25.13,5.55,7.59,10.59,15.55,14.99,23.68,1.81,3.08,3.52,6.11,4.94,8.68l.72,1.31c.63,1.15,1.26,2.3,1.88,3.45.22.43.45.87.67,1.31,2.33,4.48,4.73,9.12,3.14,13.9-1.55,4.72-6.47,8.03-10.62,10.41-1.99,1.36-4.28,2.08-6.62,2.08-3.96,0-7.61-2.05-9.76-5.48-.37-.6-.7-1.23-.96-1.87-.24-.77-4.49-13.91-15.74-31.38l-.94-1.46.02,1.74c.03,2.88-.38,5.43-1.23,7.57-.56,1.41-1.43,2.88-2.6,4.37-1.12,1.43-2.52,2.91-4.16,4.4-3.15,2.84-6.7,5.23-9.07,6.58-.19-2.12-.68-8.29-.27-13.04.43-4.84,2.07-9.13,4.77-12.4,1-1.22,2.13-2.29,3.37-3.19,1.39-1,2.72-1.89,3.93-2.64l.46-.28-.32-.44c-12.47-17.12-27.73-31.98-45.34-44.19-.75-.52-1.74-1.21-2.75-1.89-3.15-2.1-4.84-4.8-5.02-8.02-.16-2.95.97-6.34,3.3-9.81,3.15-4.71,8.43-7.88,13.14-7.88M363.83,484.27s.02,0,.04,0c11.77,0,17.51,3.31,18.63,10.74.14.96.21,1.74.21,2.54.3,35.49-9.79,68.7-29.98,98.71l-.65.96,1.15-.19c1.41-.24,2.7-.35,3.92-.35s2.36.11,3.41.34c1.48.31,3.08.93,4.75,1.82,1.61.86,3.31,1.98,5.04,3.34,3.32,2.61,6.24,5.64,8.04,7.82-2.06.55-8.07,2.08-12.81,2.48-.76.07-1.52.1-2.32.1-3.98,0-7.58-.9-10.7-2.68-1.38-.78-2.63-1.71-3.72-2.78-.66-.65-1.26-1.26-1.82-1.84l-.4-.42-.35.46c-7.11,9.34-15.25,18.31-24.2,26.65-4.82,4.5-10.27,8.71-16.2,12.53-15.28,9.83-31.77,15.71-46.43,16.55-.41.02-.84.03-1.3.03-1.33,0-2.72-.1-4.15-.29-6.32-.82-14.33-3.52-17.83-8.64-1.66-2.43-2.14-5.19-1.4-8.19.36-1.46,1.46-2.69,3.29-3.68.59-.32,1.19-.58,1.79-.79,18.41-6.44,37.43-18.86,56.53-36.9,16.94-15.99,29.51-33.68,37.35-52.58l.23-.55-.59-.13c-.08-.02-.17-.03-.25-.05l-.19-.04c-1.5-.28-2.98-.77-4.41-1.46-3.83-1.84-7.14-5.03-9.55-9.23-2.38-4.12-4.54-9.92-5.27-11.93,2.82.24,6.98.91,11,2.14,2.09.64,3.98,1.39,5.63,2.23,1.71.87,3.12,1.83,4.2,2.86,1.02.95,1.97,2.14,2.83,3.54l.59.95.32-1.07c3.15-10.53,4.96-21.66,5.38-33.1.06-1.73.12-4.01.1-6.31-.07-9.04,6.47-13.49,19.99-13.6h.04s.04,0,.04,0c.02,0,.03,0,.05,0M523.18,228.51h-.04c-.71,0-1.87.34-3.37.98-8.06,3.44-25.91,15.6-35.92,30.79-2.11,3.19-4.29,6.54-5.86,10.11-.71,1.6-1.3,3.25-1.69,4.95-1.27,5.61.21,11.51,2.31,16.73.64,1.59,1.31,2.23,2.03,2.23.97,0,2.04-1.19,3.26-2.82,1.15-1.55,2.44-3.49,3.92-5.21,12.59-14.65,22.92-25.95,39.43-37.05,1.21-.81,2.21-1.49,3.04-2.1,4.14-3.02,3.93-4.11,2-9.27-1.94-5.2-6.06-9.3-9.11-9.34h0ZM538.65,312.32c-2.29,1-6.5,3.21-10.4,6.15-1.64,1.24-3.22,2.61-4.58,4.08-1.25,1.34-2.32,2.76-3.06,4.24-2.44,4.87-2.24,11.16-1.6,15.21-17.11,6.16-31.9,15.24-43.18,23.56-14.05,10.37-18.95,16.49-19.7,17.42-3,3.66-4.17,7.69-1.35,11.75,2.12,3.04,5.65,6.61,9.65,6.61.24,0,.48-.02.72-.04,2.53-.28,4.89-1.47,6.58-3.19,3.9-3.97,4.32-4.78,8.64-8.42,5.73-4.83,11.84-9.21,18.35-12.69,18.71-10.01,38.97-18.37,60.53-18.37h.24c1.2,0,2.23-.21,3.12-.6,4-1.72,5.04-6.95,5.06-12.37.02-6.44-1.45-10.76-7.63-11.01-.17,0-.33-.02-.52-.02h-.28c-9.38,0-18.44,1.26-27.05,3.38,2.58-2.78,4.7-6.66,5.6-11.81,1.02-5.85.86-13.88.86-13.88h0ZM433.85,441.54c-4.65,0-10.12,2.95-13.56,8.1-4.6,6.88-5.03,13.92,1.86,18.52.93.62,1.84,1.25,2.74,1.88,20.26,14.04,34.9,29.91,45.22,44.07-1.16.72-2.48,1.6-3.96,2.66-1.22.88-2.4,1.97-3.47,3.28-2.49,3.02-4.4,7.21-4.88,12.67-.51,5.91.34,13.89.34,13.89,2.2-1.19,6.21-3.76,9.83-7.02,1.53-1.38,2.99-2.88,4.22-4.46,1.13-1.44,2.06-2.95,2.67-4.49.97-2.44,1.3-5.15,1.27-7.76,11.37,17.66,15.58,30.89,15.69,31.28.29.7.63,1.35,1.01,1.96,2.29,3.66,6.16,5.72,10.18,5.72,2.34,0,4.74-.69,6.9-2.17,4.39-2.52,9.22-5.84,10.81-10.67,1.83-5.47-1.41-10.82-3.84-15.59-.85-1.6-1.73-3.18-2.6-4.77-1.62-2.91-3.26-5.82-4.95-8.69-4.46-8.24-9.49-16.16-15.02-23.72-6.53-8.94-13.77-17.36-21.59-25.19.59-.13,1.19-.26,1.83-.42,1.47-.35,2.97-.91,4.46-1.7,3.46-1.86,6.81-5.01,9.32-9.87,2.72-5.27,4.97-12.98,4.97-12.98-2.49.27-7.17,1.12-11.76,2.76-1.94.69-3.86,1.53-5.59,2.52-1.6.91-3.04,1.95-4.18,3.14-2.79,2.88-4.44,6.92-5.35,10.48-5.75-5.32-11.78-10.32-18.05-15-3.13-2.33-6.31-4.59-9.55-6.76-1.74-1.16-3.4-1.67-4.97-1.67h0ZM363.87,483.77c-.06,0-.11,0-.17.01-11.05.09-20.58,3.06-20.49,14.1.02,2.11-.03,4.21-.1,6.29-.42,11.37-2.19,22.37-5.36,32.97-.82-1.33-1.78-2.58-2.91-3.64-1.2-1.14-2.69-2.11-4.32-2.94-1.78-.91-3.74-1.66-5.71-2.26-4.66-1.43-9.37-2.06-11.87-2.22,0,0,2.6,7.6,5.56,12.74,2.73,4.74,6.23,7.73,9.77,9.43,1.52.73,3.05,1.22,4.53,1.5.15.03.29.05.43.08-7.83,18.87-20.26,36.39-37.23,52.41-16.02,15.13-35.38,29.45-56.35,36.79-.63.22-1.26.5-1.86.82-1.67.9-3.1,2.2-3.54,4-2.63,10.74,9.97,16.19,19.65,17.45,1.5.2,2.92.29,4.21.29.46,0,.9-.01,1.32-.03,15.83-.91,32.52-7.52,46.68-16.63,5.96-3.84,11.47-8.11,16.27-12.59,9.08-8.46,17.16-17.38,24.26-26.71.56.58,1.17,1.2,1.83,1.85,1.07,1.05,2.35,2.03,3.82,2.86,2.9,1.65,6.56,2.74,10.95,2.74.77,0,1.55-.03,2.36-.1,5.91-.5,13.64-2.7,13.64-2.7-1.56-1.97-4.76-5.47-8.6-8.49-1.62-1.27-3.35-2.45-5.11-3.39-1.62-.87-3.27-1.53-4.88-1.87-1.15-.25-2.33-.35-3.51-.35-1.35,0-2.69.14-4,.36,20.07-29.82,30.37-63.4,30.07-98.99,0-.94-.1-1.79-.22-2.61-1.32-8.81-9.08-11.17-19.12-11.17h0Z"/>
      </g>
      <path class="cls-3" d="M305.03,152.22c0-.08-.01-.17-.02-.25-1.19-10.09-3.96-19.36-7.95-27.96l-.62-.2v-1.1c-7.42-15.41-18.78-28.65-31.95-40.62-24.29-22.09-41.51-32.13-41.51-32.13l4.39,22.58c-14.77-22.04-29.64-26.18-38.47-33.84C166.22,18.98,168.63,0,168.63,0c-3.77,21.25-9.78,48.45-6.45,69.91,1.92,12.38,6.78,26.14,22.99,36.07.76.47,1.53.92,2.34,1.37,18.27,10.12,37.52,17.92,49.18,36.62,9.89,15.85,15.68,34.43,36.2,38.89,1.23.28,2.54.4,3.87.4,11.21,0,25.14-9.15,27.94-23.05.25-1.24.41-2.51.47-3.82.01-.11.01-.23.01-.35.04-1.24,0-2.51-.15-3.82ZM93.98,566.81l-.02.38.41-.02c-.13-.11-.26-.23-.39-.36ZM160.68,543.13l-21.55,21.55-13.28,13.29,34.87-34.83s-.03,0-.04,0ZM296.44,122.72v1.09l.62.2c-.2-.44-.41-.87-.62-1.29ZM296.44,122.72v1.09l.62.2c-.2-.44-.41-.87-.62-1.29ZM500.68,203.69l-35.26,38.71c1.35,2.45,2.65,4.93,3.91,7.44,1.93,3.85,3.7,7.8,5.35,11.81,1.09-1.83,2.23-3.57,3.32-5.23,7.53-11.4,18.35-20.2,24.12-24.43,2.85-2.09,8.48-5.99,13.71-8.4-4.73-6.87-9.79-13.51-15.15-19.9ZM485.35,556.81l-.12-.3-.09-.28c-.03-.09-2.15-6.74-7.43-16.79-1.4,1.79-3.1,3.59-5.05,5.35-3.92,3.53-8.34,6.43-11.17,7.97l-9.2,5.01-1.11-10.42c-.03-.35-.91-8.73-.35-15.24.55-6.35,2.78-12.06,6.45-16.51.89-1.09,1.86-2.1,2.9-3.01-11.81-14.93-25.88-27.9-41.91-38.61-.15-.1-.28-.21-.43-.31-13.09,2.13-29.35-6.4-37.56-14.82.67,11.49,3.89,19.8,7.77,28.99.35.7.67,1.44.95,2.23.3.71.6,1.43.91,2.15-.09.04-.18.07-.27.11.35,1.55.55,3.26.57,5.16.28,33.18-8.14,64.44-25.03,93.08,1.2.44,2.42.99,3.65,1.65,2,1.07,4.07,2.44,6.14,4.07,4.15,3.26,7.76,7.11,9.76,9.64l6.5,8.21-10.07,2.87c-.34.09-8.45,2.39-14.96,2.94-.99.09-1.99.13-2.96.13-5.29,0-10.14-1.23-14.41-3.66-.41-.23-.82-.48-1.22-.73-6.2,7.58-13.06,14.88-20.45,21.77-2.33,2.17-4.91,4.38-7.71,6.56,38.84-3.54,76.8-15.13,110.61-35.51,21.46-12.85,40.93-28.81,57.96-47.09-1.07-1.38-1.98-2.92-2.67-4.61ZM544.46,328.59c4.84-.62,9.65-.94,14.4-.95-4.74-25.91-13.31-50.98-25.26-74.28-.76.53-1.57,1.08-2.44,1.67-15.96,10.73-25.83,21.61-38.03,35.8-.83.97-1.66,2.12-2.46,3.24-1.48,2.06-3.08,4.28-5.19,5.71,1.62,9.89,2.4,19.89,2.26,29.82-.01.69-12.58,17.08-41.41,19.52,7.19,5.23,14.48,9.83,21.96,13.33,10.98-8.48,25.76-18.09,43.3-25.12-.07-4.12.49-9.14,2.77-13.68.99-1.98,2.4-3.95,4.18-5.87,1.54-1.66,3.39-3.31,5.5-4.9,4.21-3.18,8.86-5.69,11.81-6.97l9.6-4.2.2,10.48c.01.35.16,8.77-.96,15.21-.07.4-.15.8-.23,1.19ZM562.97,365.24c-1.28.29-2.45.38-3.38.39h-.34c-21.67,0-41.97,9.37-57.23,17.54-10.59,5.67-20.17,13.65-28.31,22.44-2.89,3.13-5.77,5.84-10.21,6.21-7.97.67-21.24,3.59-35.09-3.29,6.14,14.68,13.35,26.01,24,35.51.08.08.12.18.13.31,3.85,2.88,7.62,5.86,11.29,8.97.83-1.29,1.79-2.55,2.91-3.7,1.53-1.59,3.47-3.06,5.74-4.35,1.97-1.13,4.22-2.15,6.71-3.04,4.96-1.77,10.15-2.78,13.36-3.13l10.41-1.13-2.94,10.05c-.09.35-2.47,8.43-5.46,14.23-2.43,4.72-5.77,8.58-9.75,11.31,5.41,5.94,10.48,12.15,15.16,18.54,5.74,7.86,10.94,16.07,15.46,24.41,1.09,1.86,2.16,3.72,3.21,5.57,25.93-40.16,41.76-86.83,44.19-134.44.38-7.48.41-14.95.14-22.4ZM320.35,505.41c-4.64,0-9.36-.14-14.18-.44-20.49-1.24-37.88-5.07-52.68-10.61l-15.38,8.03,36.46,36.46c7.43,7.43,11.52,17.31,11.52,27.82,0,11.34-4.9,22.14-13.45,29.63-7.58,6.65-17.38,9.92-27.6,9.19-11.27-.79-22.11-6.35-29.75-15.24-5.57-6.5-8.64-14.58-8.64-22.77,0-7.02,2.25-13.38,6.35-18.38-7.05-3.83-14.67-3.64-23.98-3.4-8.46.21-18.04.46-28.3-2.56l-34.87,34.83-.99.98-5.99,5.98-1.57,1.57c32.86,25.1,71.51,42.57,112.03,51.6,1.75-2.48,4.48-4.44,8.01-5.67,17.41-6.1,35.53-17.97,53.86-35.28,14.15-13.36,25.08-27.91,32.58-43.35-4.57-2.55-8.47-6.49-11.34-11.49-3.26-5.66-6.01-13.62-6.12-13.96l-3.4-9.91,10.46.65c3.21.2,8.44.97,13.49,2.51,2.52.77,4.82,1.69,6.84,2.72.01.01.02.01.03.01,1.28-6.36,2.06-12.89,2.35-19.51-5.14.39-10.38.59-15.74.59ZM411.76,136.19c-12.1-5.39-24.65-9.79-37.49-13.07-22.05-5.62-45.1-7.85-67.82-6.74,0,.06-.01.11-.01.14,44.26,14.25,86.4,39.28,119.29,72.86l30.24-27.55c-13.67-9.99-28.45-18.62-44.21-25.64ZM401.94,344.47c-4.62-4.24-9.55-9.26-14.35-15.05-1.66-2.01-3.3-4.1-4.92-6.3-.02-.03-.05-.06-.07-.09-.4-.54-.8-1.1-1.2-1.65-1.19-1.66-2.36-3.38-3.5-5.14-3.25-5-6.3-10.43-8.98-16.27-.7-1.49-1.37-3.02-2.01-4.57-.54-1.3-1.06-2.61-1.56-3.95-.59-1.6-1.17-3.25-1.71-4.91-2.12-6.51-3.78-13.46-4.8-20.85-.2-1.33-.36-2.68-.5-4.05-.03-.27-.06-.57-.09-.84-.23-2.46-.53-4.86-.87-7.21-.08-.58-.17-1.16-.25-1.73-5.05-32.87-18.94-56.08-30.18-70.16-4.34-5.43-8.62-9.92-12.39-13.49-.3-.29-.61-.58-.91-.86-5.67,15.91-22.16,25.44-35.62,25.31-1.98-.01-3.91-.23-5.74-.64-21.38-4.86-29.38-20.33-36.43-33.96-9.33-18.06-25.84-34.64-45.65-40.87-11.96-3.76-24.37-2.59-37.38-1.64-23.79,1.74-46.15,8.34-66.52,20.95,9.57.55,24.11,3.44,42.51,13.27l12.06,6.44s-15.85-.19-18.36-.12c-6.96.23-20.81,1.09-35.83,4.35-16.29,3.54-36.82,10.57-49.35,24.47,5.73-1.73,13.28-3.34,21.19-3.26,6.6.06,13.45,1.29,19.75,4.62,1.74.92,11.43,8.16,11.43,8.16,0,0-14.79,1.97-24.2,4.51-21.17,5.72-56.46,19.68-65.15,50.54,7.1-5.77,19.08-13.15,35.82-15.5l1.5,4.61c-.02.13-.02.21-.02.34-.5.58-.79,1.13-1.07,1.72-12.41,23.49-20.8,49.1-25.78,75.32-15.26,79.26,7.82,163.71,58.87,225.8.55.69,1.12,1.37,1.68,2.06l45.12-44.3c-2.15-7.56-2.57-14.74-2.51-21.36.02-2.39.1-4.73.17-6.98.08-2.17.15-4.21.17-6.23.06-6.92-.53-12.53-3.34-17.8-3.82,3.05-8.41,5.07-13.48,5.85-9.56,1.45-19.9-1.73-27.66-8.51-9.53-8.34-15.15-20.56-15.04-32.68.09-9.31,3.38-17.85,9.52-24.72,7.36-8.23,17.46-12.91,28.46-13.17,10.85-.25,21.42,4.04,29.02,11.78l36.05,36.72,10.51-19.66.16-.09c-2.67-12.34-3.21-25.12-1.41-37.79,1.6-11.29,4.09-15.36,4.57-16.06l.19-.28c-6.44-8.02-11.55-16.25-15.1-25.6-6.14-16.11-7.32-34.77-3.6-58.28.73-4.59.64-9.29-.22-13.87-3.5-18.62-6.83-31.88-5.96-33.74l5.39,1.31c7.99,1.77,15.53,2.42,22.06,2.48,13.55.13,22.78-2.26,22.78-2.26-.55.6-11.39,12.46-33.19,12.26-1.42-.01-2.86-.09-4.36-.2,1.83,6.44,3.76,15.44,5.7,26.66l.17.99-.19.99c-6.67,34.67-2.46,55.52,8.17,72.69,5.52,8.91,14.45,15.27,24.71,17.44,5.86,1.23,11.63,3,17.28,5.33,6.23,2.57,12.09,5.17,17.57,7.79.54.25,1.08.52,1.62.77,2.13,1.03,4.21,2.06,6.23,3.09,1.13.58,2.25,1.16,3.35,1.74,8.52,4.49,16.02,8.98,22.62,13.39,1.35.9,2.67,1.81,3.95,2.72,1.1.77,2.16,1.54,3.21,2.31,1.3.95,2.55,1.9,3.77,2.85,7.17,5.54,12.95,10.89,17.62,15.89.55.59,1.08,1.17,1.6,1.76.83.91,1.61,1.81,2.35,2.7.48.56.94,1.12,1.39,1.67,1.81,2.24,3.39,4.38,4.76,6.41,4.88,7.17,7.26,12.94,8.41,16.55l40.85-17.12c-15.25-3.53-25.68-10.25-32.75-17.23-2.03-2-3.79-4.03-5.3-6-.43-.56-.83-1.11-1.23-1.66-.28-.42-.57-.83-.84-1.23-.19-.28-.37-.55-.55-.84-.71-1.08-1.35-2.16-1.95-3.22-3.84-6.92-5.5-13.16-6.18-16.69-2.7-.1-5.32-.41-7.85-.95-1.78-.37-3.52-.85-5.21-1.43-1.35-.46-2.66-1-3.96-1.59-1.48-.68-2.94-1.45-4.35-2.32-6.44-3.92-12.05-9.65-16.72-17.1-.6-.95-1.18-1.92-1.75-2.93-1.11-1.93-2.14-3.98-3.12-6.13-.2-.45-.41-.9-.61-1.35-5.58-12.81-7.45-25.27-7.97-29.49-18.6-14.25-28.5-25.18-29.42-32.53-.31-2.61.6-4.08,1.01-4.6.63-.79,1.6-1.26,2.62-1.25.1,0,.21.02.32.03,18.86,1.98,31.38,8.2,39.54,14.7,8.16,6.51,11.98,13.31,13.43,16.5,5.41,1.27,10.55,3.11,15.4,5.49.44.21.87.42,1.3.65,2.11,1.07,4.16,2.26,6.13,3.54.95.6,1.87,1.24,2.79,1.89,5.72,4.08,10.91,9.04,15.51,14.81.99,1.23,1.94,2.5,2.86,3.8.76,1.07,1.5,2.17,2.21,3.29.86,1.33,1.7,2.69,2.51,4.09.1.18.2.35.29.52,4.12,7.25,6.81,14.16,8.53,19.52.78,2.4,1.34,4.5,1.76,6.16.06.26.11.51.17.74.09.36.17.69.23.99.47.04.93.09,1.39.15,3.35.38,6.52.9,9.53,1.56,13.93,3.04,24.15,9.04,30.47,17.88,5.52,7.72,6.89,16,6.95,22.09,8.44-5.08,21.53-8.62,27.2-10.01,5.27-16.01,12.86-24.77,17.75-29.06-6.78-3.64-19.61-11.33-33-23.59ZM280.4,253.22s-12.62-29.95-23.97-40.71c0,0,18.13,4.2,42.73,28.25l12.36,28.89-31.12-16.43ZM417.59,378.34l-2.66,1.34c-6.51-5.04-5.49-13.63-10.33-19.77l.2-.39c6.4.61,10.38,7.59,12.19,13.04.51,1.85.79,3.69.6,5.78ZM93.98,566.81l-.02.38.41-.02c-.13-.11-.26-.23-.39-.36ZM95.99,565.17l1.69-30.21-22.29,22.29-1.69,30.21,30.19-1.69,22.29-22.29-30.19,1.69ZM93.98,566.81l-.02.38.41-.02c-.13-.11-.26-.23-.39-.36ZM63.1,598.07l1.68-30.22-25.45,25.46c-7.72,7.72-7.6,20.36.28,28.23,7.87,7.88,20.51,8,28.23.28l25.44-25.44-30.18,1.69ZM216.8,444.28h.07s.01-.09.01-.09l-.08.09ZM216.87,444.27v.08l.08-.09h-.08ZM315.31,331.71c-4.57-5.64-9.78-10.36-15.52-14.08l-24.22,22.07c4.11,6.82,8.97,11.91,14.49,15.2,2.03,1.21,4.18,2.2,6.38,2.93.2.07.41.14.62.19l21.7-21.7c-1.1-1.61-2.26-3.16-3.45-4.61ZM333.24,370.88l-1.01-4.28c-.56-2.38-1.21-4.68-1.99-7.02-1.83-5.52-4.13-10.81-6.85-15.76l-15.79,15.79,6.96.18,1.59,7.79c.54,2.61,1.93,7.86,5.24,13.69.17.3.35.61.54.91.34.57.7,1.14,1.07,1.71l10.57-11.62-.33-1.39ZM290.66,413.4c-.57-.64-1.17-1.28-1.78-1.92-5.01-5.27-10.94-10.47-17.66-15.49l-2.77,2.77-4.88,13.25-30.67,30.69-15.95,1.56-.08.09v-.08h-.07s.08-.08.08-.08l1.56-15.94,30.7-30.67,13.23-4.87,1.76-1.76c-.75-.52-1.51-1.02-2.26-1.52-7.6-4.97-16.04-9.79-25.09-14.3-.02-.01-.05-.02-.07-.03l-9.94,9.05-50.34,26.45-10.33,19.78,10.85,10.85h.02s33.81,8.6,33.81,8.6l8.99,33.78.29.29,10.92,10.93,19.78-10.33,26.44-50.34,16.13-17.71c-.85-1.02-1.74-2.04-2.67-3.05ZM550.09,110.98l-41.12,16.1-141.68,129.06c.09.79.18,1.56.26,2.33l.09.77c.88,7.73,2.59,15.4,5.06,22.76.03.09.06.19.1.28l125.49-125.49,21.56-15.49-15.28,21.34-128.39,128.39c2.71,6.24,6.03,12.35,9.91,18.21.69,1.04,1.39,2.07,2.1,3.08l146.08-160.36,16.19-41.35-.37.37ZM164.61,443.03h0M210.91,489.33l-.15-.59-.65-2.54-4.04-15.85-1.2-4.75c-.12,1.04-.24,2.1-.4,3.15-.2,1.51-.44,3.02-.73,4.52t0,.01c-.47,2.4-1.07,4.75-1.86,7.02-.01.05-.03.1-.05.14-1.59,4.47-3.94,8.58-7.54,11.86-6.53,5.93-17.07,7.75-24.36,3.18-1.66-1.03-3.16-2.41-4.4-4.14-.33-.45-.64-.93-.93-1.45-5.05-8.87-1.45-23.41,9.59-25.74,4.57-.97,9.43,1.3,11.79,5.3.19.32.36.63.49.95,1.35,2.88,1.19,5.85,0,8.55-.64,1.47-1.58,2.86-2.74,4.1-.74.78-1.57,1.07-2.37,1-2.37-.17-4.41-3.34-2.26-5.63.54-.57.97-1.22,1.26-1.91.92-2.17.42-4.61-2.34-5.69-3.28-1.26-6.37,1.69-7.84,4.4-1.96,3.65-1.77,8.03.15,11.32,1.01,1.76,2.52,3.2,4.46,4.08.75.35,1.57.62,2.44.77,11.28,1.96,16.53-6.62,19.16-16.4,0-.05.03-.1.03-.15,1.08-4.03,1.71-8.25,2.12-12.02.1-.89.19-1.77.28-2.6.06-.68.12-1.34.17-1.97.02-.23.04-.45.06-.67.02-.13.03-.26.06-.4l-1.38-.35-6.94-1.76-15.85-4.04-3.1-.78h-.02s-.04-.02-.04-.02l-.06.09-19.37,24.48,5.22,24.5.75,3.53,3.51.75,24.52,5.22,24.48-19.37.09-.06v-.04ZM145.02,535.85c-1.84-1.2-3.61-2.48-5.32-3.86-3.42-2.74-6.57-5.81-9.4-9.16-2.98-3.53-5.69-7.4-7.83-11.5-.15-.25-.28-.51-.41-.76l-13.78,13.78-1.68,30.21s30.18-1.68,30.19-1.68c3.37-3.37,12.55-12.56,13.79-13.78-.3.3-5.05-2.91-5.56-3.25ZM267.49,545.92s-27.43-27.44-49.37-49.38l-29.25,23.02-38.99-8.32-8.29-38.96,23.02-29.25-49.38-49.38c-11.93-11.93-31.57-11.44-42.88,1.45-11.22,12.8-7.87,32.06,5.05,43.16,10.14,8.7,25.59,8.71,32.41-2.64,3.7-6.16,2.69-15.86-4.03-19.68-2.45-1.4-6.02-.59-7.77,1.57-1.19,1.46-1.35,3.49-.16,4.99,1.03,1.3.83,3-.62,3.88-2.93,1.78-5.69-1.08-6.85-3.53-.97-2.01-1.18-4.41-.62-6.57.78-3.12,3.11-5.46,5.84-7.03,4.4-2.54,9.95-2.65,14.15-.27,6.27,3.58,9.39,10.91,10.14,16.1.67,4.59-.08,9.37-2.03,13.69-.17.37,3.7,5.97,4.09,6.82,1.06,2.31,1.85,4.74,2.4,7.22,1.09,4.86,1.24,9.86,1.19,14.82-.12,10.67-.87,21.37,2.58,31.66,5.97,17.85,22.38,32.26,40.93,35.54,19.19,3.39,36.66-4.16,53.32,8.45,4.32-1.95,9.1-2.7,13.69-2.02,5.19.75,12.52,3.86,16.1,10.14,2.38,4.19,2.27,9.74-.26,14.15-1.57,2.72-3.91,5.05-7.03,5.84-2.17.55-4.56.34-6.58-.63-2.45-1.16-5.31-3.92-3.53-6.85.89-1.45,2.58-1.65,3.88-.61,1.5,1.18,3.53,1.02,4.99-.17,2.16-1.75,2.97-5.31,1.58-7.77-3.83-6.72-13.53-7.73-19.69-4.03-11.35,6.83-11.33,22.27-2.64,32.41,11.1,12.93,30.37,16.28,43.16,5.05,12.9-11.31,13.38-30.94,1.45-42.87Z"/>
    </g>
    <path class="cls-3" d="M1574.68,398.3c.04.05.08.1.12.15v-.23s-.08.05-.12.08ZM1574.75,330.79h.05s-.02-7.64-.05,0ZM1029.1,585.98c-4.59-29.5-19.49-56.5-37.78-79.7-19.61-24.88-41.31-48.17-65.09-69.05-13.21-11.61-25.49-24.24-36.27-38.13-2.69-3.46-5.32-7-7.89-10.64-18.16-25.7-31.16-53.6-39.62-85.09l13.51-12.29,46-44.54,33.93-32.86,6.73-6.74h-46.18c-11.38,0-22.28,4.52-30.31,12.56l-65.99,65.98v-78.54h-53.29v167.89h-.18v149.14h-83.91l-.06-17.13-18.58-6.96c-8.46-3.16-24.02-10.41-33.31-23.4-.3-.42-.6-.86-.88-1.3v169.29h53.24l-.33-96.47c3.6,13.12,22.06,22.77,46.63,22.77h37.2v73.7h53.25v-266.13h.18l.04,26.34v-58.55c9.61,26.16,22.32,50.31,38.4,73.08,18.13,25.66,37.87,46.08,57.26,65.42,13.5,13.98,27.86,28.99,38.66,41.08,11.63,13.34,25.15,27.43,34.93,43.02,7.1,11.31,12.16,24.06,13.38,37.43,1.02,11.28.4,25.86-8.29,34.28-5.23,5.06-12.72,7.4-19.82,7.23-7.49-.18-15.9-3.43-16.94-11.83-.93-7.52,7.03-12.25,12.92-7.22.52.44,4.4,4.82,4.1,5.11,3.51-2.57,4.48-7.71,1.98-11.32-2.21-3.18-6.54-4.94-10.28-5.29-7.75-.73-15.56,3.95-18.87,10.85-4.71,9.85-1.05,20.62,6.74,27.69,7.71,6.99,18.2,9.54,28.33,10.17,25.61,1.59,55.77-8.08,64.61-34.69,4.66-14.05,4.13-30.54,1.85-45.16ZM1195.15,568.42s-14.94,24.08-49.08,24.4c-16.46.16-30.15-4.72-41.09-14.16-10.94-9.44-16.41-21.55-16.41-36.32,0-26.29,20.97-45.94,46.18-49.82,17.99-2.77,38.24,3,50.68,16.65,5.89,6.48,8.17,17.44,5.34,23.32-3.24,6.74-9.63,13.26-17.5,13.21,4.11,1.8,9.14,2.02,13.56,2.01,9.78-.02,19.87-2.7,28.37-7.56,7.03-4.02,13.37-10.12,16.46-17.77,13.24-32.77-19.53-64.78-47.36-75.27-11.21-4.22-23.14-6.52-35.1-7.05-1.04-.05-2.09-.08-3.14-.1-31.79,0-58.06,9.58-78.81,28.75-5.79,5.35-10.77,11.11-14.95,17.3-10.79,15.98-16.18,34.76-16.18,56.33,0,4.67.25,9.22.76,13.63.2,1.77.44,3.51.73,5.23.28,1.73.61,3.43.97,5.11,4.2,19.33,13.76,35.88,28.67,49.66,20.76,19.17,47.02,28.75,78.81,28.75,18.52,0,35.44-3.55,50.78-10.66,14.92-6.91,27.02-16.59,36.26-29,.07-.09.14-.17.21-.26.03-.05.07-.11.1-.16.15-.2.29-.4.44-.6l2.53-3.36-41.23-32.26ZM1233.41,604.64c-.03.05-.07.11-.1.16.19-.25.37-.5.55-.75-.14.2-.29.39-.45.59ZM1574.75,330.79h.05s-.02-7.64-.05,0ZM1681.04,385.04c-.98-7.47-5.65-14.64-12.42-17.74-.82-.37-1.68-.69-2.57-.94-8.14-2.3-18.05,2.46-20.08,10.67-.35,1.43-.46,3,.22,4.3.69,1.3,2.38,2.14,3.69,1.48.76-.38,1.23-1.14,1.75-1.81,1.76-2.28,4.64-3.83,7.49-3.45,3.59.47,6.29,3.94,6.66,7.54.36,3.6-1.22,7.18-3.51,9.98-6.95,8.55-22.67,11.17-30.03,1.95-6.85-8.59-4.74-20.25-4.43-30.36,1.41-46.47.23-93.16.23-139.65v-20.07h-53.24v77.06h-83.51v-77.06h-53.24v197.55h53.24v-103.48c2,20.9,30.26,29.78,47.75,29.78h35.71c-.34,0,.02,47.37.65,51.9,1.81,13.06,9.36,27.57,20.55,34.89,20.95,13.71,55.73,14.58,74.99-4.03,7.09-6.85,11.38-18.76,10.1-28.51ZM1488.01,631.81c-.05-.4-.09-.8-.14-1.22-.45-3.5-1.1-7.59-2.02-12.25-.73-3.71-1.99-7.55-3.86-11.38-4.32-8.87-11.91-17.63-23.9-24.41-13-7.37-32.16-13.79-32.16-13.79.43,6.29,2.11,18.15,5.79,29.87,1.55,4.94,3.46,9.85,5.78,14.32,2.13,4.09,4.61,7.82,7.48,10.82,8.72,9.13,22.21,13.96,32.21,16.16-10.47-15.69-22.99-33.14-29.43-44.98,9.62,9.51,25.95,24.41,40.25,36.86ZM1488.01,631.81c-.05-.4-.09-.8-.14-1.22-.45-3.5-1.1-7.59-2.02-12.25-.73-3.71-1.99-7.55-3.86-11.38-4.32-8.87-11.91-17.63-23.9-24.41-13-7.37-32.16-13.79-32.16-13.79.43,6.29,2.11,18.15,5.79,29.87,1.55,4.94,3.46,9.85,5.78,14.32,2.13,4.09,4.61,7.82,7.48,10.82,8.72,9.13,22.21,13.96,32.21,16.16-10.47-15.69-22.99-33.14-29.43-44.98,9.62,9.51,25.95,24.41,40.25,36.86ZM1098.85,206.94h-53.57v123.42l-74.27-105.76c-6.23-8.88-18.97-9.98-26.64-2.31l-.07.07-42.34,41.01v140.99l.32.32h52.96v-123.69l86.96,123.69s56.65,0,56.65-.03v-2.81c-3.22-29.04-38.52-62.6-39.62-63.65.9.39,21.56,9.66,39.62,24.04v-155.29ZM1369.57,291.65c-22,0-39.83,17.83-39.83,39.82h35.9c0,9.43-6.33,17.04-15,20.76-8.79,3.76-18.53,4.21-30.15,4.21-16.46,0-30.11-4.72-40.95-14.17-10.85-9.44-16.27-21.55-16.27-36.32s5.42-26.88,16.27-36.32c10.84-9.44,24.49-14.17,40.95-14.17,14.07,0,25.93,3.51,35.58,10.52-4.85-4.27-8.99-9.11-12.29-14.4-2.79-4.45-4.96-9.17-6.45-14.02-1.49-4.82-2.77-9.47-3.8-13.83l-.3-1.36-4.38-18.82c-2.75-.17-5.53-.25-8.36-.25-31.61,0-57.83,9.63-78.68,28.88-20.85,19.27-31.27,43.86-31.27,73.77s10.42,54.23,31.27,73.49c20.85,19.26,47.07,28.89,78.68,28.89,18.51,0,35.99-3.51,52.44-10.52,16.46-7.01,29.46-16.59,38.99-28.75l.84-1.12v-76.29h-43.19ZM1442.98,446.82h-46.2c-11.37,0-22.26,4.52-30.3,12.55l-65.99,65.99v-78.54h-53.29v197.74h53.29v-56.2c0-4.27,1.59-8.38,4.46-11.53l31.65-34.75c-10.45,20.97-8.11,29.71-4.09,36.65.95,1.65,2.04,3.22,3.18,4.75l45.86,61.08h61.15l-86.39-113.59,86.67-84.15ZM746.81,378.34l.04,26.34v-26.34h-.04ZM952.73,564.98h-52.38l16.37-41.99c-2.67-2.59-5.39-5.21-8.17-7.88-4.8-4.61-9.76-9.38-14.74-14.33-5.77-5.73-11.59-11.51-17.42-17.45l-63.55,154.29-2.24,5.61h57.5l1.12-2.8,12.9-32.82h85.11c1.86-16.9-3.03-31.2-14.5-42.63ZM658.55,472.25c-.2-3.78-.91-7.76-2.21-11.81-.41-1.28-.88-2.56-1.42-3.85-.42-1.02-.88-2.04-1.39-3.06-3.54-7.16-9.14-14.29-17.4-20.65-11.81-9.13-29.88-18.2-29.88-18.2-.46,6.29-.48,18.26,1.5,30.38.56,3.39,1.27,6.79,2.18,10.08.45,1.67.96,3.32,1.52,4.92,1.53,4.35,3.45,8.39,5.87,11.77.06.08.11.16.17.23,7.36,10.14,19.91,16.77,29.43,20.33-4.24-8.86-8.96-18.28-13.18-27.05-1.98-4.12-3.85-8.1-5.51-11.81-1.59-3.56-2.98-6.87-4.08-9.83,2.19,2.88,4.8,6.21,7.69,9.83,2.38,2.99,4.96,6.17,7.64,9.44,6.2,7.54,12.97,15.58,19.3,22.91.01-.4.02-.8.03-1.22.05-3.53-.02-7.67-.26-12.41ZM1404.85,246.35c-.06-.17-.12-.35-.19-.51-1.94-5.38-4.27-10.69-7.01-15.52-1.74-3.02-3.63-5.87-5.72-8.4-5.09-4.87-10.78-9.2-17.04-13-7.95-3.93-16.52-6.26-23.57-7.52,12.6,17.38,27.61,36.66,35.46,49.84-11.36-10.38-30.59-26.6-47.41-40.13.08.46.14.9.22,1.38.66,3.96,1.59,8.59,2.84,13.85.99,4.18,2.59,8.49,4.9,12.76,5.28,9.86,14.25,19.45,28.1,26.62l.15.09c15.11,7.8,37.18,14.25,37.18,14.25-.76-7.13-3.2-20.54-7.91-33.71ZM1857.33,198.97c-12.7-1.51-26.07-2.69-38.52.91-5.3,1.53-10.38,3.84-14.98,6.91-.07.05-.15.1-.22.15-11.74,7.89-19.31,20.08-23.99,33.26-.08.2-.15.41-.22.61,17.45-8.87,36.97-19.63,49.96-24.82-10.94,8.71-28.24,23.65-42.79,36.84.24.05.47.09.7.13.14,0,.29,0,.45,0,3.65-.03,7.95-.21,12.86-.58,3.92-.31,8.03-1.12,12.2-2.58,6.77-2.35,13.67-6.35,20.11-12.5,2.76-2.64,5.44-5.67,7.98-9.14,7.24-9.84,14.35-23.71,17.03-29.13-.19-.02-.38-.03-.57-.05ZM1646.64,207.75v46.84h61.5c.25,42.17.31,84.35-.09,126.52-.06,6.71.32,14.43.52,22.47l45.37-7.55c-9.7,3.1-19.28,7.13-28.56,12.95-9.77,6.15-16.44,16.16-18.63,27.5-1.77,9.24-5.06,17.61-10.96,23.92-14.24,15.25-38.6,14.88-57.68,12.62-16.43-1.95-30.88-5.53-45.64-12.97-21.23-10.7-42.56-17.4-66.49-17.4s-43.29,5.43-59.74,16.27c-16.45,10.85-24.68,26.37-24.68,46.56,0,8.6,2.15,16.18,6.45,22.72,4.3,6.55,9.86,11.73,16.69,15.56,6.82,3.84,14.35,7.21,22.58,10.1,8.22,2.9,16.45,5.29,24.68,7.15,8.23,1.88,15.75,3.75,22.58,5.61,6.82,1.88,12.38,4.17,16.69,6.88,4.3,2.71,6.45,5.84,6.45,9.39,0,2.25-.28,4.26-.84,6.03-.56,1.78-1.73,3.7-3.51,5.75-1.78,2.06-4.86,3.7-9.25,4.91-4.4,1.22-9.87,1.82-16.41,1.82-9.54,0-19.92-1.72-31.14-5.19-7.66-2.36-13.65-4.39-17.95-6.1,9.52,10.17,13.08,20.82,14.41,27.45,2.68,13.42,3.04,21.47,3.07,24.31l.03,3.84c8.89,1.3,18.19,1.97,27.93,1.97,27.86,0,49.6-5.28,65.21-15.84,15.61-10.57,23.42-26.32,23.42-47.27,0-12.52-3.97-23.23-11.92-32.11-7.95-8.88-17.58-15.47-28.89-19.77-11.31-4.3-22.62-7.81-33.94-10.52-11.31-2.71-20.94-5.19-28.89-7.44-4.91-1.38-10.68-2.7-11.61-8.12-2.29-13.27,15.12-16.84,24.38-16.84,30.99,0,53.72,20.08,82.32,27.63,14.37,3.8,29.04,6.27,43.89,6.99,29.11,1.41,61.07-3.37,84.17-22.51,7.75-6.42,14.16-14.32,18.86-23.21,15.06-28.53,13.5-60.89,13.5-92.11v-131.5l.16-.47h-.16l1.47-3.96,6.05-15.17.03-.09.03-.08c1.6-3.73,3.44-7.46,5.61-11.39,1.61-2.92,3.27-5.51,5.09-7.93,2.4-3.19,5.03-5.9,7.99-8.22h-144.15ZM1184.92,182.29c-8.42-4.31-15.25-11.15-19.56-19.56l-5.45-10.64-5.45,10.64c-4.31,8.41-11.16,15.25-19.58,19.56l-10.63,5.45,10.63,5.45c8.42,4.31,15.26,11.16,19.57,19.57l5.46,10.63,5.45-10.63c4.31-8.41,11.14-15.26,19.56-19.57l10.64-5.45-10.64-5.45ZM1175.91,229.45l-16,31.2-16-31.2c-.96-1.87-2.4-3.39-4.12-4.45-1.73-1.05-3.74-1.64-5.84-1.64v181.32h51.92v-181.32c-4.2,0-8.05,2.35-9.96,6.09Z"/>
  </g>
</svg>