<?xml version="1.0" encoding="UTF-8"?>
<svg id="KHIX_Logos" data-name="KHIX Logos" xmlns="http://www.w3.org/2000/svg" xmlns:xlink="http://www.w3.org/1999/xlink" viewBox="0 0 567.31 661.59">
  <defs>
    <style>
      .cls-1 {
        fill: none;
      }

      .cls-2 {
        fill: url(#linear-gradient-2);
      }

      .cls-3 {
        fill: url(#linear-gradient);
      }
    </style>
    <linearGradient id="linear-gradient" x1="437.47" y1="483.75" x2="587.07" y2="300.96" gradientUnits="userSpaceOnUse">
      <stop offset="0" stop-color="#2a9b4c"/>
      <stop offset="1" stop-color="#00592b"/>
    </linearGradient>
    <linearGradient id="linear-gradient-2" x1="24.4" y1="539.1" x2="485.98" y2="90.12" gradientTransform="translate(2.86 33.63) rotate(.53)" gradientUnits="userSpaceOnUse">
      <stop offset="0" stop-color="#7a15c0"/>
      <stop offset="1" stop-color="#c262cc"/>
    </linearGradient>
  </defs>
  <path class="cls-1" d="M280.04,253.22l31.12,16.43-12.36-28.89c-24.6-24.05-42.73-28.25-42.73-28.25,11.35,10.76,23.97,40.71,23.97,40.71Z"/>
  <path class="cls-1" d="M389.55,492.22c-.31-.72-.61-1.44-.91-2.15.25.71.46,1.46.64,2.26.09-.04.18-.07.27-.11Z"/>
  <path class="cls-1" d="M414.57,379.68l2.66-1.34c.19-2.09-.09-3.93-.6-5.78-1.81-5.45-5.79-12.43-12.19-13.04l-.2.39c4.84,6.14,3.82,14.73,10.33,19.77Z"/>
  <rect class="cls-1" x="216.51" y="444.27" width="0" height=".08" transform="translate(-250.76 283.23) rotate(-45)"/>
  <path class="cls-3" d="M529.93,247.12c-.83.61-1.83,1.29-3.04,2.1-16.51,11.1-26.84,22.4-39.43,37.05-1.48,1.72-2.77,3.66-3.92,5.21-1.22,1.63-2.29,2.82-3.26,2.82-.72,0-1.39-.64-2.03-2.23-2.1-5.22-3.58-11.12-2.31-16.73.39-1.7.98-3.35,1.69-4.95,1.57-3.57,3.75-6.92,5.86-10.11,10.01-15.19,27.86-27.35,35.92-30.79,1.5-.64,2.66-.98,3.37-.98h.04c3.05.04,7.17,4.14,9.11,9.34,1.93,5.16,2.14,6.25-2,9.27ZM559.68,334.65c-.17,0-.33-.02-.52-.02h-.28c-9.38,0-18.44,1.26-27.05,3.38,2.58-2.78,4.7-6.66,5.6-11.81,1.02-5.85.86-13.88.86-13.88-2.29,1-6.5,3.21-10.4,6.15-1.64,1.24-3.22,2.61-4.58,4.08-1.25,1.34-2.32,2.76-3.06,4.24-2.44,4.87-2.24,11.16-1.6,15.21-17.11,6.16-31.9,15.24-43.18,23.56-14.05,10.37-18.96,16.5-19.71,17.42-3,3.67-4.17,7.69-1.35,11.75,2.12,3.05,5.65,6.62,9.65,6.62.24,0,.48-.02.72-.04,2.53-.28,4.89-1.47,6.58-3.19,3.9-3.97,4.33-4.79,8.65-8.43,5.73-4.83,11.84-9.21,18.35-12.69,18.71-10.01,38.97-18.37,60.53-18.37h.24c1.2,0,2.23-.21,3.12-.6,4-1.72,5.04-6.95,5.06-12.37.02-6.44-1.45-10.76-7.63-11.01ZM516.52,533.41c-.85-1.6-1.73-3.18-2.6-4.77-1.62-2.91-3.26-5.82-4.95-8.69-4.46-8.24-9.49-16.16-15.02-23.72-6.53-8.94-13.77-17.36-21.59-25.19.59-.13,1.19-.26,1.83-.42,1.47-.35,2.97-.91,4.46-1.7,3.46-1.86,6.81-5.01,9.32-9.87,2.72-5.27,4.97-12.98,4.97-12.98-2.49.27-7.17,1.12-11.76,2.76-1.94.69-3.86,1.53-5.59,2.52-1.6.91-3.04,1.95-4.18,3.14-2.79,2.88-4.44,6.92-5.35,10.48-5.75-5.32-11.78-10.32-18.05-15-3.13-2.33-6.31-4.59-9.55-6.76-1.74-1.16-3.4-1.67-4.97-1.67-4.65,0-10.12,2.95-13.56,8.1-4.6,6.88-5.03,13.92,1.86,18.52.93.62,1.84,1.25,2.74,1.88,20.26,14.04,34.9,29.91,45.22,44.07-1.16.72-2.48,1.6-3.96,2.66-1.22.88-2.4,1.97-3.47,3.28-2.49,3.02-4.4,7.21-4.88,12.67-.51,5.91.34,13.89.34,13.89,2.2-1.19,6.21-3.76,9.83-7.02,1.53-1.38,2.99-2.88,4.22-4.46,1.13-1.44,2.06-2.95,2.67-4.49.97-2.44,1.3-5.15,1.27-7.76,11.37,17.66,15.58,30.89,15.69,31.28.29.7.63,1.35,1.01,1.96,2.29,3.66,6.16,5.72,10.18,5.72,2.34,0,4.74-.69,6.9-2.17,4.39-2.52,9.22-5.84,10.81-10.67,1.83-5.47-1.41-10.82-3.84-15.59ZM370.28,601.79c-1.62-1.27-3.35-2.45-5.11-3.39-1.62-.87-3.27-1.53-4.88-1.87-1.15-.25-2.33-.35-3.51-.35-1.35,0-2.69.14-4,.36,20.07-29.82,30.37-63.4,30.07-98.99-.01-.94-.1-1.79-.22-2.61-1.32-8.81-9.08-11.17-19.12-11.17-.06,0-.11,0-.17.01-11.05.09-20.58,3.06-20.49,14.1.02,2.11-.03,4.21-.1,6.29-.42,11.37-2.19,22.37-5.36,32.97-.82-1.33-1.78-2.58-2.91-3.64-1.2-1.14-2.69-2.11-4.32-2.94-1.78-.91-3.74-1.66-5.71-2.26-4.66-1.43-9.37-2.06-11.87-2.22,0,0,2.6,7.6,5.56,12.74,2.73,4.74,6.23,7.73,9.77,9.43,1.52.73,3.05,1.22,4.53,1.5.15.03.29.05.43.08-7.83,18.87-20.26,36.39-37.23,52.41-16.02,15.13-35.38,29.45-56.35,36.79-.63.22-1.26.5-1.86.82-1.67.9-3.1,2.2-3.54,4-2.63,10.74,9.97,16.19,19.65,17.45,1.5.2,2.92.29,4.21.29.46,0,.9-.01,1.32-.03,15.83-.91,32.52-7.52,46.68-16.63,5.96-3.84,11.47-8.11,16.27-12.59,9.08-8.46,17.16-17.38,24.26-26.71.56.58,1.17,1.2,1.83,1.85,1.07,1.05,2.35,2.03,3.82,2.86,2.9,1.65,6.56,2.74,10.95,2.74.77,0,1.55-.03,2.36-.1,5.91-.5,13.64-2.7,13.64-2.7-1.56-1.97-4.76-5.47-8.6-8.49Z"/>
  <path class="cls-2" d="M296.08,123.81v-1.1s0,0,0,0v1.1h0ZM184.81,105.98c.76.47,1.53.92,2.34,1.37,18.27,10.12,37.52,17.92,49.18,36.62,9.89,15.85,15.68,34.43,36.2,38.89,1.23.28,2.54.4,3.87.4,11.21,0,25.14-9.15,27.94-23.05.25-1.24.41-2.51.47-3.82.01-.11.01-.23.01-.35.04-1.24,0-2.51-.15-3.82,0-.08-.01-.17-.02-.25-1.19-10.09-3.96-19.36-7.95-27.96l-.62-.2h0s0,0,0,0v-1.1c-7.42-15.41-18.78-28.65-31.95-40.62-24.29-22.09-41.51-32.13-41.51-32.13l4.39,22.58c-14.77-22.04-29.64-26.18-38.47-33.84C165.86,18.98,168.27,0,168.27,0c-3.77,21.25-9.78,48.45-6.45,69.91,1.92,12.38,6.78,26.14,22.99,36.07ZM93.6,567.19h0s.41-.02.41-.02c0,0,0,0,0,0l-.41.02ZM160.32,543.13l-21.55,21.55-14.27,14.26,35.85-35.8s-.03,0-.04,0ZM164.25,443.03h0s0,0,0,0h0s0,0,0,0h0ZM296.7,124.01h0c-.2-.44-.41-.87-.62-1.3h0c.21.43.42.86.62,1.3,0,0,0,0,0,0ZM296.7,124.01c-.2-.44-.41-.87-.62-1.29v1.1l.62.2ZM296.08,123.81h0s.62.2.62.2c0,0,0,0,0,0l-.62-.2ZM501.76,231.99c2.85-2.08,8.47-5.99,13.71-8.4-4.73-6.87-9.79-13.51-15.15-19.9l-35.26,38.71c1.35,2.45,2.65,4.93,3.91,7.44,1.93,3.85,3.7,7.8,5.35,11.81,1.09-1.83,2.23-3.57,3.33-5.23,7.52-11.4,18.34-20.2,24.12-24.43ZM484.87,556.51l-.09-.28c-.03-.09-2.15-6.74-7.43-16.79-1.39,1.79-3.09,3.59-5.05,5.35-3.92,3.53-8.34,6.43-11.17,7.97l-9.2,5.01-1.11-10.42c-.04-.35-.91-8.73-.35-15.24.55-6.35,2.78-12.06,6.44-16.52.9-1.09,1.87-2.09,2.9-3-11.81-14.94-25.88-27.91-41.91-38.62-.15-.1-.28-.2-.42-.3-13.09,2.12-29.35-6.4-37.56-14.82.67,11.49,3.89,19.8,7.77,28.99.35.69.67,1.44.94,2.23.3.71.6,1.42.91,2.15-.09.04-.18.07-.27.11.35,1.55.55,3.26.57,5.16.28,33.18-8.14,64.44-25.03,93.08,1.2.44,2.42.99,3.65,1.65,2,1.07,4.06,2.44,6.14,4.07,4.15,3.26,7.76,7.12,9.76,9.64l6.5,8.21-10.07,2.87c-.34.1-8.45,2.39-14.96,2.95-.99.08-1.99.13-2.96.13-5.3,0-10.15-1.23-14.41-3.66-.41-.23-.82-.48-1.21-.73-6.2,7.58-13.06,14.88-20.46,21.77-2.33,2.17-4.91,4.38-7.71,6.56,38.84-3.54,76.8-15.14,110.61-35.51,21.46-12.85,40.93-28.81,57.96-47.09-1.07-1.39-1.98-2.93-2.67-4.62l-.12-.29ZM514,323.65c.99-1.98,2.4-3.95,4.18-5.87,1.54-1.66,3.39-3.31,5.5-4.9,4.21-3.18,8.86-5.69,11.82-6.98l9.6-4.19.2,10.47c0,.36.16,8.78-.97,15.21-.07.4-.15.8-.23,1.2,4.85-.63,9.66-.94,14.41-.96-4.74-25.9-13.31-50.98-25.26-74.28-.76.54-1.57,1.08-2.44,1.67-15.96,10.73-25.83,21.61-38.03,35.81-.83.96-1.66,2.12-2.46,3.23-1.48,2.06-3.08,4.29-5.2,5.72,1.63,9.89,2.41,19.89,2.26,29.82-.01.69-12.58,17.08-41.41,19.52,7.19,5.23,14.48,9.83,21.96,13.33,10.98-8.48,25.76-18.1,43.3-25.12-.07-4.12.49-9.14,2.77-13.69ZM559.05,365.63h-.16c-21.67,0-41.97,9.37-57.22,17.54-10.59,5.67-20.17,13.65-28.31,22.45-2.89,3.12-5.77,5.83-10.21,6.21-7.97.67-21.24,3.59-35.09-3.29,6.14,14.68,13.35,26.01,24,35.51.08.07.12.18.13.31,3.85,2.88,7.63,5.86,11.29,8.97.83-1.29,1.79-2.55,2.91-3.7,1.54-1.59,3.47-3.05,5.74-4.35,1.97-1.12,4.23-2.14,6.71-3.03,4.97-1.78,10.16-2.78,13.36-3.13l10.41-1.13-2.93,10.05c-.1.34-2.47,8.42-5.47,14.23-2.43,4.71-5.77,8.58-9.75,11.31,5.41,5.94,10.48,12.14,15.16,18.53,5.75,7.86,10.95,16.07,15.46,24.41,1.1,1.86,2.17,3.72,3.22,5.57,25.93-40.16,41.76-86.83,44.19-134.44.38-7.48.41-14.95.14-22.4-1.28.29-2.45.38-3.39.38-.06,0-.12,0-.18,0ZM236.97,632.43c17.41-6.1,35.54-17.97,53.86-35.27,14.15-13.36,25.08-27.92,32.58-43.36-4.57-2.55-8.46-6.49-11.34-11.49-3.26-5.66-6-13.62-6.12-13.96l-3.4-9.91,10.45.65c3.21.2,8.45.97,13.49,2.51,2.52.77,4.82,1.69,6.84,2.72h.03c1.28-6.35,2.07-12.88,2.35-19.5-5.14.39-10.38.59-15.74.59-4.64,0-9.36-.14-14.18-.44-20.49-1.24-37.88-5.07-52.68-10.61l-15.38,8.03,36.46,36.46c7.43,7.43,11.52,17.31,11.52,27.82,0,11.34-4.9,22.14-13.45,29.63-7.58,6.65-17.38,9.92-27.6,9.19-11.27-.79-22.11-6.35-29.75-15.24-5.57-6.5-8.64-14.58-8.64-22.77,0-7.02,2.25-13.38,6.35-18.38-7.05-3.83-14.67-3.64-23.98-3.4-8.46.21-18.04.46-28.3-2.56h0s0,0,0,0l-41.85,41.79,5.99-5.99-5.99,5.99-1.57,1.57c32.86,25.1,71.51,42.57,112.03,51.6,1.75-2.48,4.48-4.44,8.01-5.67ZM160.36,543.14s0,0,0,0l-35.85,35.8-5.99,5.99,41.85-41.79ZM425.37,189.38l30.24-27.55c-13.67-9.99-28.45-18.62-44.21-25.64-12.1-5.39-24.65-9.79-37.49-13.07-22.05-5.62-45.1-7.85-67.82-6.74,0,.06-.01.11-.01.14,44.26,14.25,86.4,39.28,119.29,72.86ZM37.3,238.93c0-.13,0-.21.01-.34l-1.5-4.6c-16.74,2.35-28.72,9.73-35.81,15.49,8.68-30.85,43.97-44.82,65.15-50.53,9.41-2.54,24.2-4.51,24.2-4.51,0,0-9.69-7.24-11.44-8.17-6.3-3.33-13.15-4.56-19.75-4.62-7.91-.07-15.45,1.54-21.19,3.27,12.53-13.91,33.06-20.94,49.35-24.47,15.02-3.26,28.88-4.12,35.83-4.35,2.51-.08,18.36.12,18.36.12l-12.06-6.44c-18.4-9.83-32.93-12.72-42.51-13.27,20.37-12.61,42.74-19.21,66.52-20.95,13.01-.95,25.42-2.12,37.38,1.64,19.81,6.23,36.32,22.8,45.65,40.86,7.04,13.64,15.04,29.11,36.43,33.97,1.83.41,3.75.62,5.73.64,13.46.12,29.95-9.41,35.62-25.31.3.28.6.57.91.86,3.77,3.57,8.05,8.06,12.39,13.49,11.24,14.07,25.13,37.28,30.18,70.16.08.57.17,1.14.25,1.72.34,2.35.64,4.76.87,7.22.03.27.05.56.08.83.15,1.37.31,2.72.5,4.05,1.02,7.39,2.68,14.34,4.8,20.85.54,1.66,1.12,3.31,1.71,4.92.5,1.33,1.02,2.65,1.55,3.94.65,1.56,1.31,3.08,2.01,4.58,2.69,5.83,5.74,11.26,8.98,16.26,1.14,1.76,2.32,3.48,3.5,5.14.4.55.8,1.11,1.2,1.65.02.03.05.06.07.09,1.62,2.2,3.26,4.29,4.91,6.3,4.81,5.79,9.73,10.81,14.35,15.05,13.39,12.26,26.22,19.95,33,23.59-4.89,4.29-12.48,13.05-17.75,29.06-5.67,1.39-18.77,4.93-27.2,10.01-.06-6.09-1.43-14.37-6.95-22.09-6.33-8.84-16.54-14.83-30.48-17.88-3-.66-6.18-1.18-9.53-1.56-.46-.05-.92-.11-1.39-.15-.07-.3-.14-.63-.23-.98-.06-.23-.12-.48-.17-.74-.41-1.66-.98-3.76-1.75-6.17-1.72-5.36-4.42-12.27-8.53-19.52-.1-.17-.2-.34-.3-.51-.81-1.41-1.64-2.77-2.51-4.09-.71-1.12-1.45-2.22-2.21-3.29-.92-1.3-1.87-2.57-2.86-3.8-4.6-5.77-9.79-10.73-15.51-14.81-.91-.65-1.84-1.29-2.78-1.9-1.98-1.28-4.03-2.47-6.14-3.54-.43-.22-.86-.44-1.29-.65-4.85-2.37-9.99-4.21-15.4-5.49-1.45-3.18-5.27-9.99-13.43-16.49-8.16-6.51-20.68-12.72-39.55-14.7-.11-.01-.22-.02-.32-.02-1.02,0-1.98.45-2.62,1.25-.4.52-1.32,1.99-1,4.6.91,7.35,10.81,18.28,29.42,32.53.51,4.21,2.39,16.67,7.97,29.48.2.45.4.9.61,1.36.98,2.15,2.01,4.2,3.11,6.13.57,1.01,1.15,1.98,1.75,2.93,4.67,7.45,10.28,13.19,16.72,17.1,1.41.86,2.86,1.64,4.35,2.32,1.29.59,2.61,1.12,3.96,1.59,1.69.59,3.43,1.06,5.22,1.43,2.53.54,5.14.86,7.84.95.69,3.53,2.34,9.77,6.19,16.69.6,1.07,1.24,2.14,1.95,3.23.18.28.36.55.54.84.28.4.56.82.85,1.23.4.55.8,1.11,1.23,1.66,1.51,1.97,3.27,4,5.3,6,7.07,6.99,17.49,13.7,32.74,17.23l-40.85,17.13c-1.15-3.61-3.52-9.38-8.41-16.56-1.37-2.02-2.95-4.17-4.76-6.4-.45-.55-.91-1.11-1.38-1.67-.74-.89-1.52-1.79-2.36-2.7-.51-.58-1.05-1.17-1.59-1.75-4.67-5-10.46-10.36-17.62-15.89-1.22-.95-2.47-1.9-3.77-2.85-1.04-.77-2.11-1.54-3.21-2.31-1.27-.9-2.59-1.81-3.95-2.72-6.6-4.41-14.1-8.9-22.62-13.39-1.1-.58-2.22-1.16-3.35-1.74-2.02-1.03-4.1-2.06-6.23-3.09-.54-.25-1.08-.52-1.61-.77-5.49-2.62-11.34-5.21-17.58-7.79-5.65-2.32-11.41-4.1-17.27-5.33-10.26-2.16-19.19-8.53-24.71-17.44-10.63-17.17-14.84-38.02-8.17-72.69l.19-.99-.17-.99c-1.94-11.22-3.86-20.23-5.7-26.66,1.5.11,2.94.19,4.36.2,21.8.2,32.64-11.66,33.18-12.26,0,0-9.22,2.39-22.77,2.26-6.53-.06-14.07-.71-22.07-2.48l-5.39-1.31c-.87,1.86,2.46,15.12,5.96,33.74.86,4.58.95,9.28.22,13.87-3.72,23.51-2.54,42.17,3.59,58.28,3.55,9.35,8.67,17.58,15.11,25.6l-.19.29c-.48.7-2.96,4.76-4.57,16.06-1.8,12.66-1.26,25.45,1.41,37.78l-.16.09-10.51,19.66-36.05-36.72c-7.6-7.74-18.17-12.03-29.01-11.78-11,.26-21.11,4.94-28.46,13.17-6.14,6.87-9.43,15.41-9.52,24.72-.11,12.12,5.51,24.34,15.04,32.68,7.76,6.78,18.1,9.96,27.65,8.5,5.08-.77,9.67-2.79,13.48-5.85,2.81,5.27,3.4,10.88,3.34,17.8-.02,2.02-.09,4.06-.17,6.23-.07,2.25-.15,4.59-.17,6.98-.06,6.62.36,13.8,2.51,21.36l-45.12,44.3c-.56-.69-1.13-1.37-1.68-2.06C18.27,479.68-4.81,395.23,10.45,315.97c4.98-26.23,13.37-51.83,25.77-75.33.29-.59.57-1.13,1.08-1.72ZM404.24,359.91c4.84,6.14,3.82,14.73,10.33,19.77l2.66-1.34c.19-2.09-.09-3.93-.6-5.78-1.81-5.45-5.79-12.43-12.19-13.04l-.2.39ZM256.07,212.51c11.35,10.76,23.97,40.71,23.97,40.71l31.12,16.43-12.36-28.89c-24.6-24.05-42.73-28.25-42.73-28.25ZM93.62,566.81l-.02.38.41-.02c-.13-.11-.26-.23-.39-.36ZM103.53,585.77l-30.19,1.69,1.69-30.21,22.29-22.29-1.69,30.21,30.19-1.69-22.29,22.29ZM94.01,567.17s0,0,0,0h0c-.13-.11-.26-.23-.39-.36l-.02.38h0s0,0,0,0l.41-.02ZM94.01,567.17h0c-.13-.11-.26-.23-.39-.36l-.02.38h0s.02-.38.02-.38c.13.13.26.25.39.36ZM64.42,567.85l-25.45,25.46c-7.72,7.72-7.6,20.36.28,28.23,7.87,7.88,20.51,8,28.23.28l25.44-25.44-30.18,1.69,1.68-30.22ZM216.51,444.27h0s.01-.08.01-.08l-.09.09h.07s0,0,0,0ZM216.58,444.26h-.07v.08l.07-.08ZM299.43,317.63l-24.22,22.07c4.11,6.82,8.97,11.91,14.49,15.2,2.03,1.21,4.18,2.2,6.38,2.93.2.07.41.14.62.19l21.7-21.7c-1.1-1.61-2.26-3.16-3.45-4.61-4.57-5.64-9.78-10.36-15.52-14.08ZM315.79,367.58c.54,2.61,1.93,7.86,5.24,13.69.17.3.35.61.54.91.34.57.7,1.14,1.07,1.71l10.57-11.62-.33-1.39-1.01-4.28c-.56-2.38-1.21-4.68-1.99-7.02-1.83-5.52-4.13-10.81-6.85-15.76l-15.79,15.79,6.96.18,1.59,7.79ZM250.4,484.5l26.44-50.34,16.13-17.71c-.85-1.02-1.74-2.04-2.67-3.05-.57-.64-1.17-1.28-1.78-1.92-5.01-5.27-10.94-10.47-17.66-15.49l-2.77,2.77-4.88,13.25-30.67,30.69-15.95,1.56h0s0,0,0,0l-.08.09h0s0,0,0,0v-.08h-.08s0,0,0,0h0s.09-.09.09-.09l1.56-15.94,30.7-30.67,13.23-4.87,1.76-1.76c-.75-.52-1.51-1.02-2.26-1.52-7.6-4.97-16.04-9.79-25.09-14.3-.02-.01-.05-.02-.07-.03l-9.94,9.05-50.34,26.45-10.33,19.78,10.85,10.85h.02s33.81,8.6,33.81,8.6l8.99,33.78.29.29,10.92,10.93,19.78-10.33ZM216.51,444.35l.08-.09h0s-.07.08-.07.08h0ZM216.51,444.27h0s-.07,0-.07,0h0s.08,0,.08,0ZM366.93,256.14c.09.79.18,1.56.26,2.33l.09.77c.88,7.73,2.59,15.4,5.06,22.76.03.09.06.19.1.28l125.49-125.49,21.56-15.49-15.28,21.34-128.39,128.39c2.71,6.24,6.03,12.35,9.91,18.21.69,1.04,1.39,2.07,2.1,3.08l146.08-160.36,16.19-41.35-.37.37-41.12,16.1-141.68,129.06ZM164.25,443.02h0s-1.93-1.92-1.93-1.92l1.93,1.92ZM164.25,443.03h0M164.25,443.03h0M180,476.51c.92-2.17.42-4.61-2.34-5.69-3.28-1.26-6.37,1.69-7.84,4.4-1.96,3.65-1.77,8.03.15,11.32,1.01,1.76,2.52,3.2,4.46,4.08.75.35,1.57.62,2.44.77,11.28,1.96,16.53-6.62,19.16-16.4,0-.05.03-.1.03-.15,1.08-4.03,1.71-8.25,2.12-12.02.1-.89.19-1.77.28-2.6.06-.68.12-1.34.17-1.97.02-.23.04-.45.06-.67.02-.13.03-.26.06-.4l-1.38-.35-6.94-1.76-15.85-4.04-3.1-.78h-.02s-.04-.02-.04-.02l-.06.09-19.37,24.48,5.22,24.5.75,3.53,3.51.75,24.52,5.22,24.48-19.37.09-.06v-.04s-.16-.59-.16-.59l-.65-2.54-4.04-15.85-1.2-4.75c-.12,1.04-.24,2.1-.4,3.15-.2,1.51-.44,3.02-.73,4.52t0,.01c-.47,2.4-1.07,4.75-1.86,7.02-.01.05-.03.1-.05.14-1.59,4.47-3.94,8.58-7.54,11.86-6.53,5.93-17.07,7.75-24.36,3.18-1.66-1.03-3.16-2.41-4.4-4.14-.33-.45-.64-.93-.93-1.45-5.05-8.87-1.45-23.41,9.59-25.74,4.57-.97,9.43,1.3,11.79,5.3.19.32.36.63.49.95,1.35,2.88,1.19,5.85,0,8.55-.64,1.47-1.58,2.86-2.74,4.1-.74.78-1.57,1.07-2.37,1-2.37-.17-4.41-3.34-2.26-5.63.54-.57.97-1.22,1.26-1.91ZM136.43,552.88c3.37-3.37,12.56-12.56,13.79-13.78-.3.29-5.05-2.92-5.56-3.25-1.84-1.2-3.61-2.49-5.32-3.86-3.42-2.74-6.57-5.82-9.4-9.17-2.98-3.53-5.69-7.4-7.83-11.5-.15-.25-.28-.51-.41-.76l-13.78,13.78-1.68,30.21s30.18-1.68,30.19-1.68ZM238.28,563.3c1.5,1.18,3.53,1.02,4.99-.17,2.16-1.75,2.97-5.31,1.58-7.77-3.83-6.72-13.53-7.73-19.69-4.03-11.35,6.83-11.33,22.27-2.64,32.41,11.1,12.93,30.37,16.28,43.16,5.05,12.9-11.31,13.38-30.94,1.45-42.87,0,0-27.43-27.44-49.37-49.38l-29.25,23.02-38.99-8.32-8.29-38.96,23.02-29.25-49.38-49.38c-11.93-11.93-31.57-11.44-42.88,1.45-11.22,12.8-7.87,32.06,5.05,43.16,10.14,8.7,25.59,8.71,32.41-2.64,3.7-6.16,2.69-15.86-4.03-19.68-2.45-1.4-6.02-.59-7.77,1.57-1.19,1.46-1.35,3.49-.16,4.99,1.03,1.3.83,3-.62,3.88-2.93,1.78-5.69-1.08-6.85-3.53-.97-2.01-1.18-4.41-.62-6.57.78-3.12,3.11-5.46,5.84-7.03,4.4-2.54,9.95-2.65,14.15-.27,6.27,3.58,9.39,10.91,10.14,16.1.67,4.59-.08,9.37-2.03,13.69-.17.37,3.7,5.97,4.09,6.82,1.06,2.31,1.85,4.74,2.4,7.21,1.09,4.86,1.24,9.86,1.18,14.82-.12,10.67-.86,21.37,2.58,31.66,5.97,17.84,22.38,32.26,40.93,35.54,19.19,3.39,36.66-4.16,53.32,8.45,4.32-1.95,9.1-2.7,13.69-2.02,5.19.75,12.52,3.86,16.1,10.14,2.38,4.19,2.27,9.74-.26,14.15-1.57,2.72-3.91,5.05-7.03,5.84-2.17.55-4.56.34-6.58-.63-2.45-1.16-5.31-3.92-3.53-6.85.89-1.45,2.58-1.65,3.88-.61Z"/>
</svg>