<svg width="567.31" height="661.59" xmlns="http://www.w3.org/2000/svg" data-name="KHIX Logos">

 <g>
  <title>Layer 1</title>
  <g id="svg_2">
   <path id="svg_3" fill="#fff" d="m389.55,492.22c-0.31,-0.72 -0.61,-1.44 -0.91,-2.15c0.25,0.71 0.46,1.46 0.64,2.26c0.09,-0.04 0.18,-0.07 0.27,-0.11z" class="cls-2"/>
   <rect id="svg_4" fill="#fff" transform="rotate(-45, -250.76, 283.23)" height="0.08" y="727.50001" x="-34.24999" class="cls-2"/>
   <g id="svg_5">
    <path id="svg_6" fill="#fff" d="m257.75,661.34c-1.34,0 -2.75,-0.1 -4.18,-0.29c-6.38,-0.83 -14.45,-3.56 -18.01,-8.75c-1.71,-2.49 -2.19,-5.32 -1.43,-8.39c0.37,-1.53 1.52,-2.82 3.42,-3.84c0.6,-0.32 1.22,-0.59 1.82,-0.8c18.37,-6.43 37.36,-18.83 56.44,-36.84c16.92,-15.97 29.46,-33.63 37.29,-52.5l0.12,-0.28l-0.29,-0.06l-0.43,-0.08c-1.52,-0.29 -3.02,-0.79 -4.47,-1.48c-3.88,-1.86 -7.22,-5.09 -9.66,-9.33c-2.55,-4.43 -4.86,-10.78 -5.42,-12.34c2.84,0.21 7.21,0.89 11.43,2.18c2.1,0.64 4.01,1.4 5.67,2.24c1.73,0.88 3.16,1.86 4.26,2.9c1.04,0.97 2,2.18 2.87,3.59l0.29,0.48l0.16,-0.54c3.14,-10.51 4.95,-21.62 5.37,-33.03c0.09,-2.54 0.12,-4.48 0.1,-6.3c-0.04,-4.99 1.96,-8.67 5.94,-10.94c3.36,-1.91 8.03,-2.86 14.3,-2.91c0.07,0 0.11,0 0.15,0l0.02,0c11.92,0 17.74,3.38 18.87,10.96c0.14,0.95 0.21,1.77 0.22,2.58c0.3,35.54 -9.8,68.8 -30.03,98.85l-0.33,0.48l0.57,-0.1c1.43,-0.24 2.72,-0.36 3.96,-0.36s2.39,0.11 3.46,0.34c1.51,0.32 3.12,0.94 4.81,1.85c1.62,0.87 3.33,2 5.07,3.37c3.49,2.75 6.54,5.96 8.32,8.15c-1.6,0.44 -8.13,2.16 -13.23,2.59c-0.78,0.07 -1.54,0.1 -2.34,0.1c-4.03,0 -7.67,-0.91 -10.83,-2.71c-1.4,-0.79 -2.67,-1.74 -3.77,-2.82c-0.66,-0.65 -1.27,-1.27 -1.83,-1.85l-0.2,-0.21l-0.18,0.23c-7.12,9.35 -15.27,18.33 -24.23,26.68c-4.82,4.5 -10.29,8.73 -16.23,12.56c-15.32,9.85 -31.85,15.75 -46.56,16.59c-0.41,0.02 -0.85,0.03 -1.31,0.03l0.03,0zm244.9,-99.75c-4.05,0 -7.77,-2.09 -9.97,-5.6c-0.39,-0.62 -0.72,-1.27 -0.99,-1.92c-0.03,-0.1 -4.21,-13.46 -15.71,-31.32l-0.47,-0.73l0,0.87c0.04,2.91 -0.38,5.49 -1.24,7.67c-0.57,1.44 -1.46,2.93 -2.63,4.43c-1.13,1.45 -2.54,2.94 -4.19,4.43c-3.32,2.99 -7.08,5.48 -9.45,6.8c-0.16,-1.65 -0.74,-8.37 -0.3,-13.47c0.43,-4.89 2.1,-9.23 4.83,-12.53c1.01,-1.24 2.16,-2.33 3.42,-3.24c1.39,-1 2.72,-1.89 3.95,-2.65l0.23,-0.14l-0.16,-0.22c-12.46,-17.09 -27.69,-31.94 -45.28,-44.13c-0.9,-0.63 -1.81,-1.26 -2.74,-1.88c-3.22,-2.15 -4.94,-4.91 -5.13,-8.21c-0.17,-3 0.99,-6.45 3.34,-9.96c3.24,-4.85 8.48,-7.99 13.35,-7.99c1.58,0 3.21,0.55 4.83,1.63c3.1,2.08 6.31,4.35 9.54,6.75c6.3,4.71 12.37,9.75 18.03,14.98l0.31,0.29l0.1,-0.41c0.78,-3.04 2.33,-7.31 5.29,-10.37c1.05,-1.1 2.44,-2.14 4.12,-3.1c1.62,-0.92 3.48,-1.77 5.55,-2.5c4.19,-1.5 8.62,-2.38 11.33,-2.7c-0.48,1.58 -2.5,8.03 -4.84,12.57c-2.25,4.36 -5.44,7.73 -9.21,9.76c-1.43,0.76 -2.91,1.32 -4.4,1.68c-0.58,0.14 -1.12,0.26 -1.65,0.38l-0.62,0.14l0.32,0.32c7.87,7.88 15.13,16.35 21.56,25.16c5.56,7.6 10.61,15.57 15,23.69c1.81,3.07 3.52,6.12 4.95,8.69l0.71,1.28c0.64,1.16 1.27,2.31 1.89,3.48c0.22,0.43 0.44,0.86 0.67,1.31c2.24,4.32 4.78,9.21 3.15,14.09c-1.58,4.8 -6.55,8.15 -10.7,10.53c-2.05,1.4 -4.38,2.14 -6.78,2.14l-0.01,0zm-38.59,-160.49c-4.44,0 -8.08,-4.55 -9.44,-6.51c-2.44,-3.52 -1.99,-7.37 1.34,-11.45c1.78,-2.19 7.19,-8.17 19.67,-17.38c14.07,-10.37 28.57,-18.29 43.12,-23.53l0.19,-0.07l-0.03,-0.2c-0.43,-2.72 -1.14,-9.64 1.58,-15.06c0.68,-1.35 1.69,-2.76 3.02,-4.18c1.25,-1.35 2.78,-2.72 4.55,-4.05c3.56,-2.68 7.52,-4.85 10,-5.97c0.01,1.66 0.02,8.41 -0.86,13.45c-0.82,4.67 -2.68,8.61 -5.54,11.68l-0.57,0.61l0.81,-0.2c9.09,-2.24 18.17,-3.37 26.99,-3.37l0.28,0c0.09,0 0.18,0 0.26,0c0.09,0 0.17,0.01 0.26,0.01c5.26,0.21 7.4,3.33 7.38,10.76c-0.02,6.76 -1.63,10.73 -4.91,12.14c-0.88,0.38 -1.9,0.58 -3.02,0.58l-0.24,0c-23.27,0 -44.63,9.83 -60.65,18.4c-6.08,3.25 -12.09,7.41 -18.39,12.72c-3.1,2.61 -4.19,3.77 -6.01,5.68c-0.72,0.76 -1.55,1.63 -2.66,2.76c-1.68,1.71 -4.03,2.85 -6.43,3.12c-0.25,0.02 -0.47,0.04 -0.69,0.04l-0.01,0.02zm16.22,-107.05c-0.65,0 -1.24,-0.68 -1.8,-2.07c-2.61,-6.48 -3.36,-11.9 -2.3,-16.58c0.36,-1.58 0.91,-3.18 1.67,-4.9c1.51,-3.43 3.54,-6.59 5.84,-10.07c9.64,-14.63 27.07,-26.97 35.81,-30.7c1.86,-0.79 2.81,-0.96 3.27,-0.96c3.06,0.04 7.04,4.16 8.92,9.18c1.91,5.11 2.11,6.04 -1.91,8.98c-0.81,0.6 -1.8,1.27 -3.03,2.09c-16.68,11.21 -27.31,22.94 -39.48,37.09c-1.07,1.24 -2.05,2.61 -2.91,3.82c-0.35,0.49 -0.69,0.96 -1.02,1.4c-1.06,1.41 -2.16,2.72 -3.06,2.72z" class="cls-2"/>
    <path id="svg_7" fill="#231f20" d="m522.82,229.01c2.88,0.04 6.84,4.17 8.64,9.02c1.92,5.13 2.01,5.89 -1.83,8.69c-0.82,0.6 -1.8,1.27 -3.02,2.09c-16.7,11.23 -27.35,22.97 -39.53,37.14c-1.07,1.25 -2.06,2.62 -2.93,3.83c-0.35,0.49 -0.69,0.96 -1.02,1.4c-0.97,1.3 -2.07,2.62 -2.86,2.62c-0.66,0 -1.21,-1.04 -1.57,-1.92c-2.59,-6.43 -3.33,-11.8 -2.29,-16.43c0.36,-1.56 0.9,-3.15 1.66,-4.86c1.5,-3.41 3.52,-6.56 5.82,-10.04c9.61,-14.59 26.98,-26.89 35.7,-30.61c1.92,-0.82 2.81,-0.94 3.17,-0.94l0.04,0m15,84.09c0,2.14 -0.04,8.33 -0.86,13.02c-0.81,4.62 -2.65,8.51 -5.47,11.56l-1.14,1.23l1.62,-0.4c9.07,-2.23 18.13,-3.37 26.93,-3.37l0.28,0c0.09,0 0.17,0 0.25,0c0.09,0 0.18,0.01 0.25,0.01l0,0c5.1,0.21 7.17,3.25 7.15,10.51c-0.02,6.65 -1.58,10.55 -4.76,11.91c-0.84,0.37 -1.83,0.56 -2.92,0.56l-0.24,0c-23.33,0 -44.73,9.85 -60.77,18.43c-6.09,3.26 -12.12,7.43 -18.44,12.75c-3.11,2.62 -4.21,3.78 -6.03,5.7c-0.72,0.76 -1.54,1.63 -2.65,2.76c-1.65,1.67 -3.93,2.78 -6.27,3.04c-0.23,0.02 -0.45,0.04 -0.68,0.04c-4.32,0 -7.9,-4.48 -9.24,-6.41c-2.41,-3.47 -1.97,-7.11 1.33,-11.15l0.03,-0.04c1.74,-2.14 7.13,-8.1 19.58,-17.29c14.05,-10.36 28.53,-18.26 43.05,-23.49l0.39,-0.14l-0.06,-0.41c-0.43,-2.7 -1.13,-9.55 1.55,-14.91c0.66,-1.33 1.67,-2.72 2.98,-4.12c1.24,-1.34 2.76,-2.69 4.51,-4.02c3.38,-2.55 7.13,-4.62 9.61,-5.78m-104.29,128.96c1.54,0 3.11,0.53 4.69,1.59c3.1,2.07 6.3,4.34 9.53,6.75c6.3,4.7 12.35,9.73 18.01,14.97l0.62,0.57l0.21,-0.81c0.77,-3.01 2.3,-7.24 5.23,-10.26c1.03,-1.08 2.4,-2.1 4.07,-3.05c1.6,-0.92 3.46,-1.75 5.51,-2.48c3.97,-1.42 8.17,-2.28 10.89,-2.64c-0.63,2.04 -2.53,7.93 -4.71,12.16c-2.23,4.31 -5.38,7.65 -9.11,9.66c-1.41,0.75 -2.87,1.31 -4.35,1.66c-0.58,0.14 -1.12,0.26 -1.65,0.38l-0.16,0.04l-0.89,0.2l0.64,0.65c7.86,7.87 15.11,16.33 21.54,25.13c5.55,7.59 10.59,15.55 14.99,23.68c1.81,3.08 3.52,6.12 4.94,8.68l0.71,1.3c0.63,1.15 1.27,2.3 1.88,3.46c0.22,0.43 0.45,0.87 0.67,1.31c2.33,4.48 4.73,9.12 3.14,13.9c-1.55,4.72 -6.47,8.03 -10.62,10.41c-1.99,1.36 -4.28,2.08 -6.62,2.08c-3.96,0 -7.61,-2.05 -9.76,-5.48c-0.37,-0.6 -0.7,-1.23 -0.96,-1.87c-0.24,-0.77 -4.48,-13.9 -15.74,-31.38l-0.94,-1.46l0.02,1.74c0.03,2.88 -0.38,5.43 -1.23,7.57c-0.56,1.41 -1.43,2.88 -2.6,4.37c-1.12,1.43 -2.51,2.91 -4.16,4.4c-3.15,2.84 -6.7,5.23 -9.07,6.58c-0.19,-2.12 -0.68,-8.29 -0.27,-13.04c0.43,-4.84 2.07,-9.13 4.77,-12.4c1,-1.22 2.13,-2.29 3.37,-3.19c1.39,-1 2.72,-1.89 3.93,-2.64l0.46,-0.28l-0.32,-0.44c-12.47,-17.12 -27.73,-31.98 -45.34,-44.19c-0.75,-0.52 -1.73,-1.21 -2.75,-1.89c-3.15,-2.1 -4.84,-4.8 -5.02,-8.02c-0.16,-2.95 0.97,-6.34 3.3,-9.81c3.15,-4.71 8.43,-7.88 13.14,-7.88m-70.01,42.2s0.02,0 0.04,0c11.77,0 17.51,3.31 18.63,10.74c0.14,0.96 0.21,1.74 0.21,2.54c0.3,35.49 -9.79,68.7 -29.98,98.71l-0.65,0.96l1.15,-0.19c1.42,-0.24 2.7,-0.35 3.92,-0.35s2.36,0.11 3.41,0.34c1.48,0.31 3.08,0.93 4.75,1.82c1.61,0.86 3.3,1.98 5.04,3.34c3.32,2.61 6.24,5.64 8.04,7.82c-2.06,0.55 -8.07,2.08 -12.81,2.48c-0.76,0.07 -1.52,0.1 -2.32,0.1c-3.98,0 -7.58,-0.9 -10.7,-2.68c-1.38,-0.78 -2.63,-1.71 -3.71,-2.78c-0.66,-0.65 -1.26,-1.26 -1.82,-1.84l-0.4,-0.42l-0.35,0.46c-7.11,9.34 -15.25,18.31 -24.2,26.65c-4.82,4.5 -10.27,8.71 -16.2,12.53c-15.28,9.83 -31.77,15.71 -46.43,16.55c-0.41,0.02 -0.84,0.03 -1.3,0.03c-1.33,0 -2.72,-0.1 -4.15,-0.29c-6.32,-0.82 -14.33,-3.53 -17.83,-8.64c-1.66,-2.43 -2.14,-5.19 -1.4,-8.19c0.36,-1.46 1.46,-2.69 3.29,-3.68c0.59,-0.32 1.19,-0.58 1.79,-0.79c18.41,-6.44 37.43,-18.86 56.53,-36.9c16.94,-15.99 29.51,-33.68 37.35,-52.58l0.23,-0.55l-0.59,-0.13c-0.08,-0.02 -0.17,-0.03 -0.25,-0.05l-0.19,-0.04c-1.5,-0.28 -2.98,-0.77 -4.41,-1.46c-3.83,-1.84 -7.14,-5.03 -9.55,-9.23c-2.38,-4.12 -4.54,-9.92 -5.27,-11.93c2.83,0.24 6.98,0.91 11,2.14c2.09,0.64 3.98,1.39 5.63,2.23c1.71,0.87 3.12,1.83 4.2,2.86c1.02,0.95 1.97,2.14 2.83,3.54l0.58,0.95l0.32,-1.07c3.15,-10.53 4.96,-21.66 5.38,-33.1c0.06,-1.73 0.12,-4 0.1,-6.31c-0.04,-4.96 1.86,-8.47 5.81,-10.72c3.32,-1.89 7.96,-2.83 14.18,-2.88l0.04,0s0.04,0 0.04,0c0.02,0 0.03,0 0.05,0m159.32,-255.75l-0.04,0c-0.71,0 -1.87,0.34 -3.37,0.98c-8.06,3.44 -25.91,15.6 -35.92,30.79c-2.11,3.19 -4.29,6.54 -5.86,10.11c-0.71,1.6 -1.3,3.25 -1.69,4.95c-1.27,5.61 0.21,11.51 2.31,16.73c0.64,1.59 1.31,2.23 2.03,2.23c0.97,0 2.04,-1.19 3.26,-2.82c1.15,-1.55 2.44,-3.49 3.92,-5.21c12.59,-14.65 22.92,-25.95 39.43,-37.05c1.21,-0.81 2.21,-1.49 3.04,-2.1c4.14,-3.02 3.93,-4.11 2,-9.27c-1.94,-5.2 -6.06,-9.3 -9.11,-9.34l0,0zm15.47,83.81c-2.29,1 -6.5,3.21 -10.4,6.15c-1.64,1.24 -3.22,2.61 -4.58,4.08c-1.25,1.34 -2.32,2.76 -3.06,4.24c-2.44,4.87 -2.24,11.16 -1.6,15.21c-17.11,6.16 -31.9,15.24 -43.18,23.56c-14.05,10.37 -18.96,16.5 -19.71,17.42c-3,3.67 -4.17,7.69 -1.35,11.75c2.12,3.05 5.65,6.62 9.65,6.62c0.24,0 0.48,-0.02 0.72,-0.04c2.53,-0.28 4.89,-1.47 6.58,-3.19c3.9,-3.97 4.33,-4.79 8.65,-8.43c5.73,-4.83 11.84,-9.21 18.35,-12.69c18.71,-10.01 38.97,-18.37 60.53,-18.37l0.24,0c1.2,0 2.23,-0.21 3.12,-0.6c4,-1.72 5.04,-6.95 5.06,-12.37c0.02,-6.44 -1.45,-10.76 -7.63,-11.01c-0.17,0 -0.33,-0.02 -0.52,-0.02l-0.28,0c-9.38,0 -18.44,1.26 -27.05,3.38c2.58,-2.78 4.7,-6.66 5.6,-11.81c1.02,-5.85 0.86,-13.88 0.86,-13.88l0,0zm-104.8,129.22c-4.65,0 -10.12,2.95 -13.56,8.1c-4.6,6.88 -5.03,13.92 1.86,18.52c0.93,0.62 1.84,1.25 2.74,1.88c20.26,14.04 34.9,29.91 45.22,44.07c-1.16,0.72 -2.48,1.6 -3.96,2.66c-1.22,0.88 -2.4,1.97 -3.47,3.28c-2.49,3.02 -4.4,7.21 -4.88,12.67c-0.51,5.91 0.34,13.89 0.34,13.89c2.2,-1.19 6.21,-3.76 9.83,-7.02c1.53,-1.38 2.99,-2.88 4.22,-4.46c1.13,-1.44 2.06,-2.95 2.67,-4.49c0.97,-2.44 1.3,-5.15 1.27,-7.76c11.37,17.66 15.58,30.89 15.69,31.28c0.29,0.7 0.63,1.35 1.01,1.96c2.29,3.66 6.16,5.72 10.18,5.72c2.34,0 4.74,-0.69 6.9,-2.17c4.39,-2.52 9.22,-5.84 10.81,-10.67c1.83,-5.47 -1.41,-10.82 -3.84,-15.59c-0.85,-1.6 -1.73,-3.18 -2.6,-4.77c-1.62,-2.91 -3.26,-5.82 -4.95,-8.69c-4.46,-8.24 -9.49,-16.16 -15.02,-23.72c-6.53,-8.94 -13.77,-17.36 -21.59,-25.19c0.59,-0.13 1.19,-0.26 1.83,-0.42c1.47,-0.35 2.97,-0.91 4.46,-1.7c3.46,-1.86 6.81,-5.01 9.32,-9.87c2.72,-5.27 4.97,-12.98 4.97,-12.98c-2.49,0.27 -7.17,1.12 -11.76,2.76c-1.94,0.69 -3.86,1.53 -5.59,2.52c-1.6,0.91 -3.04,1.95 -4.18,3.14c-2.79,2.88 -4.44,6.92 -5.35,10.48c-5.75,-5.32 -11.78,-10.32 -18.05,-15c-3.13,-2.33 -6.31,-4.59 -9.55,-6.76c-1.74,-1.16 -3.4,-1.67 -4.97,-1.67l0,0zm-69.98,42.23c-0.06,0 -0.11,0 -0.17,0.01c-11.05,0.09 -20.58,3.06 -20.49,14.1c0.02,2.11 -0.03,4.21 -0.1,6.29c-0.42,11.37 -2.19,22.37 -5.36,32.97c-0.82,-1.33 -1.78,-2.58 -2.91,-3.64c-1.2,-1.14 -2.69,-2.11 -4.32,-2.94c-1.78,-0.91 -3.74,-1.66 -5.71,-2.26c-4.66,-1.43 -9.37,-2.06 -11.87,-2.22c0,0 2.6,7.6 5.56,12.74c2.73,4.74 6.23,7.73 9.77,9.43c1.52,0.73 3.05,1.22 4.53,1.5c0.15,0.03 0.29,0.05 0.43,0.08c-7.83,18.87 -20.26,36.39 -37.23,52.41c-16.02,15.13 -35.38,29.45 -56.35,36.79c-0.63,0.22 -1.26,0.5 -1.86,0.82c-1.67,0.9 -3.1,2.2 -3.54,4c-2.63,10.74 9.97,16.19 19.65,17.45c1.5,0.2 2.92,0.29 4.21,0.29c0.46,0 0.9,-0.01 1.32,-0.03c15.83,-0.91 32.52,-7.52 46.68,-16.63c5.96,-3.84 11.47,-8.11 16.27,-12.59c9.08,-8.46 17.16,-17.38 24.26,-26.71c0.56,0.58 1.17,1.2 1.83,1.85c1.07,1.05 2.35,2.03 3.82,2.86c2.9,1.65 6.56,2.74 10.95,2.74c0.77,0 1.55,-0.03 2.36,-0.1c5.91,-0.5 13.64,-2.7 13.64,-2.7c-1.56,-1.97 -4.76,-5.47 -8.6,-8.49c-1.62,-1.27 -3.35,-2.45 -5.11,-3.39c-1.62,-0.87 -3.27,-1.53 -4.88,-1.87c-1.15,-0.25 -2.33,-0.35 -3.51,-0.35c-1.35,0 -2.69,0.14 -4,0.36c20.07,-29.82 30.37,-63.4 30.07,-98.99c-0.01,-0.94 -0.1,-1.79 -0.22,-2.61c-1.32,-8.81 -9.08,-11.17 -19.12,-11.17l0,0z" class="cls-1"/>
   </g>
   <path id="svg_8" fill="#fff" d="m401.58,344.47c-4.63,-4.24 -9.55,-9.26 -14.36,-15.05c-1.65,-2 -3.29,-4.1 -4.91,-6.3c-0.02,-0.03 -0.05,-0.06 -0.07,-0.09c-0.4,-0.54 -0.8,-1.09 -1.2,-1.65c-1.19,-1.66 -2.36,-3.38 -3.51,-5.14c-3.24,-5 -6.29,-10.43 -8.98,-16.26c-0.69,-1.5 -1.36,-3.03 -2.01,-4.58c-0.53,-1.3 -1.05,-2.61 -1.55,-3.95c-0.59,-1.6 -1.17,-3.25 -1.71,-4.91c-2.12,-6.51 -3.78,-13.46 -4.8,-20.85c-0.2,-1.33 -0.36,-2.68 -0.51,-4.05c-0.02,-0.27 -0.05,-0.56 -0.08,-0.83c-0.24,-2.46 -0.53,-4.87 -0.87,-7.22c-0.09,-0.58 -0.17,-1.15 -0.26,-1.72c-5.04,-32.88 -18.93,-56.09 -30.17,-70.16c-4.34,-5.43 -8.62,-9.92 -12.39,-13.5c-0.31,-0.29 -0.61,-0.57 -0.91,-0.86c-5.68,15.91 -22.17,25.44 -35.63,25.32c-1.97,-0.02 -3.9,-0.24 -5.73,-0.64c-21.39,-4.86 -29.38,-20.34 -36.43,-33.97c-9.33,-18.06 -25.84,-34.63 -45.65,-40.86c-11.97,-3.77 -24.38,-2.6 -37.38,-1.65c-23.79,1.74 -46.16,8.34 -66.53,20.95c9.58,0.55 24.11,3.45 42.51,13.27l12.06,6.45s-15.84,-0.2 -18.36,-0.12c-6.95,0.22 -20.81,1.09 -35.83,4.35c-16.28,3.53 -36.82,10.56 -49.34,24.47c5.73,-1.73 13.28,-3.34 21.19,-3.27c6.6,0.06 13.45,1.29 19.75,4.62c1.74,0.93 11.43,8.17 11.43,8.17c0,0 -14.79,1.96 -24.2,4.5c-21.18,5.72 -56.46,19.69 -65.15,50.54c7.09,-5.77 19.07,-13.15 35.81,-15.49l1.5,4.6c-0.01,0.13 -0.01,0.21 -0.01,0.34c-0.51,0.59 -0.79,1.13 -1.08,1.72c-12.4,23.5 -20.79,49.1 -25.77,75.33c-15.26,79.25 7.82,163.71 58.87,225.8c0.55,0.68 1.12,1.37 1.68,2.05l45.12,-44.29c-2.15,-7.56 -2.58,-14.75 -2.52,-21.37c0.03,-2.39 0.11,-4.73 0.18,-6.98c0.08,-2.17 0.15,-4.21 0.17,-6.23c0.06,-6.91 -0.53,-12.53 -3.34,-17.8c-3.82,3.06 -8.41,5.08 -13.49,5.85c-9.55,1.45 -19.89,-1.72 -27.65,-8.5c-9.53,-8.34 -15.15,-20.57 -15.04,-32.68c0.09,-9.31 3.38,-17.85 9.52,-24.73c7.35,-8.23 17.46,-12.91 28.46,-13.17c10.84,-0.25 21.41,4.04 29.01,11.78l36.06,36.72l10.51,-19.66l0.16,-0.09c-2.68,-12.34 -3.21,-25.12 -1.41,-37.78c1.6,-11.3 4.09,-15.37 4.57,-16.06l0.19,-0.29c-6.44,-8.02 -11.55,-16.25 -15.11,-25.6c-6.13,-16.11 -7.31,-34.77 -3.59,-58.28c0.73,-4.59 0.63,-9.29 -0.22,-13.87c-3.5,-18.61 -6.83,-31.87 -5.96,-33.74l5.38,1.31c8,1.78 15.54,2.43 22.07,2.49c13.55,0.12 22.77,-2.26 22.77,-2.26c-0.54,0.59 -11.38,12.45 -33.18,12.25c-1.42,0 -2.86,-0.08 -4.36,-0.2c1.83,6.44 3.76,15.45 5.7,26.66l0.17,1l-0.19,0.98c-6.67,34.68 -2.46,55.52 8.17,72.69c5.52,8.91 14.45,15.28 24.71,17.44c5.86,1.23 11.62,3.01 17.27,5.33c6.24,2.58 12.1,5.17 17.58,7.79c0.54,0.26 1.08,0.52 1.61,0.78c2.14,1.03 4.22,2.06 6.24,3.08c1.13,0.58 2.25,1.16 3.35,1.74c8.52,4.49 16.02,8.98 22.62,13.39c1.35,0.91 2.67,1.82 3.94,2.72c1.11,0.77 2.17,1.54 3.21,2.31c1.3,0.95 2.56,1.9 3.78,2.85c7.17,5.54 12.95,10.89 17.62,15.9c0.55,0.58 1.08,1.17 1.6,1.75c0.83,0.91 1.61,1.82 2.35,2.7c0.48,0.57 0.94,1.12 1.39,1.68c1.81,2.23 3.39,4.38 4.76,6.4c4.88,7.18 7.26,12.95 8.4,16.56l40.85,-17.13c-15.24,-3.53 -25.67,-10.24 -32.74,-17.23c-2.03,-2 -3.79,-4.02 -5.3,-6c-0.43,-0.55 -0.83,-1.11 -1.23,-1.66c-0.29,-0.41 -0.57,-0.82 -0.85,-1.23c-0.18,-0.28 -0.36,-0.55 -0.54,-0.83c-0.71,-1.09 -1.35,-2.16 -1.95,-3.23c-3.85,-6.92 -5.5,-13.16 -6.19,-16.69c-2.7,-0.09 -5.31,-0.41 -7.84,-0.95c-1.79,-0.37 -3.52,-0.84 -5.22,-1.43c-1.34,-0.46 -2.66,-0.99 -3.95,-1.58c-1.49,-0.69 -2.94,-1.46 -4.35,-2.32c-6.44,-3.92 -12.05,-9.66 -16.72,-17.11c-0.61,-0.94 -1.19,-1.92 -1.76,-2.92c-1.1,-1.94 -2.13,-3.98 -3.11,-6.13c-0.21,-0.46 -0.41,-0.91 -0.61,-1.36c-5.58,-12.81 -7.46,-25.27 -7.97,-29.48c-18.61,-14.26 -28.51,-25.19 -29.42,-32.54c-0.32,-2.61 0.6,-4.08 1,-4.6c0.64,-0.79 1.6,-1.25 2.62,-1.24c0.1,0 0.21,0.01 0.32,0.02c18.87,1.98 31.39,8.2 39.55,14.7c8.16,6.51 11.98,13.32 13.43,16.5c5.41,1.28 10.55,3.12 15.4,5.49c0.44,0.21 0.87,0.43 1.29,0.65c2.11,1.07 4.16,2.26 6.14,3.54c0.95,0.61 1.87,1.25 2.78,1.89c5.73,4.09 10.92,9.05 15.52,14.82c0.99,1.23 1.94,2.5 2.85,3.79c0.76,1.07 1.5,2.18 2.21,3.29c0.87,1.33 1.71,2.69 2.52,4.1c0.09,0.17 0.19,0.34 0.29,0.51c4.11,7.25 6.81,14.16 8.53,19.52c0.78,2.41 1.34,4.5 1.76,6.17c0.05,0.26 0.11,0.51 0.17,0.74c0.09,0.35 0.16,0.68 0.23,0.98c0.47,0.04 0.93,0.1 1.39,0.15c3.35,0.38 6.52,0.9 9.52,1.56c13.94,3.05 24.15,9.04 30.48,17.88c5.52,7.72 6.88,16.01 6.95,22.1c8.44,-5.09 21.53,-8.63 27.2,-10.01c5.27,-16.02 12.86,-24.78 17.75,-29.06c-6.79,-3.65 -19.62,-11.33 -33,-23.6zm-121.54,-91.24s-12.62,-29.95 -23.97,-40.71c0,0 18.13,4.2 42.73,28.25l12.36,28.89l-31.12,-16.43zm137.19,125.12l-2.66,1.34c-6.51,-5.04 -5.49,-13.63 -10.33,-19.77l0.2,-0.39c6.4,0.61 10.38,7.59 12.19,13.04c0.51,1.85 0.79,3.69 0.6,5.78zm-112.56,-226.13c0,-0.08 -0.01,-0.17 -0.02,-0.25c-1.19,-10.09 -3.96,-19.35 -7.95,-27.95l0,0s-0.01,-0.01 -0.01,-0.01l-0.61,-0.2l0,-1.1c-7.42,-15.41 -18.78,-28.65 -31.95,-40.62c-24.29,-22.09 -41.51,-32.13 -41.51,-32.13l4.39,22.58c-14.77,-22.04 -29.64,-26.18 -38.47,-33.84c-22.68,-19.72 -20.27,-38.7 -20.27,-38.7c-3.77,21.25 -9.78,48.45 -6.45,69.91c1.92,12.38 6.78,26.14 22.99,36.07c0.76,0.47 1.53,0.92 2.34,1.37c18.27,10.12 37.52,17.92 49.18,36.62c9.89,15.85 15.68,34.43 36.2,38.89c1.23,0.28 2.54,0.4 3.87,0.4c11.21,0 25.14,-9.15 27.94,-23.05c0.25,-1.24 0.41,-2.51 0.47,-3.82c0.01,-0.11 0.01,-0.23 0.01,-0.35c0.04,-1.24 0,-2.51 -0.15,-3.82zm-210.85,414.78c-0.07,-0.06 -0.14,-0.12 -0.2,-0.18l-0.02,0.37l0,0s0.41,-0.01 0.41,-0.01l0,0c-0.07,-0.06 -0.13,-0.12 -0.19,-0.18zm66.5,-23.86l-21.55,21.55l21.58,-21.54s-0.02,-0.01 -0.03,-0.01zm135.76,-420.42l0,1.09l0.61,0.2l0.01,0c-0.2,-0.43 -0.41,-0.86 -0.62,-1.29zm0,0l0,1.09l0.61,0.2l0.01,0c-0.2,-0.43 -0.41,-0.86 -0.62,-1.29zm0.61,1.29l-0.61,-0.2l0,0s0.62,0.21 0.62,0.21l0,0s-0.01,-0.01 -0.01,-0.01zm203.63,79.68l-35.26,38.71c1.35,2.45 2.65,4.93 3.91,7.44c1.93,3.86 3.7,7.8 5.34,11.81c1.1,-1.82 2.24,-3.57 3.33,-5.22c7.52,-11.41 18.34,-20.21 24.12,-24.44c2.85,-2.08 8.47,-5.98 13.71,-8.4c-4.74,-6.86 -9.79,-13.51 -15.15,-19.9zm-15.33,353.12l-0.12,-0.29l-0.09,-0.28c-0.03,-0.1 -2.15,-6.75 -7.44,-16.8c-1.39,1.79 -3.09,3.59 -5.05,5.35c-3.91,3.53 -8.33,6.43 -11.16,7.97l-9.2,5.01l-1.11,-10.42c-0.04,-0.35 -0.91,-8.73 -0.35,-15.24c0.55,-6.35 2.78,-12.06 6.44,-16.51c0.9,-1.09 1.87,-2.09 2.9,-3c-11.8,-14.94 -25.87,-27.91 -41.91,-38.62c-0.14,-0.1 -0.28,-0.2 -0.42,-0.3c-13.09,2.12 -29.35,-6.41 -37.56,-14.83c0.67,11.49 3.89,19.81 7.77,29c0.35,0.69 0.67,1.43 0.95,2.23c0.3,0.7 0.6,1.42 0.91,2.14c-0.09,0.04 -0.18,0.08 -0.27,0.11c0.34,1.55 0.55,3.26 0.57,5.16c0.27,33.18 -8.14,64.44 -25.03,93.08c1.2,0.44 2.42,0.99 3.65,1.65c2,1.07 4.06,2.44 6.14,4.07c4.14,3.26 7.76,7.12 9.76,9.64l6.5,8.21l-10.07,2.87c-0.35,0.1 -8.45,2.39 -14.96,2.95c-0.99,0.08 -1.99,0.12 -2.96,0.12c-5.3,0 -10.15,-1.23 -14.41,-3.65c-0.42,-0.24 -0.82,-0.48 -1.22,-0.74c-6.2,7.58 -13.06,14.88 -20.45,21.77c-2.33,2.17 -4.92,4.38 -7.71,6.57c38.84,-3.54 76.8,-15.14 110.61,-35.52c21.45,-12.84 40.93,-28.81 57.96,-47.08c-1.07,-1.39 -1.98,-2.93 -2.67,-4.62zm59.1,-228.21c4.85,-0.63 9.66,-0.95 14.41,-0.96c-4.74,-25.9 -13.31,-50.98 -25.26,-74.28c-0.77,0.54 -1.57,1.09 -2.44,1.67c-15.96,10.73 -25.83,21.61 -38.03,35.8c-0.83,0.97 -1.66,2.12 -2.46,3.24c-1.48,2.06 -3.08,4.29 -5.2,5.72c1.63,9.88 2.41,19.89 2.27,29.81c-0.01,0.69 -12.58,17.08 -41.41,19.52c7.18,5.23 14.48,9.83 21.96,13.34c10.98,-8.48 25.75,-18.1 43.3,-25.12c-0.07,-4.13 0.48,-9.14 2.77,-13.69c0.99,-1.98 2.4,-3.95 4.18,-5.87c1.54,-1.66 3.39,-3.31 5.5,-4.89c4.21,-3.18 8.86,-5.69 11.81,-6.98l9.6,-4.19l0.2,10.47c0.01,0.35 0.16,8.78 -0.97,15.21c-0.07,0.4 -0.14,0.8 -0.23,1.2zm18.52,36.65c-1.28,0.28 -2.45,0.38 -3.39,0.38l-0.34,0c-21.67,0 -41.96,9.38 -57.22,17.54c-10.59,5.67 -20.17,13.66 -28.31,22.45c-2.9,3.12 -5.78,5.83 -10.21,6.2c-7.97,0.67 -21.24,3.59 -35.09,-3.29c6.14,14.68 13.35,26.01 24,35.51c0.08,0.08 0.12,0.19 0.13,0.32c3.85,2.87 7.62,5.86 11.28,8.96c0.83,-1.29 1.8,-2.55 2.91,-3.7c1.54,-1.59 3.47,-3.05 5.75,-4.35c1.96,-1.12 4.22,-2.14 6.7,-3.03c4.97,-1.78 10.16,-2.78 13.36,-3.13l10.42,-1.14l-2.94,10.06c-0.1,0.34 -2.47,8.42 -5.46,14.23c-2.44,4.71 -5.77,8.57 -9.75,11.31c5.41,5.93 10.48,12.14 15.15,18.53c5.75,7.86 10.95,16.07 15.46,24.41c1.1,1.86 2.17,3.72 3.22,5.57c25.92,-40.16 41.76,-86.83 44.19,-134.44c0.38,-7.48 0.41,-14.95 0.14,-22.39zm-242.62,140.16c-4.64,0 -9.36,-0.14 -14.18,-0.44c-20.49,-1.24 -37.88,-5.07 -52.68,-10.61l-15.38,8.03l36.46,36.46c7.43,7.43 11.52,17.31 11.52,27.82c0,11.34 -4.9,22.14 -13.45,29.63c-7.58,6.65 -17.38,9.92 -27.6,9.19c-11.27,-0.79 -22.11,-6.35 -29.75,-15.24c-5.57,-6.5 -8.64,-14.58 -8.64,-22.77c0,-7.02 2.25,-13.38 6.35,-18.38c-7.05,-3.83 -14.67,-3.64 -23.98,-3.4c-8.46,0.21 -18.04,0.46 -28.3,-2.56l0,0s-0.01,0.01 -0.01,0.01l-21.58,21.54l-14.27,14.26l-5.99,5.98l0,0s-1.57,1.57 -1.57,1.57c32.86,25.1 71.51,42.58 112.02,51.6c1.76,-2.48 4.49,-4.44 8.01,-5.67c17.42,-6.1 35.54,-17.97 53.87,-35.28c14.14,-13.35 25.08,-27.91 32.57,-43.35c-4.56,-2.55 -8.46,-6.49 -11.34,-11.49c-3.25,-5.66 -6,-13.62 -6.11,-13.96l-3.4,-9.91l10.45,0.66c3.22,0.2 8.45,0.96 13.49,2.51c2.52,0.77 4.83,1.68 6.85,2.71c0,0.01 0.01,0.01 0.02,0.02c1.28,-6.37 2.07,-12.89 2.36,-19.52c-5.14,0.39 -10.38,0.59 -15.74,0.59zm91.41,-369.22c-12.1,-5.39 -24.65,-9.79 -37.49,-13.07c-22.05,-5.62 -45.1,-7.85 -67.82,-6.74c0,0.06 -0.01,0.11 -0.01,0.14c44.26,14.25 86.4,39.28 119.29,72.86l30.24,-27.55c-13.67,-9.99 -28.45,-18.62 -44.21,-25.64zm-317.58,430.81c-0.07,-0.06 -0.14,-0.12 -0.2,-0.18l-0.02,0.37l0.41,-0.02c-0.07,-0.05 -0.13,-0.11 -0.19,-0.17zm1.81,-1.82l1.69,-30.21l-22.29,22.29l-1.69,30.21l30.19,-1.69l22.29,-22.29l-30.19,1.69zm-1.81,1.82c-0.07,-0.06 -0.13,-0.12 -0.2,-0.19l0,0s-0.02,0.38 -0.02,0.38l0,0s0.41,-0.01 0.41,-0.01l0,0c-0.07,-0.06 -0.13,-0.12 -0.19,-0.18zm-0.2,-0.19l0,0c0.06,0.07 0.13,0.13 0.2,0.19c-0.07,-0.06 -0.13,-0.12 -0.2,-0.19zm-30.88,31.26l1.68,-30.22l-25.45,25.46c-7.72,7.72 -7.6,20.36 0.28,28.23c7.87,7.88 20.51,8 28.23,0.28l25.44,-25.44l-30.18,1.69zm153.69,-153.79l0.08,0s0.01,-0.08 0.01,-0.08l-0.09,0.08zm0.08,0l0,0.07l0.07,-0.08l-0.07,0l0,0.01zm98.44,-112.57c-4.57,-5.64 -9.78,-10.36 -15.52,-14.08l-24.22,22.07c4.11,6.82 8.97,11.91 14.49,15.2c2.03,1.21 4.18,2.2 6.38,2.93c0.2,0.07 0.41,0.14 0.62,0.19l21.7,-21.7c-1.1,-1.61 -2.26,-3.16 -3.45,-4.61zm17.93,39.17l-1.01,-4.28c-0.56,-2.38 -1.21,-4.68 -1.99,-7.02c-1.83,-5.52 -4.13,-10.81 -6.85,-15.76l-15.79,15.79l6.96,0.18l1.59,7.79c0.54,2.61 1.93,7.86 5.24,13.69c0.17,0.3 0.35,0.61 0.54,0.91c0.34,0.57 0.7,1.14 1.07,1.71l10.57,-11.62l-0.33,-1.39zm-42.58,42.52c-0.57,-0.64 -1.17,-1.28 -1.78,-1.92c-5.01,-5.27 -10.94,-10.47 -17.66,-15.49l-2.77,2.77l-4.88,13.25l-30.67,30.69l-15.95,1.56l0,0s-0.01,0.01 -0.01,0.01l-0.07,0.08l0,-0.08l-0.08,0s0.09,-0.07 0.09,-0.07l0,0s1.56,-15.95 1.56,-15.95l30.7,-30.67l13.23,-4.87l1.76,-1.76c-0.75,-0.52 -1.51,-1.02 -2.26,-1.52c-7.6,-4.97 -16.04,-9.79 -25.09,-14.3c-0.02,-0.01 -0.05,-0.02 -0.07,-0.03l-9.94,9.05l-50.34,26.45l-10.33,19.78l10.85,10.85l0.02,0s33.81,8.6 33.81,8.6l8.99,33.78l0.29,0.29l10.92,10.93l19.78,-10.33l26.44,-50.34l16.13,-17.71c-0.85,-1.02 -1.74,-2.04 -2.67,-3.05zm-73.72,30.87l-0.07,0.08l0.08,-0.08l-0.01,0zm-0.15,0.01l0,0s0.08,0 0.08,0l0,0s-0.08,0 -0.08,0zm333.3,-333.3l-41.12,16.1l-141.68,129.06c0.09,0.79 0.18,1.56 0.26,2.33l0.09,0.77c0.88,7.73 2.59,15.4 5.06,22.76c0.03,0.09 0.06,0.19 0.1,0.28l125.49,-125.49l21.56,-15.49l-15.28,21.34l-128.39,128.39c2.71,6.24 6.03,12.35 9.91,18.21c0.69,1.04 1.39,2.07 2.1,3.08l146.08,-160.36l16.19,-41.35l-0.37,0.37zm-385.48,332.05l0,0m46.3,46.3l-0.15,-0.59l-0.65,-2.54l-4.04,-15.85l-1.2,-4.75c-0.12,1.04 -0.24,2.1 -0.4,3.15c-0.2,1.51 -0.44,3.02 -0.73,4.52t0,0.01c-0.47,2.4 -1.07,4.75 -1.86,7.02c-0.01,0.05 -0.03,0.1 -0.05,0.14c-1.59,4.47 -3.94,8.58 -7.54,11.86c-6.53,5.93 -17.07,7.75 -24.36,3.18c-1.66,-1.03 -3.16,-2.41 -4.4,-4.14c-0.33,-0.45 -0.64,-0.93 -0.93,-1.45c-5.05,-8.87 -1.45,-23.41 9.59,-25.74c4.57,-0.97 9.43,1.3 11.79,5.3c0.19,0.32 0.36,0.63 0.49,0.95c1.35,2.88 1.19,5.85 0,8.55c-0.64,1.47 -1.58,2.86 -2.74,4.1c-0.74,0.78 -1.57,1.07 -2.37,1c-2.37,-0.17 -4.41,-3.34 -2.26,-5.63c0.54,-0.57 0.97,-1.22 1.26,-1.91c0.92,-2.17 0.42,-4.61 -2.34,-5.69c-3.28,-1.26 -6.37,1.69 -7.84,4.4c-1.96,3.65 -1.77,8.03 0.15,11.32c1.01,1.76 2.52,3.2 4.46,4.08c0.75,0.35 1.57,0.62 2.44,0.77c11.28,1.96 16.53,-6.62 19.16,-16.4c0,-0.05 0.03,-0.1 0.03,-0.15c1.08,-4.03 1.71,-8.25 2.12,-12.02c0.1,-0.89 0.19,-1.77 0.28,-2.6c0.06,-0.68 0.12,-1.34 0.17,-1.97c0.02,-0.23 0.04,-0.45 0.06,-0.67c0.02,-0.13 0.03,-0.26 0.06,-0.4l-1.38,-0.35l-6.94,-1.76l-15.85,-4.04l-3.1,-0.78l-0.02,0s-0.04,-0.02 -0.04,-0.02l-0.06,0.09l-19.37,24.48l5.22,24.5l0.75,3.53l3.51,0.75l24.52,5.22l24.48,-19.37l0.09,-0.06l0,-0.04l-0.01,0zm-65.89,46.52c-1.84,-1.19 -3.61,-2.48 -5.32,-3.85c-3.42,-2.74 -6.58,-5.82 -9.4,-9.17c-2.99,-3.53 -5.69,-7.4 -7.83,-11.5c-0.15,-0.24 -0.28,-0.5 -0.41,-0.75l-13.78,13.78l-1.68,30.2s30.18,-1.68 30.19,-1.68c3.37,-3.37 12.55,-12.56 13.79,-13.77c-0.3,0.29 -5.05,-2.92 -5.56,-3.26zm122.47,10.07s-27.43,-27.44 -49.37,-49.38l-29.25,23.02l-38.99,-8.32l-8.29,-38.96l23.02,-29.25l-0.97,-0.97l-48.41,-48.41c-11.93,-11.93 -31.57,-11.44 -42.88,1.45c-11.22,12.8 -7.87,32.06 5.05,43.16c10.14,8.7 25.59,8.71 32.41,-2.64c3.7,-6.16 2.69,-15.86 -4.03,-19.68c-2.45,-1.4 -6.02,-0.59 -7.77,1.57c-1.19,1.46 -1.35,3.49 -0.16,4.99c1.03,1.3 0.83,3 -0.62,3.88c-2.93,1.78 -5.69,-1.08 -6.85,-3.53c-0.97,-2.01 -1.18,-4.41 -0.62,-6.57c0.78,-3.12 3.11,-5.46 5.84,-7.03c4.4,-2.54 9.95,-2.65 14.15,-0.27c6.27,3.58 9.39,10.91 10.14,16.1c0.67,4.59 -0.08,9.37 -2.03,13.69c-0.17,0.38 3.7,5.97 4.09,6.82c1.05,2.32 1.85,4.74 2.4,7.22c1.09,4.86 1.24,9.86 1.18,14.82c-0.12,10.67 -0.86,21.37 2.59,31.67c5.96,17.84 22.38,32.26 40.93,35.53c19.19,3.39 36.66,-4.16 53.32,8.45c4.32,-1.95 9.1,-2.7 13.69,-2.02c5.19,0.75 12.52,3.86 16.1,10.14c2.38,4.19 2.27,9.74 -0.26,14.15c-1.57,2.72 -3.91,5.05 -7.03,5.84c-2.17,0.55 -4.56,0.34 -6.58,-0.63c-2.45,-1.16 -5.31,-3.92 -3.53,-6.85c0.89,-1.45 2.58,-1.65 3.88,-0.61c1.5,1.18 3.53,1.02 4.99,-0.17c2.16,-1.75 2.97,-5.31 1.58,-7.77c-3.83,-6.72 -13.53,-7.73 -19.69,-4.03c-11.35,6.83 -11.33,22.27 -2.64,32.41c11.1,12.93 30.37,16.28 43.16,5.05c12.9,-11.31 13.38,-30.94 1.45,-42.87z" class="cls-2"/>
  </g>
 </g>
</svg>