<?xml version="1.0" encoding="UTF-8"?>
<svg id="Layer_1" xmlns="http://www.w3.org/2000/svg" version="1.1" viewBox="0 0 578.63 672.44">
  <!-- Generator: Adobe Illustrator 30.5.1, SVG Export Plug-In . SVG Version: 2.1.4 Build 3)  -->
  <defs>
    <style>
      .st0 {
        fill: #8e2bc3;
      }

      .st1 {
        fill: #13763a;
      }
    </style>
  </defs>
  <path class="st1" d="M532.65,232.76c-1.94-5.2-6.06-9.3-9.11-9.34h-.04c-.71,0-1.87.34-3.37.98-8.06,3.44-25.91,15.6-35.92,30.79-2.11,3.19-4.29,6.54-5.86,10.11-.71,1.6-1.3,3.25-1.69,4.95-1.27,5.61.21,11.51,2.31,16.73.64,1.59,1.31,2.23,2.03,2.23.97,0,2.04-1.19,3.26-2.82,1.15-1.55,2.44-3.49,3.92-5.21,12.59-14.65,22.92-25.95,39.43-37.05,1.21-.81,2.21-1.49,3.04-2.1,4.14-3.02,3.93-4.11,2-9.27ZM560.4,329.56c-.17,0-.33-.02-.52-.02h-.28c-9.38,0-18.44,1.26-27.05,3.38,2.58-2.78,4.7-6.66,5.6-11.81,1.02-5.85.86-13.88.86-13.88-2.29,1-6.5,3.21-10.4,6.15-1.64,1.24-3.22,2.61-4.58,4.08-1.25,1.34-2.32,2.76-3.06,4.24-2.44,4.87-2.24,11.16-1.6,15.21-17.11,6.16-31.9,15.24-43.18,23.56-14.05,10.37-18.96,16.5-19.71,17.42-3,3.67-4.17,7.69-1.35,11.75,2.12,3.05,5.65,6.62,9.65,6.62.24,0,.48-.02.72-.04,2.53-.28,4.89-1.47,6.58-3.19,3.9-3.97,4.33-4.79,8.65-8.43,5.73-4.83,11.84-9.21,18.35-12.69,18.71-10.01,38.97-18.37,60.53-18.37h.24c1.2,0,2.23-.21,3.12-.6,4-1.72,5.04-6.95,5.06-12.37.02-6.44-1.45-10.76-7.63-11.01ZM517.24,528.32c-.85-1.6-1.73-3.18-2.6-4.77-1.62-2.91-3.26-5.82-4.95-8.69-4.46-8.24-9.49-16.16-15.02-23.72-6.53-8.94-13.77-17.36-21.59-25.19.59-.13,1.19-.26,1.83-.42,1.47-.35,2.97-.91,4.46-1.7,3.46-1.86,6.81-5.01,9.32-9.87,2.72-5.27,4.97-12.98,4.97-12.98-2.49.27-7.17,1.12-11.76,2.76-1.94.69-3.86,1.53-5.59,2.52-1.6.91-3.04,1.95-4.18,3.14-2.79,2.88-4.44,6.92-5.35,10.48-5.75-5.32-11.78-10.32-18.05-15-3.13-2.33-6.31-4.59-9.55-6.76-1.74-1.16-3.4-1.67-4.97-1.67-4.65,0-10.12,2.95-13.56,8.1-4.6,6.88-5.03,13.92,1.86,18.52.93.62,1.84,1.25,2.74,1.88,20.26,14.04,34.9,29.91,45.22,44.07-1.16.72-2.48,1.6-3.96,2.66-1.22.88-2.4,1.97-3.47,3.28-2.49,3.02-4.4,7.21-4.88,12.67-.51,5.91.34,13.89.34,13.89,2.2-1.19,6.21-3.76,9.83-7.02,1.53-1.38,2.99-2.88,4.22-4.46,1.13-1.44,2.06-2.95,2.67-4.49.97-2.44,1.3-5.15,1.27-7.76,11.37,17.66,15.58,30.89,15.69,31.28.29.7.63,1.35,1.01,1.96,2.29,3.66,6.16,5.72,10.18,5.72,2.34,0,4.74-.69,6.9-2.17,4.39-2.52,9.22-5.84,10.81-10.67,1.83-5.47-1.41-10.82-3.84-15.59ZM371,596.7c-1.62-1.27-3.35-2.45-5.11-3.39-1.62-.87-3.27-1.53-4.88-1.87-1.15-.25-2.33-.35-3.51-.35-1.35,0-2.69.14-4,.36,20.07-29.82,30.37-63.4,30.07-98.99-.01-.94-.1-1.79-.22-2.61-1.32-8.81-9.08-11.17-19.12-11.17-.06,0-.11,0-.17.01-11.05.09-20.58,3.06-20.49,14.1.02,2.11-.03,4.21-.1,6.29-.42,11.37-2.19,22.37-5.36,32.97-.82-1.33-1.78-2.58-2.91-3.64-1.2-1.14-2.69-2.11-4.32-2.94-1.78-.91-3.74-1.66-5.71-2.26-4.66-1.43-9.37-2.06-11.87-2.22,0,0,2.6,7.6,5.56,12.74,2.73,4.74,6.23,7.73,9.77,9.43,1.52.73,3.05,1.22,4.53,1.5.15.03.29.05.43.08-7.83,18.87-20.26,36.39-37.23,52.41-16.02,15.13-35.38,29.45-56.35,36.79-.63.22-1.26.5-1.86.82-1.67.9-3.1,2.2-3.54,4-2.63,10.74,9.97,16.19,19.65,17.45,1.5.2,2.92.29,4.21.29.46,0,.9-.01,1.32-.03,15.83-.91,32.52-7.52,46.68-16.63,5.96-3.84,11.47-8.11,16.27-12.59,9.08-8.46,17.16-17.38,24.26-26.71.56.58,1.17,1.2,1.83,1.85,1.07,1.05,2.35,2.03,3.82,2.86,2.9,1.65,6.56,2.74,10.95,2.74.77,0,1.55-.03,2.36-.1,5.91-.5,13.64-2.7,13.64-2.7-1.56-1.97-4.76-5.47-8.6-8.49Z"/>
  <path class="st0" d="M401.58,339.78c-4.63-4.24-9.55-9.26-14.36-15.05-1.65-2-3.29-4.1-4.91-6.3-.02-.03-.05-.06-.07-.09-.4-.54-.8-1.09-1.2-1.65-1.19-1.66-2.36-3.38-3.51-5.14-3.24-5-6.29-10.43-8.98-16.26-.69-1.5-1.36-3.03-2.01-4.58-.53-1.3-1.05-2.61-1.55-3.95-.59-1.6-1.17-3.25-1.71-4.91-2.12-6.51-3.78-13.46-4.8-20.85-.2-1.33-.36-2.68-.51-4.05-.02-.27-.05-.56-.08-.83-.24-2.46-.53-4.87-.87-7.22-.09-.58-.17-1.15-.26-1.72-5.04-32.88-18.93-56.09-30.17-70.16-4.34-5.43-8.62-9.92-12.39-13.5-.31-.29-.61-.57-.91-.86-5.68,15.91-22.17,25.44-35.63,25.32-1.97-.02-3.9-.24-5.73-.64-21.39-4.86-29.38-20.34-36.43-33.97-9.33-18.06-25.84-34.63-45.65-40.86-11.97-3.77-24.38-2.6-37.38-1.65-23.79,1.74-46.16,8.34-66.53,20.95,9.58.55,24.11,3.45,42.51,13.27l12.06,6.45s-15.84-.2-18.36-.12c-6.95.22-20.81,1.09-35.83,4.35-16.28,3.53-36.82,10.56-49.34,24.47,5.73-1.73,13.28-3.34,21.19-3.27,6.6.06,13.45,1.29,19.75,4.62,1.74.93,11.43,8.17,11.43,8.17,0,0-14.79,1.96-24.2,4.5-21.18,5.72-56.46,19.69-65.15,50.54,7.09-5.77,19.07-13.15,35.81-15.49l1.5,4.6c-.01.13-.01.21-.01.34-.51.59-.79,1.13-1.08,1.72-12.4,23.5-20.79,49.1-25.77,75.33-15.26,79.25,7.82,163.71,58.87,225.8.55.68,1.12,1.37,1.68,2.05l45.12-44.29c-2.15-7.56-2.58-14.75-2.52-21.37.03-2.39.11-4.73.18-6.98.08-2.17.15-4.21.17-6.23.06-6.91-.53-12.53-3.34-17.8-3.82,3.06-8.41,5.08-13.49,5.85-9.55,1.45-19.89-1.72-27.65-8.5-9.53-8.34-15.15-20.57-15.04-32.68.09-9.31,3.38-17.85,9.52-24.73,7.35-8.23,17.46-12.91,28.46-13.17,10.84-.25,21.41,4.04,29.01,11.78l36.06,36.72,10.51-19.66.16-.09c-2.68-12.34-3.21-25.12-1.41-37.78,1.6-11.3,4.09-15.37,4.57-16.06l.19-.29c-6.44-8.02-11.55-16.25-15.11-25.6-6.13-16.11-7.31-34.77-3.59-58.28.73-4.59.63-9.29-.22-13.87-3.5-18.61-6.83-31.87-5.96-33.74l5.38,1.31c8,1.78,15.54,2.43,22.07,2.49,13.55.12,22.77-2.26,22.77-2.26-.54.59-11.38,12.45-33.18,12.25-1.42,0-2.86-.08-4.36-.2,1.83,6.44,3.76,15.45,5.7,26.66l.17,1-.19.98c-6.67,34.68-2.46,55.52,8.17,72.69,5.52,8.91,14.45,15.28,24.71,17.44,5.86,1.23,11.62,3.01,17.27,5.33,6.24,2.58,12.1,5.17,17.58,7.79.54.26,1.08.52,1.61.78,2.14,1.03,4.22,2.06,6.24,3.08,1.13.58,2.25,1.16,3.35,1.74,8.52,4.49,16.02,8.98,22.62,13.39,1.35.91,2.67,1.82,3.94,2.72,1.11.77,2.17,1.54,3.21,2.31,1.3.95,2.56,1.9,3.78,2.85,7.17,5.54,12.95,10.89,17.62,15.9.55.58,1.08,1.17,1.6,1.75.83.91,1.61,1.82,2.35,2.7.48.57.94,1.12,1.39,1.68,1.81,2.23,3.39,4.38,4.76,6.4,4.88,7.18,7.26,12.95,8.4,16.56l40.85-17.13c-15.24-3.53-25.67-10.24-32.74-17.23-2.03-2-3.79-4.02-5.3-6-.43-.55-.83-1.11-1.23-1.66-.29-.41-.57-.82-.85-1.23-.18-.28-.36-.55-.54-.83-.71-1.09-1.35-2.16-1.95-3.23-3.85-6.92-5.5-13.16-6.19-16.69-2.7-.09-5.31-.41-7.84-.95-1.79-.37-3.52-.84-5.22-1.43-1.34-.46-2.66-.99-3.95-1.58-1.49-.69-2.94-1.46-4.35-2.32-6.44-3.92-12.05-9.66-16.72-17.11-.61-.94-1.19-1.92-1.76-2.92-1.1-1.94-2.13-3.98-3.11-6.13-.21-.46-.41-.91-.61-1.36-5.58-12.81-7.46-25.27-7.97-29.48-18.61-14.26-28.51-25.19-29.42-32.54-.32-2.61.6-4.08,1-4.6.64-.79,1.6-1.25,2.62-1.24.1,0,.21.01.32.02,18.87,1.98,31.39,8.2,39.55,14.7,8.16,6.51,11.98,13.32,13.43,16.5,5.41,1.28,10.55,3.12,15.4,5.49.44.21.87.43,1.29.65,2.11,1.07,4.16,2.26,6.14,3.54.95.61,1.87,1.25,2.78,1.89,5.73,4.09,10.92,9.05,15.52,14.82.99,1.23,1.94,2.5,2.85,3.79.76,1.07,1.5,2.18,2.21,3.29.87,1.33,1.71,2.69,2.52,4.1.09.17.19.34.29.51,4.11,7.25,6.81,14.16,8.53,19.52.78,2.41,1.34,4.5,1.76,6.17.05.26.11.51.17.74.09.35.16.68.23.98.47.04.93.1,1.39.15,3.35.38,6.52.9,9.52,1.56,13.94,3.05,24.15,9.04,30.48,17.88,5.52,7.72,6.88,16.01,6.95,22.1,8.44-5.09,21.53-8.63,27.2-10.01,5.27-16.02,12.86-24.78,17.75-29.06-6.79-3.65-19.62-11.33-33-23.6ZM280.04,248.54s-12.62-29.95-23.97-40.71c0,0,18.13,4.2,42.73,28.25l12.36,28.89-31.12-16.43ZM417.23,373.66l-2.66,1.34c-6.51-5.04-5.49-13.63-10.33-19.77l.2-.39c6.4.61,10.38,7.59,12.19,13.04.51,1.85.79,3.69.6,5.78ZM304.67,147.53c0-.08-.01-.17-.02-.25-1.19-10.09-3.96-19.35-7.95-27.95h0s-.01-.01-.01-.01l-.61-.2v-1.1c-7.42-15.41-18.78-28.65-31.95-40.62-24.29-22.09-41.51-32.13-41.51-32.13l4.39,22.58c-14.77-22.04-29.64-26.18-38.47-33.84-22.68-19.72-20.27-38.7-20.27-38.7-3.77,21.25-9.78,48.45-6.45,69.91,1.92,12.38,6.78,26.14,22.99,36.07.76.47,1.53.92,2.34,1.37,18.27,10.12,37.52,17.92,49.18,36.62,9.89,15.85,15.68,34.43,36.2,38.89,1.23.28,2.54.4,3.87.4,11.21,0,25.14-9.15,27.94-23.05.25-1.24.41-2.51.47-3.82.01-.11.01-.23.01-.35.04-1.24,0-2.51-.15-3.82ZM93.82,562.31c-.07-.06-.14-.12-.2-.18l-.02.37h0s.41-.01.41-.01h0c-.07-.06-.13-.12-.19-.18ZM160.32,538.45l-21.55,21.55,21.58-21.54s-.02-.01-.03-.01ZM296.08,118.03v1.09l.61.2h.01c-.2-.43-.41-.86-.62-1.29ZM296.08,118.03v1.09l.61.2h.01c-.2-.43-.41-.86-.62-1.29ZM296.69,119.32l-.61-.2h0s.62.21.62.21h0s-.01-.01-.01-.01ZM500.32,199l-35.26,38.71c1.35,2.45,2.65,4.93,3.91,7.44,1.93,3.86,3.7,7.8,5.34,11.81,1.1-1.82,2.24-3.57,3.33-5.22,7.52-11.41,18.34-20.21,24.12-24.44,2.85-2.08,8.47-5.98,13.71-8.4-4.74-6.86-9.79-13.51-15.15-19.9ZM484.99,552.12l-.12-.29-.09-.28c-.03-.1-2.15-6.75-7.44-16.8-1.39,1.79-3.09,3.59-5.05,5.35-3.91,3.53-8.33,6.43-11.16,7.97l-9.2,5.01-1.11-10.42c-.04-.35-.91-8.73-.35-15.24.55-6.35,2.78-12.06,6.44-16.51.9-1.09,1.87-2.09,2.9-3-11.8-14.94-25.87-27.91-41.91-38.62-.14-.1-.28-.2-.42-.3-13.09,2.12-29.35-6.41-37.56-14.83.67,11.49,3.89,19.81,7.77,29,.35.69.67,1.43.95,2.23.3.7.6,1.42.91,2.14-.09.04-.18.08-.27.11.34,1.55.55,3.26.57,5.16.27,33.18-8.14,64.44-25.03,93.08,1.2.44,2.42.99,3.65,1.65,2,1.07,4.06,2.44,6.14,4.07,4.14,3.26,7.76,7.12,9.76,9.64l6.5,8.21-10.07,2.87c-.35.1-8.45,2.39-14.96,2.95-.99.08-1.99.12-2.96.12-5.3,0-10.15-1.23-14.41-3.65-.42-.24-.82-.48-1.22-.74-6.2,7.58-13.06,14.88-20.45,21.77-2.33,2.17-4.92,4.38-7.71,6.57,38.84-3.54,76.8-15.14,110.61-35.52,21.45-12.84,40.93-28.81,57.96-47.08-1.07-1.39-1.98-2.93-2.67-4.62ZM544.09,323.91c4.85-.63,9.66-.95,14.41-.96-4.74-25.9-13.31-50.98-25.26-74.28-.77.54-1.57,1.09-2.44,1.67-15.96,10.73-25.83,21.61-38.03,35.8-.83.97-1.66,2.12-2.46,3.24-1.48,2.06-3.08,4.29-5.2,5.72,1.63,9.88,2.41,19.89,2.27,29.81-.01.69-12.58,17.08-41.41,19.52,7.18,5.23,14.48,9.83,21.96,13.34,10.98-8.48,25.75-18.1,43.3-25.12-.07-4.13.48-9.14,2.77-13.69.99-1.98,2.4-3.95,4.18-5.87,1.54-1.66,3.39-3.31,5.5-4.89,4.21-3.18,8.86-5.69,11.81-6.98l9.6-4.19.2,10.47c.01.35.16,8.78-.97,15.21-.07.4-.14.8-.23,1.2ZM562.61,360.56c-1.28.28-2.45.38-3.39.38h-.34c-21.67,0-41.96,9.38-57.22,17.54-10.59,5.67-20.17,13.66-28.31,22.45-2.9,3.12-5.78,5.83-10.21,6.2-7.97.67-21.24,3.59-35.09-3.29,6.14,14.68,13.35,26.01,24,35.51.08.08.12.19.13.32,3.85,2.87,7.62,5.86,11.28,8.96.83-1.29,1.8-2.55,2.91-3.7,1.54-1.59,3.47-3.05,5.75-4.35,1.96-1.12,4.22-2.14,6.7-3.03,4.97-1.78,10.16-2.78,13.36-3.13l10.42-1.14-2.94,10.06c-.1.34-2.47,8.42-5.46,14.23-2.44,4.71-5.77,8.57-9.75,11.31,5.41,5.93,10.48,12.14,15.15,18.53,5.75,7.86,10.95,16.07,15.46,24.41,1.1,1.86,2.17,3.72,3.22,5.57,25.92-40.16,41.76-86.83,44.19-134.44.38-7.48.41-14.95.14-22.39ZM319.99,500.72c-4.64,0-9.36-.14-14.18-.44-20.49-1.24-37.88-5.07-52.68-10.61l-15.38,8.03,36.46,36.46c7.43,7.43,11.52,17.31,11.52,27.82,0,11.34-4.9,22.14-13.45,29.63-7.58,6.65-17.38,9.92-27.6,9.19-11.27-.79-22.11-6.35-29.75-15.24-5.57-6.5-8.64-14.58-8.64-22.77,0-7.02,2.25-13.38,6.35-18.38-7.05-3.83-14.67-3.64-23.98-3.4-8.46.21-18.04.46-28.3-2.56h0s-.01.01-.01.01l-21.58,21.54-14.27,14.26-5.99,5.98h0s-1.57,1.57-1.57,1.57c32.86,25.1,71.51,42.58,112.02,51.6,1.76-2.48,4.49-4.44,8.01-5.67,17.42-6.1,35.54-17.97,53.87-35.28,14.14-13.35,25.08-27.91,32.57-43.35-4.56-2.55-8.46-6.49-11.34-11.49-3.25-5.66-6-13.62-6.11-13.96l-3.4-9.91,10.45.66c3.22.2,8.45.96,13.49,2.51,2.52.77,4.83,1.68,6.85,2.71,0,.01.01.01.02.02,1.28-6.37,2.07-12.89,2.36-19.52-5.14.39-10.38.59-15.74.59ZM411.4,131.5c-12.1-5.39-24.65-9.79-37.49-13.07-22.05-5.62-45.1-7.85-67.82-6.74,0,.06-.01.11-.01.14,44.26,14.25,86.4,39.28,119.29,72.86l30.24-27.55c-13.67-9.99-28.45-18.62-44.21-25.64ZM93.82,562.31c-.07-.06-.14-.12-.2-.18l-.02.37.41-.02c-.07-.05-.13-.11-.19-.17ZM95.63,560.49l1.69-30.21-22.29,22.29-1.69,30.21,30.19-1.69,22.29-22.29-30.19,1.69ZM93.82,562.31c-.07-.06-.13-.12-.2-.19h0s-.02.38-.02.38h0s.41-.01.41-.01h0c-.07-.06-.13-.12-.19-.18ZM93.62,562.12h0c.06.07.13.13.2.19-.07-.06-.13-.12-.2-.19ZM62.74,593.38l1.68-30.22-25.45,25.46c-7.72,7.72-7.6,20.36.28,28.23,7.87,7.88,20.51,8,28.23.28l25.44-25.44-30.18,1.69ZM216.43,439.59h.08s.01-.08.01-.08l-.09.08ZM216.51,439.59v.07l.07-.08h-.07ZM314.95,327.02c-4.57-5.64-9.78-10.36-15.52-14.08l-24.22,22.07c4.11,6.82,8.97,11.91,14.49,15.2,2.03,1.21,4.18,2.2,6.38,2.93.2.07.41.14.62.19l21.7-21.7c-1.1-1.61-2.26-3.16-3.45-4.61ZM332.88,366.19l-1.01-4.28c-.56-2.38-1.21-4.68-1.99-7.02-1.83-5.52-4.13-10.81-6.85-15.76l-15.79,15.79,6.96.18,1.59,7.79c.54,2.61,1.93,7.86,5.24,13.69.17.3.35.61.54.91.34.57.7,1.14,1.07,1.71l10.57-11.62-.33-1.39ZM290.3,408.71c-.57-.64-1.17-1.28-1.78-1.92-5.01-5.27-10.94-10.47-17.66-15.49l-2.77,2.77-4.88,13.25-30.67,30.69-15.95,1.56h0s-.01.01-.01.01l-.07.08v-.08h-.08s.09-.07.09-.07h0s1.56-15.95,1.56-15.95l30.7-30.67,13.23-4.87,1.76-1.76c-.75-.52-1.51-1.02-2.26-1.52-7.6-4.97-16.04-9.79-25.09-14.3-.02-.01-.05-.02-.07-.03l-9.94,9.05-50.34,26.45-10.33,19.78,10.85,10.85h.02s33.81,8.6,33.81,8.6l8.99,33.78.29.29,10.92,10.93,19.78-10.33,26.44-50.34,16.13-17.71c-.85-1.02-1.74-2.04-2.67-3.05ZM216.58,439.58l-.07.08.08-.08h-.01ZM216.43,439.59h0s.08,0,.08,0h0s-.08,0-.08,0ZM549.73,106.29l-41.12,16.1-141.68,129.06c.09.79.18,1.56.26,2.33l.09.77c.88,7.73,2.59,15.4,5.06,22.76.03.09.06.19.1.28l125.49-125.49,21.56-15.49-15.28,21.34-128.39,128.39c2.71,6.24,6.03,12.35,9.91,18.21.69,1.04,1.39,2.07,2.1,3.08l146.08-160.36,16.19-41.35-.37.37ZM164.25,438.34h0M210.55,484.64l-.15-.59-.65-2.54-4.04-15.85-1.2-4.75c-.12,1.04-.24,2.1-.4,3.15-.2,1.51-.44,3.02-.73,4.52t0,.01c-.47,2.4-1.07,4.75-1.86,7.02-.01.05-.03.1-.05.14-1.59,4.47-3.94,8.58-7.54,11.86-6.53,5.93-17.07,7.75-24.36,3.18-1.66-1.03-3.16-2.41-4.4-4.14-.33-.45-.64-.93-.93-1.45-5.05-8.87-1.45-23.41,9.59-25.74,4.57-.97,9.43,1.3,11.79,5.3.19.32.36.63.49.95,1.35,2.88,1.19,5.85,0,8.55-.64,1.47-1.58,2.86-2.74,4.1-.74.78-1.57,1.07-2.37,1-2.37-.17-4.41-3.34-2.26-5.63.54-.57.97-1.22,1.26-1.91.92-2.17.42-4.61-2.34-5.69-3.28-1.26-6.37,1.69-7.84,4.4-1.96,3.65-1.77,8.03.15,11.32,1.01,1.76,2.52,3.2,4.46,4.08.75.35,1.57.62,2.44.77,11.28,1.96,16.53-6.62,19.16-16.4,0-.05.03-.1.03-.15,1.08-4.03,1.71-8.25,2.12-12.02.1-.89.19-1.77.28-2.6.06-.68.12-1.34.17-1.97.02-.23.04-.45.06-.67.02-.13.03-.26.06-.4l-1.38-.35-6.94-1.76-15.85-4.04-3.1-.78h-.02s-.04-.02-.04-.02l-.06.09-19.37,24.48,5.22,24.5.75,3.53,3.51.75,24.52,5.22,24.48-19.37.09-.06v-.04ZM144.66,531.16c-1.84-1.19-3.61-2.48-5.32-3.85-3.42-2.74-6.58-5.82-9.4-9.17-2.99-3.53-5.69-7.4-7.83-11.5-.15-.24-.28-.5-.41-.75l-13.78,13.78-1.68,30.2s30.18-1.68,30.19-1.68c3.37-3.37,12.55-12.56,13.79-13.77-.3.29-5.05-2.92-5.56-3.26ZM267.13,541.23s-27.43-27.44-49.37-49.38l-29.25,23.02-38.99-8.32-8.29-38.96,23.02-29.25-.97-.97-48.41-48.41c-11.93-11.93-31.57-11.44-42.88,1.45-11.22,12.8-7.87,32.06,5.05,43.16,10.14,8.7,25.59,8.71,32.41-2.64,3.7-6.16,2.69-15.86-4.03-19.68-2.45-1.4-6.02-.59-7.77,1.57-1.19,1.46-1.35,3.49-.16,4.99,1.03,1.3.83,3-.62,3.88-2.93,1.78-5.69-1.08-6.85-3.53-.97-2.01-1.18-4.41-.62-6.57.78-3.12,3.11-5.46,5.84-7.03,4.4-2.54,9.95-2.65,14.15-.27,6.27,3.58,9.39,10.91,10.14,16.1.67,4.59-.08,9.37-2.03,13.69-.17.38,3.7,5.97,4.09,6.82,1.05,2.32,1.85,4.74,2.4,7.22,1.09,4.86,1.24,9.86,1.18,14.82-.12,10.67-.86,21.37,2.59,31.67,5.96,17.84,22.38,32.26,40.93,35.53,19.19,3.39,36.66-4.16,53.32,8.45,4.32-1.95,9.1-2.7,13.69-2.02,5.19.75,12.52,3.86,16.1,10.14,2.38,4.19,2.27,9.74-.26,14.15-1.57,2.72-3.91,5.05-7.03,5.84-2.17.55-4.56.34-6.58-.63-2.45-1.16-5.31-3.92-3.53-6.85.89-1.45,2.58-1.65,3.88-.61,1.5,1.18,3.53,1.02,4.99-.17,2.16-1.75,2.97-5.31,1.58-7.77-3.83-6.72-13.53-7.73-19.69-4.03-11.35,6.83-11.33,22.27-2.64,32.41,11.1,12.93,30.37,16.28,43.16,5.05,12.9-11.31,13.38-30.94,1.45-42.87Z"/>
</svg>