<?xml version="1.0" encoding="UTF-8" standalone="no"?>
<svg
   id="Layer_1"
   data-name="Layer 1"
   viewBox="0 0 1000 499.99999"
   version="1.1"
   sodipodi:docname="BloomKnights.svg"
   inkscape:version="1.4.3 (0d15f75, 2025-12-25)"
   xml:space="preserve"
   width="1000"
   height="500"
   xmlns:inkscape="http://www.inkscape.org/namespaces/inkscape"
   xmlns:sodipodi="http://sodipodi.sourceforge.net/DTD/sodipodi-0.dtd"
   xmlns:xlink="http://www.w3.org/1999/xlink"
   xmlns="http://www.w3.org/2000/svg"
   xmlns:svg="http://www.w3.org/2000/svg"><sodipodi:namedview
     id="namedview18"
     pagecolor="#505050"
     bordercolor="#eeeeee"
     borderopacity="1"
     inkscape:showpageshadow="0"
     inkscape:pageopacity="0"
     inkscape:pagecheckerboard="0"
     inkscape:deskcolor="#505050"
     inkscape:zoom="1.7312426"
     inkscape:cx="600.14698"
     inkscape:cy="212.8529"
     inkscape:window-width="2560"
     inkscape:window-height="1369"
     inkscape:window-x="-8"
     inkscape:window-y="-8"
     inkscape:window-maximized="1"
     inkscape:current-layer="g28" /><defs
     id="defs1"><style
       id="style1">
      .cls-1 {
        stroke-width: 9px;
      }

      .cls-1, .cls-2, .cls-3 {
        fill: #ffc332;
      }

      .cls-1, .cls-3 {
        stroke: #ffc332;
      }

      .cls-3 {
        stroke-miterlimit: 10;
      }
    </style><linearGradient
       id="linear-gradient-3"
       x1="324.98001"
       y1="200.28999"
       x2="429.48001"
       y2="304.78"
       xlink:href="#linear-gradient"
       gradientTransform="matrix(1.2368144,0,0,1.2368144,543.04319,434.38127)" /><linearGradient
       id="linear-gradient"
       x1="725.09998"
       y1="181.5"
       x2="774.85999"
       y2="267.69"
       gradientUnits="userSpaceOnUse"><stop
         offset="0"
         stop-color="#fe73fe"
         id="stop1" /><stop
         offset="1"
         stop-color="#fdc0fd"
         id="stop2" /></linearGradient><linearGradient
       id="linear-gradient-4"
       x1="415.10999"
       y1="200.75"
       x2="488.41"
       y2="274.06"
       xlink:href="#linear-gradient"
       gradientTransform="matrix(1.2368144,0,0,1.2368144,543.04319,434.38127)" /><linearGradient
       id="linear-gradient-2"
       x1="475.26999"
       y1="207.89"
       x2="531.64001"
       y2="264.26999"
       xlink:href="#linear-gradient"
       gradientTransform="matrix(1.2368144,0,0,1.2368144,543.04319,434.38127)" /><linearGradient
       id="linear-gradient-6"
       x1="536.35999"
       y1="204.14"
       x2="602.48999"
       y2="270.26999"
       xlink:href="#linear-gradient"
       gradientTransform="matrix(1.2368144,0,0,1.2368144,543.04319,434.38127)" /><linearGradient
       id="linear-gradient-5"
       x1="614.97998"
       y1="193.36"
       x2="700.51001"
       y2="278.89001"
       xlink:href="#linear-gradient"
       gradientTransform="matrix(1.2368144,0,0,1.2368144,543.04319,434.38127)" /><linearGradient
       id="linear-gradient-7"
       x1="817.01001"
       y1="191.41"
       x2="817.01001"
       y2="280.76001"
       xlink:href="#linear-gradient"
       gradientTransform="matrix(1.2368144,0,0,1.2368144,543.04319,434.38127)" /><style
       id="style1-9">
      .cls-1 {
        fill: #fcbc4e;
      }

      .cls-2 {
        fill: #a8d471;
      }

      .cls-3 {
        fill: #dae494;
      }

      .cls-4 {
        fill: #a2d06c;
      }

      .cls-5 {
        fill: url(#linear-gradient-5);
      }

      .cls-6 {
        fill: url(#linear-gradient-4);
      }

      .cls-7 {
        fill: url(#linear-gradient-3);
      }

      .cls-8 {
        fill: url(#linear-gradient-2);
      }

      .cls-9 {
        fill: #dde697;
      }

      .cls-10 {
        fill: #d8e493;
      }

      .cls-11 {
        fill: #aed473;
      }

      .cls-12 {
        fill: #f8f7f5;
      }

      .cls-13 {
        fill: #c8dc88;
      }

      .cls-14 {
        fill: #dae493;
      }

      .cls-15 {
        fill: #a9d46c;
      }

      .cls-16 {
        fill: url(#linear-gradient);
      }

      .cls-17 {
        fill: #9ecd6b;
      }

      .cls-18 {
        fill: #a8d164;
      }

      .cls-19 {
        fill: #a4d06e;
      }

      .cls-20 {
        fill: #dce494;
      }

      .cls-21 {
        fill: #dbe494;
      }

      .cls-22 {
        fill: #dfe4dc;
      }

      .cls-23 {
        fill: #f9949c;
      }

      .cls-24 {
        fill: #22bfe2;
      }

      .cls-25 {
        fill: #c6db86;
      }

      .cls-26 {
        fill: #99cb68;
      }

      .cls-27 {
        fill: #f27380;
      }

      .cls-28 {
        fill: #a6d060;
      }

      .cls-29 {
        fill: #b99ada;
      }

      .cls-30 {
        fill: #c5da86;
      }

      .cls-31 {
        fill: #dde596;
      }

      .cls-32 {
        fill: #c4da86;
      }

      .cls-33 {
        fill: #aad370;
      }

      .cls-34 {
        fill: #9ccd6a;
      }

      .cls-35 {
        fill: #dfe594;
      }

      .cls-36 {
        fill: #dde496;
      }

      .cls-37 {
        fill: #fdfdfd;
      }
    </style><linearGradient
       id="linear-gradient-0"
       x1="895.46997"
       y1="92.019997"
       x2="932.23999"
       y2="337.28"
       gradientTransform="translate(-202.89,171.06)"
       gradientUnits="userSpaceOnUse"><stop
         offset="0"
         stop-color="#cee08a"
         id="stop1-5" /><stop
         offset=".85"
         stop-color="#cedf8d"
         id="stop2-2" /><stop
         offset="1"
         stop-color="#dde79c"
         id="stop3" /></linearGradient><linearGradient
       id="linear-gradient-2-2"
       x1="295.53"
       y1="299.45999"
       x2="698.88"
       y2="462.34"
       gradientTransform="translate(-202.89,171.06)"
       gradientUnits="userSpaceOnUse"><stop
         offset="0"
         stop-color="#c7dc88"
         id="stop4" /><stop
         offset=".34"
         stop-color="#d9e393"
         id="stop5" /><stop
         offset=".44"
         stop-color="#c8dd88"
         id="stop6" /><stop
         offset=".52"
         stop-color="#d9e493"
         id="stop7" /><stop
         offset="1"
         stop-color="#c8dc89"
         id="stop8" /></linearGradient><linearGradient
       id="linear-gradient-3-7"
       x1="879.03998"
       y1="483.26999"
       x2="1369.67"
       y2="691.53003"
       gradientTransform="translate(-202.89,171.06)"
       gradientUnits="userSpaceOnUse"><stop
         offset="0"
         stop-color="#c5db82"
         id="stop9" /><stop
         offset=".62"
         stop-color="#dce494"
         id="stop10" /><stop
         offset=".69"
         stop-color="#c6da86"
         id="stop11" /><stop
         offset="1"
         stop-color="#d4e18f"
         id="stop12" /></linearGradient><linearGradient
       id="linear-gradient-4-3"
       x1="1559.7"
       y1="412.51999"
       x2="1388.73"
       y2="415.85999"
       gradientTransform="translate(-202.89,171.06)"
       gradientUnits="userSpaceOnUse"><stop
         offset="0"
         stop-color="#dbe597"
         id="stop13" /><stop
         offset="1"
         stop-color="#c7db87"
         id="stop14" /></linearGradient><linearGradient
       id="linear-gradient-5-7"
       x1="1193.92"
       y1="371.07001"
       x2="1502.4301"
       y2="443.92999"
       gradientTransform="translate(-202.89,171.06)"
       gradientUnits="userSpaceOnUse"><stop
         offset="0"
         stop-color="#aad163"
         id="stop15" /><stop
         offset="1"
         stop-color="#8fc756"
         id="stop16" /></linearGradient><style
       id="style1-7">
      .cls-1 {
        fill: #b7b6b6;
      }

      .cls-2 {
        fill: #a2a695;
      }

      .cls-3 {
        fill: #f799df;
      }

      .cls-4 {
        fill: #8b9a6e;
      }

      .cls-5 {
        fill: #7b944e;
      }

      .cls-6 {
        fill: #989a8b;
      }

      .cls-7 {
        fill: #636262;
      }

      .cls-8 {
        fill: #7b974e;
      }

      .cls-9 {
        fill: #7c964f;
      }

      .cls-10 {
        fill: #809d4d;
      }

      .cls-11 {
        fill: #96a080;
      }

      .cls-12 {
        fill: #d8c7cd;
      }

      .cls-13 {
        fill: #a8a7a7;
      }

      .cls-14 {
        fill: #829a5a;
      }

      .cls-15 {
        fill: #84a250;
      }

      .cls-16 {
        fill: #9da28f;
      }

      .cls-17 {
        fill: #7f9d4b;
      }

      .cls-18 {
        fill: #adacac;
      }

      .cls-19 {
        fill: #f798de;
      }

      .cls-20 {
        fill: #7c9551;
      }

      .cls-21 {
        fill: #b4d274;
      }

      .cls-22 {
        fill: #d2c9c9;
      }

      .cls-23 {
        fill: #7f9a56;
      }

      .cls-24 {
        fill: #aaa9a6;
      }

      .cls-25 {
        fill: #b6b5b5;
      }

      .cls-26 {
        fill: #fefefe;
      }

      .cls-27 {
        fill: #cfc4bf;
      }

      .cls-28 {
        fill: #7a954b;
      }

      .cls-29 {
        fill: #b2d072;
      }

      .cls-30 {
        fill: #8c9f63;
      }

      .cls-31 {
        fill: #b8b7b7;
      }

      .cls-32 {
        fill: #b4d273;
      }

      .cls-33 {
        fill: #979c86;
      }

      .cls-34 {
        fill: #b3d173;
      }

      .cls-35 {
        fill: #fdfdfd;
      }
    </style></defs><g
     id="g28"
     transform="translate(2.3487017,0.34848407)"><g
       id="g22-4"
       transform="matrix(1.0299277,0,0,1.0299277,273.08041,47.015631)"
       style="fill:#373737;fill-opacity:1"><path
         d="m 15.21,0 c 2.15,0 3.91,0.32 5.26,0.97 1.36,0.65 2.35,1.54 2.98,2.69 0.63,1.15 0.94,2.45 0.94,3.93 0,1.88 -0.46,3.55 -1.38,5.01 -0.92,1.46 -2.26,2.6 -4.02,3.42 -1.76,0.82 -3.88,1.24 -6.37,1.24 H 7.02 L 4.84,26.97 C 4.8,27.15 4.68,27.24 4.49,27.24 h -4.2 c -0.23,0 -0.32,-0.12 -0.27,-0.37 L 3.27,13.44 6.18,0.27 C 6.22,0.09 6.34,0 6.53,0 Z m -2.22,13.76 c 1.53,0 2.79,-0.26 3.77,-0.78 0.99,-0.52 1.72,-1.22 2.2,-2.11 0.48,-0.89 0.72,-1.88 0.72,-2.99 0,-0.84 -0.15,-1.59 -0.46,-2.26 C 18.91,4.96 18.41,4.44 17.71,4.06 17.01,3.68 16.06,3.5 14.85,3.5 h -4.61 l -2.37,9.84 -0.08,0.41 h 5.19 z"
         id="path1-8"
         style="fill:#373737;fill-opacity:1" /><path
         d="m 21.83,27.24 c -0.23,0 -0.32,-0.12 -0.27,-0.37 L 23.91,17.1 26.05,7.47 C 26.09,7.29 26.21,7.2 26.4,7.2 h 3.97 c 0.26,0 0.36,0.12 0.29,0.37 l -0.86,3.27 c 1.02,-1.26 2.19,-2.21 3.5,-2.85 1.31,-0.64 2.65,-0.96 4.01,-0.96 0.18,0 0.36,0 0.53,0.02 0.17,0.01 0.33,0.04 0.49,0.08 0.22,0.05 0.3,0.19 0.23,0.41 l -0.68,2.86 c -0.04,0.19 -0.16,0.28 -0.37,0.25 -0.12,-0.03 -0.25,-0.04 -0.4,-0.05 -0.15,-0.01 -0.31,-0.01 -0.48,-0.01 -1.12,0 -2.22,0.26 -3.32,0.79 -1.1,0.53 -2.07,1.28 -2.93,2.26 -0.86,0.98 -1.5,2.15 -1.93,3.51 l -2.24,9.83 c -0.04,0.18 -0.16,0.27 -0.35,0.27 h -4.05 z"
         id="path2-8"
         style="fill:#373737;fill-opacity:1" /><path
         d="m 47.61,6.77 c 2.06,0 3.8,0.47 5.2,1.4 1.4,0.93 2.4,2.22 2.97,3.87 0.57,1.65 0.62,3.55 0.14,5.7 -0.04,0.18 -0.16,0.27 -0.35,0.27 H 41.11 c -0.01,0.17 -0.02,0.34 -0.03,0.52 0,0.18 0,0.35 0,0.54 0,1.22 0.19,2.23 0.57,3.04 0.38,0.81 0.92,1.42 1.62,1.82 0.69,0.4 1.52,0.6 2.48,0.6 1.22,0 2.27,-0.32 3.15,-0.97 0.88,-0.65 1.54,-1.67 1.97,-3.06 0.05,-0.18 0.18,-0.27 0.37,-0.27 h 3.79 c 0.25,0 0.34,0.12 0.27,0.35 -0.43,1.52 -1.09,2.81 -1.99,3.87 -0.89,1.06 -1.99,1.87 -3.28,2.4 -1.29,0.54 -2.75,0.81 -4.39,0.81 -1.79,0 -3.38,-0.34 -4.76,-1.01 -1.38,-0.67 -2.46,-1.67 -3.24,-2.98 -0.78,-1.31 -1.17,-2.92 -1.17,-4.82 0,-1.18 0.15,-2.35 0.46,-3.51 0.31,-1.16 0.76,-2.26 1.37,-3.29 0.61,-1.03 1.36,-1.94 2.26,-2.73 0.9,-0.79 1.93,-1.41 3.11,-1.87 C 44.85,7 46.16,6.77 47.6,6.77 Z M 41.57,15 h 10 c 0.13,-0.99 0.04,-1.87 -0.25,-2.64 -0.29,-0.77 -0.79,-1.38 -1.46,-1.83 -0.67,-0.45 -1.51,-0.67 -2.51,-0.67 -0.78,0 -1.48,0.13 -2.1,0.4 -0.62,0.27 -1.17,0.63 -1.64,1.09 -0.47,0.46 -0.88,1 -1.22,1.62 -0.34,0.62 -0.61,1.3 -0.82,2.02 z"
         id="path3-2"
         style="fill:#373737;fill-opacity:1" /><path
         d="m 65.16,27.69 c -1.92,0 -3.56,-0.29 -4.92,-0.88 -1.36,-0.58 -2.4,-1.4 -3.12,-2.46 -0.72,-1.06 -1.08,-2.28 -1.08,-3.67 0.01,-0.22 0.12,-0.33 0.33,-0.33 h 3.89 c 0.22,0 0.33,0.11 0.33,0.33 -0.01,1.26 0.39,2.25 1.21,2.97 0.82,0.72 2.01,1.08 3.58,1.08 0.96,0 1.75,-0.13 2.36,-0.4 0.61,-0.27 1.07,-0.61 1.36,-1.04 0.29,-0.43 0.44,-0.88 0.44,-1.36 0,-0.69 -0.27,-1.23 -0.82,-1.62 -0.54,-0.39 -1.25,-0.72 -2.11,-0.98 -0.86,-0.26 -1.78,-0.54 -2.74,-0.81 -0.97,-0.27 -1.88,-0.62 -2.73,-1.04 -0.86,-0.42 -1.56,-0.99 -2.11,-1.69 -0.55,-0.71 -0.83,-1.63 -0.83,-2.77 0,-1.26 0.37,-2.35 1.11,-3.29 0.74,-0.94 1.76,-1.66 3.07,-2.19 1.3,-0.52 2.8,-0.79 4.5,-0.79 1.7,0 3.16,0.25 4.42,0.74 1.26,0.49 2.24,1.21 2.95,2.15 0.71,0.94 1.11,2.06 1.2,3.37 0,0.22 -0.11,0.33 -0.33,0.33 h -3.76 c -0.21,0 -0.32,-0.11 -0.33,-0.33 -0.06,-0.75 -0.28,-1.38 -0.65,-1.88 -0.37,-0.5 -0.86,-0.87 -1.46,-1.12 -0.6,-0.25 -1.3,-0.37 -2.09,-0.37 -0.79,0 -1.46,0.12 -2.05,0.35 -0.59,0.23 -1.05,0.56 -1.36,0.97 -0.32,0.42 -0.48,0.89 -0.48,1.44 0,0.69 0.27,1.23 0.81,1.62 0.54,0.39 1.24,0.72 2.09,0.97 0.86,0.25 1.77,0.51 2.73,0.76 0.96,0.25 1.87,0.57 2.72,0.96 0.85,0.39 1.55,0.92 2.09,1.6 0.55,0.67 0.82,1.58 0.82,2.7 0,1.26 -0.36,2.39 -1.08,3.39 -0.72,1.01 -1.75,1.8 -3.1,2.38 -1.35,0.58 -2.96,0.88 -4.85,0.88 z"
         id="path4-4"
         style="fill:#373737;fill-opacity:1" /><path
         d="m 87.03,6.77 c 2.06,0 3.8,0.47 5.2,1.4 1.4,0.93 2.4,2.22 2.97,3.87 0.57,1.65 0.62,3.55 0.14,5.7 -0.04,0.18 -0.16,0.27 -0.35,0.27 H 80.53 c -0.01,0.17 -0.02,0.34 -0.03,0.52 0,0.18 0,0.35 0,0.54 0,1.22 0.19,2.23 0.57,3.04 0.38,0.81 0.92,1.42 1.62,1.82 0.69,0.4 1.52,0.6 2.48,0.6 1.22,0 2.27,-0.32 3.15,-0.97 0.88,-0.65 1.54,-1.67 1.97,-3.06 0.05,-0.18 0.18,-0.27 0.37,-0.27 h 3.79 c 0.25,0 0.34,0.12 0.27,0.35 -0.43,1.52 -1.09,2.81 -1.99,3.87 -0.89,1.06 -1.99,1.87 -3.28,2.4 -1.29,0.54 -2.75,0.81 -4.39,0.81 -1.79,0 -3.38,-0.34 -4.76,-1.01 -1.38,-0.67 -2.46,-1.67 -3.24,-2.98 -0.78,-1.31 -1.17,-2.92 -1.17,-4.82 0,-1.18 0.15,-2.35 0.46,-3.51 0.31,-1.16 0.76,-2.26 1.37,-3.29 0.61,-1.03 1.36,-1.94 2.26,-2.73 0.9,-0.79 1.93,-1.41 3.11,-1.87 C 84.27,7 85.58,6.77 87.02,6.77 Z M 80.99,15 h 10 c 0.13,-0.99 0.04,-1.87 -0.25,-2.64 -0.29,-0.77 -0.79,-1.38 -1.46,-1.83 -0.67,-0.45 -1.51,-0.67 -2.51,-0.67 -0.78,0 -1.48,0.13 -2.1,0.4 -0.62,0.27 -1.17,0.63 -1.64,1.09 -0.47,0.46 -0.88,1 -1.22,1.62 -0.34,0.62 -0.61,1.3 -0.82,2.02 z"
         id="path5-5"
         style="fill:#373737;fill-opacity:1" /><path
         d="m 95.04,27.24 c -0.22,0 -0.31,-0.12 -0.27,-0.37 L 96.99,17.88 99.33,7.47 C 99.37,7.29 99.49,7.2 99.68,7.2 h 3.89 c 0.25,0 0.34,0.12 0.27,0.37 l -0.66,2.69 c 0.49,-0.65 1.08,-1.24 1.77,-1.77 0.69,-0.53 1.45,-0.96 2.3,-1.27 0.84,-0.32 1.74,-0.48 2.7,-0.48 1.32,0 2.47,0.32 3.45,0.94 0.98,0.63 1.67,1.55 2.07,2.76 0.4,1.21 0.4,2.7 0,4.47 l -0.88,3.8 -1.87,8.27 c -0.03,0.18 -0.14,0.27 -0.35,0.27 h -4.11 c -0.25,0 -0.34,-0.12 -0.27,-0.37 l 1.91,-7.69 0.86,-3.97 c 0.23,-1.09 0.28,-2.01 0.13,-2.75 -0.15,-0.74 -0.48,-1.31 -0.99,-1.68 -0.51,-0.38 -1.16,-0.56 -1.96,-0.56 -0.8,0 -1.44,0.17 -2.06,0.52 -0.62,0.35 -1.18,0.81 -1.68,1.4 -0.5,0.59 -0.94,1.25 -1.31,1.98 -0.38,0.73 -0.69,1.47 -0.93,2.24 l -0.7,2.9 -1.67,7.72 c -0.04,0.18 -0.16,0.27 -0.35,0.27 h -4.18 z"
         id="path6-5"
         style="fill:#373737;fill-opacity:1" /><path
         d="m 125.32,7.2 h 4.5 c 0.25,0 0.34,0.12 0.29,0.37 l -0.64,2.7 c -0.05,0.18 -0.17,0.27 -0.35,0.27 h -4.61 l -2.49,10.9 c -0.22,1 -0.17,1.71 0.14,2.13 0.31,0.42 0.84,0.63 1.6,0.63 0.39,0 0.76,-0.03 1.13,-0.08 0.36,-0.05 0.7,-0.12 1.01,-0.19 0.12,-0.03 0.21,0 0.27,0.05 0.06,0.05 0.08,0.15 0.04,0.26 l -0.54,2.47 c -0.05,0.14 -0.15,0.24 -0.29,0.29 -0.52,0.17 -1.07,0.31 -1.66,0.42 -0.59,0.11 -1.18,0.16 -1.76,0.16 -1.02,0 -1.95,-0.19 -2.77,-0.57 -0.82,-0.38 -1.42,-1.02 -1.8,-1.91 -0.38,-0.89 -0.39,-2.07 -0.04,-3.55 l 2.57,-11.01 h -2.24 c -0.23,0 -0.32,-0.12 -0.27,-0.37 l 0.64,-2.7 c 0.03,-0.18 0.14,-0.27 0.33,-0.27 h 2.3 l 1.03,-4.75 c 0.04,-0.18 0.15,-0.27 0.33,-0.27 h 4.16 c 0.26,0 0.35,0.12 0.27,0.37 l -1.13,4.65 z"
         id="path7-1"
         style="fill:#373737;fill-opacity:1" /><path
         d="m 139.07,6.77 c 2.06,0 3.8,0.47 5.2,1.4 1.4,0.93 2.4,2.22 2.97,3.87 0.57,1.65 0.62,3.55 0.14,5.7 -0.04,0.18 -0.16,0.27 -0.35,0.27 h -14.46 c -0.01,0.17 -0.02,0.34 -0.03,0.52 0,0.18 0,0.35 0,0.54 0,1.22 0.19,2.23 0.57,3.04 0.38,0.81 0.92,1.42 1.62,1.82 0.69,0.4 1.52,0.6 2.48,0.6 1.22,0 2.27,-0.32 3.15,-0.97 0.88,-0.65 1.54,-1.67 1.97,-3.06 0.05,-0.18 0.18,-0.27 0.37,-0.27 h 3.79 c 0.25,0 0.34,0.12 0.27,0.35 -0.43,1.52 -1.09,2.81 -1.99,3.87 -0.89,1.06 -1.99,1.87 -3.28,2.4 -1.29,0.54 -2.75,0.81 -4.39,0.81 -1.79,0 -3.38,-0.34 -4.76,-1.01 -1.38,-0.67 -2.46,-1.67 -3.24,-2.98 -0.78,-1.31 -1.17,-2.92 -1.17,-4.82 0,-1.18 0.15,-2.35 0.46,-3.51 0.31,-1.16 0.76,-2.26 1.37,-3.29 0.61,-1.03 1.36,-1.94 2.26,-2.73 0.9,-0.79 1.93,-1.41 3.11,-1.87 1.18,-0.45 2.49,-0.68 3.93,-0.68 z M 133.04,15 h 10 c 0.13,-0.99 0.04,-1.87 -0.25,-2.64 -0.29,-0.77 -0.79,-1.38 -1.46,-1.83 -0.67,-0.45 -1.51,-0.67 -2.51,-0.67 -0.78,0 -1.48,0.13 -2.1,0.4 -0.62,0.27 -1.17,0.63 -1.64,1.09 -0.47,0.46 -0.88,1 -1.22,1.62 -0.34,0.62 -0.61,1.3 -0.82,2.02 z"
         id="path8-7"
         style="fill:#373737;fill-opacity:1" /><path
         d="m 167.28,0 h 4.12 c 0.26,0 0.36,0.12 0.29,0.37 l -3.54,14.92 -2.59,11.67 c -0.04,0.18 -0.16,0.27 -0.35,0.27 h -3.87 c -0.26,0 -0.36,-0.12 -0.29,-0.37 l 0.45,-1.85 c -0.48,0.51 -1.01,0.95 -1.61,1.33 -0.59,0.38 -1.24,0.68 -1.93,0.89 -0.7,0.21 -1.46,0.31 -2.28,0.31 -1.49,0 -2.77,-0.34 -3.83,-1.01 -1.06,-0.67 -1.88,-1.62 -2.44,-2.83 -0.56,-1.21 -0.85,-2.63 -0.85,-4.25 0,-1.05 0.13,-2.15 0.38,-3.31 0.25,-1.16 0.65,-2.28 1.18,-3.39 0.53,-1.1 1.2,-2.1 2.01,-2.99 0.81,-0.89 1.77,-1.6 2.87,-2.12 1.1,-0.52 2.36,-0.79 3.77,-0.79 0.97,0 1.85,0.14 2.63,0.41 0.78,0.27 1.45,0.67 2,1.19 0.56,0.52 1,1.15 1.32,1.91 l 2.2,-10.1 c 0.05,-0.18 0.17,-0.27 0.35,-0.27 z m -10,24.44 c 1.09,0 2.03,-0.32 2.83,-0.96 0.8,-0.64 1.46,-1.46 1.99,-2.46 0.53,-1 0.92,-2.05 1.18,-3.14 0.25,-1.1 0.38,-2.1 0.38,-3.02 0,-1.61 -0.35,-2.82 -1.06,-3.63 -0.71,-0.81 -1.69,-1.22 -2.95,-1.22 -0.96,0 -1.8,0.22 -2.52,0.65 -0.72,0.44 -1.33,1 -1.82,1.7 -0.49,0.7 -0.89,1.47 -1.19,2.31 -0.3,0.84 -0.52,1.66 -0.65,2.48 -0.14,0.82 -0.2,1.54 -0.2,2.18 0,1.49 0.34,2.72 1.01,3.68 0.67,0.96 1.67,1.44 3,1.44 z"
         id="path9-1"
         style="fill:#373737;fill-opacity:1" /><path
         d="m 174.41,27.24 c -0.23,0 -0.32,-0.12 -0.27,-0.37 l 3.27,-13.43 2.9,-13.17 C 180.35,0.09 180.47,0 180.66,0 h 10.72 c 2.08,0 3.72,0.28 4.92,0.84 1.21,0.56 2.07,1.3 2.6,2.24 0.53,0.94 0.79,1.96 0.79,3.08 0,1.74 -0.55,3.2 -1.64,4.39 -1.1,1.19 -2.64,1.99 -4.64,2.42 1.44,0.47 2.5,1.17 3.18,2.1 0.68,0.93 1.02,2.09 1.02,3.48 0,1.63 -0.44,3.11 -1.3,4.42 -0.87,1.31 -2.16,2.35 -3.87,3.12 -1.71,0.77 -3.82,1.16 -6.32,1.16 h -11.69 z m 5.25,-3.37 h 7.02 c 1.37,0 2.52,-0.23 3.43,-0.7 0.91,-0.47 1.6,-1.1 2.04,-1.91 0.45,-0.8 0.67,-1.71 0.67,-2.73 0,-1.17 -0.36,-2.11 -1.07,-2.84 -0.71,-0.73 -1.86,-1.09 -3.44,-1.09 h -6.62 l -2.04,9.26 z m 2.84,-12.62 h 6.89 c 1.22,0 2.23,-0.2 3.04,-0.59 0.8,-0.39 1.4,-0.93 1.8,-1.61 0.39,-0.68 0.59,-1.45 0.59,-2.31 0,-0.97 -0.29,-1.78 -0.89,-2.41 -0.59,-0.64 -1.63,-0.95 -3.12,-0.95 h -6.4 l -1.91,7.88 z"
         id="path10-1"
         style="fill:#373737;fill-opacity:1" /><path
         d="m 200.03,33.86 c -0.12,0 -0.2,-0.04 -0.24,-0.12 -0.05,-0.08 -0.04,-0.17 0.03,-0.27 l 3.74,-6.5 -3.31,-19.42 C 200.21,7.32 200.3,7.2 200.52,7.2 h 4.18 c 0.18,0 0.29,0.1 0.31,0.29 l 1.85,13.95 7.55,-14.03 c 0.06,-0.14 0.19,-0.22 0.37,-0.22 h 4.51 c 0.12,0 0.2,0.04 0.24,0.12 0.04,0.08 0.03,0.17 -0.05,0.27 l -15,26.05 c -0.08,0.14 -0.2,0.21 -0.37,0.21 h -4.09 z"
         id="path11-5"
         style="fill:#373737;fill-opacity:1" /><path
         d="m 224.99,13.41 2.92,-13.13 c 0.04,-0.18 0.16,-0.27 0.35,-0.27 h 4.16 c 0.25,0 0.34,0.12 0.27,0.37 L 230.08,11.35 230,11.7 241.45,0.16 C 241.55,0.06 241.68,0 241.84,0 h 5.29 c 0.16,0 0.25,0.04 0.28,0.12 0.03,0.08 0,0.17 -0.13,0.27 L 235.94,11.05 243,26.87 c 0.12,0.25 0.04,0.37 -0.23,0.37 h -4.71 c -0.18,0 -0.31,-0.08 -0.37,-0.23 l -5.35,-12.51 -3.79,3.62 -2.02,8.85 c -0.03,0.18 -0.14,0.27 -0.35,0.27 h -4.16 c -0.23,0 -0.32,-0.12 -0.27,-0.37 L 225,13.4 Z"
         id="path12-2"
         style="fill:#373737;fill-opacity:1" /><path
         d="m 244.26,27.24 c -0.22,0 -0.31,-0.12 -0.27,-0.37 l 2.22,-8.99 2.34,-10.41 c 0.04,-0.18 0.16,-0.27 0.35,-0.27 h 3.89 c 0.25,0 0.34,0.12 0.27,0.37 l -0.66,2.69 c 0.49,-0.65 1.08,-1.24 1.77,-1.77 0.69,-0.53 1.45,-0.96 2.3,-1.27 0.84,-0.32 1.74,-0.48 2.7,-0.48 1.32,0 2.47,0.32 3.45,0.94 0.98,0.63 1.67,1.55 2.07,2.76 0.4,1.21 0.4,2.7 0,4.47 l -0.88,3.8 -1.87,8.27 c -0.03,0.18 -0.14,0.27 -0.35,0.27 h -4.11 c -0.25,0 -0.34,-0.12 -0.27,-0.37 l 1.91,-7.69 0.86,-3.97 c 0.23,-1.09 0.28,-2.01 0.13,-2.75 -0.15,-0.74 -0.48,-1.31 -0.99,-1.68 -0.51,-0.38 -1.16,-0.56 -1.96,-0.56 -0.8,0 -1.44,0.17 -2.06,0.52 -0.62,0.35 -1.18,0.81 -1.68,1.4 -0.5,0.59 -0.94,1.25 -1.31,1.98 -0.38,0.73 -0.69,1.47 -0.93,2.24 l -0.7,2.9 -1.67,7.72 c -0.04,0.18 -0.16,0.27 -0.35,0.27 h -4.18 z"
         id="path13-7"
         style="fill:#373737;fill-opacity:1" /><path
         d="m 264.35,27.24 c -0.26,0 -0.35,-0.12 -0.27,-0.37 l 2.34,-9.81 2.14,-9.59 c 0.04,-0.18 0.15,-0.27 0.33,-0.27 h 4.13 c 0.26,0 0.36,0.12 0.29,0.37 l -2.3,9.48 -2.18,9.92 c -0.05,0.18 -0.17,0.27 -0.35,0.27 h -4.12 z M 269.49,5.1 c -0.25,0 -0.34,-0.12 -0.29,-0.37 l 0.93,-3.83 c 0.03,-0.19 0.14,-0.29 0.33,-0.29 h 4.11 c 0.23,0 0.32,0.12 0.27,0.37 l -0.92,3.85 c -0.04,0.18 -0.16,0.27 -0.35,0.27 h -4.09 z"
         id="path14-6"
         style="fill:#373737;fill-opacity:1" /><path
         d="m 289.8,7.2 h 4.05 c 0.23,0 0.33,0.12 0.29,0.37 l -2.37,9.98 -1.97,8.7 c -0.67,2.96 -1.87,5.15 -3.59,6.57 -1.72,1.42 -3.99,2.13 -6.8,2.13 -1.72,0 -3.24,-0.28 -4.54,-0.84 -1.3,-0.56 -2.32,-1.33 -3.04,-2.33 -0.73,-0.99 -1.1,-2.14 -1.11,-3.43 0,-0.22 0.1,-0.33 0.31,-0.33 h 4.05 c 0.21,0 0.32,0.11 0.33,0.33 0.01,1.12 0.42,1.97 1.22,2.57 0.8,0.6 1.81,0.9 3.03,0.9 1.57,0 2.8,-0.45 3.69,-1.36 0.89,-0.91 1.55,-2.33 2,-4.26 l 0.33,-1.46 c -0.48,0.48 -1.02,0.91 -1.62,1.28 -0.6,0.37 -1.24,0.67 -1.95,0.89 -0.7,0.21 -1.46,0.32 -2.28,0.32 -1.5,0 -2.79,-0.33 -3.86,-1 -1.07,-0.67 -1.89,-1.6 -2.46,-2.78 -0.57,-1.19 -0.86,-2.57 -0.86,-4.15 0,-1.04 0.13,-2.13 0.38,-3.27 0.25,-1.14 0.64,-2.25 1.17,-3.34 0.53,-1.08 1.19,-2.06 2,-2.94 0.81,-0.88 1.76,-1.57 2.86,-2.09 1.1,-0.52 2.35,-0.78 3.77,-0.78 0.98,0 1.87,0.13 2.66,0.4 0.79,0.27 1.47,0.66 2.02,1.19 0.55,0.53 1.01,1.16 1.34,1.9 l 0.62,-2.88 c 0.05,-0.18 0.16,-0.27 0.33,-0.27 z m -8.36,16.89 c 1.08,0 2.01,-0.31 2.8,-0.94 0.79,-0.63 1.45,-1.44 1.97,-2.42 0.52,-0.99 0.91,-2.02 1.17,-3.09 0.26,-1.07 0.39,-2.06 0.39,-2.96 0,-1.56 -0.36,-2.72 -1.09,-3.5 -0.73,-0.78 -1.73,-1.17 -3.02,-1.17 -0.95,0 -1.77,0.21 -2.48,0.64 -0.71,0.43 -1.3,0.99 -1.79,1.67 -0.49,0.68 -0.88,1.44 -1.17,2.26 -0.29,0.82 -0.51,1.63 -0.64,2.43 -0.13,0.8 -0.2,1.52 -0.2,2.14 0,1.44 0.34,2.62 1.02,3.55 0.68,0.93 1.7,1.39 3.04,1.39 z"
         id="path15-1"
         style="fill:#373737;fill-opacity:1" /><path
         d="m 292.1,27.24 c -0.25,0 -0.34,-0.12 -0.27,-0.37 L 293.99,17.88 298,0.27 C 298.03,0.09 298.14,0 298.35,0 h 3.95 c 0.22,0 0.31,0.12 0.27,0.37 l -2.35,9.89 c 0.49,-0.65 1.08,-1.24 1.77,-1.77 0.69,-0.53 1.45,-0.96 2.3,-1.27 0.84,-0.32 1.74,-0.48 2.69,-0.48 1.34,0 2.49,0.32 3.46,0.94 0.97,0.63 1.66,1.55 2.05,2.76 0.39,1.21 0.39,2.7 0,4.47 l -0.86,3.8 -1.85,8.27 c -0.04,0.18 -0.16,0.27 -0.35,0.27 h -4.09 c -0.26,0 -0.36,-0.12 -0.29,-0.37 l 1.87,-7.69 0.88,-3.97 c 0.25,-1.09 0.29,-2.01 0.14,-2.75 -0.15,-0.74 -0.49,-1.31 -0.99,-1.68 -0.51,-0.38 -1.15,-0.56 -1.94,-0.56 -0.79,0 -1.44,0.17 -2.07,0.52 -0.63,0.35 -1.19,0.81 -1.69,1.4 -0.5,0.59 -0.94,1.25 -1.31,1.98 -0.38,0.73 -0.7,1.47 -0.95,2.24 l -0.66,2.9 -1.67,7.72 c -0.04,0.18 -0.16,0.27 -0.35,0.27 h -4.16 z"
         id="path16-4"
         style="fill:#373737;fill-opacity:1" /><path
         d="m 322.36,7.2 h 4.5 c 0.25,0 0.34,0.12 0.29,0.37 l -0.64,2.7 c -0.05,0.18 -0.17,0.27 -0.35,0.27 h -4.61 l -2.49,10.9 c -0.22,1 -0.17,1.71 0.14,2.13 0.31,0.42 0.84,0.63 1.6,0.63 0.39,0 0.76,-0.03 1.13,-0.08 0.36,-0.05 0.7,-0.12 1.01,-0.19 0.12,-0.03 0.21,0 0.27,0.05 0.06,0.05 0.08,0.15 0.04,0.26 l -0.54,2.47 c -0.05,0.14 -0.15,0.24 -0.29,0.29 -0.52,0.17 -1.07,0.31 -1.66,0.42 -0.59,0.11 -1.18,0.16 -1.76,0.16 -1.02,0 -1.95,-0.19 -2.77,-0.57 -0.82,-0.38 -1.42,-1.02 -1.8,-1.91 -0.38,-0.89 -0.39,-2.07 -0.04,-3.55 l 2.57,-11.01 h -2.24 c -0.23,0 -0.32,-0.12 -0.27,-0.37 l 0.64,-2.7 c 0.03,-0.18 0.14,-0.27 0.33,-0.27 h 2.3 l 1.03,-4.75 c 0.04,-0.18 0.15,-0.27 0.33,-0.27 h 4.16 c 0.26,0 0.35,0.12 0.27,0.37 l -1.13,4.65 z"
         id="path17-2"
         style="fill:#373737;fill-opacity:1" /><path
         d="m 354.81,0 h 4.22 c 0.25,0 0.34,0.12 0.27,0.37 l -3.29,13.33 -2.88,13.27 c -0.03,0.18 -0.14,0.27 -0.35,0.27 h -4.22 c -0.23,0 -0.32,-0.12 -0.27,-0.37 l 3.02,-12.22 0.06,-0.22 H 338.1 l -0.06,0.22 -2.74,12.32 c -0.03,0.18 -0.14,0.27 -0.35,0.27 h -4.22 c -0.23,0 -0.32,-0.12 -0.27,-0.37 L 333.67,13.7 336.63,0.27 C 336.67,0.09 336.79,0 336.98,0 h 4.22 c 0.25,0 0.34,0.12 0.27,0.37 l -2.51,10.51 h 13.21 l 2.3,-10.6 c 0.04,-0.18 0.16,-0.27 0.35,-0.27 z"
         id="path18-3"
         style="fill:#373737;fill-opacity:1" /><path
         d="m 374.11,7.2 h 4.09 c 0.24,0 0.34,0.12 0.27,0.37 l -2.3,9.63 -2.2,9.77 c -0.03,0.18 -0.15,0.27 -0.35,0.27 h -3.9 c -0.25,0 -0.34,-0.12 -0.29,-0.37 l 0.47,-1.83 c -0.49,0.51 -1.03,0.95 -1.62,1.32 -0.58,0.38 -1.23,0.67 -1.94,0.88 -0.7,0.21 -1.47,0.31 -2.29,0.31 -1.49,0 -2.77,-0.34 -3.83,-1.01 -1.06,-0.67 -1.88,-1.62 -2.44,-2.83 -0.56,-1.21 -0.85,-2.63 -0.85,-4.25 0,-1.05 0.13,-2.15 0.39,-3.31 0.26,-1.16 0.65,-2.28 1.18,-3.39 0.53,-1.11 1.19,-2.1 2,-2.99 0.81,-0.89 1.77,-1.6 2.88,-2.12 1.11,-0.52 2.38,-0.79 3.79,-0.79 0.97,0 1.84,0.14 2.62,0.42 0.78,0.28 1.44,0.68 2,1.2 0.56,0.52 1.01,1.16 1.34,1.91 l 0.62,-2.92 c 0.04,-0.18 0.16,-0.27 0.35,-0.27 z m -8.42,17.24 c 1.09,0 2.03,-0.32 2.83,-0.96 0.8,-0.64 1.46,-1.46 1.99,-2.46 0.52,-1 0.91,-2.05 1.17,-3.14 0.26,-1.1 0.39,-2.1 0.39,-3.02 0,-1.61 -0.36,-2.82 -1.07,-3.63 -0.72,-0.81 -1.7,-1.22 -2.98,-1.22 -0.96,0 -1.79,0.22 -2.5,0.65 -0.71,0.44 -1.3,1 -1.8,1.7 -0.49,0.7 -0.89,1.47 -1.19,2.31 -0.3,0.84 -0.52,1.66 -0.65,2.48 -0.14,0.82 -0.21,1.54 -0.21,2.18 0,1.49 0.33,2.72 1,3.68 0.67,0.96 1.67,1.44 3.01,1.44 z"
         id="path19-2"
         style="fill:#373737;fill-opacity:1" /><path
         d="m 386.64,27.71 c -1.76,0 -3.32,-0.34 -4.66,-1.01 -1.34,-0.67 -2.39,-1.67 -3.14,-3 -0.75,-1.32 -1.13,-2.95 -1.13,-4.86 0,-1.15 0.15,-2.31 0.46,-3.47 0.3,-1.16 0.76,-2.26 1.36,-3.29 0.6,-1.03 1.35,-1.95 2.25,-2.74 0.9,-0.8 1.93,-1.42 3.11,-1.88 1.18,-0.45 2.5,-0.68 3.97,-0.68 1.65,0 3.08,0.3 4.31,0.89 1.23,0.6 2.19,1.44 2.88,2.53 0.69,1.09 1.05,2.37 1.08,3.85 0,0.22 -0.11,0.33 -0.33,0.33 h -3.77 c -0.21,0 -0.31,-0.11 -0.31,-0.33 -0.06,-1.34 -0.47,-2.35 -1.23,-3.04 -0.75,-0.69 -1.73,-1.04 -2.92,-1.04 -0.86,0 -1.62,0.19 -2.29,0.57 -0.67,0.38 -1.25,0.88 -1.73,1.52 -0.49,0.64 -0.89,1.35 -1.2,2.14 -0.31,0.79 -0.54,1.6 -0.69,2.43 -0.15,0.83 -0.22,1.63 -0.22,2.39 0,1.23 0.17,2.26 0.53,3.08 0.36,0.82 0.85,1.43 1.5,1.83 0.65,0.4 1.42,0.6 2.3,0.6 1.22,0 2.28,-0.37 3.18,-1.11 0.9,-0.74 1.57,-1.85 2.01,-3.35 0.05,-0.18 0.17,-0.27 0.35,-0.27 h 3.84 c 0.24,0 0.34,0.12 0.27,0.35 -0.44,1.61 -1.12,2.98 -2.02,4.11 -0.91,1.13 -2.01,1.99 -3.32,2.58 -1.3,0.59 -2.78,0.89 -4.43,0.89 z"
         id="path20-2"
         style="fill:#373737;fill-opacity:1" /><path
         d="m 411.66,7.2 h 5.06 c 0.14,0 0.23,0.04 0.27,0.13 0.04,0.09 0,0.17 -0.11,0.26 l -7.9,6.85 4.46,12.43 c 0.08,0.25 0,0.37 -0.25,0.37 h -4.16 c -0.19,0 -0.32,-0.08 -0.37,-0.25 l -1.03,-3.42 -2.2,-6.21 -3.27,2.98 -1.46,6.63 c -0.04,0.19 -0.16,0.29 -0.35,0.29 h -4.01 c -0.25,0 -0.34,-0.12 -0.27,-0.37 l 3.17,-13.21 2.94,-13.41 C 402.22,0.09 402.34,0 402.53,0 h 4.05 c 0.23,0 0.33,0.12 0.27,0.37 l -3.19,13.25 -0.22,0.93 7.86,-7.2 c 0.13,-0.1 0.25,-0.16 0.37,-0.16 z"
         id="path21-1"
         style="fill:#373737;fill-opacity:1" /><path
         d="m 422.78,27.69 c -1.92,0 -3.56,-0.29 -4.92,-0.88 -1.36,-0.58 -2.4,-1.4 -3.13,-2.46 -0.72,-1.06 -1.08,-2.28 -1.08,-3.67 0.02,-0.22 0.12,-0.33 0.33,-0.33 h 3.89 c 0.22,0 0.33,0.11 0.33,0.33 -0.01,1.26 0.39,2.25 1.21,2.97 0.82,0.72 2.01,1.08 3.58,1.08 0.96,0 1.74,-0.13 2.36,-0.4 0.62,-0.27 1.07,-0.61 1.36,-1.04 0.29,-0.43 0.44,-0.88 0.44,-1.36 0,-0.69 -0.27,-1.23 -0.82,-1.62 -0.54,-0.39 -1.25,-0.72 -2.11,-0.98 -0.86,-0.27 -1.78,-0.54 -2.75,-0.81 -0.97,-0.27 -1.88,-0.62 -2.73,-1.04 -0.86,-0.42 -1.56,-0.99 -2.11,-1.69 -0.55,-0.71 -0.83,-1.63 -0.83,-2.77 0,-1.26 0.37,-2.35 1.11,-3.29 0.74,-0.93 1.76,-1.66 3.06,-2.19 1.3,-0.52 2.81,-0.79 4.51,-0.79 1.7,0 3.16,0.25 4.41,0.74 1.26,0.49 2.24,1.21 2.95,2.15 0.71,0.94 1.11,2.06 1.2,3.37 0,0.22 -0.11,0.33 -0.33,0.33 h -3.76 c -0.21,0 -0.32,-0.11 -0.33,-0.33 -0.06,-0.75 -0.28,-1.38 -0.65,-1.88 -0.37,-0.5 -0.86,-0.87 -1.46,-1.12 -0.6,-0.25 -1.3,-0.37 -2.09,-0.37 -0.79,0 -1.46,0.12 -2.05,0.35 -0.59,0.23 -1.05,0.56 -1.36,0.97 -0.32,0.42 -0.48,0.89 -0.48,1.44 0,0.69 0.27,1.23 0.81,1.62 0.54,0.39 1.24,0.72 2.09,0.97 0.85,0.25 1.77,0.51 2.73,0.76 0.96,0.25 1.87,0.57 2.72,0.96 0.85,0.39 1.55,0.92 2.09,1.6 0.54,0.68 0.82,1.58 0.82,2.7 0,1.26 -0.36,2.39 -1.08,3.39 -0.72,1.01 -1.75,1.8 -3.1,2.38 -1.35,0.58 -2.96,0.88 -4.85,0.88 z"
         id="path22-9-6"
         style="fill:#373737;fill-opacity:1" /></g><g
       id="g18-6"
       style="fill:#7ba433;fill-opacity:1;stroke:none"
       transform="matrix(0.5351431,0,0,0.5351431,-6.0493221,-93.337703)"><g
         id="g25-0"
         style="fill:#7ba433;fill-opacity:1;stroke:none"><path
           id="path14-91-2"
           style="letter-spacing:0.2em;fill:#7ba433;fill-opacity:1;stroke:none;stroke-width:0.940004;stroke-miterlimit:10"
           class="cls-2"
           d="m 70.460059,504.21491 c 4.707999,2.64398 27.501454,-3.13118 26.892461,-5.00534 -25.469972,8.73898 -50.567229,50.83744 -45.058837,56.35838 8.297486,8.31639 31.300858,-10.44789 31.300858,-10.44789 -16.102787,7.9552 -56.008221,74.79757 -35.408485,85.48019 9.444469,4.89772 19.221445,-19.20283 12.459069,-3.21129 C 13.782801,750.06178 56.20906,830.30123 125.91414,931.2672 536.51428,1204.697 851.60951,629.41321 473.01963,435.8921 238.62491,335.49176 38.378003,486.19788 70.460059,504.21491 Z"
           sodipodi:nodetypes="scssscccs" /><g
           id="g23-1"
           transform="rotate(-5.9070982,-3448.1631,1419.378)"
           style="fill:#7ba433;fill-opacity:1;stroke:none" /></g></g><g
       id="g27"
       transform="matrix(1.0299277,0,0,1.0299277,-403.27033,-12.338034)"><g
         id="g18"
         style="fill:#ffffff"
         transform="matrix(0.47920338,0,0,0.47920338,366.78937,-465.185)"><g
           id="g25"><g
             id="g23"
             transform="rotate(-5.9070982,12507.096,527.79084)"><path
               id="path14-91"
               style="letter-spacing:0.2em;fill:#fcfbf6;fill-opacity:1;stroke:#ffffff;stroke-miterlimit:10"
               class="cls-2"
               d="m 113.43089,61.874799 c 4.69242,3.313247 29.44422,-0.302355 29.00499,-2.352234 -27.90852,6.458833 -59.07499,48.258685 -53.85059,54.703905 7.869689,9.70865 34.26573,-7.62876 34.26573,-7.62876 -17.91057,6.655 -67.455789,73.01703 -46.8272,86.57649 9.457699,6.21668 22.442105,-18.21555 13.535489,-2.03404 C 26.539914,315.81902 48.193687,433.6544 134.24819,539.06143 527.79932,832.46814 926.31798,279.88052 546.89044,33.651204 309.85162,-98.25272 81.454974,39.297112 113.43089,61.874799 Z"
               sodipodi:nodetypes="scssscccs" /></g><path
             id="path10-3-7-9"
             class="cls-2"
             d="m 671.11233,1242.2194 -82.5138,20.3427 -22.62848,25.9178 c 0,0 -17.20899,90.3198 -17.20491,90.3592 l 94.75109,-21.1574 23.40746,-31.1835 z"
             style="letter-spacing:0.2em;fill:#ffffff;fill-opacity:1;stroke:none;stroke-width:1.97941;stroke-miterlimit:10"
             sodipodi:nodetypes="ccccccc" /><g
             id="g23-3"
             transform="matrix(0.93088402,-0.09631406,0.09631406,0.93088402,39.744621,1305.5842)"
             style="fill:#aad163;fill-opacity:1;stroke:none"><path
               id="path13-8-6-3"
               class="cls-2"
               d="M 89.73,566.84 73.710621,523.24755 45.447443,535.55314 c 0.216153,17.45363 -0.32421,20.77684 -0.148596,47.0924 0.405274,3.57989 0.770012,7.15978 1.053706,10.73967 2.093894,1.68861 16.426957,15.4273 17.939961,17.23749 3.701471,0.28368 7.402942,0.63492 11.104412,1.02669 25.041604,1.29195 39.223064,-0.21615 48.916124,-0.21615 4.20208,-14.69047 6.16842,-13.58966 11.7841,-27.83133 z"
               style="letter-spacing:0.2em;fill:#7ba433;fill-opacity:1;stroke:#7ba433;stroke-width:15.0614;stroke-miterlimit:10;stroke-dasharray:none;stroke-opacity:1"
               sodipodi:nodetypes="cccccccccc" /><path
               id="path6-5-8"
               class="cls-2"
               d="m 196.24,431.65 3.29,29.11 33.18,4.13 c 2.91,-2.77 31.67,-22.54 31.67,-22.54 l -9.85,-29.76 c 0,0 -4.18,-3.71 -4.02,-3.7 l -30.6,-9.37 c 0,0 -15.57,21.57 -23.66,32.14 v 0 z"
               style="letter-spacing:0.2em;fill:#aad163;fill-opacity:1;stroke:none;stroke-miterlimit:10" /><path
               id="path2-3-7"
               class="cls-2"
               d="m 302.66,432.12 c 1.25,-2.78 2.55,-5.53 3.9,-8.26 0.11,-0.11 0.21,-0.23 0.28,-0.38 0.39,-0.91 0.86,-1.78 1.33,-2.65 6.43,-13.06 17.18,-20.85 28.01,-31.37 10.52,-10.22 21.04,-20.44 31.56,-30.66 v 0 c 3.47,-3.37 6.04,-5.88 9.5,-9.24 -4.73,-8.99 -10.56,-17.46 -17.43,-25.07 -2.07,-2.28 -3.81,-3.79 -6.23,-5.74 0.14,0.06 -36.78,35.33 -36.78,35.33 0.41,2.71 -0.83,12.38 -0.83,13.48 -1.12,2.56 -3.98,4.23 -6.02,6.11 -8.77,7.77 -17.25,15.84 -26.2,23.42 -1.95,1.64 -3.96,3.25 -5.79,5.01 -0.46,0.54 -1.06,0.95 -1.73,1.22 0.83,2.8 1.65,5.6 2.42,8.41 0.64,2.27 1.27,4.55 1.9,6.82 0.63,2.3 1.33,4.58 1.89,6.9 0.33,1.4 0.86,2.95 0.63,4.39 -0.38,2.42 -2.03,5.04 -4.59,5.75 -1.04,0.29 -2.12,0.44 -3.17,0.67 1.34,4.69 2.61,9.39 3.81,14.12 1.18,-0.42 2.39,-0.8 3.61,-1.1 16.53,-3.04 9.07,2.9 19.93,-17.19 v 0 z"
               style="letter-spacing:0.2em;fill:#aad163;fill-opacity:1;stroke:none;stroke-miterlimit:10" /><path
               id="path7-9-8"
               class="cls-2"
               d="m 409.22,264.96 c -0.1,0.12 -17.18,18.36 -17.18,18.36 0.05,0.02 7.09,4.69 7.09,4.69 0,0 5.92,21.19 11.45,28.81 5.53,-5.37 10.25,-9.55 15.78,-14.92 -0.54,0.04 -5.68,-4.4 -5.68,-4.4 0,0 -5.73,-22.59 -11.45,-32.54 v 0 z"
               style="letter-spacing:0.2em;fill:#aad163;fill-opacity:1;stroke:none;stroke-miterlimit:10" /><path
               id="path4-05-0"
               class="cls-2"
               d="m 268.03,399.29 c -0.5,-1.93 -3.29,-2.72 -5.13,-3.52 -10.31,-2.61 -19.96,-5.59 -30.29,-8.15 -0.5,0.84 -2.69,3.76 -3.04,4.51 2.82,0.78 5.63,1.58 8.43,2.41 3.87,1.14 7.71,2.38 11.58,3.55 10.35,3.13 11.23,3.68 11.69,3.99 0.56,0.34 0.9,0.9 1.08,1.51 2.17,7.17 4.79,14.17 7.15,21.28 0.86,2.69 1.69,5.38 2.49,8.09 1.83,-1.38 4.58,-3.24 4.68,-3.47 0.05,-0.12 -0.6,-1.81 -0.78,-2.46 -0.48,-1.77 -1.01,-3.53 -1.5,-5.31 -1,-3.64 -2.02,-7.29 -3.09,-10.92 -0.61,-2.02 -1.23,-4.05 -1.79,-6.08 -0.49,-1.81 -0.97,-3.62 -1.48,-5.43 z"
               style="letter-spacing:0.2em;fill:#aad163;fill-opacity:1;stroke:none;stroke-miterlimit:10" /><path
               id="path8-5-4"
               class="cls-2"
               d="m 380.73,280.71 23.23,-23.09 c -7.15,-10.41 -18.05,-16.91 -28.43,-24.39 -3.04,2.34 -23.9,23.43 -23.9,23.43 9.19,17.3 20.22,21.98 29.11,24.04 z"
               style="letter-spacing:0.2em;fill:#aad163;fill-opacity:1;stroke:none;stroke-miterlimit:10" /><path
               id="path9-6-5"
               class="cls-2"
               d="m 472.03,203.53 c 0,0 6.94,19.5 21.03,34.58 10.32,-10.02 17.46,-17.89 27.78,-27.91 10.25,-9.94 20.49,-19.89 30.74,-29.83 10.08,-9.77 20.15,-19.54 30.23,-29.32 10.2,-9.9 21.1,-20.08 31.31,-29.98 0,0 24.65,-25.95 27.94,-30.01 l -53.14,1.02 c 0,0 -115.14,111.61 -115.89,111.45 z"
               style="letter-spacing:0.2em;fill:#aad163;fill-opacity:1;stroke:none;stroke-miterlimit:10" /><path
               id="path10-3-7"
               class="cls-2"
               d="m 643.67,83.5 10.42,-59.3 -64.81,10.86 c 0,0 0.97,48.39 0.97,48.41 0,0 53.43,0.03 53.42,0.04 v 0 z"
               style="letter-spacing:0.2em;fill:#aad163;fill-opacity:1;stroke:none;stroke-miterlimit:10" /><path
               id="path11-2-1"
               class="cls-2"
               d="m 213.65,376.2 c -0.32,3.11 -1.13,6.12 -2.23,9.03 4.91,1.16 9.8,2.38 14.68,3.67 0.24,-1.02 0.4,-2.06 0.69,-3.05 1.45,-4.18 6.61,-5.23 10.54,-3.81 7.7,1.87 15.34,3.96 23.01,5.97 0.24,-0.54 0.57,-1.02 0.97,-1.4 1.96,-1.82 3.68,-3.86 5.49,-5.83 5.08,-5.61 10.44,-10.98 15.75,-16.39 4.69,-4.58 8.95,-9.67 13.8,-14.07 4.43,-1.4 9.13,-1.98 13.86,-1.87 0.58,-0.52 36.64,-35.32 36.64,-35.32 0,0 -35.03,-18.25 -35.03,-18.25 -2.18,2.06 -3.07,2.97 -5.24,5.05 -10.61,10.13 -21.23,20.26 -31.84,30.39 -16.02,19.46 -34.48,28.21 -56.82,38.44 -4.08,1.57 -3.81,3.99 -4.27,7.44 z"
               style="letter-spacing:0.2em;fill:#aad163;fill-opacity:1;stroke:none;stroke-miterlimit:10" /><path
               id="path12-6-0"
               class="cls-2"
               d="m 348.13,483.37 c -11.49,4.95 -22.8,10.36 -34.74,14.23 -2.2,0.67 -4.38,1.36 -6.63,1.85 -2.98,-2.61 -1.05,-0.46 -6.41,-5.6 -3.53,-3.39 -6.86,-6.97 -10.32,-10.42 -3.65,-3.64 -7.4,-7.2 -11.1,-10.79 -3.55,-3.44 -7.04,-6.94 -10.63,-10.35 -2.51,-2.38 -5.03,-4.73 -7.54,-7.1 -4.15,2.98 -8.39,5.84 -12.61,8.74 -4.16,2.86 -8.27,5.77 -12.31,8.79 l -43.62,-4.31 c 0.19,-0.12 -3.78,-26.66 -4.79,-35.34 -0.08,-1.35 -0.4,-2.88 0.11,-4.18 0.15,-0.73 0.41,-1.41 0.75,-1.96 3.13,-3.9 6.16,-7.85 9.12,-11.86 3.02,-4.07 6.28,-8.87 9.39,-12.88 0,0 -44.81,-40.72 -45.07,-41.08 l 20.23,-50.8 c -6.84,2.8 -72.2,36.64 -71.95,37.34 -0.55,0.3 15.58,52.41 15.58,52.41 2.17,0.38 10.94,-9 10.94,-9 l 39.43,33.84 c 1.95,1.57 1.99,4.29 1.62,6.56 -0.31,2.3 -2.26,3.69 -3.97,5.14 1.29,1.2 2.64,2.61 3.15,4.23 0.91,1.65 0.49,4.16 -0.46,5.79 -1.25,2.21 -2.04,3.73 -10.42,11.6 -0.02,0.49 -0.32,35.39 -0.32,35.39 l 35.41,1.83 c 0.07,0.04 15.22,-11.75 16.41,-11.89 1.75,-0.3 3.8,-0.2 5.32,0.8 1.03,0.82 2.2,1.53 3.14,2.46 0.83,-0.89 1.65,-1.79 2.54,-2.6 0.73,-0.66 1.82,-0.99 2.77,-1.18 1.43,-0.28 6.67,-0.12 7.81,0.84 2.25,1.9 4.42,3.85 6.35,6.05 1.9,2.15 3.75,4.35 5.69,6.48 3.4,3.74 6.86,7.43 10.32,11.11 1.77,1.88 3.53,3.76 5.22,5.71 0.05,0.05 5.48,6.88 5.48,6.89 l -9.25,12.43 55.38,15.61 c -0.21,0.02 38.15,-67.76 38.16,-67.76 v 0 c 0.07,-0.14 0.13,-0.29 0.2,-0.43 -2.82,1.04 -5.6,2.21 -8.35,3.41 v 0 z"
               style="letter-spacing:0.2em;fill:#aad163;fill-opacity:1;stroke:none;stroke-miterlimit:10" /><path
               id="path13-8-6"
               class="cls-2"
               d="M 89.73,566.84 90.839252,529.97352 56.95,543.68 c 0.16,12.92 -0.24,15.38 -0.11,34.86 0.3,2.65 0.57,5.3 0.78,7.95 1.55,1.25 12.16,11.42 13.28,12.76 2.74,0.21 5.48,0.47 8.22,0.76 18.536957,0.95637 29.03474,-0.16 36.21,-0.16 3.11057,-10.87457 7.56302,-21.42764 11.72,-31.97 z"
               style="letter-spacing:0.2em;fill:#aad163;fill-opacity:1;stroke:#fcfbf6;stroke-width:11.1492;stroke-miterlimit:10;stroke-dasharray:none;stroke-opacity:1"
               sodipodi:nodetypes="cccccccccc" /><path
               id="path13-8-6-1"
               class="cls-2"
               d="m 90.605979,565.86289 0.106897,-33.63673 -29.32295,12.99479 c 0.142603,11.51529 -0.213907,13.70783 -0.09803,31.06986 0.267381,2.36187 0.508025,4.72376 0.695193,7.08563 1.381476,1.1141 10.837907,10.17836 11.836135,11.37268 2.442094,0.18716 4.884187,0.41891 7.326281,0.67737 16.521536,0.85239 25.877945,-0.1426 32.273065,-0.1426 2.77238,-9.69225 6.74074,-19.09793 10.44575,-28.49407 z"
               style="letter-spacing:0.2em;fill:#aad163;fill-opacity:1;stroke:#fcfbf6;stroke-width:0;stroke-miterlimit:10;stroke-dasharray:none;stroke-opacity:1"
               sodipodi:nodetypes="cccccccccc" /><path
               id="path14-91-0"
               class="cls-2"
               d="m 168.05,443.3 c -1.32,-1.65 -2.42,-3.44 -2.22,-5.58 -0.2,-3.04 1.92,-5.1 4.12,-6.93 0,0 -33.51,-29.61 -33.85,-29.81 -1.37,1.4 -2.66,2.88 -3.98,4.33 -2.3,2.77 -5.3,5.01 -9.11,5.01 -1.27,0 -2.18,-1.1 -2.18,-1.1 L 99.98,345.4 c -0.17,-0.22 85.76,-45.23 85.76,-45.23 0.8,-0.32 1.59,-0.66 2.38,-0.99 1.88,0.81 3.42,1.92 4.06,3.85 v 0 c -0.2,0.54 -0.4,1.09 -0.61,1.63 -0.21,0.55 -0.41,1.1 -0.62,1.65 -5.77,14.39 -17.88,49.57 -18.24,51.75 0.15,0.55 0.32,1.09 0.52,1.62 0.05,0.05 14.74,14.08 27.08,23.89 0.35,-0.78 0.66,-1.53 0.83,-2.24 3.58,-10.15 -2.35,-9.27 1.69,-17.05 0.18,-0.34 0.39,-0.67 0.63,-0.98 0.26,-0.31 0.66,-0.75 1.09,-0.86 2.45,-0.62 4.89,-1.3 7.33,-1.96 10.26,-2.78 18.65,-5.43 29.75,-11.83 -14.66,-21.77 -17.99,-49.07 -4.1,-75.15 1.18,-2.22 22.16,-1.05 22.16,-1.05 -31.41,-19.17 -43.95,-46.46 -43.15,-71.65 1.07,-17.11 3.58,-35.73 -2.27,-52.35 -3.63,-8.46 -10.26,-14.67 -16.2,-21.69 -2.32,-2.29 -4.08,-4.83 -6.32,-6.94 -2.4,-2.38 3.96,-7.15 6.43,-5.85 5.71,3.27 12.01,5.02 18.38,6.56 10.54,2.09 18.43,2.24 31.64,-1.41 5.18,-1.47 7.08,-2.54 8.77,-3.53 1.25,1.19 1.13,1.8 -3.44,5.06 -0.17,0.11 -0.33,0.23 -0.49,0.34 -0.08,0.05 -0.17,0.11 -0.25,0.17 -5.04,3.27 -9.85,6.14 -13.29,7.37 -10.68,3.14 -20.84,0.13 -31.24,-2.09 0.47,0.54 0.88,0.98 1.21,1.28 4.91,5.68 9.94,11.47 13,18.32 4.57,11.49 3.85,24.28 3.35,36.37 -0.56,7.89 -1.89,15.78 -1.25,23.7 0.7,10.93 4.06,21.69 9.82,31.14 4.2,6.87 10.59,12.11 16.08,18.03 13.09,10.97 29.83,16.68 45.5,23.39 18.72,7.72 36.44,17.4 54.08,27.15 35.23,24.05 45.28,63.28 46.26,67.79 0.77,-0.2 13.98,-5.54 16.51,-6.57 11.09,-4.51 35.38,-16.14 46.52,-20.53 -46.24,0.63 -67.28,-41.38 -67.03,-55.52 -0.27,0 -11.47,-2.49 -16.85,-3.75 -14.75,-3.15 -24.48,-12.13 -31.45,-26.46 -5.06,-9.61 -8.1,-20.64 -10.31,-31.04 -0.41,-2.75 -1.64,-6.55 -0.9,-9.31 -0.43,-0.15 -40.69,-32.71 -33.68,-37.98 0.03,-0.03 0.07,-0.06 0.1,-0.09 0.87,0.14 1.75,0.29 2.62,0.44 4.36,0.75 8.71,1.51 13.07,2.2 26.22,4.78 41.6,28.48 43.11,32.3 3.49,0.71 6.79,2.29 10.08,3.59 3.87,1.67 7.78,3.28 11.45,5.32 19.83,9.26 34.76,28.17 42.56,47.69 1.73,4.61 3.08,9.34 4.12,14.13 0.5,2.17 1.01,4.35 1.47,6.53 0.07,0 0.12,-0.02 0.18,-0.03 35.37,-4.43 61.48,24.48 53.57,51.11 1.08,-0.59 9.85,-8.88 23.29,-13.2 3.29,-1.8 12.68,-2.52 15.55,-4.89 3.85,-3.6 5.25,-13.49 7.73,-17.95 2.55,-5 2.9,-8.09 6.84,-11.97 1.38,-1.2 7.93,-6.44 9.6,-6.84 0.36,-0.09 0.42,-0.34 0.2,-0.74 -2.47,-4.56 -40.52,-28.06 -49.25,-36.47 -25.82,-25.8 -31.46,-39.67 -43.49,-85.83 C 429.83607,25.55753 261.59581,-47.239256 142.66,26.5 c 0,0 24.5,-5.04 43.21,-1.03 19.41,4.16 29.22,10.43 29.02,10.44 -16.75,0.58 -51.49,4.81 -65.82,10.49 -34.29,13.61 -47.54,35.53 -47.54,35.53 0.11,-0.24 20.97692,-6.958873 38.16692,-7.278873 16.16,-0.3 22.70308,7.578873 22.85308,7.148873 0,0 -26.14,1.54 -51.46,21.48 -30.65,24.15 -36.82,59.07 -36.82,59.07 0,0 18.29,-14.7 29.85,-20.76 10.05,-5.27 18.27,-7.71 19.13,-5.97 0,0 -150.99,161.58 -6.57,362.55 0.2,-0.17 51.37,-54.88 51.37,-54.88 z m 337.4,-159.85 c 9.12,6.03 9.58,10.62 11.98,19.81 -0.18,0.46 -2,3.75 -3.39,3.75 -0.45,0 -1.99,0.39 -2.32,-0.16 -1.3,-1.54 -1.6,-10.11 -10.23,-23.05 0.68,-0.77 2.49,-1.3 3.96,-0.35 z m -171,-169.18 c 1.56,0.49 3.1,1.04 4.65,1.57 1.07,0.37 2.1,0.83 3.15,1.25 7.06,2.85 13.99,6.46 26.69,17.76 2.65,2.35 9.84,8.82 11.83,11.76 0.43,0.64 0.86,1.27 1.28,1.9 4.22,9.56 8.01,20 9.29,23.56 0.81,2.28 1.61,4.57 2.42,6.85 v 0 c -0.58,0.27 -1.21,0.47 -1.81,0.61 -4.13,-2.87 -15.2,-11.74 -28.43,-19.91 -4.91,-8.65 -7.69,-13.33 -30.58,-43.73 -0.44,-0.59 -0.89,-1.18 -1.33,-1.77 0.95,0.05 1.9,0.09 2.84,0.14 v 0 z"
               style="letter-spacing:0.2em;fill:#aad163;fill-opacity:1;stroke:none;stroke-miterlimit:10"
               sodipodi:nodetypes="cccccsccccsscccccccccccccccccccccccccccccccccccccccccccccccccccccccccccccccsccccccccccccccsccccccccccssccccscc" /><path
               id="path15-4-3"
               class="cls-2"
               d="m 656.96,178.77 c -8.92,-16.88 -23.43,-42.17 -32.15,-55.48 -1.69,1.59 -15.46,13.6 -17.12,15.21 -7.17,6.89 -14.17,13.93 -21.35,20.81 l -0.14,0.14 c 3.26,6.25 6.15,12.6 8.66,19.03 4.96,12.9 13.96,26.39 8.89,36.64 -4.16,8.42 -8.95,8.96 -11.86,15.83 -5.99,14.17 -5.33,24.81 -3.41,22.95 12.87,-12.52 16.25,-2.88 11.95,13.66 -2.07,7.95 -13.28,58.62 -24.96,70.34 -12.65,12.69 -17.62,1.26 -28.5,8.7 -11.19,7.65 -11.21,17.66 -15.57,21.12 23.02,-9.03 22.51,3.61 16.66,12.14 -7.53,11 -29.38,37.02 -51.97,40.86 -17.53,2.97 -34,-5.83 -47.73,-2.12 -16.42,4.43 -21.47,11.89 -21.47,11.89 23.39,-2.72 37.01,15.61 10.41,20.46 -40.99,7.47 -84.06,-9.23 -121.17,-28.39 -0.26,0.46 -0.51,0.93 -0.78,1.39 -0.52,0.94 -1.05,1.88 -1.57,2.82 -0.37,0.8 -0.74,1.59 -1.1,2.39 -2.05,4.55 -4.06,9.12 -5.67,13.84 -0.79,2.31 -1.48,4.64 -2.17,6.98 -0.69,2.35 -1.39,4.69 -2.04,7.06 -0.11,0.41 -0.57,0.8 -0.89,1.05 -0.31,0.24 -0.65,0.44 -1.01,0.61 -9.7,4.72 -4.69,-3.26 -20.01,2.45 1.59,1.85 3.18,3.7 4.78,5.54 1.56,1.75 3.14,3.48 4.78,5.16 5.82,5.02 11.44,14.75 18.96,15.96 1.29,-0.11 2.56,-0.33 3.81,-0.64 17.07,-6.13 34.13,-12.33 51.28,-18.24 1.97,0.36 3.63,3.08 4.83,5.24 l -47.55,83.65 -70.83,-20.36 c -0.28,-0.6 -1,-2.41 -0.6,-4.29 1.68,-4.96 7.16,-7.78 10.93,-11.19 -0.22,-0.31 -0.45,-0.62 -0.68,-0.92 -1.93,-2.53 -3.98,-4.97 -5.97,-7.46 -6.15,-8.18 -13.85,-15.16 -21.38,-22.16 -0.15,-0.12 -0.29,-0.25 -0.45,-0.37 -0.02,-0.02 -0.05,-0.03 -0.07,-0.05 0,0 -0.02,0 -0.03,-0.01 -0.36,-0.15 -0.67,-0.4 -0.93,-0.68 -1.89,2.37 -3.92,3.8 -7.15,3.97 h -0.35 c -1.93,0.12 -3.35,-0.68 -5.46,-2.2 l -54.38,48.87 c 58.5,45.62 140.11,64.61 218.24,61.66 218.67,-10.2 371.45,-235.74 274.27,-423.89 v 0 z"
               style="letter-spacing:0.2em;fill:#aad163;fill-opacity:1;stroke:none;stroke-miterlimit:10"
               sodipodi:nodetypes="ccccccccccccccccccccccccccccccccccccccccccccccccccscc" /><path
               id="path16-8-3"
               class="cls-2"
               d="m 195.63,503.62 c 0,0 -38.57,-2.37 -38.61,-2.33 0,0 0.81,-32.78 1.39,-35.18 -10.37,9.94 -16.88,17.61 -26.18,27.56 0,0 -0.31,31.19 0.05,32.15 l 34.49,1.17 z"
               style="letter-spacing:0.2em;fill:#aad163;fill-opacity:1;stroke:none;stroke-miterlimit:10" /><path
               id="path14-9-5"
               class="cls-2"
               d="m 162.09,534.65 c 0,0 -40.74122,0.35939 -40.91879,-0.26932 0,0 3.14879,-31.05068 3.72879,-33.45068 -10.37,9.94 -17.21,15.55 -26.51,25.5 0,0 0.06,31.54 0.42,32.5 l 32.77,0.68 z"
               style="letter-spacing:0.2em;fill:#ffffff;fill-opacity:1;stroke:#fcfbf6;stroke-width:11.1492;stroke-miterlimit:10;stroke-dasharray:none;stroke-opacity:1"
               sodipodi:nodetypes="ccccccc" /><path
               id="path17-8-0"
               class="cls-2"
               d="m 581.32,85.56 c -0.04,-0.23 -0.47,-47.9 -0.47,-47.9 -8.64,9.01 -18.57,17.96 -27.68,26.66 -10.28,9.83 -20.56,19.65 -30.84,29.47 -10.15,9.7 -22.04,19.95 -32.19,29.65 -10.32,9.87 -20.65,19.74 -30.98,29.6 0,0 3.84,24.22 9.89,42.43 0.28,0.15 112.27,-109.92 112.27,-109.92 v 0 z"
               style="letter-spacing:0.2em;fill:#aad163;fill-opacity:1;stroke:none;stroke-miterlimit:10" /><path
               id="path18-7-2"
               class="cls-2"
               d="M 553.05,49.55 C 521.02,25.09 481.01,12.43 446.69,6.43 c -41.64,-7.28 -57.61,-1.7 -57.61,-1.7 50.25,5.77 109.98,47.92 128.93,77.92 0.17,-0.37 35.05,-33.1 35.05,-33.1 v 0 z"
               style="letter-spacing:0.2em;fill:#aad163;fill-opacity:1;stroke:none;stroke-miterlimit:10" /><path
               id="path4-0-3"
               class="cls-2"
               d="m 362.16,299.82 c 0,0 0,0.06 0,0.09 -0.02,-0.01 -0.04,-0.03 -0.06,-0.05 0.02,-0.01 0.03,-0.03 0.05,-0.05 v 0 z"
               style="letter-spacing:0.2em;fill:#aad163;fill-opacity:1;stroke:none;stroke-miterlimit:10" /></g><path
             id="path16-8-3-5"
             class="cls-2"
             d="m 241.56728,1786.878 c 0,0 -35.89855,1.4989 -35.93173,1.5397 0,0 -2.38759,-30.3944 -2.08084,-32.6695 -8.6396,10.1854 -13.92649,17.902 -21.57553,27.9943 0,0 2.69787,28.8759 3.12268,29.7294 l 32.01029,-2.2184 z"
             style="letter-spacing:0.2em;fill:#aad163;fill-opacity:1;stroke:none;stroke-width:0.929794;stroke-miterlimit:10" /></g></g><g
         id="g60"
         transform="matrix(0.52517581,0,0,0.52517581,610.27305,-78.273803)"><g
           id="g24"
           transform="translate(40.828448,-45.089581)"><g
             id="g26"><g
               id="g42"
               transform="matrix(1.0005635,0,0,1.0005635,7.1412657,363.29609)"
               style="fill:#ffffff"><path
                 class="cls-35"
                 d="m 1035.0438,290.9303 c 1.84,1.29 2.8538,-23.25979 5.71,-1.33 10.91,-6.4 22.59,-10.06 35.21,-11.83 34.5,-4.86 214.5962,113.8597 241.6462,135.8697 6.84,5.57 12.87,11.54 16.92,18.97 4.22,4.36 5.65,10.44 5.61,16.4 -0.12,17.53 -15.36,37.74 -25.7,51.07 1.65,2.22 3.63,4.33 5.95,6.33 l -0.3,1.65 c 5.72,6.55 10.7,13.53 14.44,21.35 11.81,18.19 11.61,44.3 5.56,64.69 -0.13,0.44 -0.48,0.81 -0.86,1.21 -0.38,0.4 -0.85,0.73 -1.32,1.05 0.75,3.74 -3.92,14.9 -6.62,16.53 -0.44,0.27 -0.93,0.46 -1.44,0.62 l -0.38,3.25 c -23.76,36.32 -68.35,45.51 -109.1,40.63 -33.46,-4.01 -69.09,-17.24 -88.12,-46.47 l -1.57,-1.37 c -0.8,1.58 -2.64,0.96 -3.61,-0.14 -1.63,6.23 -4.27,12.24 -7.93,18.04 l -2.3,0.74 c -0.71,4.14 -4.42,6.73 -7.74,8.96 -6.37,4.27 -13.77,6.65 -21.46,6.41 l -37.63,-1.28 c -19.48,-3.26 -30.06,-14.14 -33.51,-33.58 -5.2384,-1.62851 -6.878,5.72603 -6.88,5.74 -0.66,3.64 -2.16,5.88 -4.51,6.74 0.6,1.29 0.18,2.04 -0.4,3.08 -5.51,9.78 -20.52,17.25 -31.61,17.32 l -33.43,0.25 c -21.29,-2.15 -35.06,-12.29 -39.97,-33.79 -1.51,-1.7 -2.72,-3 -5.13,-2.02 0.7,0.77 0.49,1.55 -0.65,2.33 l -3.89,10.76 c -0.86,2.5 -2.3,3.91 -4.31,4.22 -4.4,11.05 -18.01,17.13 -29.45,17.64 h -38.1 c -17.49,-2.39 -25.65,-10.92 -32.38,-25.91 -36.88,34.09 -99.44,41.7 -144.16,19.73 -13.03,-6.4 -37.63,-27.04 -39.35,-26.83 -0.73,1.49 -12.97,25.08 -16.6,27.67 -4.95,3.53 -10.62,5.79 -16.65,6.61 l -41.67,0.94 c -7.81,0.01 -16.13,-3.33 -21.34,-8.99 -6.08,5.48 -14.83,8.4 -23.11,8.66 l -37.17,0.37 c -12.77,-1.38 -19.4,-4.21 -28.35,-13.51 -1.24,-1.29 -42.35,-60.03 -42.35,-60.03 l -0.89,-0.14 c -0.39,4.35 -0.42,8.81 -0.11,13.39 -3.07675,2.28494 2.52511,2.19664 -1.31,3.15 0.32,5.29 0.51,10.62 0.56,15.99 0.61,0.56 1.23,1.2 1.41,2.04 1.58,7.55 -3.93,20.81 -8.92,26.57 -2.76,3.18 -6.35,6.63 -10.22,8.17 3.27,6.69 2.54,15.91 -0.38,22.82 -1.25,2.98 -3.35,7.9 -6.71,8.02 l -0.17,2.19 c -5.15,5.08 -12.31,8.92 -19.57,9.76 -17.73,2.05 -36.29,3.04 -54.12,2.34 -10.15,-0.4 -20.36,-5.79 -27.02,-13.32 l -46.96,-64.37 c -0.23,4.89 -0.2,9.81 0.09,14.75 l -1.08,0.6 -0.32,8.76 c 0.54,0.5 1.13,1.06 1.21,1.78 0.34,3.08 -3.79,12.06 -5.74,14.77 l -2.06,0.67 c 0.25,1.34 -0.2,3.01 -1.8,2.83 -2.69,7.39 -12.19,11.04 -19.35,13.38 -14.58,1.95 -29.18,3.28 -43.79,3.99 -20.83,-0.46 -35.69,-10.3 -38,-32.13 -4.67,-75.7 -8.97,-151.05 -12.89,-226.06 -0.86,-6.64 0.29,-12.33 3.43,-17.06 4.82,-13.54 17.76,-22.77 32.31,-24.96 12.52,-1.89 24.58,-2.22 37.27,-2.93 16.52,-0.93 30.47,8.54 37.11,22.78 4.39,7.07 5.68,17.25 4.67,25.36 1.54,-0.89 3.07,-1.43 4.6,-1.61 l 24.13,-33.4 c 5.68,-7.87 13.69,-12.91 23.2,-15.64 24.28,-6.98 785.3038,-79.2497 791.4238,-71.2397 z"
                 id="path2-0"
                 sodipodi:nodetypes="cccccccccccsccccccccccccccccccccccccccccccccccccccccccccccccccccccccccccccccccccccc"
                 style="fill:#fcfbf6;fill-opacity:1" /><path
                 id="path5-7"
                 class="cls-25"
                 d="m 80.259789,392.58954 c -0.94,0.17 -1.620235,0.63133 -2.240235,1.36133 -8.59,10.16 -8.190234,21.82992 -7.490234,34.91992 l 3.800781,71.5 7.839844,138.78906 c 0.65,11.4 4.519375,21.74993 12.609375,29.66993 6.6,6.46 15.89133,10.63 25.36133,10 l 44.83984,-2.99024 c 9,-0.6 17.59946,-4.26914 23.68946,-10.11914 l 2.68945,-2.14062 v 0.01 l 0.002,-0.0117 c 9.68843,-7.71013 13.65865,-20.16866 14.3086,-32.67773 -4.9e-4,-10e-4 -10e-4,-0.003 -0.002,-0.004 l 0.0117,0.004 c 0.38,0.29 0.79055,0.3993 1.06055,0.7793 l 32.54883,45.5 c 7.66,10.7 18.89164,17.11039 32.43164,17.65039 19.48,0.78 38.82992,-0.48953 58.16992,-2.76953 6.84,-0.8 12.41867,-3.86086 17.38867,-7.38086 0.022,-0.0164 0.0444,-0.0498 0.0664,-0.0684 11.21378,-7.99771 18.06313,-23.78289 13.51367,-37.54102 11.74,-7.94 18.18024,-20.2107 18.49024,-34.2207 L 378.7793,594.3007 c -0.03,-0.92 0.22063,-1.63961 0.64063,-2.09961 17.65749,23.59235 31.54949,58.94251 64.81074,62.0391 l 35.73047,-0.26953 c 8.97,-0.07 17.23883,-1.88125 24.79883,-6.53125 6.27,4.31 13.09078,6.41055 20.55078,6.81055 14.16,0.75 28.07851,0.2107 42.22851,-0.7793 11.52,-0.81 21.07102,-6.5007 28.29102,-14.7207 14.71794,-26.07903 11.78784,-13.98318 31.75961,0.45119 46.91897,29.72242 115.51876,23.30927 156.31054,-9.75 5.7,12.5 17.38946,20.6982 31.18946,22.1582 13.42,1.42 26.52023,0.94063 39.99023,0.39063 11.8,-0.86 22.53954,-5.15922 30.51954,-13.19922 10e-4,-0.009 0.005,-0.018 0.006,-0.0273 0.002,0.002 0.002,0.005 0.004,0.008 4.35,-4.38 7.78086,-9.24016 10.38086,-15.66016 9.09907,17.28331 21.35373,27.46612 41.35938,29.63867 l 32.01953,0.041 c 20.11572,0.29953 34.90347,-11.72572 44.41207,-28.08008 3.4236,15.40503 17.2228,26.72046 33.1895,28.16016 14.99,1.36 29.4791,1.24039 44.3692,0.65039 8.98,-0.36 17.1101,-3.78055 23.58,-9.06055 0,-0.006 0.01,-0.0134 0.014,-0.0195 v 0.0195 c 6.36,-5.19 12.3412,-12.12945 14.2012,-20.43945 2.9096,0.0569 12.9182,12.71078 21.7872,19.15834 31.22,22.67 75.0693,30.16172 112.8593,24.76172 25.51,-3.64 48.241,-15.19016 64.211,-34.66016 l 4.0898,-4.99023 c 2.34,-2.84 4.8206,-6.10039 5.3906,-9.65039 1,-0.46 1.38,-1.26086 1.92,-2.38086 8.55,-17.61 11.4187,-36.93914 8.2187,-56.36914 -1.6,-9.69 -4.9587,-18.37961 -9.6387,-26.84961 -0.91,-1.64 -1.6902,-3.10063 -3.4902,-3.64063 9.75,20.36 10.6289,45.84946 3.3789,66.93946 2e-4,0.002 -2e-4,0.004 0,0.006 -2.0393,5.91134 -4.8634,11.78249 -8.0488,17.13476 2e-4,0.003 -2e-4,0.007 0,0.01 l -0.01,0.01 c -20.14,33.82 -60.0802,45.84094 -98.4902,43.46094 -37.66,-2.34 -75.6913,-15.09953 -98.3613,-46.26953 -1.2584,-1.73952 -7.512,-2.63986 -8.2694,0.70875 -1.4,6.16 -4.0089,11.94977 -7.8789,16.75977 10e-5,0.003 -10e-5,0.007 0,0.01 2e-4,0.004 -10e-5,0.008 0,0.0117 0,-0.002 0,-0.004 -0.01,-0.006 -6.8703,8.51653 -17.6587,14.36452 -29.1758,13.97461 l -37.5586,-1.27929 c -16.6,-1.51 -28.9196,-13.81047 -31.5996,-29.98047 -0.33,-2.01 -0.6708,-3.52047 -2.3008,-4.23047 -3.8675,-1.6759 -6.238,1.30523 -6.3809,1.88085 -1.0896,4.41851 -2.4382,8.96586 -4.7168,12.61523 0,10e-4 0,4.6e-4 -0.01,0.002 -7.14054,11.40535 -19.18741,18.93322 -32.99407,19.0332 l -32.4414,0.22852 c -32.49977,0.21546 -34.6066,-39.59503 -43.98867,-39.5506 -1.13183,0.005 -1.96935,1.6319 -3.03282,7.14044 -0.0295,0.087 -0.10476,0.10278 -0.12695,0.20117 -1.27,5.62 -3.54055,10.77008 -6.81055,15.08008 -0.002,0.006 -0.002,0.0118 -0.004,0.0176 l -0.006,-0.008 -0.01,0.01 c -7.33,9.65 -17.88141,16.2493 -30.44141,16.2793 l -34.38867,0.0703 c -11.14,0.03 -21.35023,-5.26867 -27.99023,-14.13867 l -6.6211,-12.76172 c -14.82,13.53 -31.26851,22.91109 -50.22851,27.87109 -18.8,4.92 -37.63071,6.12907 -56.97071,3.78907 -27.04,-3.28 -51.65055,-15.75946 -70.06055,-35.68946 -10.71466,-11.67773 -13.4139,24.94456 -41.96869,32.32057 l -39.6914,0.72071 c -8.04,0.15 -15.0386,-3.58078 -21.3086,-8.80078 -6.97,4.95 -14.57164,8.36047 -23.18164,8.48047 l -33.25976,0.45898 c -43.15879,0.61026 -65.3198,-78.83708 -76.13877,-73.56044 -0.15548,0.067 -1.12156,0.98164 -1.10156,1.93164 l 0.31055,13.64844 0.0508,2.13086 c 0.31,5.28 0.50055,10.61023 0.56055,15.99023 0.45,16.13 -4.82157,27.48938 -18.85157,36.35938 3.85,11.28 1.56102,22.84977 -5.95898,31.25977 0.002,0.003 0.002,0.007 0.004,0.01 -0.001,-1.3e-4 -0.003,1.3e-4 -0.004,0 l 0.01,0.0117 c -5.4,6.03 -13.06093,9.96883 -21.71093,10.79883 -16.73,1.61 -33.23961,2.67094 -50.09961,2.21094 -12.38,-0.34 -23.27868,-6.11016 -30.38868,-15.91016 L 199.7851,602.86084 c -2.03786,28.93174 2.11422,55.2698 -36.51023,60.98047 l -35.64844,2.6211 c -18.37,1.35 -35.391248,-11.47157 -36.531248,-30.85157 L 79.189476,432.7204 78.269554,411.33954 c -0.27,-6.28 -0.06977,-12.96 1.990235,-18.75 z M 1116.795,628.18524 c 0,-0.002 0,-0.004 0.01,-0.006 h -0.012 c 0,0.002 0,0.004 0.01,0.006 z"
                 sodipodi:nodetypes="cccccccccccccccccccccccccccccccccsccccccccccccccccccccccccccccccccscccccccccccsccccccccccccccccccccccccccccccccccccccccccc"
                 style="fill:#7ba433;fill-opacity:1" /><path
                 class="cls-15"
                 d="m 1320.05,508.06 -6.19,-6.1 c -2.21,-2.18 0.4,-3.88 1.77,-5.56 8.9,-10.93 16.07,-23.01 21.03,-36.23 3.5,-9.33 2.36,-19.25 -2.17,-27.56 2.52,1.06 3.55,3.37 4.9,5.69 5.69,9.78 6.66,20.73 2.87,31.61 -4.9,14.05 -12.75,26.65 -22.21,38.15 z"
                 id="path11-3" /><path
                 class="cls-23"
                 d="m 196.22,411.21 c -1.27,1.75 -2.51,3.26 -5.57,2.28 -0.1,-8.73 -0.83,-17.54 -3.69,-26.02 5.27,4.41 6.86,11.97 7.88,18.79 0.28,1.88 0.17,3.56 1.38,4.95 z"
                 id="path22" /><path
                 class="cls-21"
                 d="m 176.25,573.09 2.64,51.61 c 0.61,11.98 -8.62,19.69 -19.99,20.55 l -31.26,2.37 c -9.07,0.69 -18.31,-5.74 -18.92,-15.6 L 101.84,521.14 96.03,407.97 c 1.22,-11.46 9.4,-20.02 20.79,-20.69 l 31.16,-2.23 c 10.6,-0.76 20.4,6.42 20.89,17.56 l 3.32,76.53 27.74,-38.08 36.19,-50.99 c 5.09,-7.17 14.57,-9.99 23.05,-10.24 13.37,-0.41 25.64,4.61 35.26,13.3 6.4,5.78 8.15,14.18 3.68,21.64 l -17.21,24.34 -47.24,66.02 60.33,82.14 39.51,53.16 c 2.97,3.99 2.87,9.82 0.9,13.99 -1.97,4.17 -6.59,7.21 -11.68,7.48 l -39.95,2.13 c -8.41,0.45 -16.83,-1.93 -22.03,-9.06 l -49.48,-67.9 -21.84,-30.56 -13.15,16.6 z"
                 id="path30"
                 style="fill:#aad163;fill-opacity:1" /><path
                 class="cls-34"
                 d="m 352.45,606.45 c 0.29,8.77 -6.66,15.63 -15.24,16.75 l -54.2,-74.12 -1.41,-52.2 -0.09,-28.08 c 0.24,-3.2 0.96,-5.81 2.82,-8.45 10.52,-14.9 20.48,-29.77 29.81,-45.48 2.45,-4.12 5.81,-7.58 10.96,-7.75 l 26.14,-0.83 c 9.26,-0.08 17.45,3.81 22.23,11.78 l 58.86,88.38 -3.58,-82.14 c -0.36,-10.37 6.73,-17.97 16.9,-19.23 l 30.18,-0.22 c 10.64,-0.08 17.51,9.21 17.75,19.42 l 2.06,86.47 1.88,91.86 c 0.2,9.64 -5.54,19.47 -15.78,19.56 l -36.28,0.31 c -6.61,0.06 -12.36,-4.89 -16.12,-10.08 -21.72,-29.98 -41.62,-60.45 -62.23,-91.18 l -19.47,-29.02 4.25,97.21 0.57,17.01 z"
                 id="path31"
                 style="fill:#aad163;fill-opacity:1" /><path
                 class="cls-34"
                 d="m 989.51,600.25 c 0.19,10.82 -6.81,19.6 -17.53,20.44 -11.52,0.91 -23.18,1.28 -34.52,-0.04 -11.14,-1.3 -17.31,-10.85 -17.42,-21.45 l -0.62,-59.33 -45.5,-0.09 c -1.01,0 -1.89,0.44 -2.33,1.38 l 0.8,58.01 c 0.16,11.56 -7.87,20.94 -19.41,21.05 l -29.11,0.28 c -10.13,0.1 -19.18,-7.11 -19.38,-17.91 l -1.43,-78.09 1.71,-106.99 c 0.16,-10.19 8.94,-17.84 18.62,-18.54 l 30.33,-0.26 c 10.2,-0.09 18.17,8.41 18.13,18.66 l -0.23,61.28 h 47.53 c 0,0 -0.33,-18.46 -0.33,-18.46 l 0.12,-40.69 c 0.03,-10.79 9.31,-18.32 19.89,-18.21 l 29.63,0.28 c 10.82,0.1 17.79,9.3 17.97,19.97 l 1.46,87.08 1.63,91.63 z"
                 id="path32"
                 style="fill:#aad163;fill-opacity:1" /><path
                 class="cls-32"
                 d="m 704.46,542.47 c -6.06,-0.06 -10.55,-5.37 -11.4,-10.94 -1.15,-7.44 -1.82,-14.48 -0.82,-21.98 0.93,-7.02 6.61,-13.68 14.07,-13.81 L 770,494.66 c 8.76,-0.15 17.29,5.62 17.61,14.98 l 1.66,48.67 c 0.29,8.39 -1.21,15.3 -5.15,22.56 -8.28,15.26 -21.11,26.75 -36.74,34.55 -15.92,7.94 -32.89,10.97 -50.77,10.9 -29.04,-0.1 -56.27,-11.64 -75.48,-33.29 -17.65,-19.89 -27.4,-44.65 -28.69,-71.27 -1.52,-31.16 7.73,-61.52 27.51,-85.56 18.55,-22.55 45.27,-36.04 74.58,-36.94 32.34,-0.99 63.1,11.4 82.75,37.01 3.6,4.9 4.86,10.59 2.26,16.29 -9.91,9.79 -20.4,19.04 -32.24,26.29 -7.14,4.37 -14.88,3.41 -20.05,-2.93 -5.85,-7.19 -13.77,-11.77 -22.94,-13.05 -14.52,-2.02 -27.9,4.2 -35.52,16.61 -11.1,18.08 -11.52,44.81 -2.42,63.43 6.8,13.91 20.28,21.48 35.79,20.19 8.89,-0.74 18.26,-3.21 23.94,-10.47 1.17,-2.67 0.26,-6.97 0.07,-9.93 l -21.71,-0.22 z"
                 id="path33"
                 style="fill:#aad163;fill-opacity:1" /><path
                 class="cls-34"
                 d="m 1197.38,631.19 c -16.64,-4.91 -31.62,-13.52 -43.62,-26.07 -5.83,-6.09 -8.55,-14.95 -3.55,-22.35 6.12,-9.07 13.46,-17.22 20.93,-25.14 6.72,-7.13 16.55,-7.38 24.08,-1.57 13.24,10.22 26.57,18.64 43.98,18.3 7.45,-0.15 14.71,-2.76 14.93,-8.86 0.23,-6.41 -8.53,-9.58 -15.53,-12.05 l -27.58,-9.73 c -8.7,-3.07 -16.42,-7.39 -23.93,-12.77 -10.3,-7.39 -18.43,-17.13 -22.59,-29.25 -8.5,-24.76 -1.45,-51.68 16.22,-70.93 10.63,-11.59 24.72,-18.54 40.33,-21.34 27.34,-4.91 55.42,1.2 78.13,17.05 5.98,4.17 11.03,8.74 15.42,14.38 4.41,5.67 3.84,12.86 0.18,18.77 l -9.29,14.99 c -2.79,4.5 -6.01,8.69 -10.21,11.9 -5.76,4.41 -12.81,3.1 -18.56,-0.85 -12.61,-8.64 -30.98,-19.45 -45.17,-14.52 -3.2,1.11 -5.46,3.47 -5.91,6.29 -1.28,8 9.07,11.38 18.33,14.68 l 29.1,10.37 c 8.44,3.01 15.86,7.47 22.99,12.98 9.15,7.08 16.48,16.05 20.64,27.04 6.91,18.27 5.83,38.63 -2.61,56.1 -17.94,37.16 -61.07,43.69 -98.78,37.06 0.073,0.35965 -17.93,-4.48 -17.93,-4.48 z"
                 id="path34-7"
                 sodipodi:nodetypes="cccccccccccccccccccccscccccc"
                 style="fill:#aad163;fill-opacity:1" /><path
                 class="cls-29"
                 d="m 1104.88,602.97 c -0.73,11.39 -7.78,20.86 -19.43,20.27 l -34.23,-1.72 c -8.99,-0.45 -14.75,-9.89 -14.17,-18.93 l 5.3,-83.05 3.41,-52.71 -30.05,-1.65 c -9.62,-0.53 -17.58,-4.98 -19.28,-14.96 -0.46,-11.79 0.16,-23.66 1.98,-35.41 2.68,-10.73 12.07,-17.01 22.87,-14.94 l 73.77,3.91 52.76,3 c 4.73,0.27 9.31,1.65 12.52,4.91 5.01,5.07 5.84,11.74 5.34,18.62 l -1.83,25.05 c -1.07,9.31 -7.81,16.98 -17.38,16.59 l -33.11,-1.36 -8.49,132.37 z"
                 id="path35-3"
                 style="fill:#aad163;fill-opacity:1" /><path
                 class="cls-34"
                 d="m 564.71,621.93 -32.06,0.86 c -10.93,0.29 -18.84,-7.19 -19.03,-18.14 L 512,512.16 511.83,485.77 c -0.04,-6.6 5.99284,-12.26497 11.85,-12.25 0.28563,7.3e-4 42.88,-0.36 42.88,-0.36 5.93136,0.87698 10.98,4.9 11.09,11.4 l 2.11,117.33 c 0.17,9.55 -4.77,18.78 -15.05,20.05 z"
                 id="path36"
                 style="fill:#aad163;fill-opacity:1"
                 sodipodi:nodetypes="cccccsscccc" /></g><path
               class="cls-37"
               d="m 556.25163,817.77921 c -3.26966,6.01007 -6.85345,11.82394 -13.01327,15.00823 -7.06437,3.64838 -15.58864,3.85522 -21.66192,-1.40402 -8.93494,-7.75404 -6.29995,-25.18606 5.70734,-34.2407 -8.93122,-0.72465 -16.92077,-3.88165 -21.94625,-10.92971 -6.17088,-8.66675 -3.9209,-19.26288 5.04082,-24.8468 8.63673,-5.38967 18.36472,-3.97161 27.74377,1.59205 -1.62909,-7.9171 -1.83693,-14.39139 1.16262,-20.9893 2.99956,-6.59789 9.71308,-11.69434 17.3557,-11.03125 13.9528,1.19978 20.875,16.22169 16.84484,31.08957 12.27877,-7.73651 24.35051,-8.30325 33.55198,2.47877 3.61693,5.49692 3.6445,12.0358 0.46865,17.88479 -4.45236,8.2021 -12.94936,12.39994 -22.50328,13.51522 9.25356,6.92096 12.90811,17.62021 9.49852,27.81815 -2.44996,7.34169 -9.25296,10.87278 -16.8242,10.34821 -9.62628,-0.66646 -16.81367,-6.67408 -21.42502,-16.28491 z"
               id="path59-4"
               style="fill:#f384d4;fill-opacity:1;stroke-width:0.829397" /><ellipse
               class="cls-37"
               cx="556.16748"
               cy="786.82312"
               rx="23.393824"
               ry="23.387875"
               id="ellipse58-1-9"
               style="fill:#f5f2e3;stroke-width:0.594809;fill-opacity:1" /></g></g><path
           class="cls-37"
           d="m 239.97002,737.16961 c -15.88797,0.34315 -33.93241,-14.71174 -35.31679,-24.13773 -12.59,-85.66 -27.04,-170.29 -42.86,-255.40999 l -6.66,-38.98 c -1.88,-10.99 5.31,-21.85 15.43,-26.78 107.03128,-52.15371 75.03906,345.19182 69.40679,345.30772 z"
           id="path29-4"
           sodipodi:nodetypes="cccccc"
           style="fill:#7ba433;fill-opacity:1" /><path
           class="cls-37"
           d="m 311.9,355.81 c 10.7,-0.08 21.41,2.5 32.15,5.67 14.99177,4.42569 47.46995,20.60415 59.78,42.24 -2.74788,-25.30939 9.8797,-29.18852 78.96,-45 62.42269,-7.7163 52.91357,70.08731 56.09,110.42 0.98,-2.24 30.24,-34.84 48.68,-45.43 29.6208,-17.01757 121.86302,-48.10278 176.51,48.64 28.55,-41.2 76.21,-63.04 126.42,-56.46 39.2,5.13 72.66,28.69 93.02,63.26 l 3.96,-30.5 c 1.55,-11.95 11.52,-22.12 23.59,-23.31 l 56.13,-5.57 c 13.86,-1.37 26.73,5.14 32.82,17.23 0.46,0.91 0.77,2.41 1.41,3.03 1.06,1.03 2.73,0.03 4,-0.26 6.9052,-1.58008 44.9914,-8.66009 72.88,19.8 46.7392,-12.75714 81.5805,-13.83415 117.73,25.43 3.87,4.97 7.28,10.79 9.81,16.63 15.78,25.87 9.28,58.31 1.78,86.2 -7.61,22.14 -14.21,44.1 -19.8,65.9 -0.07,4.4 1.02,8.72 3.26,12.95 13.48,8.05 29.31,-0.76 38.75,13.91 4.6641,11.33643 7.4892,18.24718 -5.73,26.51 -29.82,15.35 -76.64,20.78 -109.22,12.54 -13.01,-3.29 -25.49,-8.31 -34.87,-18.26 -0.83,-2.52 -4.12,-3.38 -5.64,-5.15 -2.12,0.49 -4.41,-1 -6.86,-4.47 -5.4,7.75 -14.22,11.71 -23.55,11.86 l -46.81,-3.7 -1.01,-2.09 c -6.95,3.37 -18.41,0.64 -24.09,-4.88 -2.35,0 -4.69,-1.39 -7.01,-4.17 -6.96,5.19 -15.56,6.41 -24.03,5.88 l -55.4,-4.19 c -4.25,-0.67 -9.47,-1.91 -11.13,-6.2 -5.84,-3.82 -10.02,-9.55 -11.92,-16.4 l -2.02,-0.81 -0.22,-7.87 C 917,700.02 839.5,709.57 791.68,671.83 c -0.56,-0.44 -0.87,-1.2 -1.11,-2.05 -8.53,-6.32 -16.88,-13.78 -23.06,-22.42 l -5.88,-8.22 c -1.78,0.92 -3.44,-0.47 -4.99,-4.17 -38.2,53.89 -116.26,71.75 -173.22,38.65 -0.1,3.18 -4.88,7.23 -7.75,9.36 -31.39,23.43 -77.68,36.85 -111.75,11.69 -0.98,-0.72 -1.64,-1.66 -1.96,-2.85 -9.64,-7.3 -17.02,-16.76 -22.18,-27.65 -1.89,0.46 -3.2,-0.74 -3.92,-3.61 -22.42,39.31 -68.3,58.14 -111.4,64.18 -0.62,0.09 -1.29,-0.12 -1.98,-0.35 -0.69,-0.23 -1.41,-0.61 -2.09,-1.02 l -3.94,1.94 c -25.35,5.23 -51.7,5.81 -77.46,6.34 -4.63,0.1 -12.38,-0.74 -13.73,-5.56 -7.29,-4.77 -11.85,-10.93 -13.21,-20.19 -12.59,-85.66 -27.04,-170.29 -42.86,-255.41 l -6.66,-38.98 c -1.88,-10.99 5.31,-21.85 15.43,-26.78 13.36,-6.51 27.12,-10.92 40.86,-15.39 21,-6.83 42.65,-11.38 65.14,-13.35 l 27.91,-0.2 z"
           id="path29"
           sodipodi:nodetypes="ccccccccccccccccsccccccsccccccccccccccccscccccccccscccccccccccc"
           style="fill:#fcfbf6;fill-opacity:1" /><path
           id="path34"
           class="cls-4"
           d="m 756.63975,631.17957 c -15.46,22.84 -36.88023,39.38125 -62.49023,48.78125 -34.73,12.75 -77.97983,11.05906 -110.83985,-7.96094 -2.64999,3.64 -5.17054,6.67992 -8.81054,9.41992 -32.69,24.6 -95.86487,51.39527 -134.67969,-17.23047 2.06917,49.44358 86.82112,81.32473 145.1118,14.62805 31.29121,16.05593 65.13333,20.6462 99.62843,13.50281 50.70782,-12.15998 73.05469,-48.51953 73.05469,-48.51953 14.04957,20.71389 38.01757,36.37743 60.22656,47.5918 48.41761,21.61446 105.06024,10.99282 144.71875,-23.49609 -0.26353,21.47224 20.65188,27.62324 26.85938,28.12304 l 56.08595,3.47461 c 10.51,0.84 11.7715,-0.83851 19.8515,-7.47851 5.57,6.34 13.8023,10.80492 20.5723,11.54492 22.0038,2.82861 41.0174,4.46385 63.1231,6.24023 14.414,1.16436 22.7575,-12.72104 25.3261,-13.55078 3.7559,12.73963 31.6374,24.65249 42.8223,28.15039 31.73,9.9 71.4497,4.70961 102.6797,-7.15039 6.94,-2.64 14.1798,-5.32015 17.3398,-12.66015 2.56,-5.97 -1.839,-16.44062 -6.169,-21.00061 0,0 0.7886,2.02021 0.9386,2.85021 5.6005,32.58768 -103.4164,49.89198 -157.6016,9.80274 9e-4,-2.9e-4 0,-0.002 0,-0.002 v -0.01 l -6.9394,-8.10937 c -5.62,10.23999 -16.2013,14.31867 -27.2813,13.38867 l -44,-3.66992 c 0,0.004 2e-4,0.008 -0.01,0.0117 v -0.0117 -0.0195 c -11.8463,-0.72251 -22.3219,-2.68232 -30.7187,-11.89062 -7.72,6.56 -16.6812,7.31133 -26.2012,6.61133 l -50.30858,-3.72071 c -5.42781,-0.39983 -20.58177,-4.28144 -26.36328,-20.92968 0.008,-0.007 0.0158,-0.0128 0.0234,-0.0195 v -0.0117 l -0.39063,-13.87891 c -26.08,26.45 -60.74054,39.9806 -97.81054,39.39063 -54.60364,-0.87253 -95.05635,-42.00823 -107.75,-62.19141 z"
           sodipodi:nodetypes="cccccccccccccccccccccccccccccccccccccccc"
           style="fill:#7ba433;fill-opacity:1" /><path
           id="path35"
           class="cls-26"
           d="m 436.03038,656.22058 c -23.45769,43.89569 -69.42224,59.96694 -115.59766,67.16797 l 0.008,-0.008 c -26.12,4.07 -52.55976,5.99906 -79.50976,6.28906 -5.93,0.06 -14.10186,-2.73074 -18.52186,-5.63074 0,0 10.27092,12.92074 17.56092,13.13074 27.61566,0.81537 54.83171,-1.32363 81.56445,-5.16211 0.71649,0.0257 1.52069,-0.0712 2.41602,-0.32812 14.26,-2.11 28.26922,-5.04922 42.44922,-9.69922 27.86,-8.65 55.31117,-25.12094 70.95117,-49.96094 1.61,-2.56 2.80875,-4.95008 2.46875,-7.83008 h -0.01 z"
           sodipodi:nodetypes="ccccccccccccc"
           style="fill:#7ba433;fill-opacity:1" /><path
           class="cls-25"
           d="m 674.52,790.92 -68.9,0.04 z"
           id="path42"
           style="fill:#c6db86" /><path
           class="cls-34"
           d="m 1291.09,666.69 c -10.76,-6.43 -2.79,-24.81 2.57,-40.85 7.11,-21.25 13.88,-41.78 17.84,-63.91 3.7,-20.65 2.49,-41.51 -5.65,-60.29 -0.01,-0.01 -0.27,-0.9 -0.01,-0.01 20.9059,34.32512 13.26,68.99 1.97,105.43 l -12.79,41.3 c -1.92,6.2 -3.06,12.19 -3.93,18.33 z"
           id="path46"
           sodipodi:nodetypes="ccccccsc"
           style="fill:#7ba433;fill-opacity:1" /><path
           class="cls-24"
           d="m 334.27,697.3 c -32.25,6.44 -64.04,9 -96.15,9.53 -2.77,0.05 -3.37,-4.43 -3.64,-6.2 L 223.17,627.09 198.87,485.7 185.66,411.71 c -0.83,-4.66 1.5,-6.4 5.4,-8.01 45.54,-18.79 106.53,-35.7 153.24,-17.62 27.46,10.1 46.15,33.45 50.64,62.51 3.41,22.08 -4.5,43.84 -20.77,60.32 50.14,17.22 66.52,80.01 46.63,126.47 -14.88,36.71 -48.05,54.23 -86.52,61.92 z"
           id="path49"
           sodipodi:nodetypes="ccccccccccccc"
           style="fill:#aad163;fill-opacity:1" /><path
           class="cls-5"
           d="m 1187.5305,540.89269 c -6.6466,-0.47556 -13.3159,5.37319 -16.3605,13.39731 -11.1669,39.47487 -15.9944,80.43494 -22.12,120.93 -0.25,1.62 -3.08,3.67 -4.91,3.51 l -58.69,-5.4 c -4.69,-0.43 -4.92,-5.47 -4.39,-9.12 l 16.5,-112.48 c 1.44,-9.84 0.86,-19.38 -7.43,-21.79 -9.32,-2.71 -17.58,8.27 -19.37,21.06 l -16.05,114.74 c -0.88,1.91 -4.35,4.29 -6.36,4.16 l -58.82,-3.97 c -4.1,-0.28 -5.29,-3.57 -4.84,-7.15 l 12.48,-99.31 12.13,-103.83 c 0.37,-3.13 0.53,-7.31 4.39,-7.71 l 52.48,-5.5 c 8.64,-0.91 14.9,3.53 16.07,12.36 l -0.62,23.3 c 8.01,-6.72 15.37,-12.39 25.16,-14.98 26.41,-5.58 54.75,3.36 63.57,31.22 22.82,-20.76 54.04,-25.31 82.07,-14.04 22.98,9.24 37.47,29.97 38.16,54.9 0.37,13.16 -1.15,25.98 -5,38.7 l -10.23,33.77 -12.28,40.7 c -2.78,12.48 0.06,25.06 9.55,33.45 5.39,4.76 11.62,6.79 18.94,10.15 -19.36,5.67 -39.81,7.25 -60.12,4.96 -11.85,-1.34 -22.68,-4.95 -32.67,-11.12 -36.5347,-25.35501 -13.1973,-82.97162 -3.9566,-124.96556 0.715,-3.24929 3.3902,-19.1781 -7.2829,-19.94175 z"
           id="path50"
           style="fill-opacity:1;fill:#aad163"
           sodipodi:nodetypes="sccccccccccccccccccccsccccccccss" /><path
           class="cls-23"
           d="m 774,614.34 -0.15,-4.16 c 19.5,-33.31 21.66,-73.21 7.22,-109.73 -2.11,-2.19 -3.1,-4.33 -2.95,-6.4 11.92,-21.22 30.23,-38.27 53,-47.84 38.31,-16.1 83.65,-8.53 113.26,20.1 38.45,37.18 46.32,94.1 22.18,141.4 -8.13,15.93 -18.48,30.06 -33.03,40.89 C 881.9,687.04 802.27,674.52 774,614.33 Z"
           id="path51"
           style="fill:#aad163;fill-opacity:1"
           sodipodi:nodetypes="ccccccsccc" /><path
           class="cls-29"
           d="M 672.03,662.3 C 619,673.6 572.01,648.64 551.16,599.74 535.52,563.07 538.3,520.6 557.98,486.07 c 20.22,-35.48 57.33,-58.36 98.21,-56.93 36.18,1.26 67.9,20.8 86.24,51.41 7.44,12.41 12.47,24.73 15.07,39.17 5.93,32.96 -0.74,66.74 -18.38,95.36 -14.93,24.22 -38.66,41.16 -67.09,47.22 z"
           id="path52"
           style="fill:#aad163;fill-opacity:1" /><path
           class="cls-1"
           d="m 565.74,658.22 c -13.37,12.61 -30.22,20.73 -47.94,24.05 -27.01,5.05 -51.16,-9.23 -60.66,-34.57 -5.06,-13.48 -7.71,-27.06 -9.03,-41.73 l -7.93,-87.91 -11.62,-119.22 c -0.27,-2.81 3.96,-4.16 5.75,-4.6 19.61,-4.83 38.18,-10.99 58.45,-13.62 8.31,-1.08 14.7,7.37 15.77,15.13 2.75,19.86 3.74,38.79 4.92,58.86 l 4.4,75.34 c 1.19,20.31 0.68,39.93 5.61,59.89 5.41,21.88 16.8,41.27 31.65,57.96 l 10.64,10.42 z"
           id="path53"
           style="fill:#aad163;fill-opacity:1;stroke:none;stroke-width:9px" /><path
           class="cls-27"
           d="m 774,614.34 c -1.64,-3.49 -3.6,-6.69 -4.13,-10.56 13.57,-34.59 16.09,-65.28 6.54,-101.18 -1,-3.74 -0.16,-5.21 1.71,-8.55 2.57,1.83 4.45,4.4 5.66,7.55 11.34,29.56 11.61,62.67 0.4,92.46 z"
           id="path54"
           style="fill:#7ba433;fill-opacity:1"
           sodipodi:nodetypes="ccccccc" /><ellipse
           class="cls-37"
           cx="651.93811"
           cy="539.41998"
           rx="39.330002"
           ry="39.32"
           id="ellipse58-8"
           style="fill:#f5f2e3;fill-opacity:1" /></g></g><path
       class="cls-37"
       d="m 387.27188,249.147 -8.50252,-39.77256 c 0,0 18.28186,-4.99039 25.489,-3.47673 6.18782,1.43337 14.90708,6.50553 15.24859,19.95031 1.10531,22.12409 -32.23507,23.29898 -32.23507,23.29898 z"
       id="path58-6"
       sodipodi:nodetypes="ccccc"
       style="fill:#f5f2e3;stroke-width:0.540894;fill-opacity:1" /><path
       class="cls-37"
       d="m 374.84676,182.27689 -7.02415,-32.85715 c 0,0 15.10312,-4.12267 21.05713,-2.87222 5.11193,1.18415 12.31512,5.3744 12.59725,16.48148 0.91313,18.2773 -26.63023,19.24789 -26.63023,19.24789 z"
       id="path58-6-9"
       sodipodi:nodetypes="ccccc"
       style="fill:#f5f2e3;stroke-width:0.446846;fill-opacity:1" /><path
       class="cls-37"
       d="m 698.16789,232.28146 c -2.57412,4.73159 -5.39548,9.30874 -10.24515,11.81566 -5.56169,2.87231 -12.27247,3.03515 -17.05387,-1.10535 -7.03438,-6.10458 -4.95978,-19.82845 4.4933,-26.95699 -7.03134,-0.57049 -13.32151,-3.05595 -17.27789,-8.60473 -4.85799,-6.82313 -3.08673,-15.16524 3.96857,-19.56133 6.79949,-4.24319 14.45809,-3.12677 21.8421,1.25338 -1.28261,-6.23297 -1.44626,-11.33004 0.91527,-16.52444 2.36138,-5.19437 7.64683,-9.20669 13.66372,-8.68467 10.98484,0.94457 16.97093,13.84371 13.79797,25.54887 9.6668,-6.09078 18.63412,-7.60968 25.87836,0.87877 2.84748,4.32762 2.86931,9.47555 0.3689,14.08032 -3.50504,6.45735 -10.19475,9.76221 -17.71613,10.64026 7.28509,5.44871 10.16229,13.87201 7.47782,21.90062 -1.92874,5.77997 -7.28469,8.55992 -13.24516,8.14694 -7.5788,-0.5247 -13.23717,-5.25437 -16.86764,-12.82076 z"
       id="path59-4-2"
       style="fill:#f384d4;fill-opacity:1;stroke-width:0.652966"
       sodipodi:nodetypes="cccccccsccccccccc" /><ellipse
       class="cls-37"
       cx="697.56085"
       cy="207.08858"
       rx="19.761419"
       ry="19.756392"
       id="ellipse58-1-9-3"
       style="fill:#f5f2e3;stroke-width:0.502451;fill-opacity:1" /><g
       id="g22"
       transform="matrix(1.0299277,0,0,1.0299277,275.72562,43.986774)"
       style="fill:#ffffff"><path
         d="m 15.21,0 c 2.15,0 3.91,0.32 5.26,0.97 1.36,0.65 2.35,1.54 2.98,2.69 0.63,1.15 0.94,2.45 0.94,3.93 0,1.88 -0.46,3.55 -1.38,5.01 -0.92,1.46 -2.26,2.6 -4.02,3.42 -1.76,0.82 -3.88,1.24 -6.37,1.24 H 7.02 L 4.84,26.97 C 4.8,27.15 4.68,27.24 4.49,27.24 h -4.2 c -0.23,0 -0.32,-0.12 -0.27,-0.37 L 3.27,13.44 6.18,0.27 C 6.22,0.09 6.34,0 6.53,0 Z m -2.22,13.76 c 1.53,0 2.79,-0.26 3.77,-0.78 0.99,-0.52 1.72,-1.22 2.2,-2.11 0.48,-0.89 0.72,-1.88 0.72,-2.99 0,-0.84 -0.15,-1.59 -0.46,-2.26 C 18.91,4.96 18.41,4.44 17.71,4.06 17.01,3.68 16.06,3.5 14.85,3.5 h -4.61 l -2.37,9.84 -0.08,0.41 h 5.19 z"
         id="path1"
         style="fill:#ffffff" /><path
         d="m 21.83,27.24 c -0.23,0 -0.32,-0.12 -0.27,-0.37 L 23.91,17.1 26.05,7.47 C 26.09,7.29 26.21,7.2 26.4,7.2 h 3.97 c 0.26,0 0.36,0.12 0.29,0.37 l -0.86,3.27 c 1.02,-1.26 2.19,-2.21 3.5,-2.85 1.31,-0.64 2.65,-0.96 4.01,-0.96 0.18,0 0.36,0 0.53,0.02 0.17,0.01 0.33,0.04 0.49,0.08 0.22,0.05 0.3,0.19 0.23,0.41 l -0.68,2.86 c -0.04,0.19 -0.16,0.28 -0.37,0.25 -0.12,-0.03 -0.25,-0.04 -0.4,-0.05 -0.15,-0.01 -0.31,-0.01 -0.48,-0.01 -1.12,0 -2.22,0.26 -3.32,0.79 -1.1,0.53 -2.07,1.28 -2.93,2.26 -0.86,0.98 -1.5,2.15 -1.93,3.51 l -2.24,9.83 c -0.04,0.18 -0.16,0.27 -0.35,0.27 h -4.05 z"
         id="path2"
         style="fill:#ffffff" /><path
         d="m 47.61,6.77 c 2.06,0 3.8,0.47 5.2,1.4 1.4,0.93 2.4,2.22 2.97,3.87 0.57,1.65 0.62,3.55 0.14,5.7 -0.04,0.18 -0.16,0.27 -0.35,0.27 H 41.11 c -0.01,0.17 -0.02,0.34 -0.03,0.52 0,0.18 0,0.35 0,0.54 0,1.22 0.19,2.23 0.57,3.04 0.38,0.81 0.92,1.42 1.62,1.82 0.69,0.4 1.52,0.6 2.48,0.6 1.22,0 2.27,-0.32 3.15,-0.97 0.88,-0.65 1.54,-1.67 1.97,-3.06 0.05,-0.18 0.18,-0.27 0.37,-0.27 h 3.79 c 0.25,0 0.34,0.12 0.27,0.35 -0.43,1.52 -1.09,2.81 -1.99,3.87 -0.89,1.06 -1.99,1.87 -3.28,2.4 -1.29,0.54 -2.75,0.81 -4.39,0.81 -1.79,0 -3.38,-0.34 -4.76,-1.01 -1.38,-0.67 -2.46,-1.67 -3.24,-2.98 -0.78,-1.31 -1.17,-2.92 -1.17,-4.82 0,-1.18 0.15,-2.35 0.46,-3.51 0.31,-1.16 0.76,-2.26 1.37,-3.29 0.61,-1.03 1.36,-1.94 2.26,-2.73 0.9,-0.79 1.93,-1.41 3.11,-1.87 C 44.85,7 46.16,6.77 47.6,6.77 Z M 41.57,15 h 10 c 0.13,-0.99 0.04,-1.87 -0.25,-2.64 -0.29,-0.77 -0.79,-1.38 -1.46,-1.83 -0.67,-0.45 -1.51,-0.67 -2.51,-0.67 -0.78,0 -1.48,0.13 -2.1,0.4 -0.62,0.27 -1.17,0.63 -1.64,1.09 -0.47,0.46 -0.88,1 -1.22,1.62 -0.34,0.62 -0.61,1.3 -0.82,2.02 z"
         id="path3"
         style="fill:#ffffff" /><path
         d="m 65.16,27.69 c -1.92,0 -3.56,-0.29 -4.92,-0.88 -1.36,-0.58 -2.4,-1.4 -3.12,-2.46 -0.72,-1.06 -1.08,-2.28 -1.08,-3.67 0.01,-0.22 0.12,-0.33 0.33,-0.33 h 3.89 c 0.22,0 0.33,0.11 0.33,0.33 -0.01,1.26 0.39,2.25 1.21,2.97 0.82,0.72 2.01,1.08 3.58,1.08 0.96,0 1.75,-0.13 2.36,-0.4 0.61,-0.27 1.07,-0.61 1.36,-1.04 0.29,-0.43 0.44,-0.88 0.44,-1.36 0,-0.69 -0.27,-1.23 -0.82,-1.62 -0.54,-0.39 -1.25,-0.72 -2.11,-0.98 -0.86,-0.26 -1.78,-0.54 -2.74,-0.81 -0.97,-0.27 -1.88,-0.62 -2.73,-1.04 -0.86,-0.42 -1.56,-0.99 -2.11,-1.69 -0.55,-0.71 -0.83,-1.63 -0.83,-2.77 0,-1.26 0.37,-2.35 1.11,-3.29 0.74,-0.94 1.76,-1.66 3.07,-2.19 1.3,-0.52 2.8,-0.79 4.5,-0.79 1.7,0 3.16,0.25 4.42,0.74 1.26,0.49 2.24,1.21 2.95,2.15 0.71,0.94 1.11,2.06 1.2,3.37 0,0.22 -0.11,0.33 -0.33,0.33 h -3.76 c -0.21,0 -0.32,-0.11 -0.33,-0.33 -0.06,-0.75 -0.28,-1.38 -0.65,-1.88 -0.37,-0.5 -0.86,-0.87 -1.46,-1.12 -0.6,-0.25 -1.3,-0.37 -2.09,-0.37 -0.79,0 -1.46,0.12 -2.05,0.35 -0.59,0.23 -1.05,0.56 -1.36,0.97 -0.32,0.42 -0.48,0.89 -0.48,1.44 0,0.69 0.27,1.23 0.81,1.62 0.54,0.39 1.24,0.72 2.09,0.97 0.86,0.25 1.77,0.51 2.73,0.76 0.96,0.25 1.87,0.57 2.72,0.96 0.85,0.39 1.55,0.92 2.09,1.6 0.55,0.67 0.82,1.58 0.82,2.7 0,1.26 -0.36,2.39 -1.08,3.39 -0.72,1.01 -1.75,1.8 -3.1,2.38 -1.35,0.58 -2.96,0.88 -4.85,0.88 z"
         id="path4"
         style="fill:#ffffff" /><path
         d="m 87.03,6.77 c 2.06,0 3.8,0.47 5.2,1.4 1.4,0.93 2.4,2.22 2.97,3.87 0.57,1.65 0.62,3.55 0.14,5.7 -0.04,0.18 -0.16,0.27 -0.35,0.27 H 80.53 c -0.01,0.17 -0.02,0.34 -0.03,0.52 0,0.18 0,0.35 0,0.54 0,1.22 0.19,2.23 0.57,3.04 0.38,0.81 0.92,1.42 1.62,1.82 0.69,0.4 1.52,0.6 2.48,0.6 1.22,0 2.27,-0.32 3.15,-0.97 0.88,-0.65 1.54,-1.67 1.97,-3.06 0.05,-0.18 0.18,-0.27 0.37,-0.27 h 3.79 c 0.25,0 0.34,0.12 0.27,0.35 -0.43,1.52 -1.09,2.81 -1.99,3.87 -0.89,1.06 -1.99,1.87 -3.28,2.4 -1.29,0.54 -2.75,0.81 -4.39,0.81 -1.79,0 -3.38,-0.34 -4.76,-1.01 -1.38,-0.67 -2.46,-1.67 -3.24,-2.98 -0.78,-1.31 -1.17,-2.92 -1.17,-4.82 0,-1.18 0.15,-2.35 0.46,-3.51 0.31,-1.16 0.76,-2.26 1.37,-3.29 0.61,-1.03 1.36,-1.94 2.26,-2.73 0.9,-0.79 1.93,-1.41 3.11,-1.87 C 84.27,7 85.58,6.77 87.02,6.77 Z M 80.99,15 h 10 c 0.13,-0.99 0.04,-1.87 -0.25,-2.64 -0.29,-0.77 -0.79,-1.38 -1.46,-1.83 -0.67,-0.45 -1.51,-0.67 -2.51,-0.67 -0.78,0 -1.48,0.13 -2.1,0.4 -0.62,0.27 -1.17,0.63 -1.64,1.09 -0.47,0.46 -0.88,1 -1.22,1.62 -0.34,0.62 -0.61,1.3 -0.82,2.02 z"
         id="path5"
         style="fill:#ffffff" /><path
         d="m 95.04,27.24 c -0.22,0 -0.31,-0.12 -0.27,-0.37 L 96.99,17.88 99.33,7.47 C 99.37,7.29 99.49,7.2 99.68,7.2 h 3.89 c 0.25,0 0.34,0.12 0.27,0.37 l -0.66,2.69 c 0.49,-0.65 1.08,-1.24 1.77,-1.77 0.69,-0.53 1.45,-0.96 2.3,-1.27 0.84,-0.32 1.74,-0.48 2.7,-0.48 1.32,0 2.47,0.32 3.45,0.94 0.98,0.63 1.67,1.55 2.07,2.76 0.4,1.21 0.4,2.7 0,4.47 l -0.88,3.8 -1.87,8.27 c -0.03,0.18 -0.14,0.27 -0.35,0.27 h -4.11 c -0.25,0 -0.34,-0.12 -0.27,-0.37 l 1.91,-7.69 0.86,-3.97 c 0.23,-1.09 0.28,-2.01 0.13,-2.75 -0.15,-0.74 -0.48,-1.31 -0.99,-1.68 -0.51,-0.38 -1.16,-0.56 -1.96,-0.56 -0.8,0 -1.44,0.17 -2.06,0.52 -0.62,0.35 -1.18,0.81 -1.68,1.4 -0.5,0.59 -0.94,1.25 -1.31,1.98 -0.38,0.73 -0.69,1.47 -0.93,2.24 l -0.7,2.9 -1.67,7.72 c -0.04,0.18 -0.16,0.27 -0.35,0.27 h -4.18 z"
         id="path6"
         style="fill:#ffffff" /><path
         d="m 125.32,7.2 h 4.5 c 0.25,0 0.34,0.12 0.29,0.37 l -0.64,2.7 c -0.05,0.18 -0.17,0.27 -0.35,0.27 h -4.61 l -2.49,10.9 c -0.22,1 -0.17,1.71 0.14,2.13 0.31,0.42 0.84,0.63 1.6,0.63 0.39,0 0.76,-0.03 1.13,-0.08 0.36,-0.05 0.7,-0.12 1.01,-0.19 0.12,-0.03 0.21,0 0.27,0.05 0.06,0.05 0.08,0.15 0.04,0.26 l -0.54,2.47 c -0.05,0.14 -0.15,0.24 -0.29,0.29 -0.52,0.17 -1.07,0.31 -1.66,0.42 -0.59,0.11 -1.18,0.16 -1.76,0.16 -1.02,0 -1.95,-0.19 -2.77,-0.57 -0.82,-0.38 -1.42,-1.02 -1.8,-1.91 -0.38,-0.89 -0.39,-2.07 -0.04,-3.55 l 2.57,-11.01 h -2.24 c -0.23,0 -0.32,-0.12 -0.27,-0.37 l 0.64,-2.7 c 0.03,-0.18 0.14,-0.27 0.33,-0.27 h 2.3 l 1.03,-4.75 c 0.04,-0.18 0.15,-0.27 0.33,-0.27 h 4.16 c 0.26,0 0.35,0.12 0.27,0.37 l -1.13,4.65 z"
         id="path7"
         style="fill:#ffffff" /><path
         d="m 139.07,6.77 c 2.06,0 3.8,0.47 5.2,1.4 1.4,0.93 2.4,2.22 2.97,3.87 0.57,1.65 0.62,3.55 0.14,5.7 -0.04,0.18 -0.16,0.27 -0.35,0.27 h -14.46 c -0.01,0.17 -0.02,0.34 -0.03,0.52 0,0.18 0,0.35 0,0.54 0,1.22 0.19,2.23 0.57,3.04 0.38,0.81 0.92,1.42 1.62,1.82 0.69,0.4 1.52,0.6 2.48,0.6 1.22,0 2.27,-0.32 3.15,-0.97 0.88,-0.65 1.54,-1.67 1.97,-3.06 0.05,-0.18 0.18,-0.27 0.37,-0.27 h 3.79 c 0.25,0 0.34,0.12 0.27,0.35 -0.43,1.52 -1.09,2.81 -1.99,3.87 -0.89,1.06 -1.99,1.87 -3.28,2.4 -1.29,0.54 -2.75,0.81 -4.39,0.81 -1.79,0 -3.38,-0.34 -4.76,-1.01 -1.38,-0.67 -2.46,-1.67 -3.24,-2.98 -0.78,-1.31 -1.17,-2.92 -1.17,-4.82 0,-1.18 0.15,-2.35 0.46,-3.51 0.31,-1.16 0.76,-2.26 1.37,-3.29 0.61,-1.03 1.36,-1.94 2.26,-2.73 0.9,-0.79 1.93,-1.41 3.11,-1.87 1.18,-0.45 2.49,-0.68 3.93,-0.68 z M 133.04,15 h 10 c 0.13,-0.99 0.04,-1.87 -0.25,-2.64 -0.29,-0.77 -0.79,-1.38 -1.46,-1.83 -0.67,-0.45 -1.51,-0.67 -2.51,-0.67 -0.78,0 -1.48,0.13 -2.1,0.4 -0.62,0.27 -1.17,0.63 -1.64,1.09 -0.47,0.46 -0.88,1 -1.22,1.62 -0.34,0.62 -0.61,1.3 -0.82,2.02 z"
         id="path8"
         style="fill:#ffffff" /><path
         d="m 167.28,0 h 4.12 c 0.26,0 0.36,0.12 0.29,0.37 l -3.54,14.92 -2.59,11.67 c -0.04,0.18 -0.16,0.27 -0.35,0.27 h -3.87 c -0.26,0 -0.36,-0.12 -0.29,-0.37 l 0.45,-1.85 c -0.48,0.51 -1.01,0.95 -1.61,1.33 -0.59,0.38 -1.24,0.68 -1.93,0.89 -0.7,0.21 -1.46,0.31 -2.28,0.31 -1.49,0 -2.77,-0.34 -3.83,-1.01 -1.06,-0.67 -1.88,-1.62 -2.44,-2.83 -0.56,-1.21 -0.85,-2.63 -0.85,-4.25 0,-1.05 0.13,-2.15 0.38,-3.31 0.25,-1.16 0.65,-2.28 1.18,-3.39 0.53,-1.1 1.2,-2.1 2.01,-2.99 0.81,-0.89 1.77,-1.6 2.87,-2.12 1.1,-0.52 2.36,-0.79 3.77,-0.79 0.97,0 1.85,0.14 2.63,0.41 0.78,0.27 1.45,0.67 2,1.19 0.56,0.52 1,1.15 1.32,1.91 l 2.2,-10.1 c 0.05,-0.18 0.17,-0.27 0.35,-0.27 z m -10,24.44 c 1.09,0 2.03,-0.32 2.83,-0.96 0.8,-0.64 1.46,-1.46 1.99,-2.46 0.53,-1 0.92,-2.05 1.18,-3.14 0.25,-1.1 0.38,-2.1 0.38,-3.02 0,-1.61 -0.35,-2.82 -1.06,-3.63 -0.71,-0.81 -1.69,-1.22 -2.95,-1.22 -0.96,0 -1.8,0.22 -2.52,0.65 -0.72,0.44 -1.33,1 -1.82,1.7 -0.49,0.7 -0.89,1.47 -1.19,2.31 -0.3,0.84 -0.52,1.66 -0.65,2.48 -0.14,0.82 -0.2,1.54 -0.2,2.18 0,1.49 0.34,2.72 1.01,3.68 0.67,0.96 1.67,1.44 3,1.44 z"
         id="path9"
         style="fill:#ffffff" /><path
         d="m 174.41,27.24 c -0.23,0 -0.32,-0.12 -0.27,-0.37 l 3.27,-13.43 2.9,-13.17 C 180.35,0.09 180.47,0 180.66,0 h 10.72 c 2.08,0 3.72,0.28 4.92,0.84 1.21,0.56 2.07,1.3 2.6,2.24 0.53,0.94 0.79,1.96 0.79,3.08 0,1.74 -0.55,3.2 -1.64,4.39 -1.1,1.19 -2.64,1.99 -4.64,2.42 1.44,0.47 2.5,1.17 3.18,2.1 0.68,0.93 1.02,2.09 1.02,3.48 0,1.63 -0.44,3.11 -1.3,4.42 -0.87,1.31 -2.16,2.35 -3.87,3.12 -1.71,0.77 -3.82,1.16 -6.32,1.16 h -11.69 z m 5.25,-3.37 h 7.02 c 1.37,0 2.52,-0.23 3.43,-0.7 0.91,-0.47 1.6,-1.1 2.04,-1.91 0.45,-0.8 0.67,-1.71 0.67,-2.73 0,-1.17 -0.36,-2.11 -1.07,-2.84 -0.71,-0.73 -1.86,-1.09 -3.44,-1.09 h -6.62 l -2.04,9.26 z m 2.84,-12.62 h 6.89 c 1.22,0 2.23,-0.2 3.04,-0.59 0.8,-0.39 1.4,-0.93 1.8,-1.61 0.39,-0.68 0.59,-1.45 0.59,-2.31 0,-0.97 -0.29,-1.78 -0.89,-2.41 -0.59,-0.64 -1.63,-0.95 -3.12,-0.95 h -6.4 l -1.91,7.88 z"
         id="path10"
         style="fill:#ffffff" /><path
         d="m 200.03,33.86 c -0.12,0 -0.2,-0.04 -0.24,-0.12 -0.05,-0.08 -0.04,-0.17 0.03,-0.27 l 3.74,-6.5 -3.31,-19.42 C 200.21,7.32 200.3,7.2 200.52,7.2 h 4.18 c 0.18,0 0.29,0.1 0.31,0.29 l 1.85,13.95 7.55,-14.03 c 0.06,-0.14 0.19,-0.22 0.37,-0.22 h 4.51 c 0.12,0 0.2,0.04 0.24,0.12 0.04,0.08 0.03,0.17 -0.05,0.27 l -15,26.05 c -0.08,0.14 -0.2,0.21 -0.37,0.21 h -4.09 z"
         id="path11"
         style="fill:#ffffff" /><path
         d="m 224.99,13.41 2.92,-13.13 c 0.04,-0.18 0.16,-0.27 0.35,-0.27 h 4.16 c 0.25,0 0.34,0.12 0.27,0.37 L 230.08,11.35 230,11.7 241.45,0.16 C 241.55,0.06 241.68,0 241.84,0 h 5.29 c 0.16,0 0.25,0.04 0.28,0.12 0.03,0.08 0,0.17 -0.13,0.27 L 235.94,11.05 243,26.87 c 0.12,0.25 0.04,0.37 -0.23,0.37 h -4.71 c -0.18,0 -0.31,-0.08 -0.37,-0.23 l -5.35,-12.51 -3.79,3.62 -2.02,8.85 c -0.03,0.18 -0.14,0.27 -0.35,0.27 h -4.16 c -0.23,0 -0.32,-0.12 -0.27,-0.37 L 225,13.4 Z"
         id="path12"
         style="fill:#ffffff" /><path
         d="m 244.26,27.24 c -0.22,0 -0.31,-0.12 -0.27,-0.37 l 2.22,-8.99 2.34,-10.41 c 0.04,-0.18 0.16,-0.27 0.35,-0.27 h 3.89 c 0.25,0 0.34,0.12 0.27,0.37 l -0.66,2.69 c 0.49,-0.65 1.08,-1.24 1.77,-1.77 0.69,-0.53 1.45,-0.96 2.3,-1.27 0.84,-0.32 1.74,-0.48 2.7,-0.48 1.32,0 2.47,0.32 3.45,0.94 0.98,0.63 1.67,1.55 2.07,2.76 0.4,1.21 0.4,2.7 0,4.47 l -0.88,3.8 -1.87,8.27 c -0.03,0.18 -0.14,0.27 -0.35,0.27 h -4.11 c -0.25,0 -0.34,-0.12 -0.27,-0.37 l 1.91,-7.69 0.86,-3.97 c 0.23,-1.09 0.28,-2.01 0.13,-2.75 -0.15,-0.74 -0.48,-1.31 -0.99,-1.68 -0.51,-0.38 -1.16,-0.56 -1.96,-0.56 -0.8,0 -1.44,0.17 -2.06,0.52 -0.62,0.35 -1.18,0.81 -1.68,1.4 -0.5,0.59 -0.94,1.25 -1.31,1.98 -0.38,0.73 -0.69,1.47 -0.93,2.24 l -0.7,2.9 -1.67,7.72 c -0.04,0.18 -0.16,0.27 -0.35,0.27 h -4.18 z"
         id="path13"
         style="fill:#ffffff" /><path
         d="m 264.35,27.24 c -0.26,0 -0.35,-0.12 -0.27,-0.37 l 2.34,-9.81 2.14,-9.59 c 0.04,-0.18 0.15,-0.27 0.33,-0.27 h 4.13 c 0.26,0 0.36,0.12 0.29,0.37 l -2.3,9.48 -2.18,9.92 c -0.05,0.18 -0.17,0.27 -0.35,0.27 h -4.12 z M 269.49,5.1 c -0.25,0 -0.34,-0.12 -0.29,-0.37 l 0.93,-3.83 c 0.03,-0.19 0.14,-0.29 0.33,-0.29 h 4.11 c 0.23,0 0.32,0.12 0.27,0.37 l -0.92,3.85 c -0.04,0.18 -0.16,0.27 -0.35,0.27 h -4.09 z"
         id="path14"
         style="fill:#ffffff" /><path
         d="m 289.8,7.2 h 4.05 c 0.23,0 0.33,0.12 0.29,0.37 l -2.37,9.98 -1.97,8.7 c -0.67,2.96 -1.87,5.15 -3.59,6.57 -1.72,1.42 -3.99,2.13 -6.8,2.13 -1.72,0 -3.24,-0.28 -4.54,-0.84 -1.3,-0.56 -2.32,-1.33 -3.04,-2.33 -0.73,-0.99 -1.1,-2.14 -1.11,-3.43 0,-0.22 0.1,-0.33 0.31,-0.33 h 4.05 c 0.21,0 0.32,0.11 0.33,0.33 0.01,1.12 0.42,1.97 1.22,2.57 0.8,0.6 1.81,0.9 3.03,0.9 1.57,0 2.8,-0.45 3.69,-1.36 0.89,-0.91 1.55,-2.33 2,-4.26 l 0.33,-1.46 c -0.48,0.48 -1.02,0.91 -1.62,1.28 -0.6,0.37 -1.24,0.67 -1.95,0.89 -0.7,0.21 -1.46,0.32 -2.28,0.32 -1.5,0 -2.79,-0.33 -3.86,-1 -1.07,-0.67 -1.89,-1.6 -2.46,-2.78 -0.57,-1.19 -0.86,-2.57 -0.86,-4.15 0,-1.04 0.13,-2.13 0.38,-3.27 0.25,-1.14 0.64,-2.25 1.17,-3.34 0.53,-1.08 1.19,-2.06 2,-2.94 0.81,-0.88 1.76,-1.57 2.86,-2.09 1.1,-0.52 2.35,-0.78 3.77,-0.78 0.98,0 1.87,0.13 2.66,0.4 0.79,0.27 1.47,0.66 2.02,1.19 0.55,0.53 1.01,1.16 1.34,1.9 l 0.62,-2.88 c 0.05,-0.18 0.16,-0.27 0.33,-0.27 z m -8.36,16.89 c 1.08,0 2.01,-0.31 2.8,-0.94 0.79,-0.63 1.45,-1.44 1.97,-2.42 0.52,-0.99 0.91,-2.02 1.17,-3.09 0.26,-1.07 0.39,-2.06 0.39,-2.96 0,-1.56 -0.36,-2.72 -1.09,-3.5 -0.73,-0.78 -1.73,-1.17 -3.02,-1.17 -0.95,0 -1.77,0.21 -2.48,0.64 -0.71,0.43 -1.3,0.99 -1.79,1.67 -0.49,0.68 -0.88,1.44 -1.17,2.26 -0.29,0.82 -0.51,1.63 -0.64,2.43 -0.13,0.8 -0.2,1.52 -0.2,2.14 0,1.44 0.34,2.62 1.02,3.55 0.68,0.93 1.7,1.39 3.04,1.39 z"
         id="path15"
         style="fill:#ffffff" /><path
         d="m 292.1,27.24 c -0.25,0 -0.34,-0.12 -0.27,-0.37 L 293.99,17.88 298,0.27 C 298.03,0.09 298.14,0 298.35,0 h 3.95 c 0.22,0 0.31,0.12 0.27,0.37 l -2.35,9.89 c 0.49,-0.65 1.08,-1.24 1.77,-1.77 0.69,-0.53 1.45,-0.96 2.3,-1.27 0.84,-0.32 1.74,-0.48 2.69,-0.48 1.34,0 2.49,0.32 3.46,0.94 0.97,0.63 1.66,1.55 2.05,2.76 0.39,1.21 0.39,2.7 0,4.47 l -0.86,3.8 -1.85,8.27 c -0.04,0.18 -0.16,0.27 -0.35,0.27 h -4.09 c -0.26,0 -0.36,-0.12 -0.29,-0.37 l 1.87,-7.69 0.88,-3.97 c 0.25,-1.09 0.29,-2.01 0.14,-2.75 -0.15,-0.74 -0.49,-1.31 -0.99,-1.68 -0.51,-0.38 -1.15,-0.56 -1.94,-0.56 -0.79,0 -1.44,0.17 -2.07,0.52 -0.63,0.35 -1.19,0.81 -1.69,1.4 -0.5,0.59 -0.94,1.25 -1.31,1.98 -0.38,0.73 -0.7,1.47 -0.95,2.24 l -0.66,2.9 -1.67,7.72 c -0.04,0.18 -0.16,0.27 -0.35,0.27 h -4.16 z"
         id="path16"
         style="fill:#ffffff" /><path
         d="m 322.36,7.2 h 4.5 c 0.25,0 0.34,0.12 0.29,0.37 l -0.64,2.7 c -0.05,0.18 -0.17,0.27 -0.35,0.27 h -4.61 l -2.49,10.9 c -0.22,1 -0.17,1.71 0.14,2.13 0.31,0.42 0.84,0.63 1.6,0.63 0.39,0 0.76,-0.03 1.13,-0.08 0.36,-0.05 0.7,-0.12 1.01,-0.19 0.12,-0.03 0.21,0 0.27,0.05 0.06,0.05 0.08,0.15 0.04,0.26 l -0.54,2.47 c -0.05,0.14 -0.15,0.24 -0.29,0.29 -0.52,0.17 -1.07,0.31 -1.66,0.42 -0.59,0.11 -1.18,0.16 -1.76,0.16 -1.02,0 -1.95,-0.19 -2.77,-0.57 -0.82,-0.38 -1.42,-1.02 -1.8,-1.91 -0.38,-0.89 -0.39,-2.07 -0.04,-3.55 l 2.57,-11.01 h -2.24 c -0.23,0 -0.32,-0.12 -0.27,-0.37 l 0.64,-2.7 c 0.03,-0.18 0.14,-0.27 0.33,-0.27 h 2.3 l 1.03,-4.75 c 0.04,-0.18 0.15,-0.27 0.33,-0.27 h 4.16 c 0.26,0 0.35,0.12 0.27,0.37 l -1.13,4.65 z"
         id="path17"
         style="fill:#ffffff" /><path
         d="m 354.81,0 h 4.22 c 0.25,0 0.34,0.12 0.27,0.37 l -3.29,13.33 -2.88,13.27 c -0.03,0.18 -0.14,0.27 -0.35,0.27 h -4.22 c -0.23,0 -0.32,-0.12 -0.27,-0.37 l 3.02,-12.22 0.06,-0.22 H 338.1 l -0.06,0.22 -2.74,12.32 c -0.03,0.18 -0.14,0.27 -0.35,0.27 h -4.22 c -0.23,0 -0.32,-0.12 -0.27,-0.37 L 333.67,13.7 336.63,0.27 C 336.67,0.09 336.79,0 336.98,0 h 4.22 c 0.25,0 0.34,0.12 0.27,0.37 l -2.51,10.51 h 13.21 l 2.3,-10.6 c 0.04,-0.18 0.16,-0.27 0.35,-0.27 z"
         id="path18"
         style="fill:#ffffff" /><path
         d="m 374.11,7.2 h 4.09 c 0.24,0 0.34,0.12 0.27,0.37 l -2.3,9.63 -2.2,9.77 c -0.03,0.18 -0.15,0.27 -0.35,0.27 h -3.9 c -0.25,0 -0.34,-0.12 -0.29,-0.37 l 0.47,-1.83 c -0.49,0.51 -1.03,0.95 -1.62,1.32 -0.58,0.38 -1.23,0.67 -1.94,0.88 -0.7,0.21 -1.47,0.31 -2.29,0.31 -1.49,0 -2.77,-0.34 -3.83,-1.01 -1.06,-0.67 -1.88,-1.62 -2.44,-2.83 -0.56,-1.21 -0.85,-2.63 -0.85,-4.25 0,-1.05 0.13,-2.15 0.39,-3.31 0.26,-1.16 0.65,-2.28 1.18,-3.39 0.53,-1.11 1.19,-2.1 2,-2.99 0.81,-0.89 1.77,-1.6 2.88,-2.12 1.11,-0.52 2.38,-0.79 3.79,-0.79 0.97,0 1.84,0.14 2.62,0.42 0.78,0.28 1.44,0.68 2,1.2 0.56,0.52 1.01,1.16 1.34,1.91 l 0.62,-2.92 c 0.04,-0.18 0.16,-0.27 0.35,-0.27 z m -8.42,17.24 c 1.09,0 2.03,-0.32 2.83,-0.96 0.8,-0.64 1.46,-1.46 1.99,-2.46 0.52,-1 0.91,-2.05 1.17,-3.14 0.26,-1.1 0.39,-2.1 0.39,-3.02 0,-1.61 -0.36,-2.82 -1.07,-3.63 -0.72,-0.81 -1.7,-1.22 -2.98,-1.22 -0.96,0 -1.79,0.22 -2.5,0.65 -0.71,0.44 -1.3,1 -1.8,1.7 -0.49,0.7 -0.89,1.47 -1.19,2.31 -0.3,0.84 -0.52,1.66 -0.65,2.48 -0.14,0.82 -0.21,1.54 -0.21,2.18 0,1.49 0.33,2.72 1,3.68 0.67,0.96 1.67,1.44 3.01,1.44 z"
         id="path19"
         style="fill:#ffffff" /><path
         d="m 386.64,27.71 c -1.76,0 -3.32,-0.34 -4.66,-1.01 -1.34,-0.67 -2.39,-1.67 -3.14,-3 -0.75,-1.32 -1.13,-2.95 -1.13,-4.86 0,-1.15 0.15,-2.31 0.46,-3.47 0.3,-1.16 0.76,-2.26 1.36,-3.29 0.6,-1.03 1.35,-1.95 2.25,-2.74 0.9,-0.8 1.93,-1.42 3.11,-1.88 1.18,-0.45 2.5,-0.68 3.97,-0.68 1.65,0 3.08,0.3 4.31,0.89 1.23,0.6 2.19,1.44 2.88,2.53 0.69,1.09 1.05,2.37 1.08,3.85 0,0.22 -0.11,0.33 -0.33,0.33 h -3.77 c -0.21,0 -0.31,-0.11 -0.31,-0.33 -0.06,-1.34 -0.47,-2.35 -1.23,-3.04 -0.75,-0.69 -1.73,-1.04 -2.92,-1.04 -0.86,0 -1.62,0.19 -2.29,0.57 -0.67,0.38 -1.25,0.88 -1.73,1.52 -0.49,0.64 -0.89,1.35 -1.2,2.14 -0.31,0.79 -0.54,1.6 -0.69,2.43 -0.15,0.83 -0.22,1.63 -0.22,2.39 0,1.23 0.17,2.26 0.53,3.08 0.36,0.82 0.85,1.43 1.5,1.83 0.65,0.4 1.42,0.6 2.3,0.6 1.22,0 2.28,-0.37 3.18,-1.11 0.9,-0.74 1.57,-1.85 2.01,-3.35 0.05,-0.18 0.17,-0.27 0.35,-0.27 h 3.84 c 0.24,0 0.34,0.12 0.27,0.35 -0.44,1.61 -1.12,2.98 -2.02,4.11 -0.91,1.13 -2.01,1.99 -3.32,2.58 -1.3,0.59 -2.78,0.89 -4.43,0.89 z"
         id="path20"
         style="fill:#ffffff" /><path
         d="m 411.66,7.2 h 5.06 c 0.14,0 0.23,0.04 0.27,0.13 0.04,0.09 0,0.17 -0.11,0.26 l -7.9,6.85 4.46,12.43 c 0.08,0.25 0,0.37 -0.25,0.37 h -4.16 c -0.19,0 -0.32,-0.08 -0.37,-0.25 l -1.03,-3.42 -2.2,-6.21 -3.27,2.98 -1.46,6.63 c -0.04,0.19 -0.16,0.29 -0.35,0.29 h -4.01 c -0.25,0 -0.34,-0.12 -0.27,-0.37 l 3.17,-13.21 2.94,-13.41 C 402.22,0.09 402.34,0 402.53,0 h 4.05 c 0.23,0 0.33,0.12 0.27,0.37 l -3.19,13.25 -0.22,0.93 7.86,-7.2 c 0.13,-0.1 0.25,-0.16 0.37,-0.16 z"
         id="path21"
         style="fill:#ffffff" /><path
         d="m 422.78,27.69 c -1.92,0 -3.56,-0.29 -4.92,-0.88 -1.36,-0.58 -2.4,-1.4 -3.13,-2.46 -0.72,-1.06 -1.08,-2.28 -1.08,-3.67 0.02,-0.22 0.12,-0.33 0.33,-0.33 h 3.89 c 0.22,0 0.33,0.11 0.33,0.33 -0.01,1.26 0.39,2.25 1.21,2.97 0.82,0.72 2.01,1.08 3.58,1.08 0.96,0 1.74,-0.13 2.36,-0.4 0.62,-0.27 1.07,-0.61 1.36,-1.04 0.29,-0.43 0.44,-0.88 0.44,-1.36 0,-0.69 -0.27,-1.23 -0.82,-1.62 -0.54,-0.39 -1.25,-0.72 -2.11,-0.98 -0.86,-0.27 -1.78,-0.54 -2.75,-0.81 -0.97,-0.27 -1.88,-0.62 -2.73,-1.04 -0.86,-0.42 -1.56,-0.99 -2.11,-1.69 -0.55,-0.71 -0.83,-1.63 -0.83,-2.77 0,-1.26 0.37,-2.35 1.11,-3.29 0.74,-0.93 1.76,-1.66 3.06,-2.19 1.3,-0.52 2.81,-0.79 4.51,-0.79 1.7,0 3.16,0.25 4.41,0.74 1.26,0.49 2.24,1.21 2.95,2.15 0.71,0.94 1.11,2.06 1.2,3.37 0,0.22 -0.11,0.33 -0.33,0.33 h -3.76 c -0.21,0 -0.32,-0.11 -0.33,-0.33 -0.06,-0.75 -0.28,-1.38 -0.65,-1.88 -0.37,-0.5 -0.86,-0.87 -1.46,-1.12 -0.6,-0.25 -1.3,-0.37 -2.09,-0.37 -0.79,0 -1.46,0.12 -2.05,0.35 -0.59,0.23 -1.05,0.56 -1.36,0.97 -0.32,0.42 -0.48,0.89 -0.48,1.44 0,0.69 0.27,1.23 0.81,1.62 0.54,0.39 1.24,0.72 2.09,0.97 0.85,0.25 1.77,0.51 2.73,0.76 0.96,0.25 1.87,0.57 2.72,0.96 0.85,0.39 1.55,0.92 2.09,1.6 0.54,0.68 0.82,1.58 0.82,2.7 0,1.26 -0.36,2.39 -1.08,3.39 -0.72,1.01 -1.75,1.8 -3.1,2.38 -1.35,0.58 -2.96,0.88 -4.85,0.88 z"
         id="path22-9"
         style="fill:#ffffff" /></g></g></svg>
