<?xml version="1.0" encoding="UTF-8"?>
<svg id="Layer_2" data-name="Layer 2" xmlns="http://www.w3.org/2000/svg" viewBox="0 0 716.09 108.41">
  <defs>
    <style>
      .cls-1, .cls-2 {
        fill: #fff;
      }

      .cls-2 {
        fill-rule: evenodd;
        stroke: #000;
        stroke-miterlimit: 10;
      }
    </style>
  </defs>
  <g id="Layer_1-2" data-name="Layer 1">
    <g>
      <path class="cls-2" d="M59.94,92.89c-18.7,9.56-38.58,9.32-50.36-2.04-14.55-14.33-11.09-41.17,6.7-63.01,1.85-2.5,3.92-4.78,6.23-6.82-1.61,1.6-3,3.86-3.7,6.38-1.16,6.14,2.77,12,9.02,13.14,2.31.44,4.37.17,6.46-.72.92-.46,1.94-1.07,2.86-1.75-1.39,1.36-2.86,2.99-4.01,4.57-14,16.32-17.33,36.63-6.47,47.31,7.05,7.18,20.56,8.42,33.26,2.96h.01Z"/>
      <path class="cls-2" d="M79.95,62.77c2.77,2.74,3.78,6.46,3.09,10.1-.69,2.5-2.08,4.78-3.92,6.6-1.61,1.6-3.47,3.18-5.31,4.56-4.16,3.42-8.78,6.38-13.63,8.88-12.7,5.46-25.64,4.78-33.5-2.96-6.47-6.38-7.9-15.92-5.14-26.16-1.39,5.68-.88,10.24,2.12,13.2,6.23,6.14,20.78,2.04,34.64-9.1,2.08-1.82,4.29-4.14,6.7-6.14.92-.68,1.85-1.14,2.78-1.6,4.29-1.6,8.93-.56,12.16,2.64h.01Z"/>
      <path class="cls-2" d="M92.26,9.63c14.55,14.33,11.09,41.17-6.7,63.01-1.85,2.5-3.89,4.53-6.47,6.82,1.85-1.82,3.23-4.1,3.92-6.6,1.16-6.14-2.78-12.06-9-13.2-2.31-.46-4.62-.22-6.47.68-.92.46-1.85.9-2.78,1.6,1.39-1.36,2.78-2.74,4.16-4.32,14.31-15.92,17.33-36.63,6.47-47.31-7.86-7.74-21.02-8.64-33.72-3.18,18.7-9.32,38.81-9.1,50.59,2.5Z"/>
      <path class="cls-2" d="M80.15,38.45c2.08-6.6,1.26-11.97-1.97-15.39-6.23-6.14-20.78-2.04-34.64,9.1-2.31,1.82-4.39,4.32-6.7,6.14-.92.68-1.61,1.14-2.78,1.6-5.39,2.36-12.47-.46-14.78-6.14-.69-1.82-.92-4.1-.47-6.38.69-2.5,2.1-4.88,3.92-6.6,1.66-1.56,3.47-3.18,5.31-4.78,4.16-3.42,8.78-6.38,13.63-8.88,12.7-5.46,25.64-4.78,33.5,2.96,7.4,7.2,8.44,17.43,4.97,28.35h0Z"/>
      <path class="cls-1" d="M149.74,14.36h48.18v10.3h-37.53v20.59h37.29v10.3h-37.29v20.82h37.29v10.53h-47.95V14.36Z"/>
      <path class="cls-1" d="M210.43,33.36h10.66v7.55c3.94-5.49,10.42-8.7,17.37-8.47,13.9,0,22.47,8.92,22.47,23.8v31.12h-10.89v-30.66c0-9.15-4.86-15.1-13.9-15.1-8.34,0-14.59,6.18-14.59,15.79v29.75h-10.89l-.23-53.77Z"/>
      <path class="cls-1" d="M271.12,60.13c-.23-15.33,12.28-27.69,27.57-27.92h.69c11.12-.23,21.31,6.18,25.71,16.48l-9.73,4.12c-2.55-6.41-9.03-10.75-15.98-10.53-9.73,0-17.6,7.78-17.6,17.39v.46c-.23,9.84,7.64,17.85,17.6,17.85h.23c7.18,0,13.44-4.35,15.98-10.98l9.96,4.12c-4.17,10.53-14.59,17.39-26.17,16.93-15.52.23-28.26-11.9-28.49-27.23.23-.23.23-.46.23-.69Z"/>
      <path class="cls-1" d="M332.5,60.13c0-15.56,12.74-27.92,28.49-27.92s28.26,12.59,28.26,28.15-12.74,27.92-28.26,27.92-28.26-12.36-28.26-27.69c-.23-.23-.23-.46-.23-.46ZM378.36,60.13c-.23-9.61-8.57-16.93-18.07-16.7-9.5.23-17.14,8.47-16.91,17.85.23,9.38,8.11,16.7,17.37,16.7,9.73,0,17.6-8.01,17.6-17.85Z"/>
      <path class="cls-1" d="M399.44,33.36h10.65v6.18c3.71-4.81,9.26-7.55,15.52-7.32,8.57,0,14.36,3.66,17.37,9.38,3.71-6.18,10.42-9.61,17.6-9.38,14.82,0,21.77,8.92,21.77,22.65v32.04h-11.12v-31.35c0-8.47-3.71-13.73-12.28-13.73-7.88,0-12.74,5.03-12.74,14.87v30.43h-10.89v-32.26c0-8.24-3.71-13.27-12.05-13.27s-12.97,5.26-12.97,15.33v29.98h-10.89v-53.55Z"/>
      <path class="cls-1" d="M505.53,79.81v28.6h-10.42V33.36h10.65v8.01c4.4-5.72,11.35-9.15,18.76-9.15,14.36,0,27.1,10.98,27.1,27.92.46,14.87-11.35,27.46-26.41,28.15h-.93c-7.18.23-14.13-2.75-18.76-8.47ZM540.51,60.13c-.23-9.84-8.57-17.39-18.53-17.16-9.96.23-17.6,8.47-17.37,18.31.23,9.61,8.34,17.16,18.07,17.16s17.84-8.01,17.84-17.85v-.46Z"/>
      <path class="cls-1" d="M559.27,72.26c0-10.98,9.26-17.85,24.55-17.85h16.21v-.92c0-7.09-4.4-12.13-14.13-12.13-6.49-.23-12.51,3.2-15.75,8.7l-9.73-5.49c6.02-8.01,15.52-12.59,25.48-12.36,15.52,0,24.55,8.47,24.55,21.51v33.18h-10.42v-9.38c-4.86,6.86-12.97,10.98-21.54,10.75-12.51,0-19.23-6.86-19.23-16.02ZM600.04,67.46v-4.35h-15.52c-10.19,0-14.13,2.97-14.13,8.47,0,4.58,3.24,7.55,10.42,7.55,8.11-.23,15.52-4.58,19.23-11.67Z"/>
      <path class="cls-1" d="M618.34,76.38l9.73-5.49c3.01,5.03,8.8,8.24,14.82,8.01,6.95,0,10.65-3.43,10.65-7.55,0-4.58-6.72-5.72-13.9-7.32-9.26-1.83-18.99-4.81-18.99-15.79,0-8.47,8.11-16.02,20.85-16.02,10.19,0,17.14,3.66,21.78,10.07l-9.27,5.26c-2.78-4.12-7.41-6.64-12.51-6.41-6.72,0-9.96,2.97-9.96,6.86,0,4.35,4.86,5.26,13.2,7.09,9.03,1.83,19.46,5.03,19.46,16.02,0,7.78-7.18,17.16-22.23,16.93-11.12.23-18.99-4.12-23.63-11.67Z"/>
      <path class="cls-1" d="M670,76.38l9.73-5.49c3.01,5.03,8.8,8.24,14.83,8.01,6.95,0,10.89-3.43,10.89-7.55,0-4.58-6.72-5.72-13.9-7.32-9.26-1.83-18.99-4.81-18.99-15.79,0-8.47,8.11-16.02,20.85-16.02,10.19,0,17.14,3.66,21.78,10.07l-9.27,5.26c-2.78-4.12-7.41-6.64-12.51-6.41-6.72,0-9.96,2.97-9.96,6.86,0,4.35,4.86,5.26,13.2,7.09,9.03,1.83,19.46,5.03,19.46,16.02,0,7.78-7.18,17.16-22.24,16.93-11.12.23-19.23-4.12-23.86-11.67Z"/>
    </g>
  </g>
</svg>