<svg width="481" height="135" viewBox="0 0 481 135" fill="none" xmlns="http://www.w3.org/2000/svg">
<path d="M103.572 0C120.515 0.000257523 134.25 13.7358 134.25 30.6787V103.572C134.25 120.515 120.515 134.25 103.572 134.25H30.6787C13.7358 134.25 0.000257538 120.515 0 103.572V30.6787C0 13.7356 13.7356 0 30.6787 0H103.572ZM51.3926 19.9277C42.7038 19.9277 35.6602 26.9714 35.6602 35.6602C35.6602 44.2131 42.4853 51.1722 50.9863 51.3877L51.3926 51.3926C42.7038 51.3926 35.6602 58.4362 35.6602 67.125C35.6602 75.8138 42.7038 82.8574 51.3926 82.8574C42.7038 82.8574 35.6602 89.9011 35.6602 98.5898C35.6602 107.279 42.7038 114.322 51.3926 114.322C60.0814 114.322 67.125 107.279 67.125 98.5898V69.1631C68.1244 76.889 74.7285 82.8574 82.7266 82.8574C91.4152 82.8573 98.459 75.8137 98.459 67.125C98.459 58.4363 91.4152 51.3927 82.7266 51.3926C74.7288 51.3926 68.1248 57.3605 67.125 65.0859V51.3926H82.8574C91.5462 51.3926 98.5898 44.3489 98.5898 35.6602C98.5898 26.9714 91.5462 19.9277 82.8574 19.9277H51.3926Z" fill="black"/>
<path d="M450.994 113.415C446.858 113.415 443.143 112.616 439.851 111.016C436.644 109.417 434.069 107.27 432.127 104.576C430.27 101.798 429.342 98.5994 429.342 94.9797C429.342 90.2655 430.861 86.4353 433.9 83.489C436.939 80.5427 441.286 78.5223 446.942 77.428L461.757 74.3975C464.711 73.8082 466.737 72.8822 467.835 71.6195C468.932 70.3568 469.481 68.5048 469.481 66.0636L471 80.8373L449.728 85.383C446.858 85.9723 444.621 87.0246 443.017 88.5398C441.497 90.0551 440.738 92.1596 440.738 94.8534C440.738 97.6314 441.793 99.8621 443.903 101.546C446.098 103.229 449.052 104.071 452.767 104.071C455.806 104.071 458.591 103.398 461.124 102.051C463.74 100.704 465.766 98.852 467.201 96.4949C468.721 94.0537 469.481 91.2757 469.481 88.161V66.0636C469.481 63.0331 468.383 60.676 466.189 58.9924C464.078 57.2246 461.166 56.3407 457.452 56.3407C452.724 56.3407 449.095 57.5192 446.562 59.8763C444.03 62.2333 442.553 65.5585 442.131 69.8517L430.988 68.3364C431.41 63.8749 432.761 60.0446 435.04 56.8458C437.319 53.5627 440.358 51.0373 444.156 49.2695C447.955 47.5017 452.471 46.6178 457.705 46.6178C465.133 46.6178 470.831 48.5119 474.799 52.3C478.766 56.0881 480.75 60.9706 480.75 66.9475V111.521H469.734V103.314C468.637 106.092 466.4 108.491 463.023 110.511C459.731 112.447 455.721 113.415 450.994 113.415Z" fill="black"/>
<path d="M339.562 111.521V48.5119H350.578V55.5831C351.422 53.1418 353.279 51.0373 356.149 49.2695C359.019 47.5017 362.353 46.6178 366.152 46.6178C369.866 46.6178 373.285 47.4175 376.408 49.0169C379.532 50.6164 381.557 53.0155 382.486 56.2144C383.583 53.2681 385.609 50.9531 388.564 49.2695C391.603 47.5017 394.979 46.6178 398.694 46.6178C405.109 46.6178 410.005 48.4698 413.382 52.1737C416.758 55.8777 418.446 61.2653 418.446 68.3364V111.521H407.177V69.8517C407.177 65.6427 406.249 62.4859 404.391 60.3814C402.619 58.1927 400.002 57.0983 396.541 57.0983C392.742 57.0983 389.788 58.4452 387.678 61.139C385.652 63.7486 384.639 67.5788 384.639 72.6297V111.521H373.369V69.8517C373.369 65.6427 372.441 62.4859 370.584 60.3814C368.811 58.1927 366.194 57.0983 362.733 57.0983C358.935 57.0983 355.98 58.4452 353.87 61.139C351.844 63.7486 350.831 67.5788 350.831 72.6297V111.521H339.562Z" fill="black"/>
<path d="M296.472 134.25C288.621 134.25 282.248 132.44 277.352 128.82C272.456 125.201 269.333 120.15 267.982 113.668L278.998 111.269C279.927 115.394 281.91 118.592 284.949 120.865C287.988 123.222 291.829 124.401 296.472 124.401C302.043 124.401 306.222 122.97 309.007 120.108C311.877 117.33 313.312 113.163 313.312 107.607V97.6314C312.046 100.746 309.683 103.271 306.222 105.208C302.845 107.144 299.046 108.112 294.826 108.112C289.254 108.112 284.358 106.849 280.138 104.324C275.917 101.714 272.625 98.0944 270.261 93.4644C267.898 88.8345 266.716 83.489 266.716 77.428C266.716 71.2828 267.898 65.8952 270.261 61.2653C272.625 56.6353 275.875 53.0576 280.011 50.5322C284.232 47.9226 289.17 46.6178 294.826 46.6178C299.046 46.6178 302.887 47.5859 306.348 49.522C309.894 51.374 312.299 53.689 313.566 56.4669V48.5119H324.582V107.607C324.582 113.163 323.484 117.919 321.289 121.875C319.095 125.916 315.887 128.989 311.666 131.093C307.53 133.198 302.465 134.25 296.472 134.25ZM296.219 98.1364C301.621 98.1364 305.926 96.2424 309.134 92.4542C312.426 88.6661 314.072 83.6573 314.072 77.428C314.072 71.1144 312.426 66.0636 309.134 62.2754C305.842 58.4873 301.537 56.5932 296.219 56.5932C290.816 56.5932 286.469 58.4873 283.177 62.2754C279.969 66.0636 278.365 71.1144 278.365 77.428C278.365 83.6573 280.011 88.6661 283.303 92.4542C286.595 96.2424 290.9 98.1364 296.219 98.1364Z" fill="black"/>
<path d="M243.973 111.521V48.5119H255.243V111.521H243.973ZM243.847 40.4305V22.5H255.369V40.4305H243.847Z" fill="black"/>
<path d="M179.25 111.521V22.5H191.152V111.521H179.25ZM181.656 73.8924V63.1593H230.152V73.8924H181.656ZM181.656 33.3593V22.5H234.837V33.3593H181.656Z" fill="black"/>
</svg>
