<svg id="eFfkiDnjSIZ1" xmlns="http://www.w3.org/2000/svg" xmlns:xlink="http://www.w3.org/1999/xlink" viewBox="0 0 472 308" shape-rendering="geometricPrecision" text-rendering="geometricPrecision" project-id="ac9606a9cd76403f80989dc3bc1df945" export-id="8213d158e06c4560af38bc03c4a93075" cached="false" width="472" height="308"><g transform="matrix(0.618502 0 0 0.613814 -33.825311 128.263791)"><rect width="111.69721" height="283.773604" rx="0" ry="0" transform="matrix(1 0 0 1.012343 26.037201 20.723778)" fill="#11151e" stroke-width="0"/><g transform="translate(0 0.000001)"><g transform="translate(0.000001 0)"><g transform="translate(67.175918 -4.918873)"><rect width="31.318668" height="32.471502" rx="0" ry="0" transform="matrix(0.9 0 0 1 34.070601 30.099788)" fill="#402a01" stroke-width="0"/><rect width="31.318668" height="32.471502" rx="0" ry="0" transform="matrix(0.727633 0 0 0.807722 36.769754 33.221566)" fill="#ec9b00" stroke-width="0"/></g><g transform="translate(33.721803 -4.918872)"><rect width="31.318668" height="32.471502" rx="0" ry="0" transform="matrix(0.9 0 0 1 34.070601 30.099788)" fill="#402a01" stroke-width="0"/><rect width="31.318668" height="32.471502" rx="0" ry="0" transform="matrix(0.727633 0 0 0.807722 36.769754 33.221566)" fill="#ec9b00" stroke-width="0"/></g><g transform="translate(-1.494806 -4.918873)"><rect width="31.318668" height="32.471502" rx="0" ry="0" transform="matrix(0.9 0 0 1 34.070601 30.099788)" fill="#402a01" stroke-width="0"/><rect width="31.318668" height="32.471502" rx="0" ry="0" transform="matrix(0.727633 0 0 0.807722 36.769754 33.221566)" fill="#ec9b00" stroke-width="0"/></g></g><rect width="112.155776" height="5.504578" rx="0" ry="0" transform="translate(26.037201 62.427428)" fill="#090909" stroke-width="0"/></g><g transform="translate(-0.458567 49.724791)"><g transform="translate(0.000001 0)"><g transform="translate(67.175918 -4.918873)"><rect width="31.318668" height="32.471502" rx="0" ry="0" transform="matrix(0.9 0 0 1 34.070601 30.099788)" fill="#402a01" stroke-width="0"/><rect width="31.318668" height="32.471502" rx="0" ry="0" transform="matrix(0.727633 0 0 0.807722 36.769754 33.221566)" fill="#ec9b00" stroke-width="0"/></g><g transform="translate(33.721803 -4.918872)"><rect width="31.318668" height="32.471502" rx="0" ry="0" transform="matrix(0.9 0 0 1 34.070601 30.099788)" fill="#402a01" stroke-width="0"/><rect width="31.318668" height="32.471502" rx="0" ry="0" transform="matrix(0.727633 0 0 0.807722 36.769754 33.221566)" fill="#ec9b00" stroke-width="0"/></g><g transform="translate(-1.494806 -4.918873)"><rect width="31.318668" height="32.471502" rx="0" ry="0" transform="matrix(0.9 0 0 1 34.070601 30.099788)" fill="#402a01" stroke-width="0"/><rect width="31.318668" height="32.471502" rx="0" ry="0" transform="matrix(0.727633 0 0 0.807722 36.769754 33.221566)" fill="#ec9b00" stroke-width="0"/></g></g><rect width="112.155776" height="5.504578" rx="0" ry="0" transform="translate(26.037201 62.427428)" fill="#090909" stroke-width="0"/></g><g transform="translate(0 96.429882)"><g transform="translate(0.000001 0)"><g transform="translate(67.175918 -4.918873)"><rect width="31.318668" height="32.471502" rx="0" ry="0" transform="matrix(0.9 0 0 1 34.070601 30.099788)" fill="#402a01" stroke-width="0"/><rect width="31.318668" height="32.471502" rx="0" ry="0" transform="matrix(0.727633 0 0 0.807722 36.769754 33.221566)" fill="#ec9b00" stroke-width="0"/></g><g transform="translate(33.721803 -4.918872)"><rect width="31.318668" height="32.471502" rx="0" ry="0" transform="matrix(0.9 0 0 1 34.070601 30.099788)" fill="#402a01" stroke-width="0"/><rect width="31.318668" height="32.471502" rx="0" ry="0" transform="matrix(0.727633 0 0 0.807722 36.769754 33.221566)" fill="#ec9b00" stroke-width="0"/></g><g transform="translate(-1.494806 -4.918873)"><rect width="31.318668" height="32.471502" rx="0" ry="0" transform="matrix(0.9 0 0 1 34.070601 30.099788)" fill="#402a01" stroke-width="0"/><rect width="31.318668" height="32.471502" rx="0" ry="0" transform="matrix(0.727633 0 0 0.807722 36.769754 33.221566)" fill="#ec9b00" stroke-width="0"/></g></g><rect width="112.155776" height="5.504578" rx="0" ry="0" transform="translate(26.037201 62.427428)" fill="#090909" stroke-width="0"/></g><g transform="translate(-0.687851 143.747288)"><g transform="translate(0.000001 0)"><g transform="translate(67.175918 -4.918873)"><rect width="31.318668" height="32.471502" rx="0" ry="0" transform="matrix(0.9 0 0 1 34.070601 30.099788)" fill="#402a01" stroke-width="0"/><rect width="31.318668" height="32.471502" rx="0" ry="0" transform="matrix(0.727633 0 0 0.807722 36.769754 33.221566)" fill="#ec9b00" stroke-width="0"/></g><g transform="translate(33.721803 -4.918872)"><rect width="31.318668" height="32.471502" rx="0" ry="0" transform="matrix(0.9 0 0 1 34.070601 30.099788)" fill="#402a01" stroke-width="0"/><rect width="31.318668" height="32.471502" rx="0" ry="0" transform="matrix(0.727633 0 0 0.807722 36.769754 33.221566)" fill="#ec9b00" stroke-width="0"/></g><g transform="translate(-1.494806 -4.918873)"><rect width="31.318668" height="32.471502" rx="0" ry="0" transform="matrix(0.9 0 0 1 34.070601 30.099788)" fill="#402a01" stroke-width="0"/><rect width="31.318668" height="32.471502" rx="0" ry="0" transform="matrix(0.727633 0 0 0.807722 36.769754 33.221566)" fill="#ec9b00" stroke-width="0"/></g></g><rect width="112.155776" height="5.504578" rx="0" ry="0" transform="translate(26.037201 62.427428)" fill="#090909" stroke-width="0"/></g><g transform="translate(-0.687852 190.584186)"><g transform="translate(0.000001 0)"><g transform="translate(67.175918 -4.918873)"><rect width="31.318668" height="32.471502" rx="0" ry="0" transform="matrix(0.9 0 0 1 34.070601 30.099788)" fill="#402a01" stroke-width="0"/><rect width="31.318668" height="32.471502" rx="0" ry="0" transform="matrix(0.727633 0 0 0.807722 36.769754 33.221566)" fill="#ec9b00" stroke-width="0"/></g><g transform="translate(33.721803 -4.918872)"><rect width="31.318668" height="32.471502" rx="0" ry="0" transform="matrix(0.9 0 0 1 34.070601 30.099788)" fill="#402a01" stroke-width="0"/><rect width="31.318668" height="32.471502" rx="0" ry="0" transform="matrix(0.727633 0 0 0.807722 36.769754 33.221566)" fill="#ec9b00" stroke-width="0"/></g><g transform="translate(-1.494806 -4.918873)"><rect width="31.318668" height="32.471502" rx="0" ry="0" transform="matrix(0.9 0 0 1 34.070601 30.099788)" fill="#402a01" stroke-width="0"/><rect width="31.318668" height="32.471502" rx="0" ry="0" transform="matrix(0.727633 0 0 0.807722 36.769754 33.221566)" fill="#ec9b00" stroke-width="0"/></g></g><rect width="112.155776" height="5.504578" rx="0" ry="0" transform="translate(26.037201 62.427428)" fill="#090909" stroke-width="0"/></g><g transform="translate(-0.917135 240.067993)"><g transform="translate(0.000001 0)"><g transform="translate(67.175918 -4.918873)"><rect width="31.318668" height="32.471502" rx="0" ry="0" transform="matrix(0.9 0 0 1 34.070601 30.099788)" fill="#402a01" stroke-width="0"/><rect width="31.318668" height="32.471502" rx="0" ry="0" transform="matrix(0.727633 0 0 0.807722 36.769754 33.221566)" fill="#ec9b00" stroke-width="0"/></g><g transform="translate(33.721803 -4.918872)"><rect width="31.318668" height="32.471502" rx="0" ry="0" transform="matrix(0.9 0 0 1 34.070601 30.099788)" fill="#402a01" stroke-width="0"/><rect width="31.318668" height="32.471502" rx="0" ry="0" transform="matrix(0.727633 0 0 0.807722 36.769754 33.221566)" fill="#ec9b00" stroke-width="0"/></g><g transform="translate(-1.494806 -4.918873)"><rect width="31.318668" height="32.471502" rx="0" ry="0" transform="matrix(0.9 0 0 1 34.070601 30.099788)" fill="#402a01" stroke-width="0"/><rect width="31.318668" height="32.471502" rx="0" ry="0" transform="matrix(0.727633 0 0 0.807722 36.769754 33.221566)" fill="#ec9b00" stroke-width="0"/></g></g><rect width="112.155776" height="5.504578" rx="0" ry="0" transform="translate(26.037201 62.427428)" fill="#090909" stroke-width="0"/></g></g><g transform="translate(-1.306303 24.725393)"><polygon points="0,-64.530103 55.884709,32.265051 -55.884709,32.265051 0,-64.530103" transform="matrix(-0.003541 0.289374 -0.704861 -0.008625 89.620609 212.425942)" fill="#11151e" stroke-width="0"/><g transform="matrix(0.611854 0 0 0.613814 50.947259 200.155405)"><rect width="111.69721" height="283.773604" rx="0" ry="0" transform="matrix(1 0 0 1.012343 26.037201 20.723778)" fill="#11151e" stroke-width="0"/><g transform="translate(0 0.000001)"><g transform="translate(0.000001 0)"><g transform="translate(67.175918 -4.918873)"><rect width="31.318668" height="32.471502" rx="0" ry="0" transform="matrix(0.9 0 0 1 34.070601 30.099788)" fill="#402a01" stroke-width="0"/><rect width="31.318668" height="32.471502" rx="0" ry="0" transform="matrix(0.727633 0 0 0.807722 36.769754 33.221566)" fill="#ec9b00" stroke-width="0"/></g><g transform="translate(33.721803 -4.918872)"><rect width="31.318668" height="32.471502" rx="0" ry="0" transform="matrix(0.9 0 0 1 34.070601 30.099788)" fill="#402a01" stroke-width="0"/><rect width="31.318668" height="32.471502" rx="0" ry="0" transform="matrix(0.727633 0 0 0.807722 36.769754 33.221566)" fill="#ec9b00" stroke-width="0"/></g><g transform="translate(-1.494806 -4.918873)"><rect width="31.318668" height="32.471502" rx="0" ry="0" transform="matrix(0.9 0 0 1 34.070601 30.099788)" fill="#402a01" stroke-width="0"/><rect width="31.318668" height="32.471502" rx="0" ry="0" transform="matrix(0.727633 0 0 0.807722 36.769754 33.221566)" fill="#ec9b00" stroke-width="0"/></g></g><rect width="112.155776" height="5.504578" rx="0" ry="0" transform="translate(26.037201 62.427428)" fill="#090909" stroke-width="0"/></g><g transform="translate(-0.458567 49.724791)"><g transform="translate(0.000001 0)"><g transform="translate(67.175918 -4.918873)"><rect width="31.318668" height="32.471502" rx="0" ry="0" transform="matrix(0.9 0 0 1 34.070601 30.099788)" fill="#402a01" stroke-width="0"/><rect width="31.318668" height="32.471502" rx="0" ry="0" transform="matrix(0.727633 0 0 0.807722 36.769754 33.221566)" fill="#ec9b00" stroke-width="0"/></g><g transform="translate(33.721803 -4.918872)"><rect width="31.318668" height="32.471502" rx="0" ry="0" transform="matrix(0.9 0 0 1 34.070601 30.099788)" fill="#402a01" stroke-width="0"/><rect width="31.318668" height="32.471502" rx="0" ry="0" transform="matrix(0.727633 0 0 0.807722 36.769754 33.221566)" fill="#ec9b00" stroke-width="0"/></g><g transform="translate(-1.494806 -4.918873)"><rect width="31.318668" height="32.471502" rx="0" ry="0" transform="matrix(0.9 0 0 1 34.070601 30.099788)" fill="#402a01" stroke-width="0"/><rect width="31.318668" height="32.471502" rx="0" ry="0" transform="matrix(0.727633 0 0 0.807722 36.769754 33.221566)" fill="#ec9b00" stroke-width="0"/></g></g><rect width="112.155776" height="5.504578" rx="0" ry="0" transform="translate(26.037201 62.427428)" fill="#090909" stroke-width="0"/></g><g transform="translate(0 96.429882)"><g transform="translate(0.000001 0)"><g transform="translate(67.175918 -4.918873)"><rect width="31.318668" height="32.471502" rx="0" ry="0" transform="matrix(0.9 0 0 1 34.070601 30.099788)" fill="#402a01" stroke-width="0"/><rect width="31.318668" height="32.471502" rx="0" ry="0" transform="matrix(0.727633 0 0 0.807722 36.769754 33.221566)" fill="#ec9b00" stroke-width="0"/></g><g transform="translate(33.721803 -4.918872)"><rect width="31.318668" height="32.471502" rx="0" ry="0" transform="matrix(0.9 0 0 1 34.070601 30.099788)" fill="#402a01" stroke-width="0"/><rect width="31.318668" height="32.471502" rx="0" ry="0" transform="matrix(0.727633 0 0 0.807722 36.769754 33.221566)" fill="#ec9b00" stroke-width="0"/></g><g transform="translate(-1.494806 -4.918873)"><rect width="31.318668" height="32.471502" rx="0" ry="0" transform="matrix(0.9 0 0 1 34.070601 30.099788)" fill="#402a01" stroke-width="0"/><rect width="31.318668" height="32.471502" rx="0" ry="0" transform="matrix(0.727633 0 0 0.807722 36.769754 33.221566)" fill="#ec9b00" stroke-width="0"/></g></g><rect width="112.155776" height="5.504578" rx="0" ry="0" transform="translate(26.037201 62.427428)" fill="#090909" stroke-width="0"/></g><g transform="translate(-0.687851 143.747288)"><g transform="translate(0.000001 0)"><g transform="translate(67.175918 -4.918873)"><rect width="31.318668" height="32.471502" rx="0" ry="0" transform="matrix(0.9 0 0 1 34.070601 30.099788)" fill="#402a01" stroke-width="0"/><rect width="31.318668" height="32.471502" rx="0" ry="0" transform="matrix(0.727633 0 0 0.807722 36.769754 33.221566)" fill="#ec9b00" stroke-width="0"/></g><g transform="translate(33.721803 -4.918872)"><rect width="31.318668" height="32.471502" rx="0" ry="0" transform="matrix(0.9 0 0 1 34.070601 30.099788)" fill="#402a01" stroke-width="0"/><rect width="31.318668" height="32.471502" rx="0" ry="0" transform="matrix(0.727633 0 0 0.807722 36.769754 33.221566)" fill="#ec9b00" stroke-width="0"/></g><g transform="translate(-1.494806 -4.918873)"><rect width="31.318668" height="32.471502" rx="0" ry="0" transform="matrix(0.9 0 0 1 34.070601 30.099788)" fill="#402a01" stroke-width="0"/><rect width="31.318668" height="32.471502" rx="0" ry="0" transform="matrix(0.727633 0 0 0.807722 36.769754 33.221566)" fill="#ec9b00" stroke-width="0"/></g></g><rect width="112.155776" height="5.504578" rx="0" ry="0" transform="translate(26.037201 62.427428)" fill="#090909" stroke-width="0"/></g><g transform="translate(-0.687852 190.584186)"><g transform="translate(0.000001 0)"><g transform="translate(67.175918 -4.918873)"><rect width="31.318668" height="32.471502" rx="0" ry="0" transform="matrix(0.9 0 0 1 34.070601 30.099788)" fill="#402a01" stroke-width="0"/><rect width="31.318668" height="32.471502" rx="0" ry="0" transform="matrix(0.727633 0 0 0.807722 36.769754 33.221566)" fill="#ec9b00" stroke-width="0"/></g><g transform="translate(33.721803 -4.918872)"><rect width="31.318668" height="32.471502" rx="0" ry="0" transform="matrix(0.9 0 0 1 34.070601 30.099788)" fill="#402a01" stroke-width="0"/><rect width="31.318668" height="32.471502" rx="0" ry="0" transform="matrix(0.727633 0 0 0.807722 36.769754 33.221566)" fill="#ec9b00" stroke-width="0"/></g><g transform="translate(-1.494806 -4.918873)"><rect width="31.318668" height="32.471502" rx="0" ry="0" transform="matrix(0.9 0 0 1 34.070601 30.099788)" fill="#402a01" stroke-width="0"/><rect width="31.318668" height="32.471502" rx="0" ry="0" transform="matrix(0.727633 0 0 0.807722 36.769754 33.221566)" fill="#ec9b00" stroke-width="0"/></g></g><rect width="112.155776" height="5.504578" rx="0" ry="0" transform="translate(26.037201 62.427428)" fill="#090909" stroke-width="0"/></g><g transform="translate(-0.917135 240.067993)"><g transform="translate(0.000001 0)"><g transform="translate(67.175918 -4.918873)"><rect width="31.318668" height="32.471502" rx="0" ry="0" transform="matrix(0.9 0 0 1 34.070601 30.099788)" fill="#402a01" stroke-width="0"/><rect width="31.318668" height="32.471502" rx="0" ry="0" transform="matrix(0.727633 0 0 0.807722 36.769754 33.221566)" fill="#ec9b00" stroke-width="0"/></g><g transform="translate(33.721803 -4.918872)"><rect width="31.318668" height="32.471502" rx="0" ry="0" transform="matrix(0.9 0 0 1 34.070601 30.099788)" fill="#402a01" stroke-width="0"/><rect width="31.318668" height="32.471502" rx="0" ry="0" transform="matrix(0.727633 0 0 0.807722 36.769754 33.221566)" fill="#ec9b00" stroke-width="0"/></g><g transform="translate(-1.494806 -4.918873)"><rect width="31.318668" height="32.471502" rx="0" ry="0" transform="matrix(0.9 0 0 1 34.070601 30.099788)" fill="#402a01" stroke-width="0"/><rect width="31.318668" height="32.471502" rx="0" ry="0" transform="matrix(0.727633 0 0 0.807722 36.769754 33.221566)" fill="#ec9b00" stroke-width="0"/></g></g><rect width="112.155776" height="5.504578" rx="0" ry="0" transform="translate(26.037201 62.427428)" fill="#090909" stroke-width="0"/></g></g></g><g transform="matrix(-1 0 0 1 427.751216 58.840644)"><polygon points="0,-64.530103 55.884709,32.265051 -55.884709,32.265051 0,-64.530103" transform="matrix(-0.003541 0.289374 -0.704861 -0.008625 89.620609 212.425942)" fill="#11151e" stroke-width="0"/><g transform="matrix(0.611854 0 0 0.613814 50.947259 200.155405)"><rect width="111.69721" height="283.773604" rx="0" ry="0" transform="matrix(1 0 0 1.012343 26.037201 20.723778)" fill="#11151e" stroke-width="0"/><g transform="translate(0 0.000001)"><g transform="translate(0.000001 0)"><g transform="translate(67.175918 -4.918873)"><rect width="31.318668" height="32.471502" rx="0" ry="0" transform="matrix(0.9 0 0 1 34.070601 30.099788)" fill="#402a01" stroke-width="0"/><rect width="31.318668" height="32.471502" rx="0" ry="0" transform="matrix(0.727633 0 0 0.807722 36.769754 33.221566)" fill="#ec9b00" stroke-width="0"/></g><g transform="translate(33.721803 -4.918872)"><rect width="31.318668" height="32.471502" rx="0" ry="0" transform="matrix(0.9 0 0 1 34.070601 30.099788)" fill="#402a01" stroke-width="0"/><rect width="31.318668" height="32.471502" rx="0" ry="0" transform="matrix(0.727633 0 0 0.807722 36.769754 33.221566)" fill="#ec9b00" stroke-width="0"/></g><g transform="translate(-1.494806 -4.918873)"><rect width="31.318668" height="32.471502" rx="0" ry="0" transform="matrix(0.9 0 0 1 34.070601 30.099788)" fill="#402a01" stroke-width="0"/><rect width="31.318668" height="32.471502" rx="0" ry="0" transform="matrix(0.727633 0 0 0.807722 36.769754 33.221566)" fill="#ec9b00" stroke-width="0"/></g></g><rect width="112.155776" height="5.504578" rx="0" ry="0" transform="translate(26.037201 62.427428)" fill="#090909" stroke-width="0"/></g><g transform="translate(-0.458567 49.724791)"><g transform="translate(0.000001 0)"><g transform="translate(67.175918 -4.918873)"><rect width="31.318668" height="32.471502" rx="0" ry="0" transform="matrix(0.9 0 0 1 34.070601 30.099788)" fill="#402a01" stroke-width="0"/><rect width="31.318668" height="32.471502" rx="0" ry="0" transform="matrix(0.727633 0 0 0.807722 36.769754 33.221566)" fill="#ec9b00" stroke-width="0"/></g><g transform="translate(33.721803 -4.918872)"><rect width="31.318668" height="32.471502" rx="0" ry="0" transform="matrix(0.9 0 0 1 34.070601 30.099788)" fill="#402a01" stroke-width="0"/><rect width="31.318668" height="32.471502" rx="0" ry="0" transform="matrix(0.727633 0 0 0.807722 36.769754 33.221566)" fill="#ec9b00" stroke-width="0"/></g><g transform="translate(-1.494806 -4.918873)"><rect width="31.318668" height="32.471502" rx="0" ry="0" transform="matrix(0.9 0 0 1 34.070601 30.099788)" fill="#402a01" stroke-width="0"/><rect width="31.318668" height="32.471502" rx="0" ry="0" transform="matrix(0.727633 0 0 0.807722 36.769754 33.221566)" fill="#ec9b00" stroke-width="0"/></g></g><rect width="112.155776" height="5.504578" rx="0" ry="0" transform="translate(26.037201 62.427428)" fill="#090909" stroke-width="0"/></g><g transform="translate(0 96.429882)"><g transform="translate(0.000001 0)"><g transform="translate(67.175918 -4.918873)"><rect width="31.318668" height="32.471502" rx="0" ry="0" transform="matrix(0.9 0 0 1 34.070601 30.099788)" fill="#402a01" stroke-width="0"/><rect width="31.318668" height="32.471502" rx="0" ry="0" transform="matrix(0.727633 0 0 0.807722 36.769754 33.221566)" fill="#ec9b00" stroke-width="0"/></g><g transform="translate(33.721803 -4.918872)"><rect width="31.318668" height="32.471502" rx="0" ry="0" transform="matrix(0.9 0 0 1 34.070601 30.099788)" fill="#402a01" stroke-width="0"/><rect width="31.318668" height="32.471502" rx="0" ry="0" transform="matrix(0.727633 0 0 0.807722 36.769754 33.221566)" fill="#ec9b00" stroke-width="0"/></g><g transform="translate(-1.494806 -4.918873)"><rect width="31.318668" height="32.471502" rx="0" ry="0" transform="matrix(0.9 0 0 1 34.070601 30.099788)" fill="#402a01" stroke-width="0"/><rect width="31.318668" height="32.471502" rx="0" ry="0" transform="matrix(0.727633 0 0 0.807722 36.769754 33.221566)" fill="#ec9b00" stroke-width="0"/></g></g><rect width="112.155776" height="5.504578" rx="0" ry="0" transform="translate(26.037201 62.427428)" fill="#090909" stroke-width="0"/></g><g transform="translate(-0.687851 143.747288)"><g transform="translate(0.000001 0)"><g transform="translate(67.175918 -4.918873)"><rect width="31.318668" height="32.471502" rx="0" ry="0" transform="matrix(0.9 0 0 1 34.070601 30.099788)" fill="#402a01" stroke-width="0"/><rect width="31.318668" height="32.471502" rx="0" ry="0" transform="matrix(0.727633 0 0 0.807722 36.769754 33.221566)" fill="#ec9b00" stroke-width="0"/></g><g transform="translate(33.721803 -4.918872)"><rect width="31.318668" height="32.471502" rx="0" ry="0" transform="matrix(0.9 0 0 1 34.070601 30.099788)" fill="#402a01" stroke-width="0"/><rect width="31.318668" height="32.471502" rx="0" ry="0" transform="matrix(0.727633 0 0 0.807722 36.769754 33.221566)" fill="#ec9b00" stroke-width="0"/></g><g transform="translate(-1.494806 -4.918873)"><rect width="31.318668" height="32.471502" rx="0" ry="0" transform="matrix(0.9 0 0 1 34.070601 30.099788)" fill="#402a01" stroke-width="0"/><rect width="31.318668" height="32.471502" rx="0" ry="0" transform="matrix(0.727633 0 0 0.807722 36.769754 33.221566)" fill="#ec9b00" stroke-width="0"/></g></g><rect width="112.155776" height="5.504578" rx="0" ry="0" transform="translate(26.037201 62.427428)" fill="#090909" stroke-width="0"/></g><g transform="translate(-0.687852 190.584186)"><g transform="translate(0.000001 0)"><g transform="translate(67.175918 -4.918873)"><rect width="31.318668" height="32.471502" rx="0" ry="0" transform="matrix(0.9 0 0 1 34.070601 30.099788)" fill="#402a01" stroke-width="0"/><rect width="31.318668" height="32.471502" rx="0" ry="0" transform="matrix(0.727633 0 0 0.807722 36.769754 33.221566)" fill="#ec9b00" stroke-width="0"/></g><g transform="translate(33.721803 -4.918872)"><rect width="31.318668" height="32.471502" rx="0" ry="0" transform="matrix(0.9 0 0 1 34.070601 30.099788)" fill="#402a01" stroke-width="0"/><rect width="31.318668" height="32.471502" rx="0" ry="0" transform="matrix(0.727633 0 0 0.807722 36.769754 33.221566)" fill="#ec9b00" stroke-width="0"/></g><g transform="translate(-1.494806 -4.918873)"><rect width="31.318668" height="32.471502" rx="0" ry="0" transform="matrix(0.9 0 0 1 34.070601 30.099788)" fill="#402a01" stroke-width="0"/><rect width="31.318668" height="32.471502" rx="0" ry="0" transform="matrix(0.727633 0 0 0.807722 36.769754 33.221566)" fill="#ec9b00" stroke-width="0"/></g></g><rect width="112.155776" height="5.504578" rx="0" ry="0" transform="translate(26.037201 62.427428)" fill="#090909" stroke-width="0"/></g><g transform="translate(-0.917135 240.067993)"><g transform="translate(0.000001 0)"><g transform="translate(67.175918 -4.918873)"><rect width="31.318668" height="32.471502" rx="0" ry="0" transform="matrix(0.9 0 0 1 34.070601 30.099788)" fill="#402a01" stroke-width="0"/><rect width="31.318668" height="32.471502" rx="0" ry="0" transform="matrix(0.727633 0 0 0.807722 36.769754 33.221566)" fill="#ec9b00" stroke-width="0"/></g><g transform="translate(33.721803 -4.918872)"><rect width="31.318668" height="32.471502" rx="0" ry="0" transform="matrix(0.9 0 0 1 34.070601 30.099788)" fill="#402a01" stroke-width="0"/><rect width="31.318668" height="32.471502" rx="0" ry="0" transform="matrix(0.727633 0 0 0.807722 36.769754 33.221566)" fill="#ec9b00" stroke-width="0"/></g><g transform="translate(-1.494806 -4.918873)"><rect width="31.318668" height="32.471502" rx="0" ry="0" transform="matrix(0.9 0 0 1 34.070601 30.099788)" fill="#402a01" stroke-width="0"/><rect width="31.318668" height="32.471502" rx="0" ry="0" transform="matrix(0.727633 0 0 0.807722 36.769754 33.221566)" fill="#ec9b00" stroke-width="0"/></g></g><rect width="112.155776" height="5.504578" rx="0" ry="0" transform="translate(26.037201 62.427428)" fill="#090909" stroke-width="0"/></g></g></g><g transform="matrix(0.618502 0 0 0.613814 360.454718 138.229537)"><rect width="111.69721" height="283.773604" rx="0" ry="0" transform="matrix(1 0 0 1.602233 25.120066 -136.19426)" fill="#11151e" stroke-width="0"/><g transform="matrix(1 0 0 0.971152 -1.375702 -53.905393)"><g transform="translate(0.000001 0)"><g transform="translate(67.175918 -4.918873)"><rect width="31.318668" height="32.471502" rx="0" ry="0" transform="matrix(0.9 0 0 1 34.070601 30.099788)" fill="#402a01" stroke-width="0"/><rect width="31.318668" height="32.471502" rx="0" ry="0" transform="matrix(0.727633 0 0 0.807722 36.769754 33.221566)" fill="#ec9b00" stroke-width="0"/></g><g transform="translate(33.721803 -4.918872)"><rect width="31.318668" height="32.471502" rx="0" ry="0" transform="matrix(0.9 0 0 1 34.070601 30.099788)" fill="#402a01" stroke-width="0"/><rect width="31.318668" height="32.471502" rx="0" ry="0" transform="matrix(0.727633 0 0 0.807722 36.769754 33.221566)" fill="#ec9b00" stroke-width="0"/></g><g transform="translate(-1.494806 -4.918873)"><rect width="31.318668" height="32.471502" rx="0" ry="0" transform="matrix(0.9 0 0 1 34.070601 30.099788)" fill="#402a01" stroke-width="0"/><rect width="31.318668" height="32.471502" rx="0" ry="0" transform="matrix(0.727633 0 0 0.807722 36.769754 33.221566)" fill="#ec9b00" stroke-width="0"/></g></g><rect width="112.155776" height="5.504578" rx="0" ry="0" transform="translate(26.037201 62.427428)" fill="#090909" stroke-width="0"/></g><g transform="translate(-1.833555 44.584995)"><g transform="translate(0.000001 0)"><g transform="translate(67.175918 -4.918873)"><rect width="31.318668" height="32.471502" rx="0" ry="0" transform="matrix(0.9 0 0 1 34.070601 30.099788)" fill="#402a01" stroke-width="0"/><rect width="31.318668" height="32.471502" rx="0" ry="0" transform="matrix(0.727633 0 0 0.807722 36.769754 33.221566)" fill="#ec9b00" stroke-width="0"/></g><g transform="translate(33.721803 -4.918872)"><rect width="31.318668" height="32.471502" rx="0" ry="0" transform="matrix(0.9 0 0 1 34.070601 30.099788)" fill="#402a01" stroke-width="0"/><rect width="31.318668" height="32.471502" rx="0" ry="0" transform="matrix(0.727633 0 0 0.807722 36.769754 33.221566)" fill="#ec9b00" stroke-width="0"/></g><g transform="translate(-1.494806 -4.918873)"><rect width="31.318668" height="32.471502" rx="0" ry="0" transform="matrix(0.9 0 0 1 34.070601 30.099788)" fill="#402a01" stroke-width="0"/><rect width="31.318668" height="32.471502" rx="0" ry="0" transform="matrix(0.727633 0 0 0.807722 36.769754 33.221566)" fill="#ec9b00" stroke-width="0"/></g></g><rect width="112.155776" height="5.504578" rx="0" ry="0" transform="translate(26.037201 62.427428)" fill="#090909" stroke-width="0"/></g><g transform="translate(-1.4295 96.429882)"><g transform="translate(0.000001 0)"><g transform="translate(67.175918 -4.918873)"><rect width="31.318668" height="32.471502" rx="0" ry="0" transform="matrix(0.9 0 0 1 34.070601 30.099788)" fill="#402a01" stroke-width="0"/><rect width="31.318668" height="32.471502" rx="0" ry="0" transform="matrix(0.727633 0 0 0.807722 36.769754 33.221566)" fill="#ec9b00" stroke-width="0"/></g><g transform="translate(33.721803 -4.918872)"><rect width="31.318668" height="32.471502" rx="0" ry="0" transform="matrix(0.9 0 0 1 34.070601 30.099788)" fill="#402a01" stroke-width="0"/><rect width="31.318668" height="32.471502" rx="0" ry="0" transform="matrix(0.727633 0 0 0.807722 36.769754 33.221566)" fill="#ec9b00" stroke-width="0"/></g><g transform="translate(-1.494806 -4.918873)"><rect width="31.318668" height="32.471502" rx="0" ry="0" transform="matrix(0.9 0 0 1 34.070601 30.099788)" fill="#402a01" stroke-width="0"/><rect width="31.318668" height="32.471502" rx="0" ry="0" transform="matrix(0.727633 0 0 0.807722 36.769754 33.221566)" fill="#ec9b00" stroke-width="0"/></g></g><rect width="112.155776" height="5.504578" rx="0" ry="0" transform="translate(26.037201 62.427428)" fill="#090909" stroke-width="0"/></g><g transform="translate(-1.375702 143.747288)"><g transform="translate(0.000001 0)"><g transform="translate(67.175918 -4.918873)"><rect width="31.318668" height="32.471502" rx="0" ry="0" transform="matrix(0.9 0 0 1 34.070601 30.099788)" fill="#402a01" stroke-width="0"/><rect width="31.318668" height="32.471502" rx="0" ry="0" transform="matrix(0.727633 0 0 0.807722 36.769754 33.221566)" fill="#ec9b00" stroke-width="0"/></g><g transform="translate(33.721803 -4.918872)"><rect width="31.318668" height="32.471502" rx="0" ry="0" transform="matrix(0.9 0 0 1 34.070601 30.099788)" fill="#402a01" stroke-width="0"/><rect width="31.318668" height="32.471502" rx="0" ry="0" transform="matrix(0.727633 0 0 0.807722 36.769754 33.221566)" fill="#ec9b00" stroke-width="0"/></g><g transform="translate(-1.494806 -4.918873)"><rect width="31.318668" height="32.471502" rx="0" ry="0" transform="matrix(0.9 0 0 1 34.070601 30.099788)" fill="#402a01" stroke-width="0"/><rect width="31.318668" height="32.471502" rx="0" ry="0" transform="matrix(0.727633 0 0 0.807722 36.769754 33.221566)" fill="#ec9b00" stroke-width="0"/></g></g><rect width="112.155776" height="5.504578" rx="0" ry="0" transform="translate(26.037201 62.427428)" fill="#090909" stroke-width="0"/></g><g transform="translate(-1.4295 190.584186)"><g transform="translate(0.000001 0)"><g transform="translate(67.175918 -4.918873)"><rect width="31.318668" height="32.471502" rx="0" ry="0" transform="matrix(0.9 0 0 1 34.070601 30.099788)" fill="#402a01" stroke-width="0"/><rect width="31.318668" height="32.471502" rx="0" ry="0" transform="matrix(0.727633 0 0 0.807722 36.769754 33.221566)" fill="#ec9b00" stroke-width="0"/></g><g transform="translate(33.721803 -4.918872)"><rect width="31.318668" height="32.471502" rx="0" ry="0" transform="matrix(0.9 0 0 1 34.070601 30.099788)" fill="#402a01" stroke-width="0"/><rect width="31.318668" height="32.471502" rx="0" ry="0" transform="matrix(0.727633 0 0 0.807722 36.769754 33.221566)" fill="#ec9b00" stroke-width="0"/></g><g transform="translate(-1.494806 -4.918873)"><rect width="31.318668" height="32.471502" rx="0" ry="0" transform="matrix(0.9 0 0 1 34.070601 30.099788)" fill="#402a01" stroke-width="0"/><rect width="31.318668" height="32.471502" rx="0" ry="0" transform="matrix(0.727633 0 0 0.807722 36.769754 33.221566)" fill="#ec9b00" stroke-width="0"/></g></g><rect width="112.155776" height="5.504578" rx="0" ry="0" transform="translate(26.037201 62.427428)" fill="#090909" stroke-width="0"/></g><g transform="translate(-0.917135 240.067993)"><g transform="translate(0.000001 0)"><g transform="translate(67.175918 -4.918873)"><rect width="31.318668" height="32.471502" rx="0" ry="0" transform="matrix(0.9 0 0 1 34.070601 30.099788)" fill="#402a01" stroke-width="0"/><rect width="31.318668" height="32.471502" rx="0" ry="0" transform="matrix(0.727633 0 0 0.807722 36.769754 33.221566)" fill="#ec9b00" stroke-width="0"/></g><g transform="translate(33.721803 -4.918872)"><rect width="31.318668" height="32.471502" rx="0" ry="0" transform="matrix(0.9 0 0 1 34.070601 30.099788)" fill="#402a01" stroke-width="0"/><rect width="31.318668" height="32.471502" rx="0" ry="0" transform="matrix(0.727633 0 0 0.807722 36.769754 33.221566)" fill="#ec9b00" stroke-width="0"/></g><g transform="translate(-1.494806 -4.918873)"><rect width="31.318668" height="32.471502" rx="0" ry="0" transform="matrix(0.9 0 0 1 34.070601 30.099788)" fill="#402a01" stroke-width="0"/><rect width="31.318668" height="32.471502" rx="0" ry="0" transform="matrix(0.727633 0 0 0.807722 36.769754 33.221566)" fill="#ec9b00" stroke-width="0"/></g></g><rect width="112.155776" height="5.504578" rx="0" ry="0" transform="translate(26.037201 62.427428)" fill="#090909" stroke-width="0"/></g><g transform="matrix(0.996886 0 0 0.940068 -0.945446 -96.373878)"><g transform="translate(0.000001 0)"><g transform="translate(67.175918 -4.918873)"><rect width="31.318668" height="32.471502" rx="0" ry="0" transform="matrix(0.9 0 0 1 34.070601 30.099788)" fill="#402a01" stroke-width="0"/><rect width="31.318668" height="32.471502" rx="0" ry="0" transform="matrix(0.727633 0 0 0.807722 36.769754 33.221566)" fill="#ec9b00" stroke-width="0"/></g><g transform="translate(33.721803 -4.918872)"><rect width="31.318668" height="32.471502" rx="0" ry="0" transform="matrix(0.9 0 0 1 34.070601 30.099788)" fill="#402a01" stroke-width="0"/><rect width="31.318668" height="32.471502" rx="0" ry="0" transform="matrix(0.727633 0 0 0.807722 36.769754 33.221566)" fill="#ec9b00" stroke-width="0"/></g><g transform="translate(-1.494806 -4.918873)"><rect width="31.318668" height="32.471502" rx="0" ry="0" transform="matrix(0.9 0 0 1 34.070601 30.099788)" fill="#402a01" stroke-width="0"/><rect width="31.318668" height="32.471502" rx="0" ry="0" transform="matrix(0.727633 0 0 0.807722 36.769754 33.221566)" fill="#ec9b00" stroke-width="0"/></g></g><rect width="112.155776" height="5.504578" rx="0" ry="0" transform="translate(26.037201 62.427428)" fill="#090909" stroke-width="0"/></g><g transform="matrix(0.996886 0 0 0.940068 -1.349279 -2.068997)"><g transform="translate(0.000001 0)"><g transform="translate(67.175918 -4.918873)"><rect width="31.318668" height="32.471502" rx="0" ry="0" transform="matrix(0.9 0 0 1 34.070601 30.099788)" fill="#402a01" stroke-width="0"/><rect width="31.318668" height="32.471502" rx="0" ry="0" transform="matrix(0.727633 0 0 0.807722 36.769754 33.221566)" fill="#ec9b00" stroke-width="0"/></g><g transform="translate(33.721803 -4.918872)"><rect width="31.318668" height="32.471502" rx="0" ry="0" transform="matrix(0.9 0 0 1 34.070601 30.099788)" fill="#402a01" stroke-width="0"/><rect width="31.318668" height="32.471502" rx="0" ry="0" transform="matrix(0.727633 0 0 0.807722 36.769754 33.221566)" fill="#ec9b00" stroke-width="0"/></g><g transform="translate(-1.494806 -4.918873)"><rect width="31.318668" height="32.471502" rx="0" ry="0" transform="matrix(0.9 0 0 1 34.070601 30.099788)" fill="#402a01" stroke-width="0"/><rect width="31.318668" height="32.471502" rx="0" ry="0" transform="matrix(0.727633 0 0 0.807722 36.769754 33.221566)" fill="#ec9b00" stroke-width="0"/></g></g><rect width="112.155776" height="5.504578" rx="0" ry="0" transform="translate(26.037201 62.427428)" fill="#090909" stroke-width="0"/></g><g transform="matrix(0.996882 0 0 1 -0.944897 -152.002275)"><g transform="translate(0.000001 0)"><g transform="translate(67.175918 -4.918873)"><rect width="31.318668" height="32.471502" rx="0" ry="0" transform="matrix(0.9 0 0 1 34.070601 30.099788)" fill="#402a01" stroke-width="0"/><rect width="31.318668" height="32.471502" rx="0" ry="0" transform="matrix(0.727633 0 0 0.807722 36.769754 33.221566)" fill="#ec9b00" stroke-width="0"/></g><g transform="translate(33.721803 -4.918872)"><rect width="31.318668" height="32.471502" rx="0" ry="0" transform="matrix(0.9 0 0 1 34.070601 30.099788)" fill="#402a01" stroke-width="0"/><rect width="31.318668" height="32.471502" rx="0" ry="0" transform="matrix(0.727633 0 0 0.807722 36.769754 33.221566)" fill="#ec9b00" stroke-width="0"/></g><g transform="translate(-1.494806 -4.918873)"><rect width="31.318668" height="32.471502" rx="0" ry="0" transform="matrix(0.9 0 0 1 34.070601 30.099788)" fill="#402a01" stroke-width="0"/><rect width="31.318668" height="32.471502" rx="0" ry="0" transform="matrix(0.727633 0 0 0.807722 36.769754 33.221566)" fill="#ec9b00" stroke-width="0"/></g></g><rect width="112.155776" height="5.504578" rx="0" ry="0" transform="translate(26.037201 62.427428)" fill="#090909" stroke-width="0"/></g></g><g transform="matrix(0.618502 0 0 0.613814 445.027407 317.802127)"><rect width="111.69721" height="283.773604" rx="0" ry="0" transform="matrix(1 0 0 1.602233 25.120066 -136.19426)" fill="#11151e" stroke-width="0"/><g transform="translate(0 0.000001)"><g transform="translate(0.000001 0)"><g transform="translate(67.175918 -4.918873)"><rect width="31.318668" height="32.471502" rx="0" ry="0" transform="matrix(0.9 0 0 1 34.070601 30.099788)" fill="#402a01" stroke-width="0"/><rect width="31.318668" height="32.471502" rx="0" ry="0" transform="matrix(0.727633 0 0 0.807722 36.769754 33.221566)" fill="#ec9b00" stroke-width="0"/></g><g transform="translate(33.721803 -4.918872)"><rect width="31.318668" height="32.471502" rx="0" ry="0" transform="matrix(0.9 0 0 1 34.070601 30.099788)" fill="#402a01" stroke-width="0"/><rect width="31.318668" height="32.471502" rx="0" ry="0" transform="matrix(0.727633 0 0 0.807722 36.769754 33.221566)" fill="#ec9b00" stroke-width="0"/></g><g transform="translate(-1.494806 -4.918873)"><rect width="31.318668" height="32.471502" rx="0" ry="0" transform="matrix(0.9 0 0 1 34.070601 30.099788)" fill="#402a01" stroke-width="0"/><rect width="31.318668" height="32.471502" rx="0" ry="0" transform="matrix(0.727633 0 0 0.807722 36.769754 33.221566)" fill="#ec9b00" stroke-width="0"/></g></g><rect width="112.155776" height="5.504578" rx="0" ry="0" transform="translate(26.037201 62.427428)" fill="#090909" stroke-width="0"/></g><g transform="translate(-1.375702 -51.031407)"><g transform="translate(0.000001 0)"><g transform="translate(67.175918 -4.918873)"><rect width="31.318668" height="32.471502" rx="0" ry="0" transform="matrix(0.9 0 0 1 34.070601 30.099788)" fill="#402a01" stroke-width="0"/><rect width="31.318668" height="32.471502" rx="0" ry="0" transform="matrix(0.727633 0 0 0.807722 36.769754 33.221566)" fill="#ec9b00" stroke-width="0"/></g><g transform="translate(33.721803 -4.918872)"><rect width="31.318668" height="32.471502" rx="0" ry="0" transform="matrix(0.9 0 0 1 34.070601 30.099788)" fill="#402a01" stroke-width="0"/><rect width="31.318668" height="32.471502" rx="0" ry="0" transform="matrix(0.727633 0 0 0.807722 36.769754 33.221566)" fill="#ec9b00" stroke-width="0"/></g><g transform="translate(-1.494806 -4.918873)"><rect width="31.318668" height="32.471502" rx="0" ry="0" transform="matrix(0.9 0 0 1 34.070601 30.099788)" fill="#402a01" stroke-width="0"/><rect width="31.318668" height="32.471502" rx="0" ry="0" transform="matrix(0.727633 0 0 0.807722 36.769754 33.221566)" fill="#ec9b00" stroke-width="0"/></g></g><rect width="112.155776" height="5.504578" rx="0" ry="0" transform="translate(26.037201 62.427428)" fill="#090909" stroke-width="0"/></g><g transform="translate(-0.458567 49.724791)"><g transform="translate(0.000001 0)"><g transform="translate(67.175918 -4.918873)"><rect width="31.318668" height="32.471502" rx="0" ry="0" transform="matrix(0.9 0 0 1 34.070601 30.099788)" fill="#402a01" stroke-width="0"/><rect width="31.318668" height="32.471502" rx="0" ry="0" transform="matrix(0.727633 0 0 0.807722 36.769754 33.221566)" fill="#ec9b00" stroke-width="0"/></g><g transform="translate(33.721803 -4.918872)"><rect width="31.318668" height="32.471502" rx="0" ry="0" transform="matrix(0.9 0 0 1 34.070601 30.099788)" fill="#402a01" stroke-width="0"/><rect width="31.318668" height="32.471502" rx="0" ry="0" transform="matrix(0.727633 0 0 0.807722 36.769754 33.221566)" fill="#ec9b00" stroke-width="0"/></g><g transform="translate(-1.494806 -4.918873)"><rect width="31.318668" height="32.471502" rx="0" ry="0" transform="matrix(0.9 0 0 1 34.070601 30.099788)" fill="#402a01" stroke-width="0"/><rect width="31.318668" height="32.471502" rx="0" ry="0" transform="matrix(0.727633 0 0 0.807722 36.769754 33.221566)" fill="#ec9b00" stroke-width="0"/></g></g><rect width="112.155776" height="5.504578" rx="0" ry="0" transform="translate(26.037201 62.427428)" fill="#090909" stroke-width="0"/></g><g transform="translate(0 96.429882)"><g transform="translate(0.000001 0)"><g transform="translate(67.175918 -4.918873)"><rect width="31.318668" height="32.471502" rx="0" ry="0" transform="matrix(0.9 0 0 1 34.070601 30.099788)" fill="#402a01" stroke-width="0"/><rect width="31.318668" height="32.471502" rx="0" ry="0" transform="matrix(0.727633 0 0 0.807722 36.769754 33.221566)" fill="#ec9b00" stroke-width="0"/></g><g transform="translate(33.721803 -4.918872)"><rect width="31.318668" height="32.471502" rx="0" ry="0" transform="matrix(0.9 0 0 1 34.070601 30.099788)" fill="#402a01" stroke-width="0"/><rect width="31.318668" height="32.471502" rx="0" ry="0" transform="matrix(0.727633 0 0 0.807722 36.769754 33.221566)" fill="#ec9b00" stroke-width="0"/></g><g transform="translate(-1.494806 -4.918873)"><rect width="31.318668" height="32.471502" rx="0" ry="0" transform="matrix(0.9 0 0 1 34.070601 30.099788)" fill="#402a01" stroke-width="0"/><rect width="31.318668" height="32.471502" rx="0" ry="0" transform="matrix(0.727633 0 0 0.807722 36.769754 33.221566)" fill="#ec9b00" stroke-width="0"/></g></g><rect width="112.155776" height="5.504578" rx="0" ry="0" transform="translate(26.037201 62.427428)" fill="#090909" stroke-width="0"/></g><g transform="translate(-0.687851 143.747288)"><g transform="translate(0.000001 0)"><g transform="translate(67.175918 -4.918873)"><rect width="31.318668" height="32.471502" rx="0" ry="0" transform="matrix(0.9 0 0 1 34.070601 30.099788)" fill="#402a01" stroke-width="0"/><rect width="31.318668" height="32.471502" rx="0" ry="0" transform="matrix(0.727633 0 0 0.807722 36.769754 33.221566)" fill="#ec9b00" stroke-width="0"/></g><g transform="translate(33.721803 -4.918872)"><rect width="31.318668" height="32.471502" rx="0" ry="0" transform="matrix(0.9 0 0 1 34.070601 30.099788)" fill="#402a01" stroke-width="0"/><rect width="31.318668" height="32.471502" rx="0" ry="0" transform="matrix(0.727633 0 0 0.807722 36.769754 33.221566)" fill="#ec9b00" stroke-width="0"/></g><g transform="translate(-1.494806 -4.918873)"><rect width="31.318668" height="32.471502" rx="0" ry="0" transform="matrix(0.9 0 0 1 34.070601 30.099788)" fill="#402a01" stroke-width="0"/><rect width="31.318668" height="32.471502" rx="0" ry="0" transform="matrix(0.727633 0 0 0.807722 36.769754 33.221566)" fill="#ec9b00" stroke-width="0"/></g></g><rect width="112.155776" height="5.504578" rx="0" ry="0" transform="translate(26.037201 62.427428)" fill="#090909" stroke-width="0"/></g><g transform="translate(-0.687852 190.584186)"><g transform="translate(0.000001 0)"><g transform="translate(67.175918 -4.918873)"><rect width="31.318668" height="32.471502" rx="0" ry="0" transform="matrix(0.9 0 0 1 34.070601 30.099788)" fill="#402a01" stroke-width="0"/><rect width="31.318668" height="32.471502" rx="0" ry="0" transform="matrix(0.727633 0 0 0.807722 36.769754 33.221566)" fill="#ec9b00" stroke-width="0"/></g><g transform="translate(33.721803 -4.918872)"><rect width="31.318668" height="32.471502" rx="0" ry="0" transform="matrix(0.9 0 0 1 34.070601 30.099788)" fill="#402a01" stroke-width="0"/><rect width="31.318668" height="32.471502" rx="0" ry="0" transform="matrix(0.727633 0 0 0.807722 36.769754 33.221566)" fill="#ec9b00" stroke-width="0"/></g><g transform="translate(-1.494806 -4.918873)"><rect width="31.318668" height="32.471502" rx="0" ry="0" transform="matrix(0.9 0 0 1 34.070601 30.099788)" fill="#402a01" stroke-width="0"/><rect width="31.318668" height="32.471502" rx="0" ry="0" transform="matrix(0.727633 0 0 0.807722 36.769754 33.221566)" fill="#ec9b00" stroke-width="0"/></g></g><rect width="112.155776" height="5.504578" rx="0" ry="0" transform="translate(26.037201 62.427428)" fill="#090909" stroke-width="0"/></g><g transform="translate(-0.917135 240.067993)"><g transform="translate(0.000001 0)"><g transform="translate(67.175918 -4.918873)"><rect width="31.318668" height="32.471502" rx="0" ry="0" transform="matrix(0.9 0 0 1 34.070601 30.099788)" fill="#402a01" stroke-width="0"/><rect width="31.318668" height="32.471502" rx="0" ry="0" transform="matrix(0.727633 0 0 0.807722 36.769754 33.221566)" fill="#ec9b00" stroke-width="0"/></g><g transform="translate(33.721803 -4.918872)"><rect width="31.318668" height="32.471502" rx="0" ry="0" transform="matrix(0.9 0 0 1 34.070601 30.099788)" fill="#402a01" stroke-width="0"/><rect width="31.318668" height="32.471502" rx="0" ry="0" transform="matrix(0.727633 0 0 0.807722 36.769754 33.221566)" fill="#ec9b00" stroke-width="0"/></g><g transform="translate(-1.494806 -4.918873)"><rect width="31.318668" height="32.471502" rx="0" ry="0" transform="matrix(0.9 0 0 1 34.070601 30.099788)" fill="#402a01" stroke-width="0"/><rect width="31.318668" height="32.471502" rx="0" ry="0" transform="matrix(0.727633 0 0 0.807722 36.769754 33.221566)" fill="#ec9b00" stroke-width="0"/></g></g><rect width="112.155776" height="5.504578" rx="0" ry="0" transform="translate(26.037201 62.427428)" fill="#090909" stroke-width="0"/></g><g transform="translate(0 -99.455316)"><g transform="translate(0.000001 0)"><g transform="translate(67.175918 -4.918873)"><rect width="31.318668" height="32.471502" rx="0" ry="0" transform="matrix(0.9 0 0 1 34.070601 30.099788)" fill="#402a01" stroke-width="0"/><rect width="31.318668" height="32.471502" rx="0" ry="0" transform="matrix(0.727633 0 0 0.807722 36.769754 33.221566)" fill="#ec9b00" stroke-width="0"/></g><g transform="translate(33.721803 -4.918872)"><rect width="31.318668" height="32.471502" rx="0" ry="0" transform="matrix(0.9 0 0 1 34.070601 30.099788)" fill="#402a01" stroke-width="0"/><rect width="31.318668" height="32.471502" rx="0" ry="0" transform="matrix(0.727633 0 0 0.807722 36.769754 33.221566)" fill="#ec9b00" stroke-width="0"/></g><g transform="translate(-1.494806 -4.918873)"><rect width="31.318668" height="32.471502" rx="0" ry="0" transform="matrix(0.9 0 0 1 34.070601 30.099788)" fill="#402a01" stroke-width="0"/><rect width="31.318668" height="32.471502" rx="0" ry="0" transform="matrix(0.727633 0 0 0.807722 36.769754 33.221566)" fill="#ec9b00" stroke-width="0"/></g></g><rect width="112.155776" height="5.504578" rx="0" ry="0" transform="translate(26.037201 62.427428)" fill="#090909" stroke-width="0"/></g><g transform="translate(0 -152.002275)"><g transform="translate(0.000001 0)"><g transform="translate(67.175918 -4.918873)"><rect width="31.318668" height="32.471502" rx="0" ry="0" transform="matrix(0.9 0 0 1 34.070601 30.099788)" fill="#402a01" stroke-width="0"/><rect width="31.318668" height="32.471502" rx="0" ry="0" transform="matrix(0.727633 0 0 0.807722 36.769754 33.221566)" fill="#ec9b00" stroke-width="0"/></g><g transform="translate(33.721803 -4.918872)"><rect width="31.318668" height="32.471502" rx="0" ry="0" transform="matrix(0.9 0 0 1 34.070601 30.099788)" fill="#402a01" stroke-width="0"/><rect width="31.318668" height="32.471502" rx="0" ry="0" transform="matrix(0.727633 0 0 0.807722 36.769754 33.221566)" fill="#ec9b00" stroke-width="0"/></g><g transform="translate(-1.494806 -4.918873)"><rect width="31.318668" height="32.471502" rx="0" ry="0" transform="matrix(0.9 0 0 1 34.070601 30.099788)" fill="#402a01" stroke-width="0"/><rect width="31.318668" height="32.471502" rx="0" ry="0" transform="matrix(0.727633 0 0 0.807722 36.769754 33.221566)" fill="#ec9b00" stroke-width="0"/></g></g><rect width="112.155776" height="5.504578" rx="0" ry="0" transform="translate(26.037201 62.427428)" fill="#090909" stroke-width="0"/></g></g></svg>
